<?xml version="1.0" encoding="UTF-8"?>
<svg id="Layer_2" data-name="Layer 2" xmlns="http://www.w3.org/2000/svg" xmlns:xlink="http://www.w3.org/1999/xlink" viewBox="0 0 1918.15 1080" preserveAspectRatio="none">
  <defs>
    <style>
      .cls-1 {
        fill: #c4cacc;
      }

      .cls-1, .cls-2, .cls-3, .cls-4 {
        stroke-width: 0px;
      }

      .cls-2 {
        fill: none;
      }

      .cls-3 {
        fill: #dfe5e8;
      }

      .cls-4 {
        fill: #d5dce0;
      }

      .cls-5 {
        clip-path: url(#clippath);
      }
    </style>
    <clipPath id="clippath">
      <rect class="cls-2" width="1918.15" height="1080"/>
    </clipPath>
  </defs>
  <g id="Layer_1-2" data-name="Layer 1">
    <g class="cls-5">
      <rect class="cls-1" x="-1.94" width="1920" height="1080"/>
      <path class="cls-4" d="m-348.47,1076.35c16.23-14.15,39.51-33.67,68.84-55.63,77-57.66,135.78-87.36,155.29-96.91,66.29-32.47,96.39-36.76,107.66-38.07,26.95-3.13,53.06-1.63,76.94-.25,60.91,3.52,66.16,11.97,94.98,6.92,6.37-1.12,48.73-9.1,76.94-41.54,4.45-5.12,12.57-15.47,23.11-45.24,14.61-41.28,18.04-75.13,19.45-89.99,5.04-53.34,4.34-76.76,7.33-137.71,2.55-52.12,3.83-78.18,7.89-107.79,5.58-40.62,10.71-78.02,28.47-123.62,16.47-42.3,30.62-78.64,68.49-114.47,54-51.1,119.25-66.16,138.94-70.46,46.57-10.18,83.59-7.19,129.93-3.46,47.26,3.81,86.2,12.46,131.33,22.5,37.84,8.41,66.11,16.2,78.07,19.53,107.43,29.88,208.97,63.73,229.98,70.71,99.02,32.88,177.07,58.8,280.71,85.3,143.09,36.58,215.6,43.74,260.13,46.48,85.14,5.24,132.91-1.67,153.6-5.19,71.92-12.23,126.92-36.21,161.7-54.39v736.94H-348.47v-3.65Z"/>
      <path class="cls-3" d="m-271.46,1080c25.68-5.19,62.35-13.07,105.93-24.15,75.85-19.28,170.46-43.78,276.8-92.57,66.42-30.47,110.09-50.51,160.32-91.5,37.37-30.5,98.74-81.82,124.2-163.42,13.29-42.61,13.44-82.73,13.39-97.2-.13-41.01-7.47-47.03-11.77-92.93-4.74-50.58-9.33-99.59,15.02-152.39,9.62-20.85,27.44-58.06,71.03-82.25,24.07-13.35,48.77-18.72,79.96-21.72,97.61-9.37,179.11,12.19,197.66,17.09,23.12,6.11,220.1,56.29,266.25,69.78,122.61,35.86,223.77,65.24,355.14,93.64,73.67,15.93,155.65,31.29,257.73,34.18,65.14,1.84,113.69-2.09,164.38-14.95,49.49-12.56,87.85-30.28,113.58-44.15v662.53H-271.46Z"/>
    </g>
  </g>
</svg>