<?xml version="1.0" encoding="UTF-8"?>
<svg id="Layer_2" data-name="Layer 2" xmlns="http://www.w3.org/2000/svg" viewBox="0 0 74.59 74.59">
  <defs>
    <style>
      .cls-1 {
        fill: none;
      }

      .cls-1, .cls-2 {
        stroke: #000;
      }

      .cls-1, .cls-2, .cls-3 {
        stroke-miterlimit: 10;
      }

      .cls-4, .cls-5 {
        stroke-width: 0px;
      }

      .cls-5, .cls-3 {
        fill: #fff;
      }

      .cls-3 {
        stroke: #fff;
      }
    </style>
  </defs>
  <g id="Layer_2-2" data-name="Layer 2">
    <g>
      <circle class="cls-5" cx="37.29" cy="37.29" r="36.79"/>
      <circle class="cls-5" cx="37.29" cy="37.29" r="30.09"/>
      <g>
        <rect class="cls-5" x="34.15" y="25.01" width="4.08" height="18"/>
        <rect class="cls-5" x="34.3" y="38.93" width="18" height="4.09"/>
        <rect class="cls-5" x="34.15" y="22.82" width="4.08" height="5.37" rx="2.04" ry="2.04"/>
        <rect class="cls-5" x="48.97" y="38.93" width="5.44" height="4.09" rx="2.04" ry="2.04"/>
      </g>
    </g>
    <g>
      <circle class="cls-2" cx="37.29" cy="37.29" r="36.79"/>
      <circle class="cls-3" cx="37.29" cy="37.29" r="30.09"/>
      <g>
        <rect class="cls-4" x="34.15" y="25.01" width="4.08" height="18"/>
        <rect class="cls-4" x="34.3" y="38.93" width="18" height="4.09"/>
        <rect class="cls-4" x="34.15" y="22.82" width="4.08" height="5.37" rx="2.04" ry="2.04"/>
        <rect class="cls-4" x="48.97" y="38.93" width="5.44" height="4.09" rx="2.04" ry="2.04"/>
      </g>
    </g>
    <g>
      <circle class="cls-1" cx="37.29" cy="37.29" r="36.79"/>
      <circle class="cls-1" cx="37.29" cy="37.29" r="30.09"/>
      <g>
        <rect class="cls-1" x="34.15" y="25.01" width="4.08" height="18"/>
        <rect class="cls-1" x="34.3" y="38.93" width="18" height="4.09"/>
        <rect class="cls-1" x="34.15" y="22.82" width="4.08" height="5.37" rx="2.04" ry="2.04"/>
        <rect class="cls-1" x="48.97" y="38.93" width="5.44" height="4.09" rx="2.04" ry="2.04"/>
      </g>
    </g>
  </g>
</svg>