<?xml version="1.0" encoding="UTF-8"?>
<svg id="Layer_2" data-name="Layer 2" xmlns="http://www.w3.org/2000/svg" viewBox="0 0 122.46 172.6">
  <defs>
    <style>
      .cls-1 {
        fill: #628ca1;
      }

      .cls-1, .cls-2, .cls-3, .cls-4, .cls-5, .cls-6, .cls-7, .cls-8, .cls-9, .cls-10, .cls-11, .cls-12, .cls-13, .cls-14, .cls-15, .cls-16, .cls-17, .cls-18, .cls-19, .cls-20, .cls-21, .cls-22, .cls-23, .cls-24, .cls-25, .cls-26, .cls-27, .cls-28, .cls-29, .cls-30, .cls-31, .cls-32, .cls-33, .cls-34, .cls-35, .cls-36, .cls-37, .cls-38, .cls-39, .cls-40, .cls-41, .cls-42, .cls-43, .cls-44, .cls-45, .cls-46, .cls-47, .cls-48, .cls-49, .cls-50, .cls-51, .cls-52, .cls-53, .cls-54, .cls-55, .cls-56, .cls-57, .cls-58, .cls-59, .cls-60, .cls-61, .cls-62, .cls-63, .cls-64, .cls-65, .cls-66, .cls-67, .cls-68, .cls-69, .cls-70, .cls-71, .cls-72, .cls-73, .cls-74, .cls-75, .cls-76, .cls-77, .cls-78, .cls-79, .cls-80, .cls-81, .cls-82, .cls-83, .cls-84, .cls-85, .cls-86, .cls-87, .cls-88, .cls-89, .cls-90, .cls-91, .cls-92, .cls-93, .cls-94, .cls-95, .cls-96, .cls-97, .cls-98, .cls-99, .cls-100, .cls-101, .cls-102, .cls-103, .cls-104, .cls-105, .cls-106, .cls-107, .cls-108, .cls-109, .cls-110, .cls-111, .cls-112, .cls-113, .cls-114, .cls-115, .cls-116, .cls-117, .cls-118, .cls-119, .cls-120, .cls-121, .cls-122, .cls-123, .cls-124, .cls-125, .cls-126, .cls-127, .cls-128, .cls-129, .cls-130, .cls-131, .cls-132, .cls-133, .cls-134, .cls-135, .cls-136, .cls-137, .cls-138, .cls-139, .cls-140, .cls-141, .cls-142, .cls-143, .cls-144, .cls-145, .cls-146, .cls-147, .cls-148, .cls-149, .cls-150, .cls-151, .cls-152, .cls-153, .cls-154, .cls-155, .cls-156, .cls-157, .cls-158, .cls-159, .cls-160, .cls-161, .cls-162, .cls-163, .cls-164, .cls-165, .cls-166, .cls-167, .cls-168, .cls-169, .cls-170, .cls-171, .cls-172, .cls-173, .cls-174, .cls-175, .cls-176, .cls-177, .cls-178, .cls-179, .cls-180, .cls-181, .cls-182, .cls-183, .cls-184, .cls-185, .cls-186, .cls-187, .cls-188, .cls-189, .cls-190, .cls-191, .cls-192, .cls-193, .cls-194, .cls-195, .cls-196 {
        stroke-width: 0px;
      }

      .cls-2 {
        fill: #2c5174;
      }

      .cls-3 {
        fill: #d6b234;
      }

      .cls-4 {
        fill: #f7de60;
      }

      .cls-5 {
        fill: #3b609c;
      }

      .cls-6 {
        fill: #4a7ead;
      }

      .cls-7 {
        fill: #5f6ea4;
      }

      .cls-8 {
        fill: #f1df4e;
      }

      .cls-9 {
        fill: #2a5797;
      }

      .cls-10 {
        fill: #5786a7;
      }

      .cls-11 {
        fill: #debe36;
      }

      .cls-12 {
        fill: #c0bb5d;
      }

      .cls-13 {
        fill: #e9cb5a;
      }

      .cls-14 {
        fill: #cba436;
      }

      .cls-15 {
        fill: #45759c;
      }

      .cls-16 {
        fill: #3f69a3;
      }

      .cls-17 {
        fill: #4d6f7f;
      }

      .cls-18 {
        fill: #1a4e8f;
      }

      .cls-19 {
        fill: #2f5a99;
      }

      .cls-20 {
        fill: #eca453;
      }

      .cls-21 {
        fill: #b3b469;
      }

      .cls-22 {
        fill: #546ba3;
      }

      .cls-23 {
        fill: #4967a1;
      }

      .cls-24 {
        fill: #2e619e;
      }

      .cls-25 {
        fill: #285d9b;
      }

      .cls-26 {
        fill: #6f919f;
      }

      .cls-27 {
        fill: #edd53d;
      }

      .cls-28 {
        fill: #5582a2;
      }

      .cls-29 {
        fill: #e7ca40;
      }

      .cls-30 {
        fill: #9faa78;
      }

      .cls-31 {
        fill: #d1aa33;
      }

      .cls-32 {
        fill: #f0dc48;
      }

      .cls-33 {
        fill: #1e3f77;
      }

      .cls-34 {
        fill: #e3c649;
      }

      .cls-35 {
        fill: #f5d978;
      }

      .cls-36 {
        fill: #f7da76;
      }

      .cls-37 {
        fill: #f3d87a;
      }

      .cls-38 {
        fill: #335c99;
      }

      .cls-39 {
        fill: #1c2430;
      }

      .cls-40 {
        fill: #1e2329;
      }

      .cls-41 {
        fill: #5280a3;
      }

      .cls-42 {
        fill: #1b2b42;
      }

      .cls-43 {
        fill: #a9ae72;
      }

      .cls-44 {
        fill: #2c5e9c;
      }

      .cls-45 {
        fill: #a4ad74;
      }

      .cls-46 {
        fill: #5c879d;
      }

      .cls-47 {
        fill: #5787a7;
      }

      .cls-48 {
        fill: #487eae;
      }

      .cls-49 {
        fill: #2e5b98;
      }

      .cls-50 {
        fill: #477daf;
      }

      .cls-51 {
        fill: #6c709c;
      }

      .cls-52 {
        fill: #4365a0;
      }

      .cls-53 {
        fill: #4966a1;
      }

      .cls-54 {
        fill: #2e5e99;
      }

      .cls-55 {
        fill: #2a5998;
      }

      .cls-56 {
        fill: #1b2c44;
      }

      .cls-57 {
        fill: #255999;
      }

      .cls-58 {
        fill: #638da0;
      }

      .cls-59 {
        fill: #2c4d6d;
      }

      .cls-60 {
        fill: #9eaa79;
      }

      .cls-61 {
        fill: #f5d876;
      }

      .cls-62 {
        fill: #233d5b;
      }

      .cls-63 {
        fill: #e9cc51;
      }

      .cls-64 {
        fill: #dab836;
      }

      .cls-65 {
        fill: #556ca3;
      }

      .cls-66 {
        fill: #ecce56;
      }

      .cls-67 {
        fill: #1c4d8f;
      }

      .cls-68 {
        fill: #c1bb5b;
      }

      .cls-69 {
        fill: #2a5d9b;
      }

      .cls-70 {
        fill: #4478a9;
      }

      .cls-71 {
        fill: #7b9991;
      }

      .cls-72 {
        fill: #1d5294;
      }

      .cls-73 {
        fill: #c8bf54;
      }

      .cls-74 {
        fill: #4577ac;
      }

      .cls-75 {
        fill: #b0b26b;
      }

      .cls-76 {
        fill: #626c9d;
      }

      .cls-77 {
        fill: #e7ca36;
      }

      .cls-78 {
        fill: #2d5a99;
      }

      .cls-79 {
        fill: #8fa282;
      }

      .cls-80 {
        fill: #212426;
      }

      .cls-81 {
        fill: #325f9c;
      }

      .cls-82 {
        fill: #dbbe3e;
      }

      .cls-83 {
        fill: #215797;
      }

      .cls-84 {
        fill: #f6db7b;
      }

      .cls-85 {
        fill: #d0ab33;
      }

      .cls-86 {
        fill: #688b94;
      }

      .cls-87 {
        fill: #497eae;
      }

      .cls-88 {
        fill: #596ca2;
      }

      .cls-89 {
        fill: #f2d56f;
      }

      .cls-90 {
        fill: #e2c133;
      }

      .cls-91 {
        fill: #cca434;
      }

      .cls-92 {
        fill: #e2c444;
      }

      .cls-93 {
        fill: #c2bc5a;
      }

      .cls-94 {
        fill: #223b58;
      }

      .cls-95 {
        fill: #ddc146;
      }

      .cls-96 {
        fill: #e8cb4f;
      }

      .cls-97 {
        fill: #215394;
      }

      .cls-98 {
        fill: #7f9789;
      }

      .cls-99 {
        fill: #255595;
      }

      .cls-100 {
        fill: #477aa9;
      }

      .cls-101 {
        fill: #213964;
      }

      .cls-102 {
        fill: #beba5f;
      }

      .cls-103 {
        fill: #b7b665;
      }

      .cls-104 {
        fill: #5468a0;
      }

      .cls-105 {
        fill: #1b2d46;
      }

      .cls-106 {
        fill: #395e9b;
      }

      .cls-107 {
        fill: #d3af34;
      }

      .cls-108 {
        fill: #356a99;
      }

      .cls-109 {
        fill: #3d619d;
      }

      .cls-110 {
        fill: #1a2638;
      }

      .cls-111 {
        fill: #4567a1;
      }

      .cls-112 {
        fill: #eedc4a;
      }

      .cls-113 {
        fill: #566ca4;
      }

      .cls-114 {
        fill: #e4c643;
      }

      .cls-115 {
        fill: #55679d;
      }

      .cls-116 {
        fill: #275c9a;
      }

      .cls-117 {
        fill: #3a619e;
      }

      .cls-118 {
        fill: #456882;
      }

      .cls-119 {
        fill: #3a6ea0;
      }

      .cls-120 {
        fill: #ddba35;
      }

      .cls-121 {
        fill: #305b9a;
      }

      .cls-122 {
        fill: #5886a5;
      }

      .cls-123 {
        fill: #487dae;
      }

      .cls-124 {
        fill: #355065;
      }

      .cls-125 {
        fill: #c0bb5c;
      }

      .cls-126 {
        fill: #8a9f8c;
      }

      .cls-127 {
        fill: #1d5495;
      }

      .cls-128 {
        fill: #213a61;
      }

      .cls-129 {
        fill: #45649f;
      }

      .cls-130 {
        fill: #4b646e;
      }

      .cls-131 {
        fill: #e8c934;
      }

      .cls-132 {
        fill: #709399;
      }

      .cls-133 {
        fill: #eacc55;
      }

      .cls-134 {
        fill: #f1df4d;
      }

      .cls-135 {
        fill: #395d9a;
      }

      .cls-136 {
        fill: #f6da78;
      }

      .cls-137 {
        fill: #4e81ad;
      }

      .cls-138 {
        fill: #cca736;
      }

      .cls-139 {
        fill: #34609d;
      }

      .cls-140 {
        fill: #c4bd58;
      }

      .cls-141 {
        fill: #27528f;
      }

      .cls-142 {
        fill: #245999;
      }

      .cls-143 {
        fill: #b2b369;
      }

      .cls-144 {
        fill: #e5c748;
      }

      .cls-145 {
        fill: #293844;
      }

      .cls-146 {
        fill: #e2c234;
      }

      .cls-147 {
        fill: #b4b568;
      }

      .cls-148 {
        fill: #386b9d;
      }

      .cls-149 {
        fill: #abb06f;
      }

      .cls-150 {
        fill: #6872a6;
      }

      .cls-151 {
        fill: #a5ad74;
      }

      .cls-152 {
        fill: #204a88;
      }

      .cls-153 {
        fill: #295696;
      }

      .cls-154 {
        fill: #47619b;
      }

      .cls-155 {
        fill: #285381;
      }

      .cls-156 {
        fill: #b8b664;
      }

      .cls-157 {
        fill: #f7de3b;
      }

      .cls-158 {
        fill: #efd73e;
      }

      .cls-159 {
        fill: #cba435;
      }

      .cls-160 {
        fill: #2f5d9b;
      }

      .cls-161 {
        fill: #ddbd46;
      }

      .cls-162 {
        fill: #69929d;
      }

      .cls-163 {
        fill: #aeb16d;
      }

      .cls-164 {
        fill: #516aa2;
      }

      .cls-165 {
        fill: #f5dd57;
      }

      .cls-166 {
        fill: #6471a6;
      }

      .cls-167 {
        fill: #f4d97c;
      }

      .cls-168 {
        fill: #eccf5d;
      }

      .cls-169 {
        fill: #b5b567;
      }

      .cls-170 {
        fill: #97a67b;
      }

      .cls-171 {
        fill: #1d4884;
      }

      .cls-172 {
        fill: #2d609d;
      }

      .cls-173 {
        fill: #2c5d9b;
      }

      .cls-174 {
        fill: #4b7fad;
      }

      .cls-175 {
        fill: #c7bf54;
      }

      .cls-176 {
        fill: #dec142;
      }

      .cls-177 {
        fill: #f3db4e;
      }

      .cls-178 {
        fill: #dfbf3f;
      }

      .cls-179 {
        fill: #315e9c;
      }

      .cls-180 {
        fill: #f4d85e;
      }

      .cls-181 {
        fill: #39629f;
      }

      .cls-182 {
        fill: #879f88;
      }

      .cls-183 {
        fill: #729194;
      }

      .cls-184 {
        fill: #4f7d9f;
      }

      .cls-185 {
        fill: #1d2835;
      }

      .cls-186 {
        fill: #6c909f;
      }

      .cls-187 {
        fill: #e8a24f;
      }

      .cls-188 {
        fill: #41629e;
      }

      .cls-189 {
        fill: #3b609d;
      }

      .cls-190 {
        fill: #4f748d;
      }

      .cls-191 {
        fill: #325e9c;
      }

      .cls-192 {
        fill: #1c2d49;
      }

      .cls-193 {
        fill: #4d6aa3;
      }

      .cls-194 {
        fill: #f8db6c;
      }

      .cls-195 {
        fill: #e8ca40;
      }

      .cls-196 {
        fill: #bfba5e;
      }
    </style>
  </defs>
  <g id="Layer_1-2" data-name="Layer 1">
    <g id="gapa-of">
      <g>
        <path class="cls-20" d="m65.31,170.18c-.38.25-.76.5-1.14.75-.41.26-.83.49-1.27.69l-1.37.78c-.55.34-.98.29-1.22-.38-.17-.63-.12-1.27-.12-1.91,0-15.79,0-31.58,0-47.37,0-.75-.14-1.53.31-2.22.55-.43,1.21-.35,1.84-.35,3.08-.01,6.15-.06,9.23,0,5.35.12,10.7-.29,16.05-.25,5.59.05,11.19.04,16.78.04,1.58.02,3.16.03,4.75,0,.32,0,.87.24.84-.47-.89-2.49-1.96-4.9-2.98-7.33-.05-.1-.1-.21-.14-.32-.33-.98-.73-1.93-1.19-2.86-2.2-5.28-4.44-10.55-6.61-15.84-.16-.43-.28-.88-.51-1.28-.06-.11-.1-.21-.14-.33-3.65-8.75-7.32-17.49-10.91-26.27-.24-.59-.55-1.16-.54-1.82.13-.87.2-1.74.83-2.45.33-.38.27-.9.27-1.38,0-1.44-.02-2.88,0-4.32.03-1.53-.29-2.96-.64-4.45-.47-1.97-1.31-3.72-2.13-5.53-.36-.79-1.03-1.32-1.42-2.06-1.17-2.17-2.76-4.1-3.88-6.28-1.15-2.24-2.54-4.34-3.96-6.36-1.42-2.03-2.88-4.14-5.05-5.55-.52-.43-.71-1.04-.95-1.63-2.26-5.6-4.66-11.15-6.98-16.72-.18-.55-.41-1.07-.62-1.6-.18-.51-.4-1.01-.59-1.52-.13-.34-.31-.66-.53-.96-.16-.79-.51-1.48-1.11-2.03.08-.39.29-.6.71-.5.2.02.4.03.6.03,6.63-.09,13.25.24,19.88.1,3.55-.07,7.11-.17,10.65-.08,5.87.16,11.74.11,17.6.08,3.35-.02,6.7-.1,10.06-.1q2.71,0,2.71,2.72c0,16.18.09,32.37-.03,48.55-.08,10.35.05,20.69-.13,31.04-.06,3.52-.58,7.04-1.3,10.51v-.02c-.24.37.04.84-.19,1.21l-.04.42c-.25.48.06,1.03-.21,1.51-.46,1.48-.75,2.99-.98,4.52-.77,2.61-1.56,5.22-2.69,7.7-.19.44-.48.85-.43,1.37-.25.85-.56,1.68-.96,2.48v-.02c-.43,1.15-.78,2.33-1.48,3.36-.24.35-.38.73-.44,1.14-.84,2-1.75,3.97-2.93,5.81-.38.71-.75,1.43-1.13,2.14-.16.33-.18.73-.5.98v-.02c-.24.4-.38.87-.71,1.22v-.02c-.37.66-.66,1.37-1.18,1.94h0c-.17.45-.38.88-.8,1.18-.7,1.1-1.4,2.19-2.11,3.29-.13.44-.45.73-.76,1.03-.31.46-.61.91-.92,1.37-.14.43-.44.74-.78,1.03-.06.07-.11.15-.17.22-.3.65-.74,1.18-1.22,1.7v-.02c-.46.67-.85,1.4-1.51,1.92-.05.07-.11.13-.16.2-.21.52-.65.85-1.02,1.24-.06.07-.12.14-.17.21-.17.39-.47.68-.74.99v-.02c-.36.68-.97,1.14-1.5,1.69-.06.07-.11.13-.17.2-.42.8-1.16,1.32-1.75,1.96-.13.15-.27.3-.4.44-.85,1.27-2.05,2.21-3.1,3.29-1.08,1.11-2.14,2.25-3.32,3.26h-.01c-.38.45-.7.93-1.26,1.17-.31.29-.62.58-.93.87-.45.47-.87.98-1.47,1.28-.15.14-.3.27-.45.41-.26.34-.6.59-.97.8-.15.14-.31.27-.46.41-.27.33-.61.58-.97.79-.16.14-.31.27-.47.41-.27.34-.61.58-.97.79-.15.16-.29.32-.44.47-.35.23-.62.56-1.02.72-.07.05-.14.11-.21.16-.26.34-.59.59-.97.79h.02c-.32.25-.6.57-1.01.72-.54.41-1.07.82-1.61,1.23-.37.19-.61.57-1.03.69-.22.17-.43.35-.65.52-.38.18-.61.58-1.04.67-.93.64-1.85,1.28-2.78,1.92-.79.54-1.6,1.03-2.47,1.45Z"/>
        <path class="cls-8" d="m60.58,120.57c0,17.25,0,34.5,0,51.76-.68.05-1.16-.37-1.68-.71h.01c-.4-.23-.81-.43-1.22-.66-.33-.07-.58-.25-.79-.51-.27-.21-.64-.23-.89-.47-.25-.16-.49-.32-.74-.49-.35-.32-.82-.43-1.18-.72-1.19-.8-2.39-1.6-3.58-2.4-.35-.2-.62-.51-.97-.71-1.66-1.12-3.27-2.32-4.81-3.61-.27-.18-.51-.41-.71-.66-1.99-1.36-3.76-3-5.54-4.61-.41-.31-.75-.69-1.17-.98-.65-.63-1.3-1.26-1.95-1.9-.45-.34-.84-.73-1.17-1.19h0c-1.36-1.2-2.64-2.47-3.83-3.84l-.94-.96c-.41-.62-1.04-1.05-1.46-1.67-.23-.24-.47-.49-.7-.73-.28-.43-.69-.77-.98-1.19-.08-.08-.16-.17-.24-.25-.26-.44-.67-.76-.96-1.18-.08-.09-.16-.18-.24-.26-.26-.44-.68-.76-.95-1.19-.32-.4-.64-.81-.96-1.21-.22-.33-.49-.63-.72-.95-2.44-3.06-4.63-6.29-6.7-9.6-.26-.24-.28-.62-.49-.9-.08-.1-.16-.2-.23-.3-.3-.36-.4-.84-.72-1.18-.83-1.22-1.53-2.53-2.17-3.86-.23-.26-.27-.63-.46-.91-.91-1.27-1.48-2.71-2.13-4.12-.26-.54-.46-1.11-.74-1.64-.15-.33-.3-.66-.46-1-.24-.37-.27-.83-.5-1.19-.08-.25-.17-.49-.25-.74-.24-.27-.28-.64-.47-.94-.79-1.81-1.6-3.62-2.14-5.52-.32-.62-.45-1.31-.72-1.95v.02c-.53-1.14-.81-2.37-1.22-3.55-.61-1.97-.92-4-1.21-6.04-.26-.46.06-1.01-.21-1.48-.02-.23-.03-.46-.05-.69-.22-.47.06-1.01-.19-1.48,0-.15-.02-.29-.03-.44-.27-.45.07-1-.22-1.45h0c-.41-2.71-.64-5.43-.63-8.18.01-2.47.15-4.94-.09-7.41h.01c-.26-.35-.14-.76-.14-1.15,0-24.01,0-48.02,0-72.02,0-.45-.31-1.09.46-1.3.25.11,2.49.2,2.85.06,17.87-.05,35.74,0,53.61-.02.72,0,1.44.06,2.15-.09.49-.12.98-.42,1.44.06-.15.18-.26.38-.19.63.25.4,0,.76-.09,1.14-.15.35-.33.69-.48,1.04-.17.4-.3.81-.48,1.21-.11.26-.19.54-.29.8-1.93,4.41-3.63,8.91-5.52,13.33-.17.4-.34.81-.62,1.15-.38.43-.55.97-.76,1.48-.24.57-.57,1.14-1.17,1.3-1.12.29-1.82,1.1-2.58,1.86-.48.48-.92,1.01-1.45,1.43-1.46,1.17-2.16,2.81-2.88,4.45-.13.29-.25.6-.48.82-1.66,1.59-2.18,3.83-3.31,5.73-.74,1.25-1.09,2.73-2.26,3.74-.71.62-.87,1.6-1.3,2.39-1.02,1.92-1.91,3.91-2.96,5.82-.18.33-.19.69-.18,1.05.04.97-.04,1.9-.72,2.7-.32.38-.25.91-.25,1.39,0,1.64,0,3.27,0,4.91,0,1.03.26,1.94.64,2.94.53,1.4,1.27,3.04.2,4.64-.35.53-.54,1.16-.59,1.8-.06.89-.61,1.6-.84,2.43-2.24,5.2-4.37,10.45-6.48,15.7-.3.74-.66,1.45-.93,2.21-.29.56-.47,1.17-.74,1.75-.22.39-.38.8-.52,1.22-.28.55-.44,1.14-.7,1.7-.23.4-.37.83-.52,1.26-2.36,5.53-4.59,11.12-6.88,16.69-.49.94-.8,1.96-1.22,2.92-.62,1.33-1.13,2.71-1.7,4.06-.26.62-.67,1.19-.63,1.9.46.61,1.11.34,1.67.34,15.01.02,30.03-.07,45.04-.02.74,0,1.53-.19,2.18.39Z"/>
        <path class="cls-25" d="m87.16,63.5c1.9,4.65,3.78,9.31,5.7,13.95,1.81,4.39,3.67,8.77,5.49,13.16.15.37.25.75.38,1.13-.64.18-.6-.48-.9-.74.97,2.32,1.24,4.79,1.74,7.21.52,2.5.23,5.06.76,7.52.31,1.43.75,2.9,2.14,3.84.91.62,1.86,1.23,2.68,1.98.58.53,1.23.72,1.96.33,1.17,2.43,2.18,4.92,3.08,7.45.17,1.03-.69.79-1.14.82-1.41.08-2.82.03-4.23.03-.47,0-.95,0-1.42,0-.83-.82-.92-2.07-1.73-2.91-.15-.16-.19-.51-.42-.55-1.06-.16-1.67-1.04-2.53-1.49-1.1-.57-2.03-1.23-2.57-2.38-.28-.59-.82-.61-1.34-.38-1.53.7-3.19.65-4.81.83-.41.05-.79-.07-1.16-.21-.75-.28-1.49-.57-2.25-.82-1.75-.57-1.75-.56-2.82.96-.22.32-.42.71-.92.61-.27-.41-.04-.77.12-1.13,2.65-6.07,5.08-12.22,7.58-18.35.81-1.76,1.49-3.58,2.15-5.4.41-1.18-.47-1.64-1.22-2.18-.07-.09-.13-.19-.18-.3-.53-1.32-1.84-1.59-2.94-2.08-3.07-1.38-6.31-2.15-9.67-2.41-.59-.05-1.32,0-1.45-.75-.14-.8.56-1.37,1.12-1.53,1.46-.42,2.18-1.71,3.32-2.43,1.18-.75,2.08-1.6,2.8-2.8.5-.83,1.33-1.46,2.2-1.99,1.32-.8,1.57-2.41.73-3.73-.8-1.27-1.96-2.33-2.21-3.92-.01-.08-.05-.16-.11-.21-1.72-1.46-1.35-3.71-2.11-5.54.36-.63.97-.58,1.25-.12.52.83,1.46,1.21,1.94,2.04.57.72.91,1.54.99,2.46Z"/>
        <path class="cls-24" d="m103.25,120.07c.48,0,.96,0,1.44,0,.08.05.1.09.08.14-.03.05-.05.07-.08.07-3.51.02-7.01.04-10.52.06-11,.06-21.99.12-32.99.19-.2,0-.4.03-.59.04-4.94-.01-9.89-.04-14.83-.04-11.2-.02-22.41-.02-33.61-.04-.62,0-1.5.16-.74-.95.11.05.2.11.28.19.09.08.18.15.29.2,4.5.12,9.01.08,13.51-.02.96-.02,1.91.09,2.86.06,1.17-.04,1.33-.16,1.24-1.32-.05-.66.05-1.12.8-1.17.46-.03.57-.37.65-.73.14-.71.64-1.06,1.27-1.31,2.37-.94,4.72-1.92,7.02-3.03,1.87.05,3.71.41,5.56.7,4.33.66,8.67,1.22,13,1.85,2.84.41,5.65.99,8.5,1.29,1.19.12,2.35.42,3.56.34,2.86.26,5.72.5,8.58.75.62.04,1.21.24,1.82.34.45.07.85.06,1.1-.4.42-.96.4-2.07,1.05-2.95.83-.82,1.73-.44,2.54-.03.85.42,1.69.69,2.64.64.2-.01.43-.04.59.04,1.16.6,2.3,1.1,3.68.61.4-.14.81.34.88.82.08.55-.13,1.02-.61,1.34-.17.11-.37.14-.57.18-.46.1-1.07.12-1.02.77.05.64.6.91,1.19.98.72.09,1.44.04,2.16.04,2.56,0,5.11,0,7.67,0,.55,0,1.13-.08,1.6.33Z"/>
        <path class="cls-72" d="m52.72,19.36c1.82-4.37,3.64-8.73,5.47-13.1.2-.47.44-.93.67-1.39.36.28.21.63.13.98-.27,1.28.47,2.07,1.82,2.01,1.05-.04,1.71-.73,2.44-1.33,1.82,4.29,3.63,8.58,5.45,12.86.78,1.83,1.57,3.65,2.36,5.48.25.16.24.38.17.62-.01.21-.4-.03-.35.39.18,1.55.46,3.04,1.24,4.45,1.19,2.16,2.22,4.41,3.72,6.38.75,1.16,1.14,2.48,1.71,3.72.07.18.13.38.16.57.04.24.09.52-.17.63-.25.11-.46-.09-.6-.27-.68-.88-1.14-1.89-1.7-2.84-1.36-2.56-2.66-5.16-4.1-7.68-.76-1.33-1.56-2.69-1.56-4.34,0-1-.56-1.74-1.5-2.12-2.62-1.05-5.26-1.99-8.17-1.87-2.18.09-4.13.83-6.05,1.71-.72.33-1.28.96-1.37,1.85-.29,2.82-1.83,5.17-2.99,7.64-1.48,3.13-3.28,6.11-4.83,9.21-.47.95-1.22,1.74-1.67,2.73-.24.53-.81.72-1.09-.12.02-1,.49-1.8,1.08-2.56,1.24-1.34,1.8-3.08,2.65-4.64,1.28-2.34,2.46-4.73,3.78-7.05,1.24-2.18,1.73-4.61,1.51-7.15,0-.25,0-.5.03-.74.36-1.45,1.22-2.68,1.79-4.04Z"/>
        <path class="cls-187" d="m71.2,25.57c-.05-.23-.09-.46-.14-.69,1.52.62,2.25,2.07,3.34,3.15,1.45,1.44,2.43,3.21,3.54,4.86.76,1.13,1.6,2.3,2.15,3.64.38.93.93,1.95,1.62,2.67,1.5,1.56,2.28,3.57,3.45,5.31,1.08,1.61,1.81,3.61,2.44,5.61,1.05,3.34.56,6.62.79,9.92.04.54,0,1.06-.49,1.4-.75.52-.26,1.47-.74,2.07-.37-.74-.73-1.48-1.1-2.22-1.44-2.28-2.16-4.9-3.4-7.27-.63-1.14-1.07-2.36-1.49-3.59-.04-.44-.15-.87-.46-1.21-.14-.18-.23-.39-.28-.62-.2-1.03-.7-1.93-1.12-2.88-.65-1.75-1.48-3.43-1.97-5.24-.55-1.21-1.1-2.42-1.66-3.63-.67-.7-.76-1.65-1.13-2.49-1.08-2.49-2.06-5.03-3.13-7.53-.17-.4-.38-.8-.25-1.27Z"/>
        <path class="cls-57" d="m107.12,111.89c-.22.71-.69.87-1.28.48-.95-.62-1.83-1.36-2.8-1.95-1.35-.81-2.15-1.99-2.69-3.42-.24-.63-.62-1.2-.31-1.92.07-.17.11-.43.03-.58-.68-1.23-.3-2.58-.44-3.86-.17-1.49-.36-2.97-.79-4.44-.33-1.11-.38-2.33-.65-3.48-.21-.88-1.06-1.62-.56-2.71.58.46.44,1.38,1.1,1.74,0,0-.02,0-.02,0,.18.4.15.9.55,1.21,2.21,5.34,4.43,10.68,6.64,16.02.34,1,.71,2,1.21,2.94v-.02Z"/>
        <path class="cls-18" d="m63.26,6.53c-.73,1.76-3.15,2.22-4.45.85-.37-.39-.49-.79-.24-1.28.2-.39.4-.77.3-1.23,0-.26.07-.49.27-.67.17.12.21.32.29.5.45,1.12,1.27,1.4,2.34.8.3-.17.48-.54.89-.53.21.52.41,1.04.62,1.56Z"/>
        <path class="cls-171" d="m62.64,4.98c-.37.81-1.08,1.1-1.89,1.16-1.06.07-1.58-.59-1.62-1.93.07-.43.22-.83.49-1.18.06.05.12.1.16.17.68,1.49,1.11,1.55,2.24.31.34.43.47.96.63,1.47Z"/>
        <path class="cls-33" d="m62.01,3.51c0,.83-.41,1.26-1.24,1.18-1.02-.09-1.27-.76-1.16-1.67.05-.39.2-.73.45-1.04.4.42.56,1.49,1.47.54.36.23.42.6.48.98Z"/>
        <path class="cls-101" d="m61.53,2.53c-.04.47-.28.94-.75.86-.75-.12-.68-.83-.72-1.41.1-.37.21-.73.31-1.1.21-.16.44-.44.62,0,.21.53.55,1.03.53,1.63Z"/>
        <path class="cls-172" d="m104.69,120.28c0-.07,0-.14,0-.2,1.31,0,2.63.03,3.94-.01.6-.02,1.31.07,1.58-.72.57.71.42,1-.51.98-1.67-.05-3.34-.03-5.01-.04Z"/>
        <path class="cls-25" d="m107.12,111.91c-.73-.84-1.06-1.85-1.21-2.94.55.92.95,1.9,1.21,2.94Z"/>
        <path class="cls-25" d="m99.27,92.95c-.53-.24-.58-.71-.55-1.21.34.33.41.78.55,1.21Z"/>
        <path class="cls-112" d="m43.1,43.08c-.39.76-.92,1.45-1,2.34-.56,2.59-1.87,4.89-2.82,7.33-.87,2.23-1.82,4.42-2.7,6.64-.98,2.31-1.93,4.64-2.87,6.97-.44.53-.29,1.46-1.15,1.7-.06-1.1.69-1.93.97-2.92.13-.44.46-.8-.1-1.24-.36-.28-.14-.83-.18-1.26-.03-.35.15-.85-.16-1.03-1.12-.67-.78-1.72-.79-2.67-.03-1.68,0-3.35-.01-5.03,0-.88-.12-1.77.74-2.38.11-.08.21-.29.19-.42-.27-2.14.94-3.73,1.77-5.54.73-1.6,1.84-3.04,2.22-4.81.06-.27.39-.5.63-.71,1.15-1.02,1.6-2.44,2.12-3.8.26-.69.74-1.28,1.08-1.9.55-1.03.76-2.3,1.75-3.13,1.08-.9,1.44-2.26,1.94-3.5.16-.39.37-.69.64-.97,1.29-1.3,2.59-2.6,3.89-3.9.06-.06.11-.15.17-.16,1.84-.38,2.47-1.94,3.29-3.33-.51,1.34-1.01,2.67-1.52,4.01-.21.43-.18.91-.31,1.36-2.37,5.66-4.68,11.35-7.03,17.02-.2.48-.39.96-.77,1.33Z"/>
        <path class="cls-142" d="m32.55,68.07l.91-1.77c.68-.53,1.05-1.3,1.4-2.03.9-1.88,2.19-3.47,3.51-5.05.37-.49.66-1.05,1.14-1.45.22-.18.41-.52.77-.22.2,1.16-.69,2.03-.82,3.11-.92,1.5-1.24,3.39-2.86,4.45-.34.22-.37.69-.41,1.09-.06.53-.21,1.03-.52,1.45-.61.83-1.05,1.69-.79,2.77.06.23-.04.48-.18.68-2.28,3.34-3.29,7.25-4.84,10.91-1.66,3.93-3.24,7.9-4.5,11.99-.75,2.42-1.12,4.89-1.37,7.4-.07.67-.03,1.36.25,2-.6,1.58-.64,3.2-.33,4.84.13,1.3.93,1.77,2.15,1.86.86.06,1.71.28,2.57.4.43.15.87.15,1.31.17.2.01.4.05.6.1,12.63,1.62,25.19,3.69,37.79,5.47.58.08,1.32-.06,1.62.72-2.35-.06-4.65-.48-6.96-.82-3.53-.52-7.05-1.04-10.58-1.57-2.98-.44-5.95-.9-8.93-1.34-1.41-.21-2.83-.38-4.24-.58-1.17.36-2.29-.09-3.42-.23-2.65-.31-5.31-.61-7.95-1.02-.69-.11-1.08.02-1.37.74-.45,1.12-1.53,1.69-2.47,2.35-2.1,1.49-4.29,2.88-6.05,4.81-.46.5-1.01.85-1.66.85-1.63.02-3.26.18-4.88-.08,0-.08,0-.16,0-.24.11-.7.53-1.3.68-2,.45-1.4.99-2.75,1.68-4.05.24.56.51.89.99.17.22-.34.53-.69.93-.7,1.35-.05,2.49-.71,3.72-1.13,2.03-.69,3.46-2.83,3.09-4.93-.65-3.7-.5-7.37.36-11.03,1.3-5.57,3.33-10.9,5.36-16.23,1.15-3.02,2.27-6.05,3.54-9.02.07-.17.21-.36-.05-.51.27-.78.54-1.56.81-2.34Z"/>
        <path class="cls-83" d="m31.74,70.41c.13-.08.29-.26.39-.23.3.09.1.31.04.46-.81,2.12-1.63,4.24-2.46,6.35-2.15,5.48-4.27,10.98-5.89,16.65-.98,3.4-1.59,6.89-1.38,10.47.09,1.6.74,3.14.34,4.78-.39,1.58-1.44,3.09-3.37,3.51-.19.04-.46.05-.55.17-.71.94-1.75.8-2.72.85-.48.03-.94.17-1.06.62-.2.81-.78.76-1.38.8.03-.38.06-.72.09-1.07.22-1.03.68-1.96,1.2-2.86,1.07.15,1.87-.22,2.58-1.07.56-.67,1.48-.92,2.28-1.29.72-.33,1.06-.74,1.1-1.62.25-5.78,1.1-11.47,2.98-16.97.13-.38.28-.75.47-1.1.11-.21.3-.38.28-.64-.08.23-.21.29-.42.16,2.46-6.01,4.82-12.06,7.47-17.98Z"/>
        <path class="cls-127" d="m24.27,88.4c.13-.08.31-.25.4-.21.33.15.18.44.08.66-1.01,2.29-1.54,4.73-2.11,7.15-.46,1.95-.73,3.95-1.13,5.91-.24,1.19.45,2.31.09,3.54-.2.67-.7,1.38-.23,2.22.13.22-.41.73-.89.96-1.29.64-2.71,1.06-3.59,2.42-.47.72-1.26.12-1.89-.13,1.79-4.43,3.58-8.85,5.38-13.27.48-1.18,1.02-2.33,1.53-3.5.33-.35.36-.83.51-1.25.1-.59.3-1.14.63-1.63.43-.3.38-.82.57-1.24.09-.59.29-1.14.64-1.64Z"/>
        <path class="cls-157" d="m3.04.39c3.27-.01,6.55-.04,9.82-.04,15.5,0,31,0,46.5,0-.36.49-.88.28-1.33.28-18.34.01-36.67,0-55.01,0-.08-.06-.11-.11-.08-.16.03-.05.06-.08.08-.08Z"/>
        <path class="cls-25" d="m12.12,117.83c.08.77-.36,1.36-.68,2-.01-.1-.03-.2-.04-.29.1-.63.36-1.19.72-1.71Z"/>
        <path class="cls-83" d="m23.63,90.03c.03.51,0,.99-.57,1.24.19-.41.38-.82.57-1.24Z"/>
        <path class="cls-83" d="m22.43,92.9c.04.5-.02.97-.51,1.25.06-.46.24-.88.51-1.25Z"/>
        <path class="cls-69" d="m83.11,59.15c.38,1,.98,1.98,1.09,3.01.12,1.11.36,1.95,1.38,2.46-.23,1.61,1.12,2.48,1.82,3.6.53.84.74,1.58.77,2.51.03.86-.25,1.49-1.01,1.86-1.13.55-1.87,1.56-2.78,2.36-.29.25-.31.54-.3.86,0,.45-.19.94-.56.95-1.63.06-2.22,1.51-3.25,2.35-.41.34-.71.69-1.3.69-.78,0-1.12.74-1.49,1.22-.29.37.24.64.68.68,2.36.24,4.75.4,7.01,1.21,1.89.67,3.8,1.29,5.53,2.34.46.28.89.61.81,1.26-.1.07-.21.09-.32.05-.37-.2-.64-.52-.97-.77-3.38-1.66-6.81-3.08-10.64-3.31-1.82-.11-3.63-.46-5.47-.46-3.18,0-6.17.66-8.88,2.35-.88.55-1.63.48-2.39-.16-.92-.77-1.89-1.46-2.96-2.01-1.64-.96-3.32-1.81-5.19-2.26-.33-.08-.72-.13-.86-.54.55-.49.98-1.11,1.58-1.56.58-.43.52-.93-.06-1.35-.42-.3-.76-.66-1.07-1.09-.61-.83-.69-1.57.15-2.28.13-.13.29-.21.47-.24,1.08.03,1.85.9,2.9,1.03.47.06.92.26,1.4.27.92,0,1.8.07,2.69.41,1.22.47,2.56.34,3.77.04,1.52-.38,3.1-.75,4.41-1.73.52-.39,1.13-.56,1.8-.52,1.66.11,3-.55,4.2-1.66,1.62-1.5,2.98-3.23,4.16-5.06.77-1.19.79-2.75.71-4.15-.1-1.62-.25-3.24-.11-4.86.47-.53.71-.11.84.26.31.88.91,1.55,1.47,2.25Z"/>
        <path class="cls-172" d="m103.25,120.07c-3.7,0-7.41,0-11.11,0-.47,0-.96.08-1.34-.34-.37-.4-.93-.73-.67-1.4.23-.6.79-.81,1.36-.73.54.07.84-.03.98-.57.09-.34.26-.64-.07-.98-.41-.41-.82-.26-1.2-.06-.85.45-1.6.6-2.18-.41-.08-.14-.35-.3-.5-.27-1.75.33-3.22-.59-4.77-1.08-.53-.17-.82-.01-1.12.33-.19-.33-.29-.63.24-.72.34-.12.45-.43.62-.7,1.22-1.89,1.29-2.05,3.39-1.08,2.72,1.25,5.35,1.07,8.01.05.81-.31,1.28-.14,1.6.65.39.96,1.04,1.64,2.06,2,.54.19,1.07.52,1.39,1.07.08.13.21.3.34.32,2.24.37,2.62,2.14,2.97,3.93Z"/>
        <path class="cls-55" d="m83.11,59.15c-.74-.29-1.19-.8-1.47-1.56-.14-.37-.1-.96-.69-1.07.01-1.23-.53-2.31-.93-3.42.07-.49-.04-.95-.29-1.38-1.64-2.91-3.45-5.72-5.54-8.33-.93-1.16-1.7-2.4-2.49-3.63-1.43-2.23-2.73-4.57-4.55-6.5-1.24-1.31-2.58-2.61-4.49-2.98-.83-.32-1.68-.56-2.58-.32-1.37.1-2.58.65-3.58,1.51-1.71,1.47-3.07,3.23-4.08,5.26-2.11,4.24-4.06,8.57-6.85,12.45-.51.71-.81,1.55-1.15,2.36-.21.52-.43,1.05-1.09,1.17-.42.04-.83.17-1.25.02-.42-.59-.22-1.15.15-1.65,3.78-5.04,6.44-10.73,9.53-16.17,1.38-2.43,3.35-4.35,5.73-5.81,1.06-.65,2.27-.49,3.46-.58,1.91-.15,3.48.47,4.88,1.54,1.76,1.35,3.35,2.88,4.71,4.71,3.09,4.16,5.44,8.82,8.77,12.82,1.28,1.54,1.84,3.53,2.83,5.25.21.36.22.86.76.96,1.17,2.45,2.21,4.96,3.15,7.5-.48-.85-1.74-.94-1.96-2.11-.07-.36-.64-.39-.99-.03Z"/>
        <path class="cls-110" d="m82.86,113.84c-.24.19-.23.46-.24.72-.31.97-.63,1.94-.94,2.91-.48-.49-.77-1.08-.95-1.73-.14-.51-.4-.88-1.02-.59-.11.02-.23.02-.34,0-.32-.07-.61-.18-.84-.42-.33-.35-.42-.81.09-.95.85-.24.82-.83.86-1.48.03-.59.25-1.08.78-1.39.39-.2.52-.58.66-.95.87-2.25,1.87-4.45,2.72-6.71,1.06-2.8,2.26-5.55,3.34-8.34.25-.49.37-1.06.82-1.44.54-.26,1.12-.85,1.53.17-.16,1.23-.82,2.29-1.22,3.44-.64,1.59-1.33,3.16-1.92,4.77-1.39,3.22-2.64,6.5-3.97,9.75,1.36-3.07,2.5-6.23,3.81-9.33.64-1.52,1.24-3.06,1.86-4.59.6-1.28.97-2.65,1.7-3.87.16-.18.33-.33.46-.54.15-.26.36-.42.68-.28.41.18.34.45.17.77-.11.2.09.47-.1.67-1.28,3.72-2.93,7.3-4.4,10.95-1.15,2.83-2.34,5.65-3.52,8.47Z"/>
        <path class="cls-192" d="m90.79,94.42s0-.09-.01-.12c-.33-.35.36-.91-.12-1.1-.53-.22-.33.72-.83.73-.31-.38-.13-.76.03-1.1.59-1.28,1-2.63,1.66-3.88.16-.27.16-.61.35-.87.21-.28.49-.23.75-.12.45.19.55.52.33.96-.5,1.92-1.25,3.75-2.16,5.52Z"/>
        <path class="cls-130" d="m91.28,86.51c.07,0,.14,0,.21-.01,0,.09.02.18.02.27.34.39.35.86.31,1.34-.19.4-.19.93-.74,1.08-.17.2-.02-.58-.34-.09-.33.5-.68,1.07-1.43,1.02-.06-.1-.1-.21-.1-.33.74-1.06.7-2.61,2.07-3.27Z"/>
        <path class="cls-128" d="m91.71,88.2c-.22-.46-.23-.94-.2-1.43,1.19.2,1.78,1.06,1.43,2.13.01-.39-.07-.72-.55-.76-.83-.07-.12.87-.66.99-.3-.3-.19-.62-.03-.93Z"/>
        <path class="cls-25" d="m11.44,120.07c1.35,0,2.71,0,4.06,0,1.02,0,1.82-.38,2.44-1.23.56-.77,1.16-1.53,2.15-1.79.15-.04.32-.11.42-.23,1.43-1.77,3.6-2.58,5.26-4.05.31-.28.57-.57.52-1.01-.07-.76.4-.89.98-.79,3.98.65,8.01.89,11.97,1.67-1.96,1.42-4.3,2.02-6.48,2.97-.86.38-1.63.62-1.46,1.8.07.5-.22.74-.75.48-.74-.36-.82-.05-.67.62.36,1.57.17,1.8-1.45,1.8-5.25,0-10.51,0-15.76,0-.42,0-.89.16-1.24-.23Z"/>
        <path class="cls-56" d="m69.95,116.94c-1.83-.55-3.74-.63-5.61-.93-4.04-.63-8.08-1.21-12.13-1.8-4.08-.6-8.16-1.2-12.25-1.81-3.21-.47-6.42-.95-9.63-1.43.16-.41-1.12-.74-.07-1.21,3.75.29,7.45.91,11.16,1.44,10.44,1.47,20.89,2.82,31.32,4.34,1.45.21,2.93.35,4.41.34.52,0,1.05-.03,1.49.31.14.14.25.3.13.5-.26.42-.26.67,0,.96-2.95-.24-5.89-.48-8.84-.72Z"/>
        <path class="cls-39" d="m78.79,117.66c-.24-.39-.74-.07-1.02-.36.08-.6.76-.45,1.02-.83.59-.29,1.06-.67.96-1.43.39-.89.84-.37,1.05.05.37.75.6,1.58.88,2.38-.06.62-.44.77-.98.65-.64-.14-1.27-.3-1.91-.45Z"/>
        <path class="cls-99" d="m40.2,57.48c-.56.64-1.12,1.28-1.68,1.92-.35-.21-.66-.45-.82-.84.45-2.83,1.58-5.44,2.77-8.01,2.09-4.53,4.92-8.68,7.1-13.17,1.27-2.63,2.78-5.12,4.23-7.64,1.22-2.12,3.37-3.2,5.59-4.1,1.95-.79,4.04-.87,6.01-.67,2.42.24,4.6,1.51,6.08,3.49,1.5,2.01,2.62,4.27,3.85,6.46.68,1.21,1.46,2.37,2.11,3.6.87.84,1.09,2.13,2.06,3.05-.06-.44-.1-.77-.15-1.1.93,1.63,1.58,3.38,2.19,5.15.14.78.68,1.44.74,2.25-.66.34-.86-.24-1.09-.6-1.66-2.58-3.26-5.21-5.11-7.67-1.92-2.55-3.24-5.5-5.38-7.9-.77-.87-1.55-1.72-2.46-2.44-2.47-1.97-5.32-1.62-8.14-1.27-.94.12-1.68.79-2.4,1.47-1.14,1.06-2.28,2.12-3.09,3.45-1.34,2.21-3,4.21-4.1,6.58-.65,1.41-1.53,2.72-2.35,4.03-1.19,1.9-2.21,3.88-3.42,5.77-.43.68-.76,1.41-.92,2.2-.35,1.74-1.33,3.35-1.14,5.22.03.32-.13.63-.49.75Z"/>
        <path class="cls-97" d="m75.44,38.53c-1.11-1.21-1.8-2.69-2.62-4.08-1.21-2.08-2.29-4.29-3.79-6.13-1.36-1.67-3.4-2.92-5.53-3.08-4.12-.31-7.99.71-10.95,3.86-.91.97-1.31,2.34-2.03,3.49-1.12,1.78-2.1,3.66-3.04,5.54-1.67,3.35-3.65,6.53-5.4,9.84-1.5,2.85-2.88,5.76-3.65,8.91-.15.62-.42,1.2-.63,1.8.15.45-.14.76-.38,1.07-.31.4-.67,1.04-1.18.81-.6-.28.16-.79.09-1.23,1.22-3.03,2.42-6.06,3.66-9.08.67-1.62,1.39-3.21,2.09-4.82.31.97.59.31.78-.05,2.17-3.99,4.35-7.97,6.46-11.98.93-1.76,1.58-3.65,2.53-5.4.23-.42.18-1.01.22-1.52.11-1.64,1.08-2.32,2.54-2.94,2.24-.95,4.49-1.51,6.9-1.29,1.53.14,3.09.26,4.49,1.09.63.38,1.41.52,2.13.74,1.19.37,1.83,1.27,1.74,2.42-.12,1.57.76,2.77,1.38,3.98.67,1.33,1.5,2.6,2.15,3.97.52,1.1,1.14,2.15,1.76,3.19.17.29.28.56.27.89Z"/>
        <path class="cls-67" d="m43.1,43.08c.55-2.11,1.56-4.04,2.39-6.03,1.72-4.16,3.33-8.36,5.22-12.45.26-.06.06-.63.52-.47.29,2.44-.27,4.79-1.3,6.91-.62,1.28-1.45,2.52-2.13,3.81-1.27,2.41-2.51,4.85-3.76,7.27-.21.41-.32.94-.93.96Z"/>
        <path class="cls-67" d="m71.2,25.57c1.59,3.73,3.34,7.39,4.5,11.28-1.11-.81-1.57-2.1-2.16-3.22-1.04-1.98-2.4-3.85-2.79-6.15-.11-.64-.14-1.28-.08-1.9.06-.64.35.1.53-.02Z"/>
        <path class="cls-97" d="m51.23,24.14c-.17.16-.35.31-.52.47.04-.46.22-.87.5-1.23,0,.25.01.51.02.76Z"/>
        <path class="cls-9" d="m40.2,57.48c.21-.36.26-.75.24-1.15-.04-1.08.36-2.07.58-3.1.81-3.84,3.24-6.79,5.05-10.08,1.03-1.87,2.03-3.77,3.16-5.59,1.42-2.28,2.73-4.68,4.5-6.66,1.79-2,3.85-3.56,7.04-3.51,3.7.07,6.1,1.7,8.31,4.32,2.09,2.48,3.42,5.44,5.39,7.98,1.87,2.42,3.44,5.04,5.07,7.62.16.26.29.59.7.58.37.1.28.52.5.73.07.17.15.35.22.52.22.36.27.79.48,1.15.5,1.17.99,2.34,1.49,3.51-.25.38-.36.27-.55-.08-.76-1.47-1.62-2.9-2.33-4.4-.62-1.32-1.61-2.36-2.41-3.53-1.39-2.01-2.99-3.88-4.04-6.13-.45-.97-1.08-1.83-1.8-2.64-.63-.71-1.15-1.52-1.7-2.3-1.82-2.59-4-4.88-7.1-5.69-2.06-.53-4.23-.6-6.26.92-3.01,2.25-4.88,5.22-6.53,8.46-1.97,3.86-4.17,7.59-6.47,11.27-.61.98-1.82,1.63-1.59,3.04.3.27.33.66.44,1.01-.1,1.97-.37,3.92-1.12,5.76-.18.44-.44.85-.91,1.05-.43.11-.86.26-1.3.05-.02-1.14.86-2.01.96-3.12Z"/>
        <path class="cls-55" d="m80.73,48.61c-.17-.24-.33-.48-.5-.73-.19-.76-.78-1.4-.69-2.25.53.94.99,1.9,1.19,2.97Z"/>
        <path class="cls-55" d="m81.43,50.28c-.36-.3-.49-.7-.48-1.15.36.3.49.7.48,1.15Z"/>
        <path class="cls-83" d="m36.34,59.33c.06.35-.02.69-.28,1.18.98-.44,1.29-1.2,1.75-1.83.46.02.7.26.72.72-1.11,1.11-1.83,2.52-2.79,3.75-.61.78-.88,1.89-1.53,2.73-.17.22-.2.79-.73.43.85-2.37,1.81-4.7,2.88-6.98Z"/>
        <path class="cls-116" d="m39.24,60.59c.37-.23.78-.27,1.2-.24.46,1.55,1.25,3,1.93,4.41,1.16,2.38,2.59,4.78,5.07,6.13.83.45,1.46,1.23,2.43,1.44.8,1.65.79,1.61,2.66,1.26.67-.13,1.31-.66,2.06-.29-.75.98-.54,1.88.65,2.73,1.34.96,1.36,1.36-.02,2.29-.46.31-.45,1.29-1.35.98-.48.44-1.04.28-1.59.23-3.58-.36-7.07-.04-10.52,1.04-1.62.51-2.56,1.7-3.57,2.87-.44.51-.8,1.09-1.25,1.6-.43.4-.79.86-1.13,1.35-2.62,3.46-5.08,7.03-7.36,10.72-.29.4-.55.82-.81,1.24-.59.8-.97,1.74-1.64,2.49-.89.61-.99,1.82-1.85,2.45-.97-.83-.44-1.89-.36-2.83.51-5.92,2.91-11.27,5.05-16.7,1.48-3.74,2.95-7.48,4.54-11.17.22-.51.46-1.02.91-1.39.33-.28.48-.61.27-1.06-.08-.17-.17-.44-.09-.57.91-1.68,1.06-3.72,2.46-5.17.58-.6,1.22-1.1,1.26-2.13.02-.57.69-1.11,1.07-1.67Z"/>
        <path class="cls-40" d="m25.83,100.65c.65-.74.88-1.76,1.62-2.43.64.02.42.46.33.76-.15.53-.39,1.04-.47,1.6-.3,1.23-1.35,2.09-1.64,3.34.38-.16.74-.47,1.18-.19.67,1.51,1.44,2.98,1.77,4.61-.09.29-.29.33-.54.25-.1-.03-.21-.07-.3-.11-.34-.11-.68-.19-.97.11-.22.59.25.6.6.71.44.13.9.14,1.35.18.42.09.86.15,1.13.55.08.35,1.14.22.46.94-.15,0-.3-.02-.45-.03-.37-.27-.84.03-1.22-.22-1.32-.18-2.65-.34-3.97-.53-1.14-.17-.71-1.24-1.04-1.88-.66-2.95.53-5.38,2.17-7.67Z"/>
        <path class="cls-83" d="m25.83,100.65c-.1.21-.16.44-.29.64-1.39,2.14-2.31,4.41-1.88,7.03-.38-1.73-.58-3.44.48-5.04.46-.94.73-2.01,1.69-2.63Z"/>
        <path class="cls-83" d="m32.9,69.04c-.18-.65.05-.87.28-1.23.32.6-.2.7-.28,1.23Z"/>
        <path class="cls-56" d="m28.67,110.73c.42.02.87-.17,1.22.22-.42-.01-.86.12-1.22-.22Z"/>
        <path class="cls-179" d="m80.22,52.89c.14.36.21.79.44,1.08.63.81.63,1.65.29,2.55.1,1.32-.1,2.69.16,3.93.29,1.36-.15,2.56-.15,3.84,0,.81-.28,1.42-.8,2.04-1.21,1.46-2.29,3.03-3.66,4.37-1.4,1.36-2.9,2.24-4.96,1.95-.96-.13-1.57.83-2.43,1.12-1.5.51-2.95,1.04-4.55,1.32-1.95.34-3.59-.89-5.44-.59-1.2-1.27-.37-2.5.07-3.74.66-.26,1.21-.09,1.66.44.05.15-.02-.02.07.09.32.4-.04,1.37.67,1.27.54-.08.28-.95.39-1.47.02-.08.03-.15.05-.23.04-.11.1-.2.18-.29.53-.31,1.13-.37,1.72-.38.98-.02,1.84-.35,2.71-.76,1.51-.71,3.1-.84,4.73-.49.41.16.59.62,1,.78.36-.18.36-.61.63-.84,2.03-1.53,3.86-3.2,4.62-5.75.09-.31.25-.59.53-.77,1.1-.38.35-.98.18-1.51-.1-1.45-.52-2.89-.14-4.36.12-.47-.04-.94-.31-1.36-.38-.58-.44-1.18-.02-1.77.13-.15.28-.28.46-.36.63-.13,1.25-.4,1.9-.11Z"/>
        <path class="cls-28" d="m59.86,81.93c1.14.34,2.04,1.07,2.9,1.84.81.71,1.44.87,2.49.22,3.57-2.21,7.51-2.63,11.62-2.1,2.08.27,4.21.26,6.26.79,2.32.6,4.52,1.55,6.71,2.51.29.13.59.27.72.6-.29.24-.61.16-.89.03-.93-.41-1.91-.44-2.9-.44-.46-.05-.89-.22-1.33-.33-4.78-1.62-9.7-2.24-14.68-1.5-2.59.38-5.14,1.25-6.53,3.87-1.91,2.77-3.74,5.6-5.49,8.48-.24.4-.38.89-.92,1.02-.64-.2-1.47.06-1.86-.75-.08-.29.03-.54.14-.8.17-.34.34-.69.5-1.03.89-1.61,2.14-2.97,3.11-4.52.94-1.15,1.78-2.37,2.61-3.6.28-.5-.03-.82-.35-1.14-.56-.58-1.23-1-1.93-1.39-.4-.23-.91-.36-.97-.95.19-.34.46-.59.79-.78Z"/>
        <path class="cls-41" d="m59.86,81.93c-.02.5-.31.72-.78.76-.56.28-1.01-.09-1.45-.31-3.25-1.62-6.69-2.03-10.26-1.61-1.5.18-3.03.03-4.52.48-.86.26-1.66.57-2.32,1.18-.75.61-1.29,1.4-1.84,2.18-.38.46-.63,1.02-1.07,1.44-.1.05-.21.07-.32.04-.41-.25-.64-.61-.69-1.08.8-1.34,1.82-2.54,2.91-3.62,1.15-1.15,2.81-1.5,4.36-1.78,2.42-.45,4.88-.7,7.36-.54.87.05,1.72.36,2.61.25,2.07.71,4.23,1.23,6,2.62Z"/>
        <path class="cls-153" d="m54.58,73.31c-.87.24-1.73.5-2.61.71-1.49.37-2.06-.08-2.19-1.67-.39-.48-.05-.87.18-1.26.21-.37.54-.66.71-1.06.21-.46.53-.83.96-1.1,1.81-.95,4.24.58,4.17,2.61-.03.71-.48,1.13-.98,1.54-.08.08-.16.16-.24.24Z"/>
        <path class="cls-19" d="m54.82,73.07c.91-2.04.58-3.17-1.08-4.04-.79-.41-1.43-.25-2.09.19-.11-.16-.11-.33-.06-.51.39-.56.52-1.36,1.36-1.54,2.03.55,3.78,1.68,5.57,2.71.36.21.76.49.62,1.04-.03.6.19,1.18-.34,1.77-.51.58.54,1.14.34,1.83-1.57-.08-2.9-.9-4.31-1.44Z"/>
        <path class="cls-98" d="m86.71,85.06c1.36-.17,2.61.24,3.84.72.32.17.58.4.73.74-.93.95-1.06,2.37-1.96,3.33-.45.52-1.12.6-1.72.72-1.85.37-3.62,1.14-5.56,1.1-.3-.8.39-.76.8-.88,1.66-.51,3.34-1,5.05-1.31,1.04-.18,1.23-1.04,1.49-1.8.25-.74-.39-1.03-.89-1.35-.53-.51-1.51-.39-1.78-1.26Z"/>
        <path class="cls-25" d="m84.04,64.32c-.03.21-.09.39-.27.39-.21,0-.18-.21-.16-.36.02-.17.09-.33.29-.27.07.02.11.18.15.25Z"/>
        <path class="cls-38" d="m43.28,52.45c.51-.03.64-.44.77-.8,1.02-2.84,3.19-5.02,4.44-7.7,1.15-2.48,2.5-4.86,3.68-7.32,1.32-2.75,3.09-5.18,6-6.49.62-.28,1.24-.55,1.94-.47.12.4-.36.6-.37,1.1,1.17-.06,2.3.24,3.44-.07,1-.17,1.63.48,2.31,1.02,2.37,1.9,3.97,4.44,5.51,6.98,1.14,1.88,2.41,3.66,3.49,5.57,1.24,2.18,2.83,4.13,3.93,6.4.14.29.31.56.26.9-.03.12-.1.21-.2.28-.72.29-1.21.05-1.56-.64-1.97-3.87-4.48-7.4-6.85-11.02-.98-1.49-1.7-3.15-2.83-4.55-.48-.59-.93-1.19-1.55-1.64-.87-.61-1.46-1.67-2.7-1.69-1.61-.65-3.21-.44-4.82.01-.88.12-1.53.67-2.18,1.21-1.15,1.57-2.19,3.19-3.13,4.91-2.47,4.49-4.94,8.99-7.16,13.61-.24.5-.53.89-1.13.94-.48-.05-1.08.19-1.3-.52Z"/>
        <path class="cls-121" d="m78.57,51.73c-.76-1.52-1.4-3.09-2.56-4.39-.91-1.03-1.34-2.4-2.11-3.55-1.88-2.84-3.53-5.83-5.48-8.61-.96-1.36-2.17-2.62-3.52-3.66-.49-.38-1.06-.72-1.75-.64-.43-.06-.51-.33-.43-.7.16-.28.37-.2.61-.1,2.58,1.08,4.46,3.08,5.96,5.26,1.27,1.86,2.42,3.85,3.65,5.76,1.39,2.16,3.06,4.14,4.47,6.3.92,1.41,2.03,2.74,2.58,4.37-.48.34-.95.34-1.41-.03Z"/>
        <path class="cls-11" d="m62.72,30.17c.14.23.29.47.43.7-.04.37-.26.46-.58.36-.81-.23-1.65-.1-2.47-.15-.32-.02-.79.23-.95-.21-.15-.4.26-.6.54-.81.15-.12.28-.27.43-.4.93-.17,1.84-.24,2.6.5Z"/>
        <path class="cls-92" d="m43.28,52.45c.42.32.92.2,1.39.26.32.21.71-.1,1.03.14.08.09.13.2.14.33-.04.43-.05.86-.31,1.23-.15.12-.32.18-.51.19-.43,0-.84-.15-1.26-.18-.6-.03-1.05-.33-1.4-.79-.28-.26-.19-.61-.23-.92.34-.29.75-.26,1.15-.26Z"/>
        <path class="cls-176" d="m78.57,51.73c.47,0,.94.02,1.41.03.31.33.71.63.24,1.13-.61.24-1.24.33-1.89.29-.34-.31-.31-.69-.19-1.08.09-.19.27-.27.44-.36h0Z"/>
        <path class="cls-123" d="m87.88,93.68c-.22.41-.43.81-.65,1.22-.31.75-.82,1.27-1.55,1.68-1.28.71-2.6,1.48-3.66,2.46-1.93,1.78-4,3.47-5.22,5.9-.49.97-1.41,1.22-2.55.71-1.27-.57-2.46-1.32-3.79-1.76-.53-.18-1.06-.33-1.63-.3-1.28-.17-2.54-.38-3.78-.78-1.51-.42-2.98-.1-4.45.21-1.39.29-2.78.62-4.18.87-.12.01-.24,0-.36-.04-.54-1.21.26-2.79,1.75-3.52.93-.46,1.96-.63,2.93-1-.57.28-1.11.42-1.52-.22-.12-.3-.11-.6.07-.87.32-.29.75-.29,1.13-.3,2.36-.1,4.44-1.18,6.62-1.96-1.66.18-3.28-.43-4.95-.15-.73.12-1.25-.18-1.26-1.03.02-.11.05-.22.11-.32.36-.41.86-.04,1.26-.21.11-.03.22-.05.34-.07.3-.03.6,0,.89.06,1.87.32,3.79-.05,5.65.4,1.25.36,2.44.34,3.71-.11,1.6-.57,3.22-1.12,4.88-1.54.11-.03.23-.06.33-.11-.1-.14-.25,0-.37-.05-3.27-.31-6.55-.44-9.83-.5-.12-.01-.24-.04-.35-.07-.62-.36-1.38-.16-2.02-.48-.45-.13-.93.13-1.38-.07-.1-.05-.19-.12-.26-.21-.2-.31-.33-.63-.21-1,.09-.17.23-.28.41-.33.74.02,1.49-.08,2.2.23,2.46.87,5.04.39,7.56.66,1.85.27,3.72.2,5.56.48.19.05.37.13.54.24,1.06.62,2.17.32,3.21.03,1.82-.52,3.7-.83,5.48-1.51.19-.07.38-.11.57-.01.4.86-.32,1.48-.48,2.22-.17.45-.42.84-.74,1.19Z"/>
        <path class="cls-105" d="m65.13,102.57c1.27.24,2.54.48,3.81.72,2.96.82,5.63,2.29,8.25,3.86,1.12.78,2.04,1.77,2.85,2.86.26.35.58.67.46,1.17-.85.22-.7.92-.76,1.54-.05.6.28,1.48-.96,1.21-.33-.07-.47.3-.16.55.26.22.59.36.89.54-.32.35-.72.27-1.12.23-7-.58-13.95-1.58-20.9-2.59-3.83-.56-7.68-.98-11.51-1.55-.39-.06-.8-.05-1.14-.29-.26-.76.4-.56.71-.61.43-.08.75-.16.6-.7.78-.51,1.54.11,2.34.02-.18-.67-1.04-.83-1.2-1.52.22-.54-.12-1.12.11-1.67.61-.01,1.25,0,.62-.88-.15-.22-.3-.46-.21-.75.27-.31.63-.47,1.02-.56.45.02.7.34.93.66.56.8.91.56,1.16-.22.27-.68.75-1.24,1.11-1.87.86-1.21,1.32-2.64,2.11-3.88.12-.14.26-.24.44-.29.76-.12,1.18.45,1.71.82.11.16.13.33.08.51-.05.1-.12.19-.21.27-1.23.83-2.09,1.89-2.09,3.47-.03.11-.08.21-.14.31q-.92,1.12.18,1.99c.24.19.51.37.57.71.02.27-.06.56.1.81.57.43,1.21.44,1.82.2,2.41-.98,4.93-.98,7.43-.76,2.78.24,5.57.51,8.08,1.19-.25-.06-.71-.17-1.12-.38-3.36-1.75-6.97-1.66-10.59-1.49-.4.02-.79.1-1.19.12-.27.01-.65.08-.74-.22-.11-.35.22-.57.5-.73.67-.37,1.42-.53,2.17-.66.55-.09,1.11-.14,1.66-.26.74-.08,1.49-.09,2.23.03,2.38.22,4.7.7,6.9,1.68.78.34,1.54.71,2.34,1.02-.63-.23-1.21-.57-1.84-.81-1.55-.69-3.13-1.3-4.8-1.61-.1-.03-.21-.06-.31-.09-.34-.15-.7-.16-1.06-.22-.1-.02-.2-.05-.3-.08-.41-.13-.85-.08-1.27-.16-.12-.02-.23-.05-.34-.08-.84-.17-1.73.18-2.53-.29-.15-.74.5-.77.91-1.01.46-.27,1.01-.21,1.5-.35.31,0,.64-.12.93.1Z"/>
        <path class="cls-44" d="m44.73,110.49c2.04.5,4.14.65,6.21.94,3.81.54,7.63,1.03,11.44,1.54,3.62.48,7.21,1.17,10.86,1.39,2.1.12,4.18.43,6.27.66.08.02.16.03.23.03.65,1.03.47,1.31-.96,1.43-1.38-.46-2.84-.27-4.25-.4-3.52-.31-7-.96-10.5-1.38-3.9-.46-7.78-1.05-11.67-1.59-4.24-.59-8.47-1.21-12.71-1.8-3.26-.45-6.52-.85-9.78-1.27-.4-.1-.8-.2-1.2-.3-.45-.53-.43-1,.2-1.38,1.8-.29,3.56.2,5.32.4,3,.35,5.99.77,8.98,1.23.54.08,1.13.06,1.55.51Z"/>
        <path class="cls-74" d="m77.1,107.37c-2.57-1.65-5.28-3.03-8.15-4.08,1.23.02,2.31.54,3.38,1.07.75.37,1.51.73,2.25,1.12.67.35,1.51.22,1.72-.27.51-1.2,1.34-2.1,2.15-3.06.33-.39.56-.88,1.06-1,.83-.21.67-1.11,1.23-1.55,1.56-1.25,3.28-2.23,4.92-3.34.58-.39,1.18-.75,1.57-1.35-.93,2.87-2.22,5.6-3.35,8.4-.58,2.81-2.82,3.73-5.16,4.56-.72.26-1.09-.31-1.62-.49Z"/>
        <path class="cls-16" d="m77.1,107.37c1.17.78,2.06-.29,3.08-.47,1.69-.3,2.79-1.27,3.22-2.97.06-.25.18-.53.49-.63-1.01,2.53-2.01,5.06-3.03,7.58-.05.13-.23.2-.35.3-.91-1.47-2.06-2.73-3.41-3.81Z"/>
        <path class="cls-54" d="m86.25,102.34c-1.35,3.45-2.65,6.91-4.42,10.18,1.14-3.67,2.51-7.24,4.13-10.73.23.11.26.33.29.54Z"/>
        <path class="cls-15" d="m91.71,88.2c.01.31.02.62.03.93-.66,1.59-1.43,3.14-1.92,4.8l-1.69,3.83c-.55-.1-.32-.44-.24-.74.41-1.11.81-2.21,1.22-3.32.35-1.64.81-3.25,1.92-4.57.32-.24.19-.81.67-.93Z"/>
        <path class="cls-62" d="m91.04,89.13c-.64,1.52-1.28,3.05-1.92,4.57-.39-.99-.82.04-1.24-.02.12-.41.19-.85.48-1.2.42-.65.71-1.34.87-2.1,0-.12.03-.21.11-.29.43-.38.85-.77,1.28-1.15.29-.26.38-.09.42.19Z"/>
        <path class="cls-148" d="m87.89,97.02c.03.26-.04.56.24.74-.63,1.53-1.25,3.05-1.88,4.58-.23-.11-.26-.32-.29-.54.46-1.67,1.22-3.22,1.93-4.78Z"/>
        <path class="cls-186" d="m89.34,90.09c-.02.07-.02.14-.02.21-.05.16-.12.18-.22.04-1.95.9-4.09,1.18-6.12,1.81-1.03.32-2.19.63-3.24-.11.65-.48,1.36-.71,2.17-.51,2.47-.56,4.94-1.12,7.41-1.68,0,.08.01.16.02.24Z"/>
        <path class="cls-78" d="m42.36,53.63c.55-.03.87.59,1.44.49.27,1.91.26,3.87-.46,5.61-1.29,3.1-.26,5.53,1.65,7.86.5.62,1.1,1.15,1.69,1.68.75.66,1.48,1.18,2.49.47.12-.08.31-.03.47,0,.41.22.87.24,1.32.34-.24.83-1.22,1.28-1.15,2.26-.53.14-1,.16-1.32-.43-.33-.63-1.09-.58-1.61-.94-1.19-.83-1.98-2.02-2.93-3.07-1.66-1.82-2.01-4.32-3.39-6.27-.21-.3-.08-.85-.11-1.28.72-.79,1.14-1.63,1.26-2.77.13-1.31.55-2.61.66-3.95Z"/>
        <path class="cls-80" d="m28.2,97.03c2.23-3.77,4.71-7.37,7.42-10.8,1.16.09,1.25.26.7,1.22-.35.61-.85,1.11-1.15,1.76-1.68,2.26-3.32,4.54-4.85,6.9-.31.39-.64.76-1.07,1.02-.35-.07-.77.71-1.05-.09Z"/>
        <path class="cls-145" d="m34.92,89.1c.51-.82,1.02-1.64,1.54-2.48-.29-.14-.57-.27-.85-.4.25-.47.52-.93.99-1.22.39.22.49.65.72.99-.13,1.27-1.37,2.86-2.41,3.1Z"/>
        <path class="cls-185" d="m28.2,97.03c.31.57.65-.44.97.01.14.13.16.28.13.46-.26.54-.59,1.04-.9,1.56-.37.52-.59,1.16-1.07,1.61-.1.06-.2.06-.31,0-.03-.64.25-1.2.49-1.76.11-.25.26-.49-.07-.7.13-.47.43-.84.75-1.19Z"/>
        <path class="cls-42" d="m44.73,110.49c-2.16-.28-4.31-.59-6.47-.84-3.19-.37-6.35-.98-9.56-1.1-.12.13-.2.11-.25-.06-.37-1.65-1.41-3.07-1.67-4.76-.06-.11-.06-.22-.01-.33,1.1-.85,2.32-1.47,3.58-2.03.46-.08.88-.27,1.3-.47.83-.27,1.63-.6,2.48-.8,3.52-.75,7.01-.88,10.43.48.51.23,1.01.48,1.47.81.67.55,1.41,1.01,2.05,1.6.36.33.86.6.77,1.23-.24.33-.58.46-.97.5-.29.14-.57.05-.78-.13-1.73-1.53-3.84-2.29-5.97-3.04-2.18-.57-4.34-.06-5.84,0,1.13-.22,2.94-.26,4.75-.18.36.09.72.17,1.07.27.71.31,1.47.46,2.19.73.54.27,1.12.46,1.58.87.33.58,0,.68-.48.67-2.07-.58-4.16-.98-6.31-1.02-1.36-.03-2.69.16-3.97.59-.45.05-.91,0-1.18.09.5,0,1.18-.15,1.87-.04,2.22.23,4.45.14,6.68.31,2.02.16,3.78.89,5.48,1.87.24.14.47.31.45.65.05.5.78,1.01-.04,1.48-.57.33-1.08,0-1.59-.17-2.19-.72-4.41-1.31-6.68-1.76-3.31-.66-6.56-.23-9.81.36-.13.07-.35.12-.34.26,0,.15.23.17.37.22,5.31.64,10.57,1.55,15.86,2.25.4.05.78.17,1.03.53.18.13.52.26.52.39,0,.29-.29.48-.56.51-.47.05-.95.04-1.42.05Z"/>
        <path class="cls-162" d="m26.78,103.55c0,.06-.01.12-.02.18-.49.06-.85.41-1.37.67-.05-1.58,1.17-2.49,1.63-3.73.07-.02.14-.04.22-.06.56,1.09.04,2.01-.46,2.94Z"/>
        <path class="cls-46" d="m27.25,109.51c-.92,0-1.2-.38-.71-1.2.48-.17.96-.14,1.44-.02l-.03.08c.16.62-.19.93-.69,1.15Z"/>
        <path class="cls-100" d="m27.25,109.51c.23-.38.46-.76.69-1.15.17.04.33.09.5.13.08.02.17.04.25.06-.27.39.07.79-.01,1.18-.49.01-1,.13-1.43-.22Z"/>
        <path class="cls-42" d="m27.98,108.29c-.48,0-.96.01-1.44.02.47-.35.95-.32,1.44-.02Z"/>
        <path class="cls-181" d="m78.4,62.47c-.31.16-.46.45-.52.76-.51,2.46-2.43,3.88-4.03,5.53-.24.25-.57.23-.89.25-.85-.6-1.34-1.44-1.59-2.44.01-.3.15-.54.37-.72,1.31-1.08,2.21-2.48,3.06-3.93.25-.42.52-.81,1.07-.85.31-.01.59.08.86.21.56.38,1.37.42,1.66,1.18Z"/>
        <path class="cls-5" d="m71.43,69.2c-1.63-.18-3.25-.3-4.75.61-1.35.82-2.91.65-4.39.85-.26-.17-.31-.44-.35-.72-.03-.47-.05-.94.17-1.38.68-.6,1.51-.04,2.27-.33,1.24-.47,2.6-.62,3.78-1.32.51-.31,1.12-.34,1.72-.29.91.62,1.52,1.41,1.54,2.57Z"/>
        <path class="cls-117" d="m78.08,53.4c-.29.61-.45,1.2.22,1.7.43.32.31.83.24,1.22-.24,1.27-.23,2.51.09,3.76.07.29-.04.62-.07.94-.78.2-1.22-.52-1.87-.68-.33-.18-.65-.37-.69-.8.4-1.96.33-3.93.1-5.9.31-.41.76-.51,1.24-.53.28.01.54.06.73.29Z"/>
        <path class="cls-135" d="m59.14,70.91c-1.14-1.43-2.89-1.89-4.37-2.76-.61-.36-1.3-.58-1.95-.87-.1-.39.05-.63.41-.77,2.47.99,5.06,1.58,7.64,2.19.18.22.23.48.26.75,0,.34.03.68.01,1.02-.03.34-.04.7-.36.93-.46-.46-1.03-.54-1.65-.48Z"/>
        <path class="cls-61" d="m71.43,69.2c-.41-.85-.91-1.64-1.5-2.37-.38-.32-.66-.72-.93-1.13-.22-.34-.44-.68-.47-1.11.04-.5.31-.78.81-.83.25,0,.46.11.65.26.32.31.54.71.81,1.07.34.49.63,1,.78,1.59.47.78.93,1.55,1.4,2.33.09.42.05.83-.4.99-.7.24-.71-.59-1.14-.8Z"/>
        <path class="cls-34" d="m76.89,60.19c.56.28,1.12.55,1.67.83,1,.92.98,1.07-.16,1.45-.58-.31-1.17-.62-1.75-.94-.35-.52-.3-.98.24-1.34Z"/>
        <path class="cls-95" d="m60.79,71.39c.03-.32.06-.63.08-.95.56-.18.98.05,1.35.46-.02.51,0,1.02-.07,1.53-.05.33-.14.75-.61.75-.45,0-.55-.38-.62-.74-.06-.35-.09-.7-.14-1.05Z"/>
        <path class="cls-13" d="m78.08,53.4c-.24-.01-.48-.02-.72-.04-.37-.45-.37-.93-.07-1.41.34-.16.69-.15,1.04,0,0,.41,0,.82,0,1.24-.08.07-.17.15-.25.22Z"/>
        <path class="cls-168" d="m62.21,70.9c-.45-.15-.9-.31-1.35-.46,0-.32,0-.64,0-.96.55-.14.96.13,1.34.46l.09.72c-.03.08-.05.16-.08.24Z"/>
        <path class="cls-93" d="m63.91,87.42c.63-1.58,1.85-2.51,3.35-3.19,3.07-1.39,6.28-1.54,9.57-1.17,2.79.32,5.64.36,8.28,1.5.14.06.28.14.42.22.31.21.8.4.14.78-.43.25-.91.27-1.38.32-1.97.24-3.96.45-5.88.98-2.12.58-4.24.55-6.38.25-.28-.04-.56-.04-.83-.03-1.9-.19-3.7.39-5.54.69-.65.26-1.37.81-1.74-.35Z"/>
        <path class="cls-73" d="m40.18,82.39c1.06-1.42,2.72-1.65,4.24-1.79,1.37-.12,2.75-.28,4.13-.31,3.46-.09,6.82.35,9.88,2.13.2.12.44.17.66.26,1.03.87,2.38,1.3,3.3,2.34.34.38.86.73.16,1.25-.83.7-1.28,1.71-1.95,2.54-.4.5-.68,1.14-1.47.95-.85-.2-1.63-.59-1.85-1.51-.22-.95-.49-1.79-1.39-2.37-.55-.35-.69-.98-.38-1.6.3-.6.05-.9-.46-1.26-2-1.42-4.3-1.2-6.55-1.29-.37-.01-.69.21-.96.44-1.64,1.42-3.42,1.21-5.26.48-.44-.27-.83.01-1.24.1-.35.07-.8.27-.85-.38Z"/>
        <path class="cls-140" d="m42.37,82.41c1.07.52,2.24.62,3.37.45.58-.09,1.1-.61,1.65-.93.23-.14.35-.45.68-.45,2.23.02,4.5-.23,6.56.96.34.2.71.34,1.04.55.38.24.78.52.33,1.03-.82.92-.28,1.61.49,2.02.67.36.83.83.91,1.48.06.54.15,1.07.67,1.46,1.11.81,1.54.74,2.43-.3.68-.8.95-1.96,2.05-2.41-.78,1.27-1.6,2.52-2.64,3.6-.58.48-.74,1.5-1.48,1.61-.67.11-.97-.91-1.7-1.11-.31-.08-.55-.36-.96-.36-2.2,0-3.12-1.38-2.41-3.57.49-.82,1.12-.4,1.73-.19.4.14.71.47,1.2.58-.5-.69-1.26-1.05-1.69-1.72-.07-1.57-.19-1.73-1.84-2.2-.88-.25-1.76-.47-2.69-.56-.81-.08-1.51-.18-1.81.83-.11.37-.47.38-.81.33-.4-.06-.8-.05-1.2-.03-1.08,0-2.15.07-3.22-.14-.42-.08-.93-.08-.79-.76.04-.05.08-.11.12-.16Z"/>
        <path class="cls-156" d="m63.91,87.42c.48.59.98.61,1.5.04.2.19.23.43.24.68-.11,1.09-.74,1.77-1.72,2.17-.08.08-.15.16-.23.25-.33.42.06.66.24.96h0c1.08.89,1,1.6-.25,2.12-.51.21-.91.6-1.42.79h0c-.4.34-.81-.44-1.2,0l.02-.02c-.4.58.04,1.27-.34,1.92-.66,1.13-1.73,1.71-2.74,2.38-.55.36-.99.13-1.02-.61.09-.51.25-.98.73-1.26,1.75-2.73,3.51-5.47,5.27-8.2.28-.43.61-.82.92-1.23Z"/>
        <path class="cls-196" d="m53.62,86.5c-.53,1.58-.14,2.69,1.12,3.19.18.07.41.2.56.14,1.57-.58,2.18.65,3.08,1.52.71-.19.72-1.26,1.52-1.48-1.04,1.52-2.09,3.05-3.13,4.57-.7-.46-.87-1.32-1.49-1.93-.07.74.3,1.25.71,1.72.31.35.53.7.27,1.17l-.21.7c.11.63-.35,1.02-.64,1.48-.07.08-.15.16-.24.23-.43.2-.62,1.14-1.31.48-.53-.5-.65-1.16-.02-1.65.69-.53-.08-.88-.06-1.32.94-1.79.8-3.49-.41-5.1-.12-.76-.89-.77-1.34-1.16-.11-.12-.21-.26-.29-.4-.3-.57-.77-1.01-1.12-1.53-.23-.34-.56-.7-.34-1.18,1.19.05,1.84.85,2.41,1.76-.29-1.09-.15-1.28.93-1.22Z"/>
        <path class="cls-21" d="m71.1,86.75c.82.08,1.65.14,2.47.23,3.26.33,6.29-1.03,9.47-1.34.77-.08,1.57,0,2.35-.25.63-.2.22-.38.12-.61.4.09.79.18,1.19.27.64.32,1.28.64,1.91.96.08.44-.22.59-.55.73-2.03.71-4.13.97-6.25,1.18-1.01.1-1.96-.26-2.95-.11-2.03.01-4.04-.32-6.07-.28-.62.01-1.39.04-1.7-.78Z"/>
        <path class="cls-147" d="m56.28,95.4c.02-.38-.17-.62-.45-.9-.47-.47-.85-1.03-.88-1.75-.01-.33-.02-.69.35-.79.5-.13.43.31.48.59.02.12.03.34.04.34,1.28-.08.36,1.21.96,1.54-.07.37-.22.7-.5.96Z"/>
        <path class="cls-190" d="m55.29,97.52c.12-.55.5-.96.77-1.42.38.25.7.6,1.26.34.3-.14.35.19.4.41-.17.38-.33.77-.5,1.15-.08.08-.18.13-.29.14-.68.15-1.16-.24-1.64-.62Z"/>
        <path class="cls-75" d="m37.53,85.98c.21-.55.51-1.04.97-1.43.26-.1.51-.23.79-.2.81.06,1.35-.27,1.63-1.05.08-.23.16-.57.57-.37.26.52.68.7,1.27.67.4-.02,1.01-.2,1.04.57-.32.25-.67.18-.96.09.6.58.67,1.34.59,2.14-.59.45-1.4-.4-1.89.32,1.22.27,2.52.43,3.53,1.36-.12.48.15.83.42,1.17,1.02,1.28,1.67,2.85,3.11,3.79.08.05.02.22-.08.3-.47.25-.95.2-1.34-.11-1.36-1.07-2.88-1.77-4.59-2.06-.19-.03-.36-.15-.52-.27-.76-.72-1.59-1.35-2.42-2-.28-.23-.6-.43-.81-.74-.14-.21-.29-.41-.47-.59-.21-.22-.41-.46-.58-.72-.14-.27-.41-.5-.27-.86Z"/>
        <path class="cls-170" d="m37.53,85.98c.17.25.34.51.51.76-1.27,2.04-2.67,3.99-3.95,6.02-.78.91-1.1,2.09-1.78,3.06-.3.42-.56.86-1.02,1.13-.34.2-.71.42-1.1.15-.42-.3-.25-.69-.08-1.06,1.42-2.44,3.09-4.71,4.81-6.94,1.07-.82,1.74-1.96,2.41-3.1.07,0,.13,0,.2-.02Z"/>
        <path class="cls-125" d="m41.42,82.91q-.77,1.76-2.92,1.64c.41-.84.95-1.58,1.68-2.16.34.47.69.15,1.02,0,.39-.17.78-.39,1.17.01,0,0-.04.03-.04.03-.27.23-.46.6-.91.47Z"/>
        <path class="cls-82" d="m50.94,70.09c-.43.27-.84.42-1.17-.14-.39-.96.18-1.5.86-1.99.51.09.92.32,1.12.82-.04.14-.07.29-.11.43-.24.29-.47.59-.71.88Z"/>
        <path class="cls-144" d="m51.75,68.77c-.37-.21-.83-.3-1.02-.76-.07-.1-.09-.2-.07-.32.2-.6.54-1.11.89-1.62.11-.14.25-.24.41-.3.48-.01.91.1,1.22.5.04.11.04.22-.03.32-.12.22-.24.45-.36.67-.35.5-.7,1-1.05,1.5Z"/>
        <path class="cls-30" d="m88.14,86.5c.23-.09.39-.25.48-.48.59.42,1.54.7,1.13,1.67-.37.87-.46,2.05-1.86,2.15-1.86.14-3.59.93-5.4,1.31-.21.04-.39.25-.58.38-.7.28-1.42.45-2.17.51-.09-.08-.18-.16-.27-.24.59-.6,1.41-.66,2.14-.96.62-.25,1.31-.35,1.8-.87.31-.17.66-.17,1-.19.56-.05,1.08-.23,1.6-.4.69-.22,1.21-.4.91-1.38-.27-.89.65-1.13,1.23-1.5Z"/>
        <path class="cls-189" d="m78.32,51.94l-.97.06c-.26.2-.56.26-.88.23-.51-.04-.74-.38-.93-.81-1.4-3.14-3.38-5.96-5.12-8.9-1.13-1.92-2.29-3.82-3.56-5.66-.53-.77-1.53-1.21-1.65-2.27.08-.36.28-.63.58-.84,1.5.95,2.33,2.49,3.18,3.93,1.92,3.27,4.06,6.4,6.12,9.58.71,1.09,1.43,2.22,1.91,3.42.33.83.74,1.15,1.56,1.05-.08.07-.17.14-.25.21Z"/>
        <path class="cls-106" d="m45.64,52.95c-.33-.04-.69.04-.96-.24.49-.03.64-.4.78-.78,1.05-2.83,2.78-5.31,4.1-8,.61-1.23,1.22-2.46,1.87-3.68,1.13-2.12,2.28-4.24,3.79-6.13.21-.27.39-.57.58-.86.32.33.3.77.39,1.18.06.53-.27.91-.53,1.32-1.29,1.51-1.92,3.39-2.89,5.08-1.54,2.7-3.07,5.41-4.57,8.13-.56,1.02-1.12,2.02-1.45,3.14-.15.52-.29,1.17-1.12.84Z"/>
        <path class="cls-64" d="m57.93,32.1c1.76-.59,3.52-.88,5.28-.02.38.66.08,1.08-.5,1.4-1.3.26-2.65,0-3.95.3-1.31-.41-1.49-.78-.83-1.68Z"/>
        <path class="cls-14" d="m57.93,32.1c-.47.82-.05,1.2.71,1.39-.6.83-1.71,1.24-2.63.99-.36-.35-.21-.8-.22-1.22.67-.46,1.25-1.1,2.13-1.16Z"/>
        <path class="cls-138" d="m62.7,33.27c.4-.3.52-.72.51-1.19,1.21.02,1.82.97,2.59,1.67.05.36-.16.57-.43.74-1.03-.1-1.96-.42-2.67-1.21Z"/>
        <path class="cls-191" d="m50.74,67.77c0,.08,0,.16,0,.24-.47.57-.92,1.15-.97,1.94-.39.06-.74-.01-1.13.4-.3.31-1.13.02-1.63-.36-1.69-1.28-3.21-2.86-4-4.75-.64-1.54-1.19-3.4-.09-5.18.54-.88.55-1.97.61-2.99.06-.99.01-1.98.26-2.95.44-.07.81.16,1.21.28.39.16.57.5.5.86-.33,1.79,0,3.57-.04,5.35-.25.8-1.22.82-1.67,1.47.38.44.87.06,1.24.25.83.57,1.1,1.53,1.59,2.33.77,1.26,1.58,2.38,3.27,2.38.4,0,.92.08.85.73Z"/>
        <path class="cls-188" d="m45.64,52.95c.52-.05.73-.33.82-.85.18-1.03.72-1.94,1.22-2.85,2.15-3.91,4.49-7.7,6.45-11.71.35-.71.7-1.44,1.4-1.9.05.04.09.09.14.13.19.35.18.72.15,1.1-.6,1.83-1.71,3.4-2.62,5.06-.94,1.7-1.74,3.47-2.69,5.18-.99,1.79-2.33,3.44-2.67,5.56-.09.53-.56.74-1.08.78-.19.02-.37,0-.56-.03-.19-.04-.36-.12-.47-.28-.03-.06-.06-.13-.09-.19Z"/>
        <path class="cls-109" d="m45.23,60.81c-.04-1.84-.51-3.67,0-5.51.09-.31-.06-.62-.22-.9.16-.01.31-.03.47-.04.37-.19.72-.05,1.07.05.24.11.43.27.52.52-.27,1.67.4,3.23.55,4.86-.08.34-.32.55-.6.72-.57.25-1.12.57-1.78.29Z"/>
        <path class="cls-66" d="m46.42,54.58c-.35.05-.67,0-.96-.22.07-.41-.15-.88.26-1.22.16.02.31.04.47.07.45.39.66.83.23,1.37Z"/>
        <path class="cls-149" d="m73.72,91.31c-1.5,0-3-.06-4.5-.01-1.2.04-2.26-.44-3.38-.72.58-.39,1.29-.56,1.7-1.23.21-.34.72-.24,1.11-.32,1.68-.33,3.41-.08,5.02-.49.22,0,.08-.27.09-.12,0,.01-.01.01-.03.02-.31.07-.73.33-.67-.34,1.91-.87,3.86-.4,5.74,0,.91.19,2.07-.07,2.72.94.05.31-.09.58-.33.72-1.38.77-2.73,1.65-4.4,1.64-1.03,0-2.06.13-3.08-.09Z"/>
        <path class="cls-149" d="m69.2,94.9c-1.71-.08-3.43-.16-5.14-.25-.31-.02-.64.05-.89-.22.26-.33.64-.33.99-.31,1.57.07,2.53-.74,3.13-2.1,3.51-.03,7.01.14,10.51.51.09.29-.06.5-.3.56-2.46.63-4.8,1.73-7.36,1.92-.31.02-.64.09-.93-.1Z"/>
        <path class="cls-163" d="m57.01,98.05c.07-.01.14-.02.21-.04,0,1.08.57.57.97.31,1.45-.93,2.61-2.1,2.89-3.9-.12.96.19,1.24,1.23,1.08,1.89-.31,3.78.36,5.72.23-2.74,1.35-5.51,2.54-8.63,2.53-.67,1.09-2.03,1.69-2.99,1.32-.04-.18-.11-.35-.08-.53.12-.4.27-.79.67-1Z"/>
        <path class="cls-143" d="m73.04,88.17c.22.39.68.11.98.37-1.73,1.06-3.71.35-5.51.81-.46.12-.88,0-1.04.67-.22.88-1.05.44-1.62.55-.61-.28-1.31.14-1.91-.25.49-.71,1.43-1.11,1.44-2.15,2.12-.7,4.25-1.22,6.49-.67.45.11.96.13,1.18.67Z"/>
        <path class="cls-183" d="m56.02,99.93c.07-.02.13-.04.2-.05.61.2,1.12-.08,1.66-.3.48-.2.93-.6,1.52-.38.82.47,1.47-.24,2.24-.31-.67.69-1.57.89-2.41,1.21-1,.38-1.97.68-2.61,1.69-.4.65-.66,1.24-.59,1.99-.37.84-1.23.98-1.95,1.29-.33.15-.59-.1-.63-.49.03-.33.25-.56.45-.8h0c.72-1.27,1.18-2.7,2.13-3.85Z"/>
        <path class="cls-2" d="m53.62,104.49c.04.52.31.45.65.26.58-.33,1.18-.65,1.76-.97.08,0,.16,0,.24-.01,2.09.34,3.86-.92,5.83-1.16.71-.09,1.39-.26,2.09-.02-.77.47-1.8.39-2.41,1.18-.08.25-.26.42-.5.45-1.8.21-3.39.99-4.99,1.75-.14.07-.3.08-.46.09-.83,0-1.55-.54-2.39-.51-.22,0-.41-.12-.37-.34.05-.32.03-.74.55-.71Z"/>
        <path class="cls-151" d="m73.72,91.31c2.3.2,4.48-.21,6.51-1.34.44-.24,1-.33,1.22-.88.92-.18,1.46.33,1.9,1.03.06.17.19.37-.11.46-1.27.38-2.46.99-3.78,1.22-1.92-.13-3.84-.16-5.74-.49Z"/>
        <path class="cls-163" d="m67.29,92.01c.18.9-1.12,2.33-2.21,2.39-.63.03-1.26.02-1.9.02-.3,0-.61,0-.91.01.5-.5.91-.97,1.73-1.21.99-.29.22-1.12-.06-1.71.48,0,.95.02,1.43.03.53.6,1.32.13,1.92.47h0Z"/>
        <path class="cls-26" d="m69.2,94.9c2.9-.3,5.61-1.32,8.39-2.1.09-.02.14-.18.2-.28.37.01.78-.17,1.27.32-2.05.63-4,1.17-5.91,1.85-1.33.48-2.6.84-3.96.21Z"/>
        <path class="cls-108" d="m64.19,102.58c-1.7-.06-3.28.43-4.81,1.08-1.05.45-2.05.78-3.11.1,2.69-.8,5.39-1.5,8.23-1.44.24,0,.48.03.64.25-.32,0-.63,0-.95,0Z"/>
        <path class="cls-126" d="m59.4,99.2c-.83.35-1.61.82-2.5,1.04-.4.1-.61.06-.67-.36.02-.14.04-.29.06-.43.07-.08.13-.08.2,0,1.25.29,1.97-.74,2.92-1.18,0,.31,0,.63,0,.94Z"/>
        <path class="cls-74" d="m78.9,100.31c-.08.43-.33.61-.75.57-.19-.02-.48-.02-.45-.25.06-.4.35-.72.75-.78.23-.04.39.22.44.46Z"/>
        <path class="cls-59" d="m89.1,90.34c.07-.01.15-.03.22-.04-.06.84-.3,1.61-.96,2.19.25-.71.49-1.43.74-2.14Z"/>
        <path class="cls-149" d="m67.29,92.01c-.65-.12-1.44.33-1.92-.47.59.35,1.41-.21,1.92.47Z"/>
        <path class="cls-163" d="m61.07,94.44c.4-.59.8.04,1.2-.01-.4.52-.8-.11-1.2.01Z"/>
        <path class="cls-163" d="m63.95,91.53c-.42-.24-.71-.5-.24-.96.08.32.16.64.24.96Z"/>
        <path class="cls-44" d="m28.93,106.16c1.01-.67,2.21-.53,3.32-.7,4.86-.77,9.44.51,13.97,2.03.38.13.75.24,1.13.36.55.71,1.48,1.09,1.78,2.07-1-.13-1.97-.26-2.94-.39-5.58-.81-11.16-1.62-16.74-2.43-.19-.03-.37-.13-.55-.19,0-.25,0-.5.03-.75Z"/>
        <path class="cls-173" d="m68.24,109.28c2.66-.02,5.05,1.05,7.5,1.85.79.26,1.58.54,2.36.83.46.17.75.39.48.97-.22.47-.26,1-1.04.8-1.32-.34-2.69-.12-4.04-.27-5.29-.58-10.5-1.63-15.77-2.3-.6-.08-1.7.11-1.74-.51-.05-.69.99-.89,1.66-1.12.87-.3,1.75-.55,2.69-.48.06.39-.25.48-.5.55-.88.25-1.73.6-2.58.82,2.3.34,4.63.74,7.02.07,1.02-.29,2.14-.06,3.22-.07.6,0,1.2-.02,1.81-.31-.24-.43-1.07-.11-1.05-.81Z"/>
        <path class="cls-139" d="m55.76,105.91c1.89-1.02,3.87-1.81,6.01-2.14.96.09,1.96-.21,2.9.22-.51.61-1.48-.02-1.93.74-1.39.39-2.91.32-4.43,1.35,5.46-.74,10.45-.49,15,2.42-2.18-.33-4.36-.67-6.55-1-2.9-.43-5.78-.43-8.66-.08-.53.06-1.03.41-1.54.63-.87.37-1.98.03-2.23-.67.37-.52.69-1.09,1.28-1.42.05-.01.1-.03.16-.04Z"/>
        <path class="cls-160" d="m33.96,103.28c1.46-.81,3.07-.78,4.65-.7,2.01.11,4.03.28,5.9,1.16.32.26.76.08,1.2.38-.37-.37-.65-.63-.98-.83-.54-.1-1-.36-1.43-.69-.66-.43-1.43-.53-2.16-.75-.34-.02-.7.09-.98-.21.28-.68.78-.37,1.22-.28,2.43.6,4.5,1.89,6.48,3.36.13.19.3.37.4.58.15.35.63.58.22,1.13-.48.65-.73-.21-1.09-.06-2.02-1.25-4.12-2.07-6.58-2.22-2.05-.13-4.13.14-6.15-.36-.11-.35-.8.12-.71-.51Z"/>
        <path class="cls-81" d="m68.24,109.28c.5.45,1.26.13,1.73.62-1.11,1.22-10.5,1.63-13.36.54,1.2-.71,2.54-.85,3.72-1.4,1.69-.46,3.41-.33,5.09-.12.94.12,1.93-.09,2.82.36Z"/>
        <path class="cls-1" d="m52.2,102.83c-.34.63-.68,1.25-1.02,1.88-.99.2-1.5-.46-1.99-1.13,0-.08-.02-.17.02-.23,1.29-1.73,2.44-3.57,3.91-5.17.19-.03.36.03.51.16.09.09.15.2.18.32-.11,1.56-1.02,2.81-1.61,4.19Z"/>
        <path class="cls-169" d="m53.86,95.37c.6.43,1.34.75.15,1.47-.82.5-.16,1.04.23,1.5.4-.18.39-.74.86-.79.1.14.13.29.09.46-.09.34-.33.54-.61.72-.09.08-.18.16-.27.24-.43.16-.48-.28-.7-.44l.02-.04c-.77-.69-1.17-1.84-2.41-1.95-.16-.07-.28-.18-.33-.35-.03-.44.33-.52.61-.68.09-.06.18-.11.27-.17,1.11-1.26,1.57-1.25,2.1.05Z"/>
        <path class="cls-49" d="m52.95,110.47c-1.38,0-2.44-.72-2.42-1.58.02-.67.26-1.2,1.03-1.2.75,0,1.97,1.4,2.02,2.27.03.58-.38.49-.63.51Z"/>
        <path class="cls-81" d="m49.31,103.52c.58.47,1.12.99,1.87,1.19-.63,1.48-.69,1.48-1.69.17-.19-.24-.43-.44-.65-.66-.71-1.16-2.02-1.65-2.89-2.62.59-.35.98.1,1.4.36.58.35,1.15.73,1.69,1.13.14.11.19.28.28.43Z"/>
        <path class="cls-119" d="m72.07,106.42c-2.27-.81-4.58-1.41-6.98-1.67.67-.61,1.49-.11,2.22-.28,1.9.11,3.57.92,5.25,1.69.03.45-.22.36-.49.25Z"/>
        <path class="cls-94" d="m56.02,99.93c-.63,1.33-.94,2.84-2.13,3.86-.27-1.83.68-2.99,2.13-3.86Z"/>
        <path class="cls-94" d="m53.62,104.49c-.25.21-.42.46-.34.92.97-.51,1.68.21,2.49.5,0,0,.02.01.02.01-.45.16-.61.8-1.2.72-.47-.3-.79-.76-1.41-.93-.54-.14-.3-.79-.12-1.17.16-.34.46-.63.85-.76-.09.24-.19.47-.28.71Z"/>
        <path class="cls-70" d="m67.3,104.47c-.69.5-1.49.12-2.22.28-.78,0-1.57-.02-2.35-.02-.08-.41-.17-.8.5-.73.47.05.96,0,1.43,0,0,0-.02,0-.02,0,.44.33,1-.04,1.45.24h0c.35.33.84-.03,1.2.25h0Z"/>
        <path class="cls-86" d="m53.61,98.52c.23.15.47.3.7.44-.66,1.31-1.12,2.74-2.12,3.87.29-1.5,1.27-2.77,1.41-4.31Z"/>
        <path class="cls-124" d="m54.59,98.72c.15-.25.29-.49.44-.74.65-.2,1.07.09,1.51,1.02-.02.15-.04.3-.05.44-.07,0-.14,0-.2,0-.7.07-.98-.83-1.69-.73Z"/>
        <path class="cls-155" d="m72.07,106.42c.19-.03.39-.05.49-.25.76.38,1.53.77,2.29,1.15-1.02-.07-1.92-.43-2.78-.9Z"/>
        <path class="cls-17" d="m54.58,106.64c.46-.14.64-.75,1.2-.72-.38.59-.87,1.07-1.45,1.45.02-.27-.02-.55.26-.73Z"/>
        <path class="cls-119" d="m66.1,104.23c-.49-.05-1.03.22-1.45-.24.49.04,1.01-.13,1.45.24Z"/>
        <path class="cls-119" d="m67.3,104.48c-.41-.05-.87.18-1.2-.25.41.04.85-.09,1.2.25Z"/>
        <path class="cls-79" d="m30.11,96.04c-.04,1.04.31,1.22,1.15.58.76-.59,1.03-1.48,1.52-2.24.41-.62.49-1.45,1.18-1.89.31.39.07.76-.08,1.12-.73,1.77-1.65,3.43-2.86,4.92-.39.49-.83,1.13-1.56.73-.72-.4-.62-1.11-.32-1.79,0-.14,0-.28.01-.43.32-.34.63-.67.95-1Z"/>
        <path class="cls-71" d="m38.52,87.45c.22.1.39.25.47.48-1.95,2.61-3.49,5.44-4.69,8.47-.83,2.1-2.26,3.74-3.93,5.2-1.2.65-2.39,1.3-3.59,1.95.15-.98.31-1.96.46-2.94.22-.61.56-1.16.97-1.66.4.41.38.94.42,1.45.07.77.56.83.94.34,1.16-1.51,2.55-2.88,3.31-4.66,1.12-2.65,2.41-5.21,4.03-7.59.36-.53.66-1.35,1.62-1.04Z"/>
        <path class="cls-182" d="m38.52,87.45c-1.22.28-1.53,1.44-2.08,2.3-1.39,2.17-2.37,4.56-3.48,6.87-.81,1.68-2.11,3.13-3.36,4.55-.22.25-.43.46-.81.23-.28-.17-.65-.35-.52-.7.23-.62-.16-1.17-.05-1.75.24-.54.49-1.08.94-1.49,0,.16.01.32.02.48.02.48,0,1.06.56,1.19.48.12.75-.38,1.01-.72,1.37-1.81,2.53-3.75,3.22-5.93,1.08-1.69,2.1-3.42,3.33-5.01.22-.28.4-.58.74-.74.16.24.33.47.49.71Z"/>
        <path class="cls-10" d="m44.71,100.91c-2.36-.72-4.73-1.29-7.23-.99-1.17.14-2.34.31-3.51.47-.03-.44.34-.53.62-.59,2.15-.44,2.83-1.93,2.86-3.91,0-.17.06-.31.21-.4,3.35-.05,6.47.73,9.27,2.61.16.26.18.55,0,.76-.67.75-1.15,1.72-2.22,2.05Z"/>
        <path class="cls-137" d="m44.71,100.91c.63-.97,1.81-1.49,2.2-2.66.76-.4,1.31.24,2.12.44-.39-.42-.77-.54-1.14-.68-.35-.14-.79-.2-.78-.73,1.02-.48,1.63-1.71,2.95-1.66.39.01.69.17.91.5.09.07.18.14.28.21.64.35,1.38.61,1.52,1.47-.51,1.4-1.62,2.42-2.36,3.68-.38.65-.93,1.19-1.34,1.82-1.16-.34-1.89-1.48-3.12-1.69-.41-.23-.82-.46-1.23-.69Z"/>
        <path class="cls-132" d="m30.37,101.61c.34-.94,1.2-1.46,1.8-2.19,1.01-1.24,1.76-2.63,2.31-4.12.88-2.4,2.3-4.51,3.6-6.69.21-.35.46-.65.92-.66.24.24.49.48.73.72-.2.48-.56.8-1.04.98-.54.18-.19.55-.17.85-.09,1.38-1.11,2.36-1.56,3.59-.13.36-.59.36-.93.47-.32.2-.23.49-.17.78-.79,2.41-1.97,4.54-4.26,5.86-.35.28-.75.45-1.21.43Z"/>
        <path class="cls-58" d="m31.58,101.18c1.41-1.21,2.51-2.68,3.39-4.3.3-.55.7-1.06.67-1.73.79-.45,1.35.04,1.92.48.59,1.74-.69,3.96-2.5,4.33-.38.08-.79.14-1.09.44-.8.26-1.59.53-2.39.79Z"/>
        <path class="cls-141" d="m41.39,101.37c-.42.06-.89-.17-1.22.28-1.98-.06-3.95-.19-5.93.07,2.37-.37,4.71-1.25,7.15-.35Z"/>
        <path class="cls-141" d="m44.73,103.29c.69.07,1.17.43,1.61,1.11-.75-.05-1.36-.14-1.83-.66.42.01.37-.2.22-.45Z"/>
        <path class="cls-152" d="m33.96,103.28c.24.17.47.34.71.51-.71,0-1.42,0-2.3,0,.57-.46,1.07-.54,1.59-.51Z"/>
        <path class="cls-184" d="m28.93,106.16c.54.27.41.52-.03.75-.23-.06-.61.09-.62-.3,0-.37.33-.45.65-.46Z"/>
        <path class="cls-141" d="m41.14,101.85c.81,0,1.57.12,2.16.75-.75-.15-1.49-.36-2.16-.75Z"/>
        <path class="cls-111" d="m71.57,66.68c-.39-.44-.75-.89-.96-1.45-.14-.31.01-.56.21-.74,1.1-1.04,2-2.23,2.73-3.55.16-.28.41-.48.74-.55.71.03,1.41.06,1.62.94-.49,0-.64.37-.84.72-.88,1.54-1.81,3.04-3.26,4.14-.13.1-.17.34-.25.51Z"/>
        <path class="cls-136" d="m75.91,61.31c-.46-.4-.99-.65-1.6-.76-.36-.07-.72-.14-1.02-.37-.47-.35-.63-.8-.31-1.31.31-.5.79-.38,1.25-.24.65.32,1.41.45,1.89,1.08.25.16.51.32.76.48-.13.44-.32.86-.24,1.34-.24-.07-.49-.14-.73-.21Z"/>
        <path class="cls-129" d="m69.21,65.63c.25.39.64.71.72,1.2-1.76.08-3.17,1.27-4.89,1.56-.94.16-1.83.37-2.76.12-.16-.14-.2-.33-.18-.53.03-.13.1-.24.21-.32,1.17-.51,2.49-.35,3.67-.9.68-.32,1.4-.54,2.04-.94.36-.22.74-.5,1.2-.19Z"/>
        <path class="cls-167" d="m62.23,68.06c.01.15.03.3.04.45-.02.48-.04.96-.06,1.44-.52.05-.91-.26-1.34-.46-.03-.24-.06-.49-.09-.73-.07-.1-.14-.21-.18-.33-.09-.31-.08-.63-.09-.95.01-.46,0-.93.39-1.28.46-.31.88-.33,1.25.15.38.56-.02,1.16.09,1.73Z"/>
        <path class="cls-52" d="m76.12,59.71c-.66-.18-1.3-.44-1.88-.81-.18-.19-.25-.43-.19-.66.29-1.14.2-2.3.17-3.45-.02-.61.14-1.11.78-1.34.42-.1.82-.15,1.16.2.8,1.39.41,2.9.38,4.35,0,.54-.06,1.2-.42,1.71Z"/>
        <path class="cls-84" d="m76.16,53.65c-.4.01-.8.02-1.21.04-.07.02-.15.05-.23.07-.45.09-.99.34-1.27-.21-.31-.6.14-.93.6-1.22.36-.17.76-.21,1.14-.32.43-.16.86.21,1.29,0,.29,0,.58,0,.88,0,0,.45,0,.91,0,1.36-.4.1-.8.19-1.2.29Z"/>
        <path class="cls-154" d="m60.78,68.5c0,.08,0,.17,0,.25-2.68-.21-5.24-.82-7.6-2.15,0-.08-.01-.16-.02-.24,0-.38.2-.6.57-.67.37-.03.7.1,1.01.28,1.56.92,3.23,1.46,5.04,1.51.7.02.95.41,1.01,1.02Z"/>
        <path class="cls-166" d="m62.23,68.06c-.34-.51-.13-1.1-.27-1.64,0-.71.61-.62,1.01-.73,1.22-.36,2.46-.66,3.56-1.33.38-.23.76-.45.83-.94.23-.49.69-.75,1.09-1.07,1.64-1.3,2.72-2.95,3.16-5,.15-.58.18-1.17.15-1.76.24-2.2-.76-4.03-1.78-5.85-.21-.38-.45-.75-.66-1.14-.32-.53-.66-1.05-1.01-1.56-.37-.63-.88-1.16-1.27-1.78-.25-.42-.42-.88-.57-1.35-.23-1.02-.56-2.05.15-3.02.74.29.91,1.07,1.25,1.64,1.84,3.03,3.91,5.92,5.1,9.31,1.64,4.67-.55,9.86-3.54,12.07-.48.02-.71.29-.75.75-1.62.92-3.33,1.66-5.17,1.99-.71.13-.94.64-1.24,1.15-.02.09-.04.17-.05.26Z"/>
        <path class="cls-113" d="m69.45,63.92c0-.46.37-.69.64-.97,3.15-3.23,3.97-7.73,2.28-11.9-.79-1.93-1.84-3.71-2.96-5.45-.76-1.19-1.27-2.54-2.27-3.58-.27-.29-.36-.71-.34-1.12-.26-.27-.24-.56-.09-.87.79-.3.94.44,1.2.83,2.09,3.25,4.07,6.57,5.67,10.09.23.51.58.95.71,1.51-.27.27-.96.3-.69.88.27.59.91.19,1.36.34-.78.39-.49,1.18-.4,1.66.23,1.24-.17,2.37-.31,3.55-.38.07-.85-.51-1.15.11-.24.5.13.8.46,1.09-.78,1.2-1.5,2.45-2.5,3.48-.31.32-.59.8-1.18.64-.14-.1-.28-.2-.42-.29Z"/>
        <path class="cls-104" d="m62.29,67.8c-.15-.72,0-1.26.84-1.39,1.66-.27,3.22-.8,4.68-1.64.28-.16.56-.32.89-.1.17.32.34.64.51.96-1.18.35-2.15,1.13-3.33,1.51-1.19.38-2.38.5-3.58.66Z"/>
        <path class="cls-193" d="m69.87,64.22c1.4-.84,2.04-2.33,3-3.55.19-.25.3-.56.68-.56.33.02.57.19.76.45-.1.06-.25.09-.3.18-.86,1.71-2.15,3.08-3.41,4.49-.37-.24-.53-.64-.73-1.01Z"/>
        <path class="cls-87" d="m83.35,90.11c-.66-.29-1.17-.87-1.9-1.03-2.35-.7-4.72-1.26-7.21-.98-.4.04-.8.04-1.2.06-2.04-.83-4.1-.64-6.18-.14-.48.12-.97.36-1.49.14.01-.24.02-.47.04-.71,1.89-.34,3.74-.91,5.69-.72.64.34,1.35.53,2.06.48,1.96-.14,3.89.28,5.85.24,1.61.46,3.41.34,4.78,1.54.34.3.87.45.72,1.07-.39.01-.77.02-1.16.03Z"/>
        <path class="cls-174" d="m41.42,82.91c.27-.21.48-.55.91-.47.07.23-.05.49.41.55,1.21.16,2.42.19,3.64.17.61.08,1.19.29,1.81.34,2.01.39,4,.89,6.05,1.13.22.14.44.28.57.52.79.5,1.46,1.14,2.19,1.89-.92.34-1.37-.26-1.91-.55-.59-.43-1.25-.62-1.99-.62-1.84.01-3.56-.65-5.31-1.09-.77-.34-1.58-.36-2.41-.36-.53,0-1.11.13-1.54-.34-.41-.34-.9-.3-1.35-.18-.91.23-1.15-.17-1.06-.99Z"/>
        <path class="cls-12" d="m54.8,85.15c-.16-.09-.31-.19-.47-.28-1.73-.98-3.52-1.63-5.56-1.15-.22.05-.47.06-.68-.09-.57-.16-1.14-.31-1.71-.47.36.01.73-.05,1.06.05.48.14.67.03.67-.46,0-.62.38-.83.94-.8,1.76.08,3.48.41,5.08,1.16.6.28,1.53.64.59,1.6-.06.06.05.3.08.45Z"/>
        <path class="cls-102" d="m47.87,84.57c1.94.36,3.82,1.02,5.83,1.06.49,0,1.06.33,1.37.85-.48.18-.97-.85-1.45,0q-.84.31-.46,1.96c-1.07-.95-1.69-2.09-2.89-2.44-.93-.09-1.57-.8-2.39-1.13-.07-.1-.07-.21,0-.32Z"/>
        <path class="cls-140" d="m53.86,95.37c-.56-.63-1.12-1.39-1.66.03-.04.11-.34.13-.52.19-1.02-.8-2-1.66-3.1-2.35-1.15-.22-1.46-1.33-2.11-2.06-.65-.73-1.14-1.61-1.72-2.41-.3-.42-.11-.56.29-.62.69-.21,1.33.1,1.98.19,1.87.27,3.62,1.09,5.52,1.23.31.02.6.2.77.5.77,0,.89.7,1.01,1.16.39,1.45.82,3.22-.47,4.15Z"/>
        <path class="cls-175" d="m47.87,84.82c1,0,1.66.67,2.4,1.2.39.99,1.41,1.57,1.68,2.64-.67.53-1.35.28-2.04.05-.12-.04-.24-.1-.35-.16-.61-.31-1.26-.46-1.93-.53-1.96-.19-2.89-1.61-3.76-3.11-.13-.23-.25-.66.15-.65,1.3.05,2.69-.46,3.86.56Z"/>
        <path class="cls-6" d="m53.33,90.06c-2.81-.43-5.54-1.2-8.28-1.92-1.24-.3-2.29-1.36-3.73-.95-.23.06-.5.03-.58-.27-.08-.32.17-.38.4-.48.74-.32,1.47-.7,2.17.06.95.1,1.87.28,2.67.86.81.58,1.82.37,2.71.68.37.13.75.2,1.09.4h-.01c.7.64,1.66.07,2.41.5.36.13.72.26,1.08.4.47.18.33.45.08.71Z"/>
        <path class="cls-118" d="m56.54,99c-.55-.27-.83-.95-1.51-1.02.03-.15.05-.29.08-.44.06,0,.12-.02.18-.02.71-.27,1.05.67,1.72.52-.08.36-.21.69-.47.96Z"/>
        <path class="cls-102" d="m52.17,88.95c-.78-.25-1.74.31-2.41-.51.72.18,1.44.26,2.18.21.08.1.15.2.23.3Z"/>
        <path class="cls-43" d="m84.51,90.08c-1.13-1.15-2.45-1.96-4.08-2.14-.52-.06-1.03-.05-1.42-.47,2,.37,3.98-.12,5.97-.15,1.13-.02,1.99-1.04,3.17-.82-.37.68-1.67,1.04-.67,2.21.24.28-.3.59-.62.7-.77.26-1.56.46-2.34.68Z"/>
        <path class="cls-48" d="m48.58,93.24c1.39.32,2.39,1.14,3.1,2.35,0,0,0-.01,0-.01-.55.36-1.05.14-1.53-.17-.5-.32-.94-.73-1.47-.99-1.31-.16-2.4-.79-3.4-1.6-.32-.26-.69-.41-1.09-.46-1.6-.16-3.13-.6-4.67-1.04-.56-.14-.98-.47-1.25-.99-.5-.47-.63-.84.24-.96,1.25.22,2.47.56,3.57,1.21,1.56.59,3.3.76,4.62,1.89.56.48,1.08.91,1.87.76Z"/>
        <path class="cls-68" d="m49.78,88.45c-2.06-.34-4.02-1.05-6.03-1.57-.17-.04-.29-.24-.44-.37-.17-.76-.35-1.53-.54-2.35.36-.03.71-.05,1.06-.08,1.36.08,2.77-.3,4.04.5,0,.08,0,.16,0,.24-1.22-.66-2.53-.47-4-.45,1.04,1.65,1.84,3.31,4.09,3.39.6.02,1.37.06,1.81.7Z"/>
        <path class="cls-1" d="m42.09,90.58c-1.24-.25-2.48-.51-3.57-1.21.6.09.65-.73,1.2-.72.86.56,1.69,1.15,2.37,1.93Z"/>
        <path class="cls-117" d="m50.74,67.77c-.18-.39-.5-.5-.89-.46-1.77.15-2.59-1.06-3.38-2.32-.52-.84-.88-1.78-1.56-2.52.4-.83,1.21-.93,1.98-1.07.5.07.71.47.93.85.82,1.43,1.65,2.84,3.53,3.08.39.05.61.37.37.81-.21.61-.58,1.14-.98,1.64Z"/>
        <path class="cls-52" d="m51.72,66.13c-.03-.24-.05-.57-.32-.57-2.11,0-2.88-1.61-3.78-3.08-.2-.33-.28-.75-.7-.93-.06-.06-.08-.13-.07-.19.01-.07.02-.1.04-.11.22-.2.49-.27.75-.37.32-.1.64-.23,1-.19,1.29,1.5,3.03,2.64,3.73,4.62-.03.25-.15.44-.37.57-.1.08-.19.16-.29.24Z"/>
        <path class="cls-89" d="m52.01,65.89c.06-.17.12-.33.18-.5.2-.39.14-.93.63-1.17.27-.16.55-.25.86-.11.28.19.4.47.42.8,0,.41-.18.72-.51.95-.14.17-.29.34-.43.5-.38-.16-.76-.31-1.15-.47Z"/>
        <path class="cls-188" d="m76.48,51.99c-.35.33-.81.16-1.21.25-.32.12-.44-.1-.52-.33-.86-2.68-2.62-4.87-4.02-7.26-1.56-2.67-3.49-5.11-4.82-7.92-.55-1.04-1.38-1.72-2.53-2-1.72-.72-3.45-.52-5.17,0-.95.12-1.68.85-2.64.94,0,0-.04-.04-.04-.04.16-.39.33-.77.49-1.16.99-.03,1.73-.7,2.63-.99,1.34-.29,2.7-.3,4.06-.22.89.4,1.78.81,2.67,1.21.7,1.29,1.87,2.23,2.62,3.49,1.92,3.23,3.92,6.42,5.87,9.64.78,1.28,1.62,2.54,2.07,4,.09.28.31.34.55.38Z"/>
        <path class="cls-114" d="m46.94,61.41s0,.1-.02.14c-.67.32-1.42.45-2.01.91-.19.05-.39.09-.57.17-.36.16-.72.21-.94-.18-.27-.49.11-.72.47-.91.45-.25.9-.49,1.36-.73.55-.17,1.1-.34,1.65-.51.35.35.26.73.06,1.11Z"/>
        <path class="cls-53" d="m46.58,53.2c.39-.06.94-.02.98-.51.15-1.93,1.4-3.34,2.25-4.93,1.83-3.41,3.44-6.94,5.5-10.23.14-.23.19-.52.28-.78.64-.05,1.24-.38,1.91-.29.52.4.07.68-.12.99-1.01.88-1.94,1.83-2.44,3.11-2.05,3.52-3.91,7.13-5.75,10.76-.41.8-.3,1.85-1.12,2.45-.61.11-1.16.06-1.48-.58Z"/>
        <path class="cls-159" d="m57.41,36.58c-.61.04-1.14.84-1.82.18,0-.36-.01-.72-.02-1.09.72-.54,1.5-.96,2.38-1.17.63.35,1.44.46,1.72,1.28-.62.66-1.47.65-2.27.8Z"/>
        <path class="cls-37" d="m46.58,53.2c.47.26.98.4,1.51.47.3-.06.59-.04.85.16.51.6.18,1.01-.32,1.37-.17.08-.36.1-.54.09-.42-.06-.84-.14-1.17-.45-.16-.09-.32-.18-.49-.26.09-.49-.13-.92-.23-1.37.13,0,.26,0,.39,0Z"/>
        <path class="cls-23" d="m46.91,54.84c.42-.02.83-.02,1.2.23.52,1.34.49,2.77.71,4.16-.13.56-.55.73-1.05.8-.14,0-.26-.05-.37-.14-.17-.8-.29-1.62-.54-2.4-.29-.91-.21-1.78.05-2.66Z"/>
        <path class="cls-133" d="m47.4,59.9c.08,0,.15,0,.23.02.37.39.29.78,0,1.17-.23.11-.46.22-.69.33-.02-.37-.04-.74-.06-1.11.17-.14.34-.27.51-.41Z"/>
        <path class="cls-47" d="m49.07,103.3c-.08-.22-.18-.42.04-.65,1.37-1.48,2.3-3.29,3.56-4.86.43-.13.43.2.48.46-1.1,1.88-2.47,3.58-3.83,5.27-.08-.08-.16-.15-.25-.23Z"/>
        <path class="cls-60" d="m53.14,98.25c-.16-.15-.32-.31-.48-.46-.47-.49-.94-.98-1.42-1.47,1.44,0,1.89,1.11,2.39,2.16-.16-.08-.32-.15-.49-.23Z"/>
        <path class="cls-45" d="m48.82,94.14c1,.38,1.6,1.58,2.86,1.43-.24.18-.48.36-.72.54-.31-.09-.62-.18-.94-.27-.67-.11-1.26-.42-1.81-.8-.29-.2-.72-.41-.58-.79.15-.4.63-.15.96-.19.07,0,.15.04.22.08Z"/>
        <path class="cls-50" d="m37.56,95.61c-.7.09-1.21-.59-1.92-.48-.31-.24-.3-.49,0-.73.58-.27,1.15,0,1.72.01,1.55.28,3.1.63,4.69.63.44,0,.87.06,1.26.28,1,.57,2.03,1.06,3.14,1.37.31.09.58.25.69.59.51.63,1.44.42,1.99.99.2.21.49.39.33.69-.23.42-.53.16-.79-.02-.53-.38-1.14-.55-1.77-.69-2.92-1.56-6.05-2.42-9.35-2.63Z"/>
        <path class="cls-122" d="m47.15,97.29c-1.41-.51-2.81-1.03-4.16-1.74-1.02-.54-2.35-.03-3.51-.41-.7-.23-1.49-.12-2.16-.49,1.24-.24,1.31-1.38,1.73-2.25.21-.43.2-.93.43-1.35,1.69.32,3.32.94,5.07,1.03.63.03,1.05.63,1.55.99.81.59,1.74.91,2.73,1.07-.32.1-.7-.11-1.07.21.78.51,1.53,1,2.28,1.49-.61.29-1.39.24-1.72,1.07-.18.45-.73.38-1.16.37Z"/>
        <path class="cls-1" d="m39.48,91.05c.41,1.35-.76,2.27-.96,3.47-.05.3-.79.06-1.2.13-.56-.08-1.12-.16-1.67-.24,1.69-.83,2.11-2.49,2.64-4.07.4.24.8.48,1.2.72Z"/>
        <path class="cls-51" d="m67.52,63.44c.31.57-.13.77-.5,1-1.19.75-2.52,1.15-3.87,1.5-.39.1-.91.02-1.18.47-.28-.27-.6-.26-.93-.12-2.73.23-5.16-.56-7.33-2.22-.61-.28-.95-.8-1.18-1.4-.01-.29.1-.49.41-.54.42.02.75.25,1.06.5,3.89,3.13,8.08,2.83,12.39,1.08.36-.15.68-.43,1.12-.29Z"/>
        <path class="cls-115" d="m53.58,65.85c.11-.31.22-.63.32-.94.42-.3.76.02,1.09.19,1.5.78,3.08,1.28,4.76,1.4.7.05.97.41,1.02,1.03,0,.32,0,.64,0,.96-.26-.25-.25-.74-.82-.72-2.04.08-3.87-.63-5.6-1.65-.23-.14-.52-.19-.78-.27Z"/>
        <path class="cls-76" d="m60.78,67.54c-.27-.2-.2-.71-.7-.71-2.25,0-4.23-.91-6.17-1.91-.1-.23-.19-.46-.29-.7-.06-.06-.08-.12-.06-.18.02-.06.05-.09.07-.09.2.03.45-.02.58.09,1.9,1.58,4.19,1.91,6.53,2.1.11,0,.2.11.3.17-.29.37-.14.83-.26,1.23Z"/>
        <path class="cls-23" d="m66.12,36.61c1.23,2.16,2.53,4.28,3.97,6.32,1.04,1.48,1.81,3.15,2.83,4.65,1,1.46,1.67,3.06,2.36,4.67-.29.27-.65.18-.99.22-1.25-1.18-1.56-2.88-2.39-4.29-1.62-2.77-3.06-5.66-5.05-8.2-.81-1.09-1.93-1.89-2.83-2.9-.01-.33.11-.55.46-.6.54.12,1.08.33,1.65.14Z"/>
        <path class="cls-36" d="m67.52,63.44c-4.76,2.6-10.1,2.87-14.56-1.2-.69-.24-1.06-.7-1.05-1.44.52-.5,1.06-.32,1.49.07,2.2,1.98,4.83,2.08,7.51,1.66,3.17-.5,6.18-1.46,8.68-3.64.67-.58,1.2-1.41,2.24-1.42-.44,2.71-2.19,4.47-4.31,5.97Z"/>
        <path class="cls-3" d="m66.77,44.04c.17.4.35.8.52,1.2-.04.05-.07.1-.11.15-1.22.3-2.63-.6-3.03-1.99-.2-.69-.32-1.4-.65-2.05-.43-.84-1.02-1.6-2.03-1.65-1-.05-1.7.55-2.21,1.4-.39.66-.7,1.34-.83,2.1-.21,1.21-.73,2.28-1.59,3.16-.68.69-1.43,1.31-2.52,1.01-.18-.08-.31-.21-.38-.39-.09-.52.18-.84.59-1.09,1.45-.36,1.77-1.65,2.11-2.79.44-1.49,1.16-2.77,2.14-3.95,1.45-1.73,3.46-1.84,5.07-.27.63.61,1.25,1.22,1.66,2.02.38,1.07.4,2.28,1.26,3.16Z"/>
        <path class="cls-180" d="m69.43,48.36c1.46,2.19,2.91,4.37,2.64,7.19-.15.19-.15.5-.32.64-2.57,2.06-4.44,5.12-8.1,5.63-1.02.14-1.94.75-3,.73-.52-.15-1.22.32-1.56-.45.45-.62,1.21-.22,1.76-.53,1.55-.88,3.06-1.83,4.95-1.86.56,0,.96-.53,1.3-.98.53-.7,1.14-1.33,1.77-1.93,1.31-.99,1.54-2.28.63-3.98-.62-1.16-.81-2.38-.74-3.67.15-.32.15-.78.67-.78Z"/>
        <path class="cls-194" d="m60.82,62.27c2.67-.82,5.58-1,7.61-3.37,1.07-1.24,2.42-2.24,3.65-3.35.03.66.12,1.32-.24,1.92-2.14,1.61-4.06,3.59-6.73,4.32-2.4.65-4.75,1.46-7.38,1.09-1.71-.24-3.23-.55-4.46-1.81-.39-.4-.85-.36-1.33-.24-.56.02-.67-.47-.9-.82-.86-1.3-1.07-2.78-1.16-4.29-.01-.21.08-.38.28-.48.8.02.9.71,1.1,1.23,1.23,3.21,3.46,5.11,6.93,5.53.88.11,1.7.62,2.63.26Z"/>
        <path class="cls-31" d="m66.77,44.04c-1.39-.62-1.14-1.98-1.4-3.11-.2-1.13-1.08-1.8-1.81-2.53-.55-.54-.65-.93-.04-1.44.25-.07.48-.07.63.19,1.15.7,2.34,1.35,2.69,2.81-.01.31-.03.62-.04.93-.47,1.04-.22,2.09-.02,3.14Z"/>
        <path class="cls-178" d="m67.29,45.24c.4.56.79,1.12,1.19,1.68-.08.97-.85.8-1.46.89-.71-.25-1.17-.84-1.75-1.27-.33-.44-.91-.69-1.03-1.3-.02-.17.01-.34.11-.48.59-.27.92.25,1.34.47.52.27,1.03.6,1.57.03l.04-.03Z"/>
        <path class="cls-96" d="m67.05,47.64c.57-.05,1.11-.16,1.43-.72.42.41.74.89.96,1.44-.16.24-.31.48-.47.72-.33.29-.71.31-1.11.18-.57-.39-.95-.87-.81-1.62Z"/>
        <path class="cls-103" d="m48.09,83.63c.91.11,1.66-.84,2.62-.38,1.2.57,2.84.13,3.62,1.63-2.13-.16-4.23-.46-6.24-1.24Z"/>
        <path class="cls-164" d="m52.88,64.36c-.23.34-.46.69-.69,1.03-.11-.61-.48-1.09-.9-1.48-1.01-.94-1.83-2.04-2.71-3.09.09-.71.67-.74,1.19-.85.4.06.58.39.74.69.6,1.1,1.27,2.16,2.17,3.06.16.16.28.38.2.64Z"/>
        <path class="cls-35" d="m49.75,60.09c-.39.24-.78.49-1.18.73-.32.09-.63.17-.95.26,0-.39,0-.78,0-1.17.32-.18.64-.35.96-.53.1-.08.22-.15.35-.19.57.02,1.11.08.82.9Z"/>
        <path class="cls-7" d="m49.75,60.09c.05-.67-.39-.76-.91-.76.15-.53.18-1.04.01-1.6-.26-.87-.44-1.76-.31-2.69.35-.32.74-.63.22-1.12-.04-1.45.58-2.73,1.23-3.93,1.43-2.65,2.89-5.29,4.39-7.9.23-.41.44-.86.96-.99.3.05.39.28.42.54-.55,1.63-1.54,3.04-2.38,4.51-1.03,1.8-2.14,3.55-2.84,5.51-1.28,3.59-1,6.95,1.54,9.95.29.34.43.74.59,1.14.49.26.63.8.96,1.2,0,.09,0,.18,0,.27-.24.05-.49.1-.73.15-1.36-1.19-2.11-2.83-3.13-4.27Z"/>
        <path class="cls-107" d="m59.64,35.66c-.59-.34-1.31-.5-1.69-1.16,1.91-.75,3.82-.82,5.74-.01.29.98-.3,1.3-1.11,1.45-.25.02-.5-.01-.74-.07-.51-.18-1.02-.17-1.54-.03-.24.03-.48.02-.66-.18Z"/>
        <path class="cls-159" d="m62.45,35.67c.83.04,1.1-.49,1.23-1.18,1.04.44,2.02.95,2.43,2.12-.51.8-1.02.37-1.54.01-.72-.29-1.66-.07-2.12-.95Z"/>
        <path class="cls-22" d="m55.33,41.1c-2.07,3.74-4.44,7.31-6.03,11.3-.2.5-.01,1.14-.53,1.52-.23-.05-.5-.01-.67-.25.81-2.97,2.36-5.6,3.86-8.25.76-1.34,1.24-2.83,2.16-4.08.23-.31.29-.75.72-.91.47-.01.5.31.48.66Z"/>
        <path class="cls-91" d="m55.33,41.1c-.16-.22-.32-.44-.48-.66.22-1.48,1.29-2.31,2.37-3.13,1.03-.71,2.14-1.15,3.42-.88.37.23.2.46-.05.62-.46.3-.86.68-1.24,1.06-.12.11-.25.21-.4.3-.41.15-.67.46-.87.84-.65.82-1.21,1.71-1.8,2.59-.1.15-.26.17-.42.15-.19-.06-.23-.24-.31-.39,0-.2-.04-.39-.23-.51Z"/>
        <path class="cls-88" d="m60.81,36.63c-1.27-.19-2.39.46-3.59.67,0-.26.58-.37.19-.73.63-.58,1.54-.49,2.23-.92.24-.02.47-.03.71-.05.47-.12.94-.12,1.42,0,.23.02.46.04.69.06.68.38,1.53.38,2.12.95-.33.03-.4.26-.43.53-.23-.01-.46-.03-.69-.04-.37.25-.72.05-1.07-.05-.5-.24-1.13,0-1.58-.43Z"/>
        <path class="cls-65" d="m48.55,55.05c.56,1.14.33,2.47.93,3.61.26.49-.44.42-.63.68-.09.02-.17.04-.26.06-.25-1.43-.62-2.84-.48-4.31.15,0,.29-.02.44-.03Z"/>
        <path class="cls-150" d="m55.56,41.6c.08.09.16.19.24.28.48,1.61-.08,2.93-1.17,4.09-.18.3-.36.6-.55.9-.11.54-.41.96-.76,1.36-.26.34-.48.7-.69,1.07-.05.1-.11.2-.18.29-1.08,1.48-1.78,3.1-1.9,4.95-.02.28-.05.56-.31.75-.18,2.07.42,3.91,1.68,5.55.34.47.68.94,1.03,1.41-.22.1-.29.29-.3.51-1.34-1.34-2.41-2.85-2.86-4.72-.67-2.79-.28-5.47,1.07-7.98,1.36-2.53,2.8-5,4.21-7.5.17-.31.47-.55.47-.95Z"/>
        <path class="cls-120" d="m67.26,45.27c-.29.64-.72.77-1.32.39-.5-.32-1.02-.6-1.53-.89-.74-.21-1.05-.8-1.3-1.45-.11-.3-.14-.63-.25-.92-.27-.73-.77-1.25-1.55-1.32-.83-.07-1.17.59-1.39,1.25-.59,1.76-1.46,3.36-2.69,4.77-.37.51-.83.89-1.48.99-.61-.09-1.26-.13-1.41-.92,1.87-.04,3.44-1.62,3.8-4.03.15-1.04.57-1.94,1.18-2.68,1.38-1.67,3.2-1.59,4.44.68.33.61.48,1.34.63,2.03.28,1.25,1.53,2.21,2.86,2.11Z"/>
        <path class="cls-85" d="m54.62,45.97c.64-1.29,1.14-2.62,1.17-4.09,1.04-.71,1.16-2.11,2.14-2.88.34-.22.53-.62.96-.72.08-.08.16-.16.24-.24,1.03-.72,2.31-.74,3.42-1.23.3.1.6.2.89.3-.36,1.11.93,1.19,1.18,1.89.22.65,1.39.94.74,1.92-.62-.66-1.22-1.34-1.86-1.97-1.37-1.36-3.25-1.09-4.55.35-1.49,1.65-1.73,3.84-2.81,5.65-.33.55-.5,1.46-1.53,1.02Z"/>
        <path class="cls-161" d="m54.34,47.16c.4.4.89.62,1.44.72-.22.87-1.03.63-1.6.84-.45-.02-.8-.21-1.03-.61.31-.42.62-.83.93-1.25.09.1.18.19.27.29Z"/>
        <path class="cls-32" d="m67.77,49.08c.4,0,.8,0,1.2,0,.18,1.32.16,2.64,1,3.84.97,1.4.41,3.31-.99,4.07-.32-.48.11-.79.25-1.17.21-2.34-1.17-3.85-3.47-3.78-.87.03-1.73.22-2.59.37-.51.08-1.02.19-1.51-.1-.27-.65.3-.58.61-.64.74-.16,1.46-.37,2.14-.71.44-.22.59-.44.22-.9-1.09-1.39-3.25-1.72-4.68-.66-.85.63-1.85,1.05-2.81,1.83,1.34.1,2.43.73,3.68.69.31-.01.65.04.77.42-.66.68-1.49.42-2.25.33-.63-.08-1.26-.15-1.9-.14-2.18.03-3.46,1.35-3.48,3.52,0,.59.23,1.18.05,1.77-.79.35-.74-.42-1.02-.76-.05-.12-.08-.24-.1-.37-.24-1.29.27-2.43.76-3.57.32-.73.7-1.44.11-2.24-.25-.34-.12-.77.11-1.13.12-.15.26-.26.45-.29,1.12.14,2.11-.1,3.03-.8.57-.43,1.31-.62,1.86-1.07,2.15-1.8,4.18-.99,6.13.29.78.51,1.55.96,2.44,1.2Z"/>
        <path class="cls-4" d="m50.25,55.29c-.1-2.3.71-4.27,2.15-6.02.5.2.41.59.35,1-.16,1.22-.42,2.44-.45,3.67-.05,2.71.85,4.98,3.34,6.38,1.15.59,2.47.84,3.49,1.7.51.46,1.12.15,1.68.24-1.24.65-2.49.08-3.69-.11-2.12-.33-3.69-1.61-5.02-3.3-.69-.87-.96-1.85-1.34-2.81-.13-.32-.37-.5-.52-.76Z"/>
        <path class="cls-195" d="m69.45,56.04c-.13.33-.52.54-.48.96-.61.73-1.21,1.46-1.83,2.19-.51.6-1.12.98-1.97.94-1.62-.08-2.77,1.04-4.12,1.67-2,.46-3.57-.56-5.18-1.48-.19-.27-.31-.55-.17-.88.73-.24,1.14.39,1.69.63.94.41,1.84.91,2.93.74,1.53-.99,3.09-1.87,5.02-1.78.62.03,1.05-.49,1.47-.9.91-.61,1.17-1.77,2.06-2.4.25,0,.44.1.58.32Z"/>
        <path class="cls-177" d="m56.02,60.11c1.52,1.02,3.14,1.78,5.03,1.68-.59.48-1.28.13-1.92.24-1.27-.31-2.4-.96-3.6-1.44-.87-.75-1.79-1.46-2.34-2.51-.19-.36-.41-.7-.06-1.09.24.32.48.64.72.96.87.57,1.35,1.53,2.16,2.16Z"/>
        <path class="cls-27" d="m67.77,49.08c-.91.33-1.62-.11-2.23-.68-1.1-1.04-2.51-1.3-3.89-1.61-.41-.09-.83.15-1.21.39-1.24.77-2.49,1.52-3.74,2.27-.76.45-1.54.55-2.35.12.04-.04.07-.08.11-.13,1.55-.49,2.4-1.93,3.68-2.79.28-.23.59-.41.88-.61,2.29-1.59,3.7-1.6,6.35.41.7.21,1.09.85,1.68,1.2.24.48.48.96.72,1.44Z"/>
        <path class="cls-90" d="m56.98,46.92c1.26-1.42,2.14-3.04,2.7-4.85.22-.72.65-1.45,1.58-1.36.95.09,1.74.66,1.88,1.57.16,1.02.65,1.76,1.26,2.49,0,.16,0,.32,0,.48-1.03-.03-1.49-.94-2.19-1.46-.95-.72-1.11-.76-1.8.17-.78,1.06-1.66,2.02-2.63,2.9-.26.16-.51.33-.8.07Z"/>
        <path class="cls-131" d="m57.7,46.68c.94-1.15,2.05-2.17,2.87-3.43.41-.63.97-.48,1.51,0,.75.69,1.55,1.33,2.33,1.99.14.54.91.58.96,1.2-.86-.29-1.67-.69-2.5-1.03-1.09-.45-1.91-.15-2.77.32-.66.36-1.28.79-1.92,1.19-.27.14-.39-.03-.48-.24Z"/>
        <path class="cls-159" d="m61.76,35.61c-.47,0-.94,0-1.42,0,.47-.31.95-.31,1.42,0Z"/>
        <path class="cls-31" d="m62.56,36.82c-.89,1.1-2.27.85-3.42,1.23.38-.69,1-1.08,1.67-1.41.59,0,1.2-.17,1.75.18Z"/>
        <path class="cls-31" d="m58.9,38.29c-.31.26-.5.67-.96.72.18-.43.39-.81.96-.72Z"/>
        <path class="cls-165" d="m53.14,57c.04,1.11.74,1.84,1.47,2.56.33.32.62.69.93,1.04-1.01-.37-1.74-1.15-2.27-1.98-1.24-1.95-1.64-4.08-1.05-6.4.24-.93.39-1.94.18-2.94,0-.07.03-.13.08-.17.59-.05.77.39.95.82.13,1.56.39,3.12-.25,4.65-.29.69-.26,1.46-.04,2.19,0,.08,0,.16,0,.24Z"/>
        <path class="cls-63" d="m53.14,49.8c-.14-.31-.38-.53-.66-.7.22-.33.45-.65.67-.98.41-.03.62.35.95.48.33.26.51.55.24.96,0,0,0,0,0,0-.08.08-.16.16-.24.24-.32.22-.64.26-.96,0Z"/>
        <path class="cls-29" d="m54.34,49.56c-.08-.32-.16-.64-.24-.96.47-.44,1.23-.22,1.68-.72.47-.23.96-.44,1.2-.96.24-.08.48-.16.72-.24.16.08.32.16.48.24-.81.73-1.62,1.46-2.44,2.18-.4.35-.85.55-1.4.46Z"/>
        <path class="cls-134" d="m56.66,51.35c.3-.84,1.13-.97,1.7-1.28,1.01-.54,1.78-1.5,3.08-1.59,1.37-.09,3.28.72,3.91,1.92.21.39-.02.47-.29.59-2.15.96-4.31,1.77-6.68.73-.52-.23-1.18.07-1.73-.38Z"/>
        <path class="cls-158" d="m56.02,60.11c-1.04-.4-1.66-1.22-2.16-2.16-.17-1.12-.53-2.27-.05-3.38,1.13-2.61,2.75-2.55,5.2-2.29.86.09,1.69.36,2.52-.09,1.64.12,3.2-.62,4.84-.48,1.97.17,3.73,1.96,3.07,4.31-.2,0-.38-.05-.48-.24-.13-.09-.27-.19-.33-.34-.91-2.32-2.81-2.64-4.93-2.4-1.78.21-3.53.47-5.35.3-1.26-.11-2.57.27-3.3,1.55-.7,1.22-.36,2.39.3,3.51.18.31.41.59.42.98.08.24.16.48.24.72Z"/>
        <path class="cls-177" d="m53.14,49.8c.32,0,.64,0,.96,0-.16.32-.42.76-.14,1,.97.8.38,1.55.03,2.31-.53,1.16-1.03,2.32-.85,3.65-.45-.7-.36-1.51-.16-2.18.5-1.6.16-3.18.16-4.77Z"/>
        <path class="cls-146" d="m67.05,58.19c-.42.67-.97,1.24-1.79,1.18-1.69-.12-3.08.53-4.38,1.5-.15.11-.36.14-.54.2-1.55-.01-2.59-.9-3.41-2.07-.85-1.21-.34-3.26,1.04-4.37.83-.67,1.78-1.06,2.85-1.07,1.04,0,2.05-.19,3.07-.38,2.15-.41,4,1.13,3.96,3.2-.01.74-.42,1.26-.8,1.82Z"/>
        <path class="cls-77" d="m67.05,58.19c.15-.41.35-.81.44-1.23.48-2.03-1.56-4.07-3.58-3.5-1.09.31-2.17.38-3.27.42-2.48.09-4.48,2.53-3.61,4.59.57,1.37,1.79,2.26,3.31,2.6-.95.42-1.73-.23-2.54-.48-.73-.22-1.35-.78-2.01-1.2-1.16-1.08-1.71-2.4-1.34-3.95.36-1.52,2.54-2.84,4.16-2.46,1.58.37,3.07.03,4.58-.2.88-.13,1.77-.22,2.6-.05,1.67.32,2.94,1.19,3.18,3.06-.68.77-.95,1.87-1.92,2.4Z"/>
      </g>
    </g>
  </g>
</svg>