<?xml version="1.0" encoding="UTF-8"?>
<svg id="Layer_2" data-name="Layer 2" xmlns="http://www.w3.org/2000/svg" viewBox="0 0 342.78 341.9">
  <defs>
    <style>
      .cls-1 {
        fill: #7d8494;
      }

      .cls-1, .cls-2, .cls-3, .cls-4, .cls-5, .cls-6, .cls-7, .cls-8, .cls-9, .cls-10, .cls-11, .cls-12, .cls-13, .cls-14, .cls-15, .cls-16, .cls-17, .cls-18, .cls-19, .cls-20, .cls-21, .cls-22, .cls-23, .cls-24, .cls-25, .cls-26, .cls-27, .cls-28, .cls-29, .cls-30, .cls-31, .cls-32, .cls-33, .cls-34, .cls-35, .cls-36, .cls-37, .cls-38, .cls-39, .cls-40, .cls-41, .cls-42, .cls-43, .cls-44, .cls-45, .cls-46, .cls-47, .cls-48, .cls-49, .cls-50, .cls-51, .cls-52, .cls-53, .cls-54, .cls-55, .cls-56, .cls-57, .cls-58, .cls-59, .cls-60, .cls-61, .cls-62, .cls-63, .cls-64, .cls-65, .cls-66, .cls-67, .cls-68, .cls-69, .cls-70, .cls-71, .cls-72, .cls-73, .cls-74, .cls-75, .cls-76, .cls-77, .cls-78, .cls-79, .cls-80, .cls-81, .cls-82, .cls-83, .cls-84, .cls-85, .cls-86, .cls-87, .cls-88, .cls-89, .cls-90, .cls-91, .cls-92, .cls-93, .cls-94, .cls-95, .cls-96, .cls-97, .cls-98, .cls-99, .cls-100, .cls-101, .cls-102, .cls-103, .cls-104, .cls-105 {
        stroke-width: 0px;
      }

      .cls-2 {
        fill: #c8cfcf;
      }

      .cls-3 {
        fill: #999498;
      }

      .cls-4 {
        fill: #7c92af;
      }

      .cls-5 {
        fill: #c6cfd0;
      }

      .cls-6 {
        fill: #f7d36f;
      }

      .cls-7 {
        fill: #7697b7;
      }

      .cls-8 {
        fill: #a7bcd3;
      }

      .cls-9 {
        fill: #88a1c1;
      }

      .cls-10 {
        fill: #f4c363;
      }

      .cls-11 {
        fill: #d6dfe5;
      }

      .cls-12 {
        fill: #859fc0;
      }

      .cls-13 {
        fill: #c66734;
      }

      .cls-14 {
        fill: #d09562;
      }

      .cls-15 {
        fill: #969da2;
      }

      .cls-16 {
        fill: #a0b6d0;
      }

      .cls-17 {
        fill: #9eb4cf;
      }

      .cls-18 {
        fill: #f3f5f5;
      }

      .cls-19 {
        fill: #d6dbdb;
      }

      .cls-20 {
        fill: #5f90a4;
      }

      .cls-21 {
        fill: #a39592;
      }

      .cls-22 {
        fill: #aeb4b6;
      }

      .cls-23 {
        fill: #88929b;
      }

      .cls-24 {
        fill: #a6a8a9;
      }

      .cls-25 {
        fill: #99afcc;
      }

      .cls-26 {
        fill: #b1592e;
      }

      .cls-27 {
        fill: #8c6f64;
      }

      .cls-28 {
        fill: #bd6233;
      }

      .cls-29 {
        fill: #b9c2c3;
      }

      .cls-30 {
        fill: #f3cd6e;
      }

      .cls-31 {
        fill: #b0b4b7;
      }

      .cls-32 {
        fill: #949da3;
      }

      .cls-33 {
        fill: #c7b195;
      }

      .cls-34 {
        fill: #a1b3c6;
      }

      .cls-35 {
        fill: #8e5834;
      }

      .cls-36 {
        fill: #ea933f;
      }

      .cls-37 {
        fill: #a6b9cf;
      }

      .cls-38 {
        fill: #809bbe;
      }

      .cls-39 {
        fill: #99b0cc;
      }

      .cls-40 {
        fill: #c7cecf;
      }

      .cls-41 {
        fill: #a4a8aa;
      }

      .cls-42 {
        fill: #7c8993;
      }

      .cls-43 {
        fill: #7b99bc;
      }

      .cls-44 {
        fill: #aeb1bb;
      }

      .cls-45 {
        fill: #838d96;
      }

      .cls-46 {
        fill: #959ea4;
      }

      .cls-47 {
        fill: #7997a5;
      }

      .cls-48 {
        fill: #f7dc81;
      }

      .cls-49 {
        fill: #e5ebed;
      }

      .cls-50 {
        fill: #929da6;
      }

      .cls-51 {
        fill: #8d9fa7;
      }

      .cls-52 {
        fill: #9db3cf;
      }

      .cls-53 {
        fill: #7d7f8c;
      }

      .cls-54 {
        fill: #9f897e;
      }

      .cls-55 {
        fill: #9dadc3;
      }

      .cls-56 {
        fill: #a7a8a9;
      }

      .cls-57 {
        fill: #a3a2a0;
      }

      .cls-58 {
        fill: #a3aeb7;
      }

      .cls-59 {
        fill: #9fa1a3;
      }

      .cls-60 {
        fill: #edf0f1;
      }

      .cls-61 {
        fill: #b0b4b6;
      }

      .cls-62 {
        fill: #ca915e;
      }

      .cls-63 {
        fill: #f7d16d;
      }

      .cls-64 {
        fill: #efbc6a;
      }

      .cls-65 {
        fill: #707c88;
      }

      .cls-66 {
        fill: #fdfdfc;
      }

      .cls-67 {
        fill: #f6eca6;
      }

      .cls-68 {
        fill: #638d9f;
      }

      .cls-69 {
        fill: #d49258;
      }

      .cls-70 {
        fill: #f4de90;
      }

      .cls-71 {
        fill: #aaa6a5;
      }

      .cls-72 {
        fill: #c3916a;
      }

      .cls-73 {
        fill: #a5bad2;
      }

      .cls-74 {
        fill: #cf9867;
      }

      .cls-75 {
        fill: #c29471;
      }

      .cls-76 {
        fill: #f6eaa5;
      }

      .cls-77 {
        fill: #eead53;
      }

      .cls-78 {
        fill: #96adca;
      }

      .cls-79 {
        fill: #d29a67;
      }

      .cls-80 {
        fill: #c6cdce;
      }

      .cls-81 {
        fill: #b96034;
      }

      .cls-82 {
        fill: #b9c1c3;
      }

      .cls-83 {
        fill: #e8ecee;
      }

      .cls-84 {
        fill: #bec6c6;
      }

      .cls-85 {
        fill: #afb0b8;
      }

      .cls-86 {
        fill: #83818c;
      }

      .cls-87 {
        fill: #eef0f1;
      }

      .cls-88 {
        fill: #95acc9;
      }

      .cls-89 {
        fill: #b2b2b8;
      }

      .cls-90 {
        fill: #8da6c5;
      }

      .cls-91 {
        fill: #92aac8;
      }

      .cls-92 {
        fill: #6892a3;
      }

      .cls-93 {
        fill: #acb2b5;
      }

      .cls-94 {
        fill: #91a9c7;
      }

      .cls-95 {
        fill: #f6eca7;
      }

      .cls-96 {
        fill: #9aa1a7;
      }

      .cls-97 {
        fill: #82949f;
      }

      .cls-98 {
        fill: #717c88;
      }

      .cls-99 {
        fill: #f4db8e;
      }

      .cls-100 {
        fill: #9e9aa0;
      }

      .cls-101 {
        fill: #b5bdbe;
      }

      .cls-102 {
        fill: #6b93ad;
      }

      .cls-103 {
        fill: #a4b6ca;
      }

      .cls-104 {
        fill: #89a2c2;
      }

      .cls-105 {
        fill: #839ebf;
      }
    </style>
  </defs>
  <g id="Layer_1-2" data-name="Layer 1">
    <g id="ram">
      <g>
        <path class="cls-8" d="m198.82,114.98c7-.5,14.01-.83,20.98-1.55,6.6-.67,13.2-1,19.83-.86,2.14.05,4.14.44,5.64,2.13.6.68,1.37.69,2.18.76,6.37.59,12.77.28,19.15.57,10.94.49,21.88.35,32.83.4,9.02.04,18-.83,26.99-1.36,3.9-.23,7.83-.28,11.7.45.62.12,1.24.31,1.84.53,2.53.96,3.3,2.45,2.55,5.07-2.68,9.35-8.19,16.13-17.65,19.25-1.24.41-1.89.98-1.76,2.37.48,5.38-2.29,9.49-5.47,13.37-3,3.66-6.73,6.37-11.32,7.72-1.44.43-1.66,1.48-2.02,2.66-1.88,6.18-5.42,11.19-10.94,14.62-3.48,2.16-7.34,3.55-11.37,4.3-1.27.24-1.88.81-2.55,1.8-4.22,6.23-9.75,10.96-16.67,13.94-3.46,1.49-7.17,1.5-10.83.82-1.71-.32-2.77,0-3.78,1.54-1.49,2.25-3.23,4.36-5.01,6.4-2.42,2.77-5.75,3.57-9.24,3.87-1.19.1-2.4.11-3.59.06-.97-.05-1.61.23-2.19,1.07-3.38,4.9-8.36,7.21-13.97,8.48-1.72.39-3.47.49-5.23.49-.69,0-1.46-.22-2,.48-1.89-.53-1.75-2.56-2.76-3.74-.46-1.15-1.73-2.03-1.17-3.52,1.55-.97,3.27-.47,4.91-.51,3.12-.07,6-.9,8.59-2.59,1.59-1.03,1.55-1.62-.1-2.49-6.08-3.19-11.03-7.84-16.06-12.38-4.68-4.22-9.2-8.6-13.37-13.34-.72-.81-1.45-1.77-2.78-1.6-1.35-1.23-2.21-2.72-2.46-4.55.05-.25.17-.45.37-.61,1.52-.7,3.14-.34,4.72-.4,5.32-.18,9.74-2.13,13-6.45.93-1.23,1.62-2.57,1.98-4.05.36-1.46.04-2.57-1.77-2.61-3.41-.36-6.69-1.37-10.05-1.99-4.62-.85-9.28-1.3-13.97-1.35-2.83-.03-2.83,0-1.59,2.43.36.71.78,1.4.64,2.25-.6.96-1.62,1.5-2.45,2.15-1.91,1.49-2.72-.36-3.67-1.58-1.1-1.33-2.74-1.12-4.18-1.4-.77-.15-1.59-.08-2.39-.05-8.29.33-16.56-.74-24.85-.48-2.34.07-3.6-1.25-4.69-3.08-4.29-7.19-8.84-14.21-13.19-21.36-.58-.95-1.17-1.91-1.9-2.75-1.01-1.17-2.08-1.51-3.05.08-.11.21-.24.41-.36.61-.96,1.25-1.83,2.55-2.55,3.96-2.86,4.15-5.15,8.66-8.12,12.73-.26.27-.55.52-.78.81-.09.14-.2.28-.29.42-.08.15-.16.29-.24.44-.07.15-.16.3-.25.44-.15.21-.32.4-.5.58-.17.2-.34.4-.49.62-.2.33-.37.68-.58,1.01-.28.34-.53.73-1.07.48-.73-1.08-1.54-1.59-2.99-1.2-1.93.53-3.89-.46-5.88-.26-.65.07-1.13-.49-1.46-1.08-.4-.72-.11-1.92-1.24-2.11-1.1-.18-2.27-.1-3.28.39-4.88,2.38-9.74,1.42-14.6.01-.38-.11-.83-.42-1.13-.17-2.17,1.85-3.18-.04-4.4-1.3,1.36-3.33,3.36-6.32,5.08-9.46,3.45-6.29,7.01-12.53,10.51-18.79,4.33-7.72,8.68-15.43,12.97-23.17,3.06-5.51,6.04-11.06,9.05-16.59.34-.63.72-1.25.81-1.98,1.41-5.92,5.12-10.71,7.9-15.95,1.45-2.74,2.67-5.6,4.33-8.22,1.67-1.34,2.24.08,2.8,1.19,3.34,6.66,7.24,13.02,10.42,19.73.44-.87.19-1.77.19-2.64.03-6.3,0-12.59.03-18.89,0-1.08-.23-2.27.79-3.11.56.7.35,1.53.35,2.31.03,8.23.07,16.45.03,24.68,0,1.43.36,2.65,1.03,3.85,5.02,9.07,9.97,18.19,15.08,27.21,2.3,4.05,1.18,3.45,5.78,3.09,3.88-.31,7.77-.85,11.69-.67.26,1.29-.79,1.76-1.54,2.37-1.71,1.39-3.59,2.55-5.33,3.89-.76.59-1.45,1.21-1.85,2.1-1.02.79-1.16,1.6-.48,2.8,1.23,2.19,2.59,4.31,3.59,6.62.19.38.37.76.61,1.12.13.17.25.35.37.53.91,1.66,1.84,3.3,2.87,4.89.73,1.38,1.68,1.4,2.97.67,6.89-3.87,14.21-5.75,22.22-5.57,7.97.18,15.93.71,23.92.62,10.59-.12,18.96-4.36,25.34-12.7.41-.54,1.28-1.06.87-1.8-.35-.64-1.28-.49-1.99-.54-1.05-.07-2.06.16-3.07.42-7.17.37-14.35.21-21.52.12-5.03-.06-10.02.69-15.05.53-1.11-.03-2.23.06-3.33-.21-1.77-.76-1.03-1.76-.07-2.47,2.44-1.79,4.71-3.77,6.97-5.77Z"/>
        <path class="cls-43" d="m30.91,270.78c-9.5.01-19,.03-28.5.04-.24,0-.48,0-.72,0-1.89-.06-2.05-.29-1.17-1.91,1.41-2.59,2.88-5.15,4.32-7.73,4.63-8.29,9.26-16.58,13.89-24.86.19-.34.46-.64.69-.96.14-.18.35-.31.43-.54l-.04-.03c2.43.11.75-2,1.51-2.79h0c.86-1.48,1.91-1.52,3.1-.4.99.93,2.24,1.53,3.23,2.47.75.71,1.57,1.03,2.61.86.64-.11,1.28-.03,1.87.27,4.78,2.47,10.06,2.61,15.21,3.51,2.92.51,5.92.73,8.78,1.62.38.12.83.45,1.13.27,2.26-1.35,4.68.09,7.01-.45,1.89-.43,3.81-.23,5.52.92,1.04.69,2.07.77,2.96-.33.83-1.02,1.73-.93,2.69-.13.42.35.95.71,1.48.14.37-.39.32-.89.13-1.35-.24-.6-.73-.81-1.34-.78-.64.03-1.24.28-1.86.42-2.21.53-4.39.62-6.58-.18-2.08-.75-3.31-3.89-2.25-6.01.77-.03,1.06.59,1.47,1.07,1.08,1.28,2.51,2.08,4.13,2.12,3.03.08,6.05.55,9.07.51,4.72-.07,9.39.71,14.1.56,2.21-.07,3.64,1.27,4.64,2.93,3.77,6.29,7.78,12.44,11.29,18.88,1.38,2.54,2.73,5.51,5.98,5.59,3.38.08,4.98-2.86,6.35-5.5,3.38-6.52,7.31-12.71,11.14-18.96,1.32-2.16,3.19-2.92,5.61-2.96,7.17-.14,14.32-.85,21.5-1.01,2.48-.06,4.79-.7,5.57-3.58.09-.32.37-.51.69-.6,1.4,2.18,1.15,3.79-.86,5-1.16.7-2.32,1.38-3.45,2.15-1.81,1.23-3.7.08-5.53-.22-1.01-.17-1.88-.26-1.6,1.15.15.76.7,1.53,1.44.56.97-1.28,1.91-1.19,3.06-.4.33.23.77.37,1.14.3,3.87-.77,7.78.3,11.63-.29,1.55-.24,2.93-1.13,4.53-1.43,3.54-.66,7.04-1.32,10.63-.37.93.24,1.61-.02,2.29-.81,2.36-2.73,3.7-3.21,6.87-1.69,2.4,1.15,5.07.1,7.39,1.41.68.38,1.04-.43,1.23-1.09.34-1.15.49-2.35.9-3.47.29-.79.85-1.38,1.77-1.38.71,0,1.44.46,1.46,1.03.05,2.17,1.68,1.79,2.96,2.02,2.19,3.15,3.83,6.62,5.72,9.94,4.57,8.05,9.05,16.16,13.57,24.24.16.28.31.56.45.84.43.85.27,1.39-.78,1.43-.56.02-1.12.01-1.68,0-25.65-.03-51.29-.08-76.94-.06-1.73,0-3.49-.69-5.2.1-.48.45-1.03.76-1.71.81-.71.03-1.34-.24-2-.44-2.95-.41-5.91-.21-8.85-.16-13.1.19-26.2-.06-39.3-.02-1.12,0-2.24-.02-3.36.05-4.37.66-8.66-.55-13.02-.53-15.25.09-30.5.03-45.75.04-.87,0-1.76-.16-2.61.17Z"/>
        <path class="cls-38" d="m212.36,234.35c-.49.05-.89.28-1.32.51-1.48.79-2.08.41-2.01-1.17,0-.08.05-.15.08-.23.31-1.02-.31-1.61-1.12-1.73-.79-.11-1.45.66-1.39,1.34.12,1.32-.77,2.36-.71,3.66.05,1.22-.7,1.72-1.84,1.41-.53-.14-1.04-.41-1.52-.7-.96-.57-1.9-.79-2.9-.11-.5.34-1.08.47-1.51-.07-.67-.83-1.68-.8-2.54-1.17-1.14-.5-2.11-.97-3.26.06-.79.7-2.13.81-2.2,2.25-.03.59-.5.76-1.02.78-.32.01-.67.08-.95-.02-2.3-.8-4.62-.79-7-.48-1.33.17-2.63.37-3.95.64-1.57.32-3.02.64-4.33,1.55-.42.29-.9.18-1.38.02-1.27-.41-2.5-.51-3.53.6-.42.45-.88.36-1.21-.09-1.01-1.38-2.08-1.11-3.54-.59-1.48.53-3.26.93-4.66-.56-.7-.74-1.16-.27-1.36.42-.21.71-.24,1.46-1.28,1.35-.86-.09-1.19-.75-1.44-1.43-.16-.44-.24-.93-.24-1.39-.02-1.26.43-1.7,1.59-1.29,1.52.54,3.09.71,4.63,1.06.48.11,1.04.32,1.29-.18.69-1.36,2.14-1.6,3.26-2.28,1.76-1.05,1.91-1.15,1.74-3.08-.04-.48-.04-.96-.06-1.43-.29-.31-.29-.65-.12-1.01.17-.18.37-.31.6-.39,1.17-.14,1.99-.76,2.71-1.71,1.21-1.59,2.78-2.34,4.81-1.49,1.26.53,2.42.33,3.65-.27,1.79-.87,3.88-.54,5.78-1.28,1.24-.48,2.49-1,3.73-1.43,2.02-.7,4.43-.12,5.8-2.6.4-.72,1.79.11,2.6.58,1.61.93,2.72.64,3.82-.92,1.47-2.11,2.46-2.22,4.52-.99,1.12,1.08,1.29,2.74,2.36,3.84,1.79,3.35,3.88,6.54,5.44,10.01Z"/>
        <path class="cls-5" d="m115.36,60.77c-.85,2.67-2.26,5.08-3.58,7.52-2.12,3.91-4.47,7.69-6.57,11.61-.85,1.58-1.04,3.49-2.32,4.88,0-14.91-.21-29.83.12-44.73.13-5.89.13-11.78.32-17.66.02-.63-.03-1.26.32-1.85,3.93-6.54,7.51-13.29,11.68-19.69.9.89.78,2.05.78,3.15.02,17.86,0,35.72.01,53.57,0,1.13-.11,2.23-.77,3.2Z"/>
        <path class="cls-38" d="m64.97,232.97c-.22.87-.35,1.72.34,2.47.39.43.64.91.62,1.51-.03.9.46,1.09,1.29,1.33,2.75.81,5.39.69,8.04-.34.82-.32,1.76-.45,2.29.58.51.98.61,2.02.05,2.97-.43.72-1.24.72-1.92.34-.4-.22-.74-.61-1.01-1-.58-.81-1-.5-1.46.12-1.44,1.92-1.57,2.07-3.55.76-2-1.33-4.02-1.25-6.17-.83-.47.09-.96.27-1.41.2-1.53-.26-3.04-1.16-4.48.41-.39.42-1.17-.13-1.71-.52-.94-.68-1.93-1.05-3.13-.52-1.04.45-2.04.11-2.95-.47-.53-.34-1.01-.88-1.71-.77-4.12.64-7.89-1.54-11.94-1.51-1.37.01-2.55-.92-3.68-1.63-.88-.55-1.64-.88-2.66-.44-.91.4-1.61.15-2.27-.69-1.18-1.51-3.09-2.16-4.4-3.58-.65-.71-1.18.5-1.84.64,1.48-3.18,3.21-6.23,5.13-9.17,1.52-.96,2.55.01,3.57.93.87.78,1.62,1,2.27-.23.54-1,1.32-1.05,2.19-.46.68.46,1.38.78,2.23.64,1.16-.19,2.02.32,2.62,1.27,1,1.61,2.55,2.24,4.29,2.04,3.13-.37,6.06.94,9.21.83,2.01-.07,4.01,1.37,5.82,2.54.79.51,1.54.94,2.41.39,1.35-.86,2.59-.39,3.85.19.64.64.63,1.31.06,1.99Z"/>
        <path class="cls-73" d="m64.47,154.78c.72-.36,1.19-.48,1.59.55.57,1.44.71,1.39,1.84.39,1.19-1.04,1.35-1.1,2.54.02.76.71,1.55.96,2.56.99,2.76.07,5.55-.36,8.29.42.62.18,1.3,0,1.7-.6.7-1.06,1.71-1.31,2.89-1.29.54,0,1.09-.14,1.64-.23,1.39-.24,1.68-.04,1.9,1.32.41,2.41.49,2.28,2.86,2.12,2.01-.14,4.05.76,6.09-.22.47-.22.98.42,1.09,1.03.09.46.05.97.52,1.27.05.13.09.27.14.4-1.06,3.47-2.46,4.59-5.96,4.57-8.27-.03-16.52.82-24.79.5-1.29-.05-2.5.43-3.78.51-1.76.11-2.06,1.27-1.68,2.71.28,1.07,1.03,1.98,1.08,3.14-.31,2.25-1.95,2.97-3.86,3.16-2.63.27-5.22-.06-7.68-1.08,1.06-2.58,2.54-4.95,3.95-7.34,2.21-3.78,4.01-7.79,6.54-11.38.37-.21.29-.68.54-.96h-.01Z"/>
        <path class="cls-9" d="m30.42,215.69c.94-2.01,1.87-4.02,3.24-5.78.43-.18.35-.66.58-.96l-.02.02c.35-.23.26-.69.51-.97h0c2.64-.64,5.06-.39,7.01,1.73,1.45,1.58,3.17,2.06,5.21,1.38,1.35-.45,2.52-.15,3.53.82.71.69,1.51,1.35,2.54,1.07,3.45-.93,6.6.65,9.88,1.1.55.08,1.08.3,1.63.37,2.7.35,5.33.54,6.58-2.7.2-.52.68-.89,1.3-.95.38.15.51.47.53.85-1.43,3.44-3.44,6.58-5.32,9.77-.27.32-.57.61-.82.95-.11.17-.23.33-.35.5-.37.48-.66,1-.93,1.54-.09.19-.19.36-.29.54-.15.28-.3.55-.48.82-.14.18-.3.32-.49.44-.52.25-.88.11-1.07-.45-.17-.94-.85-1.18-1.68-1.41-4.41-1.23-9.04-1.68-13.31-3.23-2.68-.98-5.59-1.01-8.13-2.41-2.17-1.18-4.49-2-7.03-2.07-.92-.02-1.91-.2-2.62-.98Z"/>
        <path class="cls-2" d="m114.87,341.78c-6.78.02-13.56.06-20.35.06-1.64,0-1.73-.12-1.75-1.82-.02-3.51-.02-7.02.04-10.53.03-1.79.28-1.99,2.15-2.03,1.52-.04,3.03-.05,4.55-.02,1.01.02,1.48-.4,1.43-1.42-.03-.64,0-1.28,0-1.91,0-9.25.01-18.51.04-27.76,0-.85-.26-1.77.41-2.52,1.13,1.29.64,2.86.69,4.31.06,1.8.1,3.61-.03,5.41.25-4.42.55-4.78,3.58-4.18.58.4.75,1.04.98,1.65.32,2.5.83,4.99.74,7.54-.03.78-.05,1.6.6,2.22.19.12.39.25.59.36.49.29,1.06.45,1.52.81.15.2.22.42.22.67-.17.73-.77.9-1.36,1.08-.89.17-1.15.8-1.03,1.58.61,3.95.58,7.96,1.22,11.91.24.62.45,1.24-.02,1.85-1.16.76-2.47.46-3.72.49-2.79.05-5.58-.04-8.37.05-1.15.04-2.08.49-.99,1.71,2.13,2.38,4.1,4.87,5.98,7.45.81,1.11,2.1,1.03,3.29,1.01,2.78-.04,5.56-.09,8.2,1,.56.23,1.32.15,1.36,1.05Z"/>
        <path class="cls-105" d="m30.42,215.69c4.1.22,8.01,1.13,11.57,3.24.61.36,1.1.53,1.76.24.27-.12.63-.11.94-.06,1.3.2,2.29,1.46,3.37,1.56,1.23.12,2.46-.13,3.62.59,1.38.87,2.88,1.35,4.55,1.14,1.24-.15,2.37.28,3.47.75.89.38,1.75.69,2.74.71,1.56.04,1.55.11,1.22,1.67-.05.23-.08.47-.13.71.71.83-.1,1.74.17,2.59.05.18.11.35.19.52.1.15.2.31.31.45.06.07.11.15.17.22.11.15.19.32.26.5.04.19,0,.37-.13.51-1.34-.17-2.65-.39-3.83.66-.64.57-1.35.19-1.89-.39-1.51-1.65-3.91-1.66-5.59-3-.11-.09-.32-.15-.45-.1-3.25,1.07-6.29-1.14-9.56-.59-1.87.31-3.6-.44-4.44-2.46-.29-.71-.96-1.38-1.65-.95-1.43.9-2.19.08-3.04-.8-.16-.16-.39-.25-.58-.36-.17.07-.39.1-.43.2-1.32,2.86-1.42,2.92-3.62.74-.88-.88-1.82-1.19-2.98-1.16,1.09-2.51,2.47-4.86,3.98-7.14Z"/>
        <path class="cls-90" d="m72.61,210.89c-1.22.88-1.53,2.38-2.4,3.5-.52.67-.97.96-1.94.94-3.76-.09-7.37-.81-10.94-1.91-1.04-.32-2.21-.25-3.31.1-1.58.51-2.92.43-3.97-1.14-.69-1.03-1.76-1.16-2.97-.68-2.35.93-4.21.4-5.79-1.62-1.05-1.34-2.5-1.78-4-1.7-.93.05-1.7-.3-2.55-.36.81-2.09,1.95-4,3.25-5.81,2.85-.05,5.58.03,8.28,1.43,2.43,1.26,5.27,1.93,7.97,2.15,3.28.26,6.41,1.06,9.6,1.61,2.18.37,4.44-.15,6.63.43.93.24,1.89.29,2.57,1.09.16.21.27.45.31.71,0,.4-.15.76-.4,1.07-.11.07-.21.14-.32.22Z"/>
        <path class="cls-94" d="m73.11,209.47c-2.26-1.39-4.79-1.47-7.29-1.26-.9.07-1.64-.08-2.49-.21-2.63-.41-5.12-1.64-7.86-1.41-1.54.13-3-.06-4.35-.91-.39-.25-.91-.53-1.32-.46-1.97.3-3.51-.7-5.11-1.56-1.12-.6-2.17-1.12-3.59-.6-1.04.38-2.12-.41-3.13-.86.76-1.87,1.69-3.63,2.92-5.24.39-.28.84-.61,1.31-.5,3.84.9,7.83,1.31,11.45,3.04.42.2.77.74,1.2.74,3.79.02,7.04,2.52,10.85,2.33,2.65-.14,5.17,1,7.84.65,2.09-.27,2.81-1.11,1.9-2.98-1.47-3-2.46-6.23-4.21-9.09-.12-.2-.22-.41-.31-.63-.23-.63-.42-1.27-.81-1.83-.11-.2-.19-.42-.24-.64-.05-.49,0-.94.45-1.26.25-.05.48-.01.69.11,2.66,3.95,4.83,8.16,6.75,12.51.55,1.24,0,2.5-.27,3.73-.69,1.97-1.71,3.77-2.97,5.44-.14.18-.31.35-.48.5-.09.07-.19.14-.28.21-.2.12-.43.18-.66.19Z"/>
        <path class="cls-88" d="m71.21,190.28c.93,1,1.49,2.19,2.06,3.43.92,2.02,1.49,4.21,2.82,6.05.67.92.47,2,.28,3-.12.63-.71,1.41-1.27,1.21-1.56-.58-3.08.38-4.66-.18-2.03-.73-4.23-.64-6.38-.55-1.08.05-2.07-.15-2.93-.8-1.28-.96-2.75-1.22-4.29-1.12-1.33.09-2.52-.09-3.42-1.23-.5-.64-1.26-1.07-2.06-1.11-2.73-.15-5.27-.99-7.83-1.83-.8-.26-1.74-.14-2.61-.19.31-1.05.79-2.02,1.54-2.84.17-.18.35-.36.43-.61-.01-.13.01-.25.09-.36.15-.16.29-.33.41-.51h-.02c.88-.66,1.85-.35,2.76-.17,6.16,1.19,12.35,2.1,18.61,2.48,1.39.09,2.59.7,3.82,1.27.82.38,1.68.59,2.46-.1.75-.66.37-1.45.22-2.22-.24-1.2-1-2.42,0-3.63Z"/>
        <path class="cls-25" d="m71.21,190.28c-.03,1.46.39,2.82.89,4.17.6,1.6-.37,2.98-2.08,3.02-.67.02-1.31-.17-1.8-.56-1.62-1.27-3.49-1.45-5.44-1.36-1.68.08-3.34,0-4.93-.67-1.57-.67-3.34-.5-4.94-.57-3.3-.13-6.35-1.38-9.58-1.67.45-1.62,1.36-2.99,2.36-4.3.38-.21.3-.68.54-.96h0c.32-.22.23-.68.5-.94h0c1.52-1.26,3.14-.95,5.02-.93,4.24.03,7.53,2.91,11.64,3.06,2.5.09,3.79-1.13,3.22-3.57-.26-1.1-.93-2.04-1.3-3.08-.77-2.14-1.82-4.35-.07-6.54.81-.23,1.08.35,1.01.91-.31,2.42.95,4.29,2.06,6.22.12.19.22.39.31.6.11.32.15.65.18.98.55,1.4,1.01,2.84,1.43,4.29h0c.51.55.59,1.31.95,1.92h0Z"/>
        <path class="cls-17" d="m65.45,175.42c-1.03,2.23-.49,4.4.51,6.42.57,1.14,1.04,2.27,1.38,3.5.43,1.54-.54,2.57-1.19,3.64-.42.7-1.5.41-2.26.3-2.59-.39-5.18-.77-7.44-2.28-.94-.62-1.95-1.1-3.09-.29-.41.29-.96.27-1.34-.09-1.29-1.23-2.66-1.19-4.14-.42-.33.17-.76.17-1.14.25,2-4.13,4.29-8.09,6.71-11.99.84-.65,1.71-.2,2.49.05,1.71.54,3.45.5,5.18.41,1.56-.08,2.91-.66,3.38-2.38,1.73.49,1.72,1.57.96,2.89Z"/>
        <path class="cls-47" d="m115.36,60.77c0-19.58,0-39.15,0-58.73,0-.4-.01-.8-.02-1.2.47-.93.97-1.23,1.66-.15,2.02,3.12,3.92,6.31,5.6,9.63.28,1.01,1.51,1.95.27,3.09-.27.06-.53.02-.77-.12-.23-.14-.43-.31-.61-.51-1.26-1.84-2.28-3.83-3.49-5.95-.17,9.9.16,19.63-.17,29.35-.38.99.23,1.92.19,2.89-.18,6.36-.04,12.73-.07,19.09,0,1.52.64,2.76,1.48,3.95,2.68,3.76,5.29,7.56,7.65,11.53.45.75.99,1.45,1.23,2.31.15,1.86.72,3.75-.49,5.48-.49-.33-.67-.88-.9-1.38-2.93-6.27-6.72-12.08-9.67-18.34-.38-.81-.72-1.7-1.89-.94Z"/>
        <path class="cls-34" d="m173.87,116.39c2.34-.75,4.75-.38,7.13-.47,1.72-.43,3.47-.19,5.2-.18,1.76.02,2.21.82,1.6,2.48-1.12,3.06-3.89,5.03-7.2,5.09-.88.01-1.74.08-2.58.35-3.8.13-7.58.81-11.4.67-.91-.06-1.82-.1-2.71.16-.51.09-1,.08-1.46-.2-.53-1.39.64-1.77,1.44-2.31,3.17-2.14,6.54-3.93,9.98-5.59Z"/>
        <path class="cls-40" d="m30.91,270.78c.7-.57,1.53-.35,2.31-.35,16.53-.02,33.05-.11,49.58.02,3.17.02,6.33-.19,9.5-.04.38.19.75.39.92.82.54,2.19.18,4.41.29,6.62-.29,1.17.48,2.41-.22,3.55-2.16-.07-4.25.63-6.43.46-1.99-.15-2.2-.26-2.22-2.24-.03-2.4-.03-4.79.02-7.19.02-1.09-.32-1.67-1.49-1.59-.64.04-1.28,0-1.92,0-15.9,0-31.8.02-47.7.03-.88,0-1.75-.06-2.63-.1Z"/>
        <path class="cls-20" d="m127.81,81.43c0-1.92,0-3.85,0-5.77-.63-1.4-.75-2.88-.77-4.4-.08-6.57.26-13.14-.22-19.71-.02-.63.2-1.22.28-1.83.11-8.31,0-16.62.05-24.93,0-.88-.06-1.77.21-2.62.15-.47.45-.92,1.01-.84.6.08.64.61.64,1.11,0,2.72-.04,5.43.02,8.15.05,2.39-.23,4.78.16,7.17.06,6.38.11,12.75.17,19.13-.23,7.17-.08,14.35-.08,21.53,0,1.8,0,3.6,0,5.91-.9-1.16-1.34-1.94-1.46-2.9Z"/>
        <path class="cls-20" d="m131.26,281.42c-.03.8-.1,1.59-.1,2.39.04,9.83.1,19.66.14,29.48,0,.88-.05,1.75-.08,2.63-2.1,1.44-1.29-.92-1.89-1.44.35-3.51-1.63-5.46-4.45-7.02-1.18-.65-2.67-1.12-3.15-2.67,0-.74.38-1.14,1.1-1.23,1.52.08,2.63,1.06,3.87,1.77.66.38,1.3,1.33,2.06.85.71-.44.28-1.48.35-2.25.03-.32-.04.07.01-.24.65-4.3-.46-7.7-4.81-9.48-.51-.21-.93-.63-1.07-1.23-.05-.66.19-1.19.68-1.61,1.44-.27,2.36.77,3.39,1.44,1.24.81,1.84.75,1.8-.91-.04-1.9,0-3.81-.03-5.72.05-1.08-.06-2.16.15-3.23.06-.24.15-.46.28-.66.49-.46.86-1.2,1.74-.87Z"/>
        <path class="cls-103" d="m178.18,123.09c1.23-.85,2.61-.34,3.91-.4,1.1-.05,1.9-.24,2.55-1.29.77-1.26,2.14-2.09,2.68-3.57.47-1.28.25-1.78-1.11-1.85-1.74-.09-3.48-.04-5.22-.05,2.19-.85,4.48-.3,6.72-.48,2.51-.44,5.04-.08,7.56-.21.86-.05,1.74.22,2.56-.22.32,0,.65-.02.97-.02-1.12,2.65-3.66,3.83-5.7,5.55-.74.63-2.01.81-1.98,2.15-.15.18-.25.46-.48.52-4.17,1.02-8.33,1.28-12.48-.11Z"/>
        <path class="cls-37" d="m173.87,116.39c-.74,1.49-2.34,1.71-3.59,2.47-2.71,1.65-5.71,2.87-7.92,5.28-.54,1.53-1.88.91-2.92,1.1-.58,0-1.17-.01-1.74.18-.32.09-.65.14-.99.18-.54.05-1.07.15-1.6.26-.34.04-.65,0-.91-.25.03-1.2.94-1.77,1.76-2.37,1.84-1.35,3.71-2.67,5.57-3.99.71-.51,1.38-1.06,1.77-1.87,3.49-.61,7-1.07,10.55-.96Z"/>
        <path class="cls-7" d="m131.23,324.44q.63,2.94,3.91,3.01c.24,0,.48,0,.72,0,3.51.04,3.6.04,3.79,3.63.16,2.94.12,5.9.1,8.85-.01,1.74-.22,1.96-1.94,1.96-4.94-.01-9.89-.1-14.83-.16-.7-.37-.93-.86-.41-1.55.22-.16.46-.26.72-.33.92-.17,1.86-.09,2.79-.17,1.09-.03,2.18,0,3.26.02,1.82,0,3.65-.08,5.47.03,1.81.11,2.41-.72,2.35-2.39-.05-1.66-.05-3.33,0-4.99.04-1.61-.65-2.24-2.26-2.3-1.6-.05-3.36.53-4.76-.81.27-1.41,1.43-.52,1.97-.89-1.74-.75-1.98-1.65-.88-3.92Z"/>
        <path class="cls-31" d="m114.87,341.78c-3.12-1.1-6.33-1.78-9.65-1.37-2.31.29-3.64-.66-4.76-2.59-1.15-1.98-2.68-3.73-4.32-5.36-.23-.22-.46-.44-.67-.68-.56-.66-1.36-1.32-.95-2.26.39-.88,1.37-.62,2.15-.63,4.14-.02,8.28-.03,12.42-.04.28-.15.48-.07.58.23-.63,1.15-1.78.89-2.76.91-2.77.05-5.54.05-8.43-.02,2.09,2.17,3.65,4.58,5.4,6.85,1.33,1.73,2.84,2.54,5.07,2.46,2.53-.08,5.09-.32,7.61.22.9.91,2.46.93,3.07,2.24-1.59,0-3.18.02-4.76.02Z"/>
        <path class="cls-68" d="m131.26,281.42c-.58.2-.78,1.02-1.53.93-1.21-.4-2.55-.13-3.71-.74-.08-1.02-.99-.85-1.61-1.13-.72-.32-1.62-.67-.32-1.48,1.5-.42,3.04-.42,4.52-.2,4.3.62,8.61.29,12.91.45.47-.06.95-.07,1.42-.02,1.74.16,2.38-.63,2.42-2.34.04-1.85-.52-3.81.64-5.54.37-.58.95-.49,1.51-.5.01.44.02.89.04,1.33.25,3.07.34,6.14-.05,9.21-1.41.78-2.95.41-4.39.3-3.94-.29-7.89-.08-11.83-.28Z"/>
        <path class="cls-102" d="m131.23,324.44c0,.08-.02.16-.03.23q-.12,2.96,2.8,3.27c.28.03.65.03.67.78-1.45.31-2.98.07-4.47.16-1.99,1.2-4.12.66-6.19.42-.82-.09-1.36-.77-1.18-1.73,1.26-1.32,2.9-.6,4.37-.8.8-.01,1.68.07,1.84-1.03.16-1.06.03-2.07-.85-2.84-1.14-.99-2.4-1.83-3.65-2.68-.84-.58-1.83-1-2.31-2-.15-.64-.09-1.2.55-1.54,1.96-.16,3.21,1.24,4.67,2.15,1.25.77,1.66.53,1.67-.91.01-1.16-.35-2.42.6-3.43.38.24.45.62.48,1.03.05.84.57.52,1,.4.17,2.84.12,5.68.02,8.52Z"/>
        <path class="cls-80" d="m105.75,299.63c-.32,0-.63-.01-.95,0q-1.83.09-1.93,1.84c-.09,1.72-.3,2.49-1.39,3.96-.02-3.87-.05-7.74-.07-11.61-.16-3.08.25-6.18-.38-9.25-.15-.73-.27-1.59.36-2.26,1.14,1.77,3.52,2.15,4.56,4.04.05.23.05.46.03.69-.21.89.07,1.92-.79,2.61-.93,0-.66-1.2-1.5-1.45-.36,2.51-.17,4.97-.15,7.43.01,1.47,1.3,1.64,2.28,2.11.56.28,1.18.5,1.5,1.11-.02,1.28-.69,1.26-1.58.78Z"/>
        <path class="cls-50" d="m129.18,37.76c-.62-.68-.37-1.52-.38-2.29-.03-3.83-.02-7.65-.05-11.48,0-.74.19-1.54-.58-2.62-.67,2.69-.3,5.03-.36,7.32-.06,2.39-.01,4.78-.01,7.17,0,2.39,0,4.78,0,7.17s0,4.78,0,7.17c-.99.13-1.16-.51-1.21-1.27.07-7.1-.14-14.21.09-21.31.12-3.84-.62-7.23-2.81-10.38-.79-1.13-1.75-2.34-1.33-3.94,1.13-.98-.13-2,.05-3,1.08,1.14,1.66,2.57,2.35,3.94.14.14.26.29.35.47.1.12.15.26.16.42.11.19.24.37.38.55.09.1.13.22.12.35.06.26.24.44.41.62v.02c.16.11.26.25.32.42.07.16.13.31.2.47.12.17.24.33.36.51.09.11.14.24.15.38.07.24.23.42.4.59.18.32.35.63.53.95.13.14.25.3.34.47.38.53.56,1.12.57,1.78.04,5.16.21,10.33-.03,15.49Z"/>
        <path class="cls-93" d="m105.76,286.69c-.41-.81-1.14-1.15-1.92-1.57-1.1-.59-2.43-1.18-2.45-2.8,0-.13,0-.25,0-.38-.1-.22-.27-.38-.47-.51-.47-.02-.94-.04-1.41-.06-1.31-1-2.87-.54-4.31-.78-.73-.12-2.08.34-1.83-1.29,3.22-1.01,6.41-.61,9.6.18,1.03.59,2.02,1.23,2.98,1.92.71,1.19.23,2.83,1.53,3.83.6.46,1.35,1.2.58,1.95-.79.76-1.72.6-2.3-.48Z"/>
        <path class="cls-82" d="m93.29,279.48c1.18.98,2.57.41,3.85.45,1.16.03,1.98.3,2.38,1.44-2.08.01-4.16.02-6.24.03-.3-1.1-.62-2.2-.46-3.37,1.03.2.83.79.48,1.45Z"/>
        <path class="cls-58" d="m119.63,341.76c-.9-.69-2.58-.18-2.85-1.84,1.56-1.06,3.13-.84,4.69,0,.55.5.69,1.14.58,1.85-.81,0-1.61,0-2.42,0Z"/>
        <path class="cls-38" d="m21.31,232c.01.54.02,1.08.5,1.48.48.4.6.98.28,1.46-.42.62-1.08.45-1.67.19-.21-.09-.41-.22-.61-.33.27-1.06.78-1.99,1.51-2.79Z"/>
        <path class="cls-8" d="m197.84,115c-.48.59-1.14.46-1.77.46-2.78,0-5.57-.02-8.35-.03.69-.57,1.51-.36,2.28-.37,2.61-.04,5.22-.04,7.84-.06Z"/>
        <path class="cls-43" d="m147.49,281.4c.02-3.07.04-6.14.05-9.21.52,3.07.77,6.14-.05,9.21Z"/>
        <path class="cls-51" d="m122.05,341.76c-.23-.43-.51-.85-.47-1.37.32-.25.64-.25.95,0-.03.51.25.92.45,1.35-.31,0-.62.01-.93.02Z"/>
        <path class="cls-90" d="m34.24,208.95c.02.45-.07.83-.58.96.08-.39.19-.76.58-.96Z"/>
        <path class="cls-8" d="m64.48,154.77c0,.42-.07.8-.54.96.06-.39.16-.75.54-.96Z"/>
        <path class="cls-17" d="m46.25,187.38c0,.43-.07.8-.54.96.06-.39.17-.75.54-.96Z"/>
        <path class="cls-17" d="m46.74,186.44c0,.4-.1.76-.5.95.02-.4.13-.74.5-.95Z"/>
        <path class="cls-90" d="m34.73,208c0,.42-.08.78-.51.97.02-.4.14-.75.51-.97Z"/>
        <path class="cls-25" d="m43.36,192.64c-.14.17-.28.34-.41.51.03-.26.17-.43.41-.51Z"/>
        <path class="cls-80" d="m100.92,281.42c.27.07.43.23.47.51-.16-.17-.31-.34-.47-.51Z"/>
        <path class="cls-59" d="m128.64,20.48c-.11-.16-.22-.32-.34-.47.11.16.22.32.34.47Z"/>
        <path class="cls-59" d="m127.78,19.06c-.13-.2-.27-.39-.4-.59.13.19.27.39.4.59Z"/>
        <path class="cls-59" d="m127.23,18.09c-.12-.17-.24-.34-.36-.51.12.17.24.34.36.51Z"/>
        <path class="cls-59" d="m126.68,17.11c-.1-.14-.21-.28-.31-.42.1.14.21.28.31.42Z"/>
        <path class="cls-59" d="m126.36,16.67c-.25-.13-.39-.34-.41-.62.14.21.28.42.41.62Z"/>
        <path class="cls-59" d="m125.82,15.7c-.13-.18-.25-.37-.38-.55.13.18.25.37.38.55Z"/>
        <path class="cls-59" d="m125.29,14.73c-.12-.16-.23-.31-.35-.47.12.16.23.31.35.47Z"/>
        <path class="cls-25" d="m42.86,193.51c-.03.28-.17.48-.43.61.14-.2.28-.41.43-.61Z"/>
        <path class="cls-38" d="m19.84,234.82c-.14.18-.28.36-.43.54.03-.27.15-.47.43-.54Z"/>
        <path class="cls-66" d="m159.08,124.61c1.1-.11,2.27.25,3.28-.48.48-.03.96-.06,1.45-.09.77-.44,1.69.1,2.45-.4,3.97-.19,7.95-.37,11.92-.56,3.47,0,6.93-.02,10.4,0,.89,0,1.71-.26,2.56-.41,6.28.3,12.53-.59,18.81-.54,7.47.06,14.95,0,22.43,0,1.14-.19,2.83-.73,3.24.26.53,1.32-1.14,2.04-2.14,2.77-5.59,4.07-12.16,5.5-18.76,6.73-9.9,1.85-19.91,2.56-29.96,3-3.82.17-7.62.68-11.43.93-4.36-.18-8.68.09-12.97.89-.77.14-1.56.36-2.28-.17h-.01c-.31-.24-.21-.69-.5-.94-1.9-2.89-3.41-6.01-5.11-9,.33-.88,1.38-.35,1.77-1.01.32-.03.64-.07.96-.1.43-.35,1.06-.02,1.48-.42.31-.02.62-.04.92-.07.45-.34,1.06-.04,1.51-.4Z"/>
        <path class="cls-11" d="m330.22,123.16c.48-.03.95,0,1.41.19.86.34,1,.81.59,1.66-1.1,2.25-2.64,4.22-4.38,5.93-1.68,1.65-3.64,3.06-5.63,4.4-4.3,2.91-9.24,3.81-14.2,4.54-7.53,1.11-15.14.55-22.7.4-4.51-.09-9.05-.43-13.55-.91-4.26-.45-8.53-.82-12.79-1.22-4.83-.44-9.6-1.26-14.43-1.69-3.07-.28-6.19-.33-9.5-1.08,1.67-1.89,3.3-3.73,4.94-5.58,2.25-.43,4.46.16,6.67.34,10.19.85,20.4.96,30.61,1.1,5.08.07,10.21-.01,15.31-.34,11.63-.75,22.92-3.13,33.94-6.88,1.21-.41,2.54-.3,3.71-.86Z"/>
        <path class="cls-11" d="m315.88,145.22c-.31,1.72-1.46,2.98-2.44,4.32-4.59,6.27-10.74,10.19-18.38,11.31-2.74.4-5.61.66-8.51.31-2.58-.31-5.23-.37-7.83-.64-2.99-.31-5.98-.76-8.96-1.19-4.71-.69-9.41-1.37-14.1-2.16-4.38-.74-8.76-1.5-13.1-2.46-6.67-1.47-13.3-3.09-19.94-4.68-1.79-.43-1.85-.5-1.13-2.18.31-.72.1-1.63.8-2.19,3.18,1.25,6.58,1.3,9.89,1.5,7.03.42,13.89,1.97,20.85,2.84,10.7,1.32,21.44,2.09,32.21,1.61,5.49-.24,10.94-1.09,16.28-2.49,3.89-1.2,7.85-2.2,11.64-3.71.86-.34,1.76-.89,2.71-.18Z"/>
        <path class="cls-66" d="m330.22,123.16c-.46.62-1.18.76-1.85,1-8.06,2.79-16.26,5.03-24.72,6.24-2.91.42-5.85.62-8.75.98-4.55.56-9.09.18-13.62.42-6.84.36-13.69.09-20.51-.19-3.78-.15-7.64.11-11.42-.71-1.38-.3-2.87-.03-4.3-.11-1.72-.09-3.45-.22-5.05-.99,1.01-1.9,2.36-3.61,3.16-5.63.26-.67.67-.83,1.48-.76,3.49.32,6.99.47,10.49.71,14.6.99,29.22.42,43.83.38,4.61-.01,9.22-.55,13.82-.89,5.81-.43,11.63-.67,17.46-.45Z"/>
        <path class="cls-11" d="m261.67,184.98c1.46-.2,2.82.41,4.24.55,1.79.18,3.57.47,5.83.52-1.52,1.7-2.75,3.1-4.3,4.19-3.92,2.76-8.31,4.36-13.07,4.74-1.87.15-3.81-.17-5.67-.5-10.38-1.8-20.36-4.93-30.02-9.12-3.94-1.71-7.89-3.42-11.7-5.41-3.14-1.64-3.13-1.67-1.18-4.49.36-.52.77-1.01,1.15-1.51,5.27.95,10.25,2.89,15.37,4.35,8.35,2.39,16.72,4.67,25.3,6.12,4.66.79,9.38.1,14.06.55Z"/>
        <path class="cls-11" d="m292.81,166.8c1.48-.06,2.9-.93,4.49-.27-.21,1.82-1,3.41-2.09,4.76-2.88,3.55-6.47,6.15-10.99,7.21-3.72.87-7.5,1.54-11.33,1.18-6.08-.58-12.12-1.43-18.03-3.07-6.74-1.88-13.44-3.87-20.13-5.93-5.24-1.62-10.49-3.22-15.71-4.91-1.88-.61-3.67-1.46-5.63-2.25.35-1.32,1.64-1.58,2.23-2.45,14.21,3.36,28.24,7.52,42.74,9.55,10.04,1.41,20.06,1.63,29.76-2.1,1.56-.6,3.11-1.22,4.7-1.71Z"/>
        <path class="cls-11" d="m233.35,196.04c2.97,1.26,5.95,2.53,8.95,3.8-3.49,5.75-11.95,8.48-17.06,7.44-7.24-1.48-13.32-4.95-19.26-9.04-3.88-2.67-7.53-5.58-10.97-8.77-1.73-1.61-3.18-3.51-4.97-5.52,2.14-.48,4.02-.9,5.9-1.32,2.33,1.24,4.37,2.89,6.44,4.5,7.72,6.01,16.6,8.52,26.24,8.72,1.58.03,3.15.23,4.73.18Z"/>
        <path class="cls-11" d="m206,144.76c2.63-.02,5.26-.05,7.9-.04,1.59,0,1.95.37,1.61,1.8-.6,2.55-1.3,5.1-2.41,7.48-1.19,2.54-3.6,3.83-5.95,4.9-2.7,1.22-5.6,1.41-8.63.89-4.68-.8-9.33-1.79-14.08-2.25-3.83-.38-7.63-.17-11.44-.34-.16,0-.34-.04-.47.02-2.26,1.1-3.31-.27-4.18-2.03-.7-1.42-1.43-2.82-2.15-4.23.72-.73,1.6-.55,2.48-.46,10.94,1.13,21.81.53,32.63-1.33,3.68-.63,7.23-1.71,10.38-3.81.25-.22-.29-.3-.04-.1.12.1.11.2-.05.23-1.94.38-3.96,1.29-5.59-.73Z"/>
        <path class="cls-11" d="m173.39,135.13c3.07-.36,6.17-.32,9.22-.88.31-.06.64-.09.95-.06,3.91.3,7.79-.31,11.66-.59,5.91-.43,11.83-.98,17.68-2.09,3.82-.72,7.61-1.55,11.35-2.6,3.9-1.09,7.29-3.12,10.5-5.51.3-.22.66-.47.6-1.12-.97-.05-1.97-.09-2.97-.14,1.92-.62,2.46-.61,5.86.19-.29,1.56-1.46,2.62-2.37,3.71-4.85,5.73-10.65,10.08-18.25,11.34-2.02.34-4.06.69-6.15.65-4.23-.09-8.49.3-12.68-.13-5.02-.51-10.03-.21-15.04-.39-4.62-.17-9,.94-13.21,2.7-2.34.98-4.81,1.77-6.8,3.43-.84.7-1.43.5-1.97-.29-.41-.59-.78-1.21-.88-1.94,1.92-3.48,5.27-4.79,8.82-5.75,1.2-.33,2.49-.12,3.7-.52Z"/>
        <path class="cls-83" d="m301.95,149.52c-2.59,1-5.32,1.43-8.03,1.9-6.86,1.18-13.78,1.01-20.7.98-3.98-.01-7.91-.46-11.86-.89-1.81-.2-3.63-.34-5.44-.5-5.14-.47-10.19-1.44-15.28-2.17-2.19-.32-4.37-.7-6.6-.8-2.6-.11-5.19-.54-7.79-.81-.79-.08-1.59-.09-2.39-.12-.96-.03-1.47-.51-1.56-1.46.15-.53.41-1.06.43-1.6.04-1.15.71-1.67,1.65-2.09,1.09-.48,2.15-1.04,3.22-1.56,4.65.66,9.34,1,13.95,1.91.31.06.67.01.93.18,4.27,2.75,9.2,2.35,13.9,2.81,12.69,1.25,25.4,2.25,38.09,3.42,2.14.2,4.31-.12,6.45.21.4.06.75.25,1.02.57Z"/>
        <path class="cls-87" d="m242.01,160.53c3.2.15,6.26,1.11,9.39,1.65,6.57,1.15,13.12,2.42,19.76,3.23,4.82.58,9.62,1.28,14.47,1.41,1.07.66,2.45-.37,3.46.63-.74,1.33-2.14,1.27-3.34,1.51-9.75,1.92-19.53,1.82-29.29.14-12.58-2.16-25.15-4.4-37.61-7.21-.89-.2-2.72.21-2.3-1.85.49-.95.99-1.9,1.48-2.85,1.29-.92,2.73-.74,4.15-.5,5.71.97,11.34,2.4,17.05,3.39.92.16,1.92-.05,2.78.44Z"/>
        <path class="cls-11" d="m184.41,184.05c.04-.31.07-.7.49-.64.75.11,1.24.67,1.75,1.18,1.87,1.85,3.55,3.88,5.36,5.78,4.62,4.85,9.65,9.28,14.69,13.66,3.28,2.85,6.74,5.59,10.81,7.38,1.71.76,1.73,1.03.31,2.28-2.55,2.24-5.65,3.2-8.98,3.42-1.91.13-3.83.04-5.75.04-1.21-.02-1.27-1.16-1.8-1.84-1.33-2.61-2.95-5.05-4.31-7.65-.88-1.81-2.03-3.47-2.9-5.28-1.33-2.2-2.43-4.53-3.81-6.71-.87-1.79-2.02-3.43-2.87-5.23-1.04-1.67-1.89-3.44-2.84-5.15-.2-.4-.45-.79-.18-1.25Z"/>
        <path class="cls-12" d="m201.71,215.21c.47.65.93,1.3,1.4,1.94.04,1.31,1.33,2.07,1.46,3.34-2.11-.68-3.52.03-4.6,1.97-.95,1.69-1.34,1.69-3.07.91-.58-.26-1.13-.59-1.71-.85-1.51-.7-2.03-.45-2.6,1.19-.13.37-.16.79-.36,1.11-.37.59-.86.98-1.52.29-1.05-1.1-2.05-.95-3.09.07-.76.75-1.9.74-2.78,1.15-2.38,1.11-5.23.24-7.41,1.96-.85.67-1.69.09-2.49-.16-2.76-.85-3.27-.76-4.95,1.61-.75,1.05-1.64,1.43-2.84,1.31,2.56-2.17,1.15-4.27-.02-6.45-.49-.9-1.49-1.74-.89-3,.11-.12.22-.3.36-.31,5.01-.28,9.63-2.68,14.68-2.68,1.37,0,2.82-.02,3.96-.69,3.84-2.24,8.23-2.65,12.33-4.02,1.65-.55,3.16-.38,4.14,1.31Z"/>
        <path class="cls-83" d="m261.67,184.98c-.54.68-1.3.49-2,.5-3.19.01-6.4.17-9.58-.04-3.88-.26-7.67-1.22-11.45-2.1-9.22-2.14-18.29-4.86-27.32-7.67-1.49-.47-3.18-.46-4.37-1.71.8-1.56,1.57-3.12,1.97-4.86.33-1.41.6-1.51,2.03-.79,2.99,1.52,6.07,2.86,9.18,4.09,8.67,3.46,17.59,6.2,26.56,8.75,4.82,1.37,9.67,2.64,14.61,3.55.14.03.25.18.38.28Z"/>
        <path class="cls-11" d="m200.24,164.9c2.35.35,2.83.89,2.34,3.04-.3,1.3-.81,2.55-1.58,3.68-2.46,3.59-5.63,6.12-9.98,7.14-2.99.7-5.99.39-8.99.48-.41-.03-.69-.28-.97-.56-.13-.14-.24-.3-.34-.47-.15-.25-.29-.51-.44-.76-.12-.17-.23-.34-.33-.52-1.07-1.73-2.01-3.53-3.05-5.28-.11-.19-.21-.39-.3-.58-.11-.2-.2-.4-.29-.61-.14-.33-.24-.66-.23-1.03.04-.11.09-.23.13-.34.19-.17.4-.29.64-.37,3.72.04,7.44.27,11.17-.16,4.31-.5,8.51-1.23,12.22-3.65Z"/>
        <path class="cls-83" d="m233.35,196.04c-.4.52-.97.46-1.53.48-8.57.27-16.76-1.19-24.39-5.27-3.17-1.7-5.95-3.95-8.76-6.15-.96-.75-2.36-1.06-2.74-2.46,1.48-.59,3-1.09,4.42-1.81,1.12-.57,2.04-.58,3.13.03,3.47,1.97,7.01,3.82,10.47,5.79,4.86,2.77,9.89,5.2,15.05,7.37,1.48.62,2.9,1.32,4.34,2.02Z"/>
        <path class="cls-60" d="m301.95,149.52c-1.2,0-2.39,0-3.59,0-4.21.03-8.38-.53-12.57-.85-2.45-.18-4.91-.44-7.34-.68-2.75-.27-5.53-.26-8.28-.74-2.01-.35-4.11-.47-6.15-.54-5.8-.2-11.51-1.23-17.28-1.55-.77-.04-1.72-.23-2.23-.73-2.11-2.05-4.81-1.79-7.37-2.11-2.83-.35-5.66-.67-8.49-1.02-.51-.06-.83-.44-1.05-.89,1.24-1.34,2.69-1.36,4.35-.89,5.89,1.67,11.89,2.96,17.96,3.64,5.84.65,11.65,1.53,17.49,2.13,8.64.89,17.28,1.66,25.95,1.26,6.97-.32,13.99-.5,20.75-2.6.3-.09.62-.14.93-.19q1.46-.25.84,1.46c-3.73,1.21-7.46,2.44-11.2,3.63-.89.28-1.75.75-2.73.67Z"/>
        <path class="cls-83" d="m216.54,160.04c.06.68.49.84,1.1,1.02,2.9.85,5.88,1.26,8.83,1.84,5.82,1.15,11.63,2.36,17.49,3.28,5.31.84,10.55,2.02,15.92,2.63,4.9.56,9.8,1.11,14.71.79,4.64-.31,9.31-.74,13.85-1.92.21-.05.38-.27.57-.41.55-.52,1.36.03,1.92-.45.63,0,1.27-.01,1.9-.02-3.24,2.32-6.98,3.37-10.78,4.26-2.79.65-5.6,1.13-8.49,1.02-2.31-.09-4.63-.1-6.95,0-3.69.17-7.28-.55-10.88-1.14-9.95-1.63-19.73-4.07-29.49-6.57-3.15-.81-6.29-1.69-9.48-2.35-.6-.12-1.09-.25-1.13-.96.18-.45.48-.8.93-1.02Z"/>
        <path class="cls-87" d="m206,144.76c.82.76,1.82.38,2.74.42,1.17.06,2.35.01,3.88.01-1.8,2.12-4.06,2.65-6.15,3.4-2.76,1-5.67,1.45-8.57,1.86-4.24.6-8.5.84-12.78,1.06-2.53.13-5.12.74-7.58.29-3.31-.6-6.68.11-9.94-.83-.44-.13-.95-.03-1.43-.04-.58-.44-.81-1.09-1.06-1.73-.21-.52.15-.65.57-.7,12.19-1.71,24.57-1.15,36.73-3.17.79-.13-.08-.51.22-.64,1.12.01,2.24.03,3.35.04Z"/>
        <path class="cls-52" d="m184.41,184.05c.16.32.31.64.47.96-3.6.95-6.97,2.54-10.46,3.81-1.42.52-2.68.92-4.12.19-1.17-.59-2.29-.28-3.43.27-2.43,1.17-3.77.22-3.67-2.49.04-.97.38-1.87.55-2.81,1.16-2.55,2.29-5.11,2.67-7.92,1.29-.54,1.34.63,1.69,1.29,1.2,2.3,2.51,2.74,4.71,1.5.42-.24.84-.58,1.3-.52,1.95.25,3.85.62,5.15-1.55.3-.51.98.07,1.31.56h0c.28.26.19.71.49.96h0c.34.46.58.99.95,1.44.8,1.44,1.6,2.88,2.4,4.32Z"/>
        <path class="cls-87" d="m200.24,164.9c.27.49.22.8-.35,1.12-2.38,1.33-4.99,1.98-7.59,2.66-3.01.79-6.13.39-9.17.94-2.26.41-4.52-.72-6.84-.44-.17,0-.32-.05-.45-.14-.13-.09-.24-.21-.31-.35-.09-.13-.16-.27-.22-.41-.08-.13-.15-.26-.23-.39-.09-.12-.15-.26-.2-.41,0,0,0-.23,0-.23-.36-2.01-2.06-3.39-2.67-5.68,2.52-.16,4.96-.22,7.35.02,4.11.4,8.23.68,12.28,1.62,2.78.64,5.54,1.46,8.41,1.69Z"/>
        <path class="cls-16" d="m180.58,177.33c-.49-.16-.99-.68-1.43.06-.2.34-.36.7-.56,1.04-.6,1.02-1.32,1.46-2.52.75-1.11-.66-2.23-.65-3.24.36-.52.52-1,1.39-1.96.82-1.15-.69-2.94-.56-3.21-2.4-.12-.8-.32-1.54-.98-2.07-.28-.23-.38-.53-.4-.88,0-.22.04-.45.09-.66.09-.33.2-.65.3-.96.81-2.11,2.17-3.97,2.88-6.13.59.32.41,1.17,1.06,1.47.73.33,1.41.82,1.84-.38.41-1.13,1.24-1.53,2.4-1.11,0,0-.02,0-.02,0,.11.2.3.34.44.51v.02c.3.24.21.69.5.94h0c.27.26.18.71.48.96h0c.27.26.18.71.49.95h0c.15.16.3.32.45.48,1.1,2.09,2.55,4,3.37,6.24Z"/>
        <path class="cls-18" d="m202.65,144.72c.27.61,1.02.29,1.41.71-4.58,1.25-9.3,1.58-13.96,2.03-3.38.33-6.79.8-10.24.64-4.38-.21-8.75.13-13.03,1.13-.75.18-1.05.01-1.13-.7.32-.23.61-.55.97-.67,6.44-2.08,12.84-4.3,19.78-4.18,4.71.08,9.41.15,14.1.6.71.07,1.4.29,2.1.43Z"/>
        <path class="cls-44" d="m169.55,167.26c.11,1.38-.18,2.61-1.05,3.75-.66.86-1.2,1.84-1.36,2.97-.16.15-.32.31-.47.48,0,.16,0,.32,0,.48-.39.28-.11,1.14-.91,1.06-.41-.28-.45-.69-.43-1.13.02-.22.07-.42.14-.63.12-.43.2-.86.28-1.3.19-.84.42-1.66.95-2.37,1.96-2.21.8-3.5-1.74-3.58-.95-.03-1.91-.04-2.86-.02-8.43.24-16.82-.71-25.24-.56-.59-.09-1.14-.3-1.7-.5-.2-.07-.4-.16-.59-.26-.18-.1-.35-.23-.5-.36-.08-.07-.15-.14-.23-.21-.15-.13-.29-.28-.43-.43-.07-.07-.14-.15-.21-.22-.15-.15-.28-.31-.4-.48-.13-.17-.24-.35-.34-.54-3.44-5.88-7.31-11.51-10.62-17.46-.09-.18-.17-.36-.25-.54-.09-.17-.16-.34-.24-.52-.11-.25-.23-.5-.37-.74-.11-.15-.22-.3-.33-.45-.13-.15-.24-.3-.36-.46-.12-.17-.22-.34-.32-.52-.24-.41-.48-.8-.72-1.2-1.21-2-2.28-4.22-5.3-2.99,1.32-2.54,2.97-2.74,4.55-.35,2.53,3.84,4.92,7.79,7.35,11.7,2.59,4.18,5.2,8.36,7.72,12.59.99,1.66,2.17,2.52,4.22,2.44,8.19-.32,16.36.79,24.56.46,1.67-.07,3.31.07,4.97.41,1.04.21,1.77.59,2.26,1.5Z"/>
        <path class="cls-87" d="m173.39,135.13c-.64.81-1.64.5-2.45.69-3.57.85-6.73,2.35-9.29,5.03-.21.22-.51.37-.77.55-1.22-1.45-2.03-3.15-2.81-4.86,5.02-1.42,10.16-1.53,15.32-1.42Z"/>
        <path class="cls-49" d="m242.01,160.53c-2.81.1-5.48-.78-8.22-1.19-5.25-.78-10.4-2.26-15.76-2.15.24-.5.49-1,.71-1.51.35-.82.88-.95,1.72-.65,6.81,2.44,13.87,3.86,20.97,5.12.21.04.39.25.59.38Z"/>
        <path class="cls-89" d="m101.9,157.67v-.48c.19-.15.33-.32.49-.48h0c.29-.25.21-.7.48-.96,2.55-3.14,4.27-6.82,6.52-10.15.66-.97,1.07-2.12,2.1-2.81.07.07.14.13.21.2.08.18.1.38.09.57-.04.2-.1.39-.18.57-.12.29-.24.57-.36.86-2.79,5.18-6.09,10.05-9.14,15.07-.29.48-.64.91-1.21,1.09-.22.03-.42-.03-.58-.18-.05-.2-.07-.4-.07-.6.05-.3.24-.52.38-.77.05-.17.12-.34.18-.51.1-.14.21-.28.33-.41.06-.06.12-.13.18-.19.12-.12.22-.25.32-.39.06-.16.15-.3.26-.43Z"/>
        <path class="cls-33" d="m113.94,138.52c.15-.04.33-.05.45-.14,2.16-1.6,2.41-1.6,3.81.57.89,1.38,2.13,2.58,2.44,4.29-.18.15-.39.2-.62.13-1.1-.74-1.64-1.94-2.31-3.01-.99-1.59-1.87-1.81-2.96-.11-.28.44-.72.91-1.39.54-.43-.79.26-1.25.54-1.84,0-.15.02-.3.03-.44Z"/>
        <path class="cls-89" d="m113.9,138.97l-.46,1.92c-.02.11-.03.22-.05.34-.43.75-.67,1.74-1.88,1.59,0,0-.03-.03-.03-.03.37-1.55,1.22-2.8,2.42-3.82Z"/>
        <path class="cls-11" d="m290.91,166.81c-.52.65-1.26.38-1.92.45-1.12-.17-2.33.39-3.36-.45,1.76,0,3.52,0,5.28,0Z"/>
        <path class="cls-16" d="m182.02,179.73c-.64-.27-.96-.75-.95-1.45.44.19.75.53.96.95,0,.17,0,.33,0,.5Z"/>
        <path class="cls-87" d="m157.55,135.61c.38.19.48.54.5.93-.39-.19-.49-.53-.5-.93Z"/>
        <path class="cls-73" d="m102.87,155.75c-.01.39-.1.75-.48.96.01-.39.1-.75.48-.96Z"/>
        <path class="cls-73" d="m100.96,159.11c0,.16-.01.31-.01.47-.08.06-.16.13-.24.19-.08-.06-.16-.12-.24-.18.01-.39.1-.75.48-.96.07.08.13.16.2.24-.06.08-.13.16-.19.24Z"/>
        <path class="cls-73" d="m100.47,160.07c0,.15-.01.31-.02.46-.15.24-.3.25-.47.02,0,0,0,0,0,0,.02-.39.1-.75.48-.96,0,0,0,0,0,0,.12.11.16.21.12.32-.04.11-.08.16-.12.16Z"/>
        <path class="cls-73" d="m100.95,158.63c.16-.16.32-.32.48-.48.06.08.12.16.19.24-.06.08-.12.16-.18.24h0c-.16.15-.32.15-.48,0h0Z"/>
        <path class="cls-73" d="m101.9,157.67c0,.15,0,.31,0,.46-.15.16-.31.17-.47.02,0,0,0,0,0,0,.16-.16.31-.31.47-.47Z"/>
        <path class="cls-73" d="m102.39,156.71c-.16.16-.32.32-.48.48.16-.16.32-.32.48-.48Z"/>
        <path class="cls-51" d="m141.73,279.94c-3.32,0-6.66.23-9.96-.06-2.76-.24-5.49-.43-8.25-.36-3.14,1.3-6.36.7-9.56.41-.53-1.65-1.15-3.31-.94-5.07.16-1.35-.39-1.91-1.62-2.08-2.51-.35-5.03-.59-7.55-.96-2.61-.43-5.24-.18-7.86-.26-1.1-.03-2.25.1-3.17-.74-.18-.15-.35-.29-.53-.44,11.51,0,23.01-.02,34.52-.03,5.1,0,10.2-.02,15.3.01.84,0,1.78-.31,2.49.46-.84.84-1.92.61-2.93.62-3.3.04-6.6,0-10.33.02,3.04,2.24,5.74,4.14,8.48,6,.87.59,2.06,1.02,1.9,2.45Z"/>
        <path class="cls-4" d="m64.5,231.05c0-.16-.01-.32-.02-.47.09-.08.19-.16.28-.24,1.36-.37,1.94.49,2.23,1.56.51,1.94,1.87,2.55,3.69,2.84,2.78.45,5.56.51,8.35.47,4.79-.07,9.55.68,14.35.55,2.66-.07,4.74,1.28,6.12,3.58,4.06,6.78,8.29,13.46,12.23,20.31.2.35.41.68.64,1.01,1.93,2.84,4.27,2.96,6.39.26,2.08-2.65,3.56-5.68,5.34-8.52,2.2-3.51,4.38-7.06,6.29-10.75.51-.9,1.09-1.76,1.63-2.64,1.34-2.19,3.21-3.3,5.88-3.42,7.22-.31,14.45-.58,21.67-.88,2.84-.12,4.2-1.81,5.51-3.85.56-.27,1.1-.28,1.58.18,0,.32,0,.64,0,.96-.06.05-.15.1-.17.16-1.07,3.46-2.39,4.66-6.13,4.58-4.79-.09-9.53.56-14.31.64-2.84.05-5.7.29-8.56.41-1.49.06-2.59.77-3.49,2.11-2.64,3.96-4.89,8.15-7.37,12.19-1.57,2.55-3.03,5.14-4.34,7.85-1.06,2.2-2.66,4.32-5.34,5.2-1.66.55-2.97.19-4.14-.92-1.65-1.59-3.02-3.3-3.96-5.52-1.16-2.74-3-5.2-4.58-7.76-1.81-2.95-3.69-5.87-5.34-8.92-.45-.83-1.03-1.61-1.61-2.36-1.09-1.4-2.42-2.03-4.32-1.96-4.93.18-9.84-.5-14.78-.55-2.43-.03-4.91-.26-7.36-.38-2.66-.13-4.59-1.52-5.89-3.82-.07-.66.22-1.41-.48-1.91Z"/>
        <path class="cls-57" d="m141.73,279.94c-.38-.74-1.06-1.13-1.72-1.59-3.13-2.16-6.23-4.36-9.34-6.55-.25-.17-.58-.29-.45-.95h14.39c.47.17.93.33,1.4.5.01,2.35,0,4.71.04,7.06.02,1.07-.35,1.62-1.49,1.55-.94-.05-1.88-.02-2.82-.03Z"/>
        <path class="cls-100" d="m166.67,231.05h-1.43c-.15-.18-.22-.39-.21-.63.13-.42.45-.62.84-.76,2.6-.89,2.67-.93,1.38-3.29-2.93-5.36-5.85-10.73-8.85-16.05-.85-1.51-1.92-2.93-2.08-4.75.06-.23.19-.41.4-.54,1.78.42,1.78,2.25,2.66,3.37,1.34,2.21,2.45,4.55,3.84,6.74.64,1.53,1.62,2.88,2.38,4.34.39.75.93,1.49.63,2.43,1.08,1.57,1.87,3.3,2.71,5.01,1.07,2.18.87,2.65-1.44,3.8-.13.07-.23.21-.34.32-.16,0-.32,0-.48,0Z"/>
        <path class="cls-19" d="m114.86,38.37c0,6.72-.01,13.02.01,19.31,0,.91-.21,1.73-.68,2.49-2.94,4.73-5.86,9.48-8.4,14.44-.26.5-.56.94-1.46,1.32,0-3.08-.29-6.01.09-8.85.33-2.47.34-4.92.36-7.37.04-6.38.01-6.38,3.54-11.68,1.06-1.59,2.15-3.16,3.19-4.76,1-1.52,1.76-3.2,3.35-4.91Z"/>
        <path class="cls-85" d="m99.99,160.55c.16,0,.31,0,.47-.02.01.18.02.37.03.55.15,1.97-.95,3.9-2.74,4.75-1.03.49-2.12.69-3.25.65-8.76-.3-17.5.76-26.26.5-.95-.03-1.92-.1-2.79.43-1.04.61-.68,1.4-.31,2.22.63,1.42,1.55,2.71,1.83,4.28.06.82.37,1.62.27,2.46-.43,1.48.15,2.77.69,4.09.34.83,1.09,1.63.38,2.63-1.7-1.98-3.13-4.05-2.46-6.88.08-.33-.15-.59-.41-.78.05-1.08-.03-2.13-.96-2.89-.09-1.07-.81-1.89-1.17-2.85-.88-2.36-.01-3.51,2.43-3.91,4.11-.68,8.24-.39,12.36-.42,5.79-.03,11.56-.84,17.36-.49,1.17.07,2.02-.41,2.64-1.3.68-.97,1.26-2.02,1.88-3.03Z"/>
        <path class="cls-8" d="m84.86,159.37c0,.16-.11.36-.34.41-.36.09-.58-.13-.58-.47,0-.24.19-.43.44-.43.24,0,.41.15.48.49Z"/>
        <path class="cls-62" d="m66.87,221.46c1.98-2.71,3.26-5.83,5.05-8.64.21-.33.46-.64.69-.96.27-.21.28-.53.33-.84.08-.2.2-.38.36-.53.44-.25.83-.32,1.06.27-.42,2.43-2.01,4.29-3.12,6.38-1.87,3.52-3.87,6.97-5.75,10.49-.4,1.7,1.41,1.15,1.94,1.91.09.22.09.44-.02.66-.29.24-.62.33-.98.33-.57-.17-1.16-.23-1.76-.2-.24,0-.46-.07-.65-.23h-.01c-.15-.17-.31-.32-.47-.48h0c-.72-1.55.31-2.65.96-3.84h0c.3-.25.2-.7.49-.95h0c.58-.74.89-1.63,1.39-2.41l.02-.03c.32-.22.22-.66.48-.92Z"/>
        <path class="cls-4" d="m64.49,225.77c-.16,1.32-1.27,2.4-.96,3.83-1.11-1.12-.07-2.23,0-3.35.32-.16.63-.32.95-.48Z"/>
        <path class="cls-4" d="m66.37,222.41c-.12,1-.47,1.87-1.39,2.41.14-.99.48-1.86,1.39-2.41Z"/>
        <path class="cls-75" d="m73.11,210.89c0,.41-.08.78-.5.96,0-.32,0-.64,0-.96,0,0,.02-.03.02-.03.17-.15.33-.13.48.03Z"/>
        <path class="cls-4" d="m66.87,221.46c.02.4-.07.74-.48.92.02-.38.11-.72.48-.92Z"/>
        <path class="cls-4" d="m64.98,224.82c0,.4-.09.75-.49.95,0-.4.1-.75.49-.95Z"/>
        <path class="cls-56" d="m108.62,311.63c-.15,0-.31-.02-.46-.03-.26-.3-.49-.64-.54-1.03-.38-3.4-1-6.79-.74-10.24,1.04-1.23,2.23-.56,3.39-.25.83.34,1.5.91,2.11,1.55,2.52,3.68,4.79,7.51,7.07,11.34.4.67.85,1.41.09,2.16-.2.1-.41.16-.63.17-.28.02-.63-.15-.82.07-.17.2.13.36.29.49.18.09.34.19.51.28.28.12.57.23.86.33,1.06.38,2.03.88,2.58,1.94,1.63,1.97,2.97,4.14,4.51,6.17.54.72,1.24,1.57.31,2.54-3.95.22-7.88.54-11.83.76-1.12.09-2.21-.24-3.33-.27-2.63-.06-3.21-.7-3.36-3.27-.18-3.02-.47-6.03-.79-9.03-.08-.73-.24-1.44.53-1.92,1.45-.2,2.9-.21,4.34.23-.82-.7-1.95-.69-2.65-1.51h0c-.38-.46-1.05-.06-1.44-.47Z"/>
        <path class="cls-22" d="m109.11,313.53c-.67.08-.92.4-.85,1.12.32,3.06.58,6.13.84,9.19.05.64.13,1.25.31,1.87.26.91.76,1.31,1.71,1.25,1.43-.08,2.86-.02,4.23.47.87-.11,1.48.35,1.45,1.14-.03.74-.85.82-1.48.89-.64.07-1.26-.02-1.84-.3-.65-.72-1.41-1.12-2.42-1.07-.86.05-1.7-.12-2.42-.66-.15-.27-.44-.54-.42-.8.19-2.78-.65-5.48-.52-8.24.06-1.22-.51-2.3-.5-3.5.02-1.61,0-1.63,1.92-1.83.16.1.21.2.16.31-.05.1-.1.16-.16.16Z"/>
        <path class="cls-61" d="m107.19,300.11c-.04,3.07.45,6.09.86,9.13.1.78.07,1.57.1,2.36-1.13-.12-1.44-1.02-1.39-1.87.17-2.92-.58-5.76-.55-8.66-.37-1.02-.05-1.35.97-.96Z"/>
        <path class="cls-101" d="m109.11,313.53c0-.15,0-.31,0-.46.61-.03.95-.34.96-.97,1.23-.03,2.31.49,3.38.99.43.2.91.51.64,1.07-.19.39-.68.36-1.06.26-1.3-.34-2.57-.78-3.92-.89Z"/>
        <path class="cls-29" d="m108.63,327.44c1.16,0,2.32.04,3.48,0,1.04-.03,1.37.51,1.31,1.44-1.27.94-2.55.95-3.83.02-.17-.01-.33-.02-.5-.03.05-.54-.27-.96-.46-1.42Z"/>
        <path class="cls-84" d="m107.19,300.11c-.64,0-.94.34-.97.96-.55-.35-.45-.91-.47-1.44.69,0,1.39.03,1.43-.95.1-.09.2-.18.29-.27,2.44-.21,3.03.21,3.08,2.18-1.15.04-2.19-.67-3.36-.48Z"/>
        <path class="cls-101" d="m108.62,311.63c.53,0,1.1-.1,1.44.47-.53,0-1.09.07-1.44-.47Z"/>
        <path class="cls-4" d="m64.02,230.09c.16.02.33.03.49.05.15.09.2.18.15.27-.05.09-.09.14-.14.14,0,0-.04.03-.04.03-.15-.16-.31-.32-.46-.49Z"/>
        <path class="cls-4" d="m63.54,229.61c.25.07.4.22.47.47-.16-.16-.31-.31-.47-.47Z"/>
        <path class="cls-9" d="m73.11,209.47c.16-.16.33-.32.49-.48.32.43.3.79-.2,1.06-.1-.04-.2-.08-.3-.12.01-.15.02-.3.01-.46Z"/>
        <path class="cls-9" d="m73.11,210.89c-.16,0-.32-.02-.48-.03.03-.38.12-.72.47-.94,0,0,.02.02.02.02.3.32.28.64-.01.95h0Z"/>
        <path class="cls-3" d="m68.33,183.09c-.2-1.5-1.27-2.65-1.61-4.11-.21-.92-.6-1.78.17-2.61.66.53.73,1.38,1.13,2.05.08.17.14.34.2.52.09.33.17.68.29,1,.07.15.13.3.19.45.07.14.14.29.21.43.08.14.15.28.21.43.1.21.2.43.31.64.09.13.16.27.23.41.08.13.16.27.24.4.1.12.19.25.29.38.1.12.19.26.28.4.08.14.16.29.22.44.12.23.24.45.37.67.1.15.2.31.29.46.18.24.36.47.54.71,2.26,3.64,4.23,7.45,6.2,11.24.52.99.98,2,.81,3.17-.03.22-.08.44-.15.65-.15.41-.29.83-.44,1.24-.33.52-.38,1.36-1.33,1.15.88-2.36.11-4.41-1.05-6.48-1.82-3.23-3.48-6.55-5.21-9.82-.11-.12-.25-.2-.41-.23-.15-.07-.26-.19-.33-.34-.12-.21-.22-.43-.34-.64-.09-.14-.16-.29-.24-.44-.11-.23-.24-.45-.37-.68-.09-.16-.16-.33-.21-.51-.1-.37-.22-.72-.49-1h0Z"/>
        <path class="cls-75" d="m76.97,203.22c.55-.33.68-.94.96-1.44.3-.25.2-.69.46-.95h0c.19-.17.41-.19.64-.1.31.21.51.48.53.86-1.16,3.05-2.93,5.77-4.62,8.53-.17.28-.48.4-.82.3-.34.16-.67.32-1.01.47,0-.32,0-.64.01-.95.39-.21.48-.56.48-.96,0,0,0,0,0,0,.15-.14.29-.29.41-.46.98-1.77,1.97-3.54,2.95-5.3Z"/>
        <path class="cls-88" d="m70.25,188.36c-.74-1.11-1.82-3.53-1.92-4.31.55-.31.69.2.95.47h0c.28.26.19.7.47.96h0c.28.27.19.71.47.96h0c.12.12.16.22.12.33-.04.11-.08.16-.12.16,0,.48,0,.95,0,1.43Z"/>
        <path class="cls-88" d="m71.21,190.28c-.62-.49-.88-1.15-.95-1.91.87.36,1,1.09.95,1.91Z"/>
        <path class="cls-9" d="m74.02,208.53c-.14.15-.27.3-.41.46.14-.15.27-.3.41-.46Z"/>
        <path class="cls-85" d="m70.25,186.93c0-.16,0-.32,0-.48.15.16.31.31.46.47-.15,0-.31,0-.46,0Z"/>
        <path class="cls-85" d="m69.28,184.53c-.32-.16-.63-.32-.95-.47,0-.32,0-.64,0-.96.64.27.96.74.95,1.43Z"/>
        <path class="cls-59" d="m122.54,13.31c1.21,2.52,2.61,4.92,4.08,7.29.48.76.72,1.56.72,2.48-.02,8.22-.01,16.44-.01,24.66,0,.56.05,1.13-.46,1.53-2.04-.72-2.82-2.7-4.05-4.19-1.92-2.31-3.58-4.83-5.25-7.33-.12-.19-.21-.39-.27-.6-.01-.11-.03-.22-.04-.33V5.19c2.04,2.36,3.49,4.96,4.81,7.64.17.16.29.35.48.48h0Z"/>
        <path class="cls-46" d="m127.33,51.2c.41,1.22.49,2.46.48,3.74-.02,6.9-.01,13.8,0,20.71-1.42-1.52-2.28-3.41-3.43-5.11-2.04-3.02-4.09-6.03-6.17-9.03-.61-.88-.97-1.78-.96-2.87.03-6.12.01-12.24.02-18.37,0-.55-.06-1.13.46-1.52,2.75,2.4,4.43,5.67,6.77,8.4,1.07,1.24,2.19,2.49,2.83,4.05Z"/>
        <path class="cls-92" d="m127.33,51.2c-1.12-.45-1.52-1.58-2.15-2.44-2.45-3.36-5.32-6.41-7.45-10.01,0-.68-1.46-1-.48-1.93,0,0,0,0,0,0,.16.16.32.31.47.47,3.05,3.99,5.86,8.17,9.14,11.98.17.46.48.77.94.93-.16.33-.31.66-.47.99Z"/>
        <path class="cls-50" d="m122.54,13.31c-.16-.16-.32-.32-.48-.48.16.16.32.32.48.48Z"/>
        <path class="cls-37" d="m166.25,123.65c-.73.64-1.61.4-2.45.4.72-.73,1.62-.34,2.45-.4Z"/>
        <path class="cls-71" d="m92.82,270.84c2.91,0,5.83,0,8.74,0,.95,0,1.89-.04,2.75.49,3.4,1.36,5.63,4.23,8.3,6.51.81.7.49,1.43-.59,1.65-1,.2-2.06.06-3.04.43-.62.14-1.24.2-1.88.2-1.24-.2-2.53.55-3.75-.16-3.33-.66-6.7-.43-10.06-.49-.03-.52.05-1.09-.48-1.45,0-2.4,0-4.79.01-7.19Z"/>
        <path class="cls-51" d="m119.18,314.98c.68-.49.25-1.01-.03-1.45-2.38-3.84-4.78-7.67-7.17-11.51.32-.85,1.14-1.55-.55-2.19-2.37-.9-3.25-3.36-4.39-5.45-.49-.91-.97-1.83-1.36-2.79-.44-1.65-.27-3.28.07-4.91,0,0,0,0,0,0,.29.13.57.3.88.37.46.11,1.05.23,1.26-.3.22-.55-.29-.89-.74-1.04-1.33-.45-1.53-1.44-1.42-2.65.05-.55,0-1.11,0-1.67-.26-1.17-.23-2.05,1.37-1.45,2.19,1.03,4.51.82,6.82.71,2.94-.04,5.87-.04,8.81-.01,1.1.01,2.25-.11,3.17.72.92.01,1.84.03,2.76.03.64,0,.99.31,1.07.94,0,0,0,0,0,0-.4,1.28-.39,2.57,0,3.85v8.56c-2.35-.8-3.8-2.49-5.75-3.29-3.15-.78-5.95-2.47-9.06-3.36-.7-.32-1.42-.6-2.46-.83.92.79,1.82,1.04,2.7,1.33,2.18.76,4.27,1.72,6.37,2.66.79.35,1.62.71,1.95,1.63,1.45.96,2.87,1.97,4.34,2.88,1.34.83,2,1.88,1.92,3.52-.11,2.22-.02,4.45-.03,6.68,0,.53.08,1.1-.37,1.69-2.26-1.1-4.07-2.82-6.35-3.74-1.61-.27-3-1.23-4.95-1.67,1.44,1.2,3.05,1.41,3.99,2.64,1.7,1.13,3.35,2.35,5.11,3.37,1.9,1.1,2.98,2.5,2.58,4.79-.08.46,0,.95,0,1.42,0,1.96,0,3.93,0,6.21-2.63-1.02-4.4-2.94-6.73-3.8-1.32-.55-3.11-.16-3.83-1.91Z"/>
        <path class="cls-98" d="m114.86,287.63c3.19.91,6.38,1.85,9.11,3.85.02.54-.28.97-.49,1.43-2.8-1.45-5.72-2.63-8.62-3.84-.61-.48-1.32-.95,0-1.44Z"/>
        <path class="cls-42" d="m122.05,304.92c-1.59-.33-2.88-1.3-4.32-1.96-.43-.2-.94-.52-.66-1.07.25-.49.85-.38,1.29-.23,1.64.58,3.32,1.07,4.65,2.28-.63.02-.93.36-.96.97Z"/>
        <path class="cls-68" d="m129.73,286.21c-.69-1.29-.71-2.57,0-3.85,0,1.28,0,2.57,0,3.85Z"/>
        <path class="cls-8" d="m156.65,125.08c-.4.48-.93.46-1.48.42.38-.54.94-.43,1.48-.42Z"/>
        <path class="cls-8" d="m159.08,124.61c-.41.47-.96.45-1.51.4.39-.54.96-.42,1.51-.4Z"/>
        <path class="cls-41" d="m109.59,328.9c1.28,0,2.55-.01,3.83-.02.95,0,1.9,0,2.89,0,.18-.89-.47-1.11-.97-1.44.62-.72,1.46-.46,2.22-.46,2.52-.03,5.04,0,7.56-.02.76,0,1.6.26,2.21-.47.8,0,.8.4.48.96-1.59,0-3.19,0-4.78.01-.93.85-2.07.5-3.12.6.92.3,2.03.11,2.85.83,2.26,3.62,5.07,6.89,6.77,10.86-.03.24-.13.45-.3.62-1.11,0-2.22,0-3.34,0-.96-.36-1.92-.38-2.88.01-.16,0-.32,0-.48.01-.32,0-.64,0-.95,0-1.53-.84-3.2-.34-4.8-.47-3.11,0-6.23-.04-9.34.01-1.28.02-2.1-.34-3.01-1.4-2.43-2.84-4.3-6.1-7-8.69.39-.77,1.03-.45,1.52-.45,2.79-.03,5.59,0,8.38-.03.77,0,1.62.25,2.26-.45Z"/>
        <path class="cls-51" d="m122.54,329.36c-.53-.68-1.31-.38-1.98-.5-.85-.16-1.68-.38-2.68-1.04,1.85-.65,3.52-.27,5.15-.36.07,1.12.78,1.43,1.76,1.42,1.81,0,3.61,0,5.42,0,1.47.94,3.1.39,4.65.44,3.16.1,3.04-.22,3.03,2.97,0,2,.02,3.99,0,5.99-.02,2.07-.04,2.09-2.18,2.1-2.16.02-4.31,0-6.47-.02.01-.15.02-.3.02-.45,1.52-1.23,3.4-.23,5.19-.85-1.52-2.71-3.26-5.23-4.83-7.84-.65-1.09-1.78-1.19-2.92-1.23-1.41-.05-2.88.27-4.15-.63Z"/>
        <path class="cls-51" d="m123.02,340.38c.96-.71,1.92-.69,2.88-.01-.96,0-1.92,0-2.88.01Z"/>
        <path class="cls-65" d="m125.9,281.38c-4.16,0-8.31,0-12.47,0-.49-.39-1.07-.18-1.61-.24-.52-.06-1.22.2-1.41-.53-.22-.84.48-1.05,1.07-1.29.65-.06,1.32-.28,1.94.13,3.36.02,6.72.04,10.08.06.73.69,1.79.41,2.59.9.82.51-.24.61-.2.96Z"/>
        <path class="cls-51" d="m127.81,327.44c0-.39-.09-.75-.48-.96-.49-1.38-1.55-2.4-2.4-3.52-1.11-1.46-2.09-2.98-2.88-4.63.16-.17.32-.17.49,0,2.28,1.15,4.25,2.75,6.31,4.23.85.61,1.27,3.58.71,4.43-.43.65-1.14.39-1.75.45Z"/>
        <path class="cls-97" d="m122.54,318.32c-.16,0-.33,0-.49,0-.92-.55-1.71-1.36-2.87-1.46-.16-.15-.32-.31-.48-.46h0c-.38-.48-.42-.96,0-1.44.16,0,.32,0,.48,0,1.2.8,2.85.67,3.83,1.91-.56.34-.46.9-.47,1.43Z"/>
        <path class="cls-2" d="m105.74,298.19q-2.87-.78-2.87-3.7c0-1.83,0-3.66,0-5.49,0-.55-.07-1.13.21-1.64.2-.37.53-.62.96-.6.46.02.66.35.72.79.1.68-.19,1.46.5,1.99.7,2.6,1.56,5.18.97,7.93-.1.28-.26.51-.49.7Z"/>
        <path class="cls-93" d="m105.76,297.7c.28-2.74-.58-5.41-.49-8.14.17-.96-.41-2.04.49-2.87-.15,1.78.11,3.53.48,5.27.46,1.97,1.65,3.84.79,5.98-.56.69-.92.25-1.27-.23Z"/>
        <path class="cls-84" d="m105.76,297.7c.32.16.64.32.95.48.43-.12.58.05.49.47,0,0-.02.02-.02.02-.53-.02-1.09.07-1.43-.49,0-.16.01-.33.02-.49Z"/>
        <path class="cls-96" d="m106.7,279.97c-.43.02-.77.12-.62.68.09.34-.04.6-.36.76-1.18.15-2.02-.26-2.38-1.45,1.25-.41,2.53-.56,3.84-.47.09.42-.02.63-.49.48Z"/>
        <path class="cls-104" d="m166.22,221.92c-.92-2.34-2.78-4.2-3.39-6.7-.28-1.1.4-1.41,1.27-1.54,1.26-.19,2.53-.18,3.81-.13,3.55.13,6.95-.62,10.17-2.08,1.4-.64,2.88-1.04,4.34-1.26,4.49-.68,8.72-2.35,13.13-3.29.81-.17,1.4-.08,1.86.62,1.63,2.45,3.18,4.94,4.3,7.68-1.64-1.19-3.3-1.48-5.02-.16-.12.1-.29.13-.42.22-1.06.77-2.38-.73-3.37.38-.83.94-1.88,1.09-3.03,1-.84-.07-1.49.24-2.17.75-2.11,1.57-4.52,2.16-7.12,1.71-1.25-.22-2.4.22-3.49.58-3.11,1.02-6.21,1.93-9.53,1.8-.44-.02-.9.28-1.35.43Z"/>
        <path class="cls-90" d="m197.41,207.54c-.22-.09-.5-.32-.65-.25-1.87.85-4.15.36-5.85,1.46-1.78,1.15-3.76,1.24-5.66,1.56-2.64.44-5.22.92-7.58,2.23-.21.11-.43.23-.66.27-3.09.57-6.1,1.87-9.32,1.41-1.29-.18-2.53.22-3.78.02-.86-.14-.68.71-1.08.98-1.75-1.97-2.63-4.43-3.82-6.72.45-.64,1.15-.97,1.85-.96,2.9.04,5.64-.93,8.49-1.2,4.04-.39,7.94-1.33,11.85-2.55,4.24-1.33,8.7-2.55,13.3-1.52,1.09,1.69,2.28,3.33,2.91,5.27Z"/>
        <path class="cls-78" d="m187.79,190.27c1.08,1.7,2.29,3.32,2.9,5.28-2.87,1.65-6.24,2.01-9.15,3.55-1.89,1-4.04.77-6,1.46-5.59,1.95-11.46,2.42-17.3,3-1.11.11-2.04-.19-2.76-1.08-.98-1.48-.87-2.9.07-4.4,1.08-1.73,1.74-3.71,2.9-5.4.49-.7.83-1.81,2.11-1.36.26.43.18.92.22,1.39.22,2.14,1.4,3.16,3.37,2.4,2.25-.87,4.43-1,6.76-.7,1.72.22,3.23-.48,4.75-1.26,3.79-1.94,7.96-2.41,12.12-2.86Z"/>
        <path class="cls-91" d="m155.65,202.27c1.04.65,2.06.77,3.36.56,3.09-.51,6.23-.72,9.35-.98.98-.08,1.86-.34,2.71-.81.77-.43,1.68-.46,2.47-.74,3.08-1.07,6.65-.47,9.38-2.76.69-.58,1.62-.72,2.5-.46.92.27,1.53-.03,2.01-.8.84-1.33,1.96-1.49,3.27-.73,1.65,2.02,2.67,4.4,3.81,6.72-2.51.88-5.2.14-7.76.86-1.39.39-2.75,1.28-4.32.69-.11-.04-.32.07-.43.16-2.06,1.71-4.78,1.45-7.1,2.35-1.15.45-2.39.42-3.51.44-3.18.06-6.15,1.52-9.34,1.24-1.07-.09-1.98.59-3.04.49-1.12-.9-1.06-2.63-2.37-3.39-.89-.63-1.35-1.47-1.2-2.59.07-.09.14-.17.21-.26Z"/>
        <path class="cls-39" d="m187.79,190.27c-2.52.97-5.11,1.67-7.81,1.93-1.37.13-2.71.47-3.78,1.33-2.2,1.76-4.73,1.86-7.26,1.36-1.2-.24-2.16-.16-3.18.4-.62.34-1.25.67-2,.75-2.73.29-4.16-1.39-3.45-4.09.06-.23.09-.47.13-.7.49-2.82,1.49-5.37,3.84-7.19.07,1.13-.58,2.13-.5,3.29.14,2.13.94,2.68,2.62,1.51,1.47-1.02,2.88-1.3,4.43-.32.89.56,1.72.61,2.66.05,1.51-.9,3.17-1.45,4.9-1.82.92-.19,2.01-.36,2.61-1.09,1.17-1.41,2.48-1.13,3.89-.66,1.2,1.63,2.06,3.44,2.9,5.27Z"/>
        <path class="cls-16" d="m181.07,178.29c-.39-.2-.48-.56-.49-.95.38.21.48.56.49.95Z"/>
        <path class="cls-8" d="m176.76,170.61c-.4-.2-.49-.56-.49-.95.38.21.48.56.49.95Z"/>
        <path class="cls-8" d="m176.27,169.66c-.39-.21-.48-.56-.48-.96.17.16.34.31.5.47,0,.16-.02.33-.03.49Z"/>
        <path class="cls-8" d="m177.2,171.1c-.15-.16-.3-.33-.45-.49.15.16.3.33.45.49Z"/>
        <path class="cls-55" d="m164.27,184.05c-1.29,1.78-2.1,3.82-3.06,5.77-.24.49-.64.88-.77,1.42-1.12.73-1.61,1.93-2.22,3.02-.66,1.18-1.07,2.52-1.86,3.59-1.05,1.41-1.19,2.82-.71,4.41,0,0-.01,0-.01,0-2.06-.64-1.6-2.27-1.31-3.67.31-1.48,1.19-2.77,1.88-4.11,3-5.86,6.73-11.36,8.74-17.71.12-.38.4-.68.77-.87.32-.32.63-.65.95-.97,0,.32,0,.64,0,.96.4,3.07-1.08,5.59-2.4,8.15Z"/>
        <path class="cls-8" d="m175.79,168.7c-.39-.2-.48-.55-.49-.94.38.2.49.54.49.94Z"/>
        <path class="cls-8" d="m175.28,167.75c-.15-.17-.3-.34-.44-.51.15.17.3.34.44.51Z"/>
        <path class="cls-55" d="m166.68,174.46c.16-.16.31-.32.47-.48-.16.16-.31.32-.47.48Z"/>
        <path class="cls-36" d="m67.3,229.6c-.76,0-1.52.01-2.21-.43-.67-.43-.73-.91-.18-1.48,5.16-7.83,10.87-15.26,16.23-22.94,1.96-2.81,1.78-3.72-.6-6.23-3.83-6.71-7.39-13.58-11.22-20.29-.44-.76-.85-1.53-1.44-2.19-1.11-1.67-1.46-3.69-2.49-5.4-.34-.56-.19-1.07.43-1.39,1.92-.62,3.89-.79,5.9-.79,7.57-.02,15.14.17,22.69-.5,1.05-.09,2.33.23,2.81-1.21,4.19-5.33,7.38-11.31,11-17.02,1.23-1.94,2.55-3.82,3.5-5.92.42-1.06,1.17-1.92,1.72-2.91,0,0,0-.01,0-.01.89-.38,1.08-1.35,1.64-2,.91-1.04,1.43-1.15,2.23-.05,1.03,1.42,1.9,2.94,2.84,4.42.14.46-.11.6-.51.63-.67-.42-.93-1.2-1.43-1.77,2.81,3.5,3.96,7.87,6.16,11.68,2.19,4.51,4.49,8.97,6.74,13.45.13.18.27.37.41.55.09.07.17.16.26.23.2.14.41.27.64.37.14.02.26.04.39.06,6.69-.02,13.38-.23,20.05.07,4.66.21,9.36.03,13.99.85.91.67.29,1.28-.08,1.91-.2.74-.41,1.47-.61,2.21-.27.27-.18.72-.47.97h0c-.49.63-.17,1.76-1.23,2.06-.37-.07-.57.12-.74.42-3.73,6.49-7.23,13.1-10.84,19.66-.43.77-.61,1.64-.97,2.44-2.11,2.52-2.18,3.12-.11,5.77,4.35,5.59,8.29,11.46,12.02,17.46.19.35.34.73.53,1.08.11.16.21.32.33.48.13.15.24.31.36.46.13.16.25.32.36.49.89,1.15,1.64,2.43,2.92,3.23.22,1.21-.4,1.76-1.51,1.81-.77.03-1.54.13-2.31.15-6.73-.35-13.43.3-20.14.67-3.01.17-6.03-.05-9.03.21-2.28-.3-3.66.69-4.62,2.8-2.58,5.71-5.71,11.13-8.75,16.6-1.37,1.89-2.23,4.06-3.3,6.12-.3.56-.61,1.12-.89,1.69-.09.19-.19.38-.3.56-.16.28-.33.55-.56.78-.18.12-.38.19-.6.21-1.47-.44-1.51-1.96-2.23-2.96-.27-.54-.51-1.1-.78-1.64-.09-.17-.17-.34-.24-.51-.11-.25-.22-.5-.33-.74-.08-.16-.16-.32-.23-.48-.12-.24-.25-.48-.38-.72-.1-.16-.19-.33-.28-.5-.16-.27-.32-.53-.47-.8-2.83-6-6.21-11.7-9.28-17.56-1.05-2-2.29-3.49-4.85-2.71-6.27,0-12.52-.61-18.79-.66-3.72-.03-7.44-.45-11.15-.72Z"/>
        <path class="cls-100" d="m164.29,176.38c.72-.47.66-1.5,1.41-1.93,0,.49.01.97.02,1.46-.71,3.63-2.42,6.81-4.24,9.99-2.25,3.92-4.23,7.98-6.29,12-.78,1.52-.87,3.03.44,4.37.04,1.05.91,1.81,1,2.84,0,0-.08.07-.08.07-1.94-.23-1.99-2.06-2.7-3.28-.67-1.16-1.19-2.44-1.08-3.86.89-3.1,2.87-5.67,4.29-8.51,2.07-4.12,4.62-8,6.46-12.25.16-.37.45-.66.77-.9Z"/>
        <path class="cls-14" d="m166.78,171.26l.35-1.63c0-.1-.01-.2-.02-.3.23-1.35-.6-1.48-1.62-1.38-9.39.33-18.74-.76-28.12-.47-1.03.03-2.06-.18-3.04-.52-.26-.09-.5-.21-.73-.37-.31-.24-.55-.55-.77-.88-.27-.42-.49-.85-.46-1.37.12-.37.31-.63.76-.49l-.02.02c.11.21.3.35.47.51h0c.15.16.3.32.44.49l.03.03c.17.14.32.29.47.45h.01c.41.44,1.06.06,1.47.46,3.98.02,7.98-.22,11.93.11,5.64.48,11.28.27,16.91.41.8.02,1.58.11,2.34.38,1.34.48,1.71,1.06,1.21,2.32-.34.86-.58,1.86-1.61,2.25Z"/>
        <path class="cls-79" d="m133.13,163.86c-.18.18-.35.36-.53.55-1.03.1-1.33-.76-1.71-1.39-2.68-4.49-5.54-8.87-8.19-13.37-.16-.28-.32-.57-.49-.84-.19-.26-.38-.53-.53-.81-.34-1.55-2.06-2.47-1.95-4.23.14-.17.29-.33.43-.5.16,0,.32-.01.48-.02,0,0,.01.03.01.03.14.17.28.34.43.5h0c.29.25.19.7.5.94h0c.15.17.3.34.44.51,2.66,4.35,5.34,8.68,7.96,13.05,1.1,1.83,2.5,3.5,3.14,5.59Z"/>
        <path class="cls-79" d="m136,165.81c-.54,0-1.11.11-1.47-.45.54,0,1.09-.04,1.47.45Z"/>
        <path class="cls-100" d="m165.7,174.45c-.02-.41.08-.76.47-.97.02.41-.07.77-.47.97Z"/>
        <path class="cls-33" d="m121.58,144.71c-.39-.19-.48-.54-.5-.93.4.19.49.54.5.93Z"/>
        <path class="cls-33" d="m122.03,145.22c-.15-.17-.29-.33-.44-.5.15.17.29.33.44.5Z"/>
        <path class="cls-33" d="m121.08,143.77c-.15-.17-.29-.33-.44-.5.15.17.29.33.44.5Z"/>
        <path class="cls-79" d="m134.52,165.35c-.16-.15-.31-.3-.47-.45.16.15.31.3.47.45Z"/>
        <path class="cls-79" d="m134.02,164.87c-.15-.16-.3-.33-.44-.49.15.16.3.33.44.49Z"/>
        <path class="cls-79" d="m133.58,164.38c-.16-.17-.31-.34-.47-.51.16.17.31.34.47.51Z"/>
        <path class="cls-74" d="m111.99,143.76c-.56,2.31-2.24,4-3.39,5.97-2.61,4.45-5.41,8.79-8.11,13.2-.79,1.29-1.64,2.52-2.89,3.41-.94,1.29-2.36,1.17-3.69,1.19-4.77.04-9.54.04-14.31.01-4.27-.16-8.54-.11-12.81-.02-.26.09-.53.14-.81.18-.56.05-1.1.01-1.51-.44.55-.68,1.31-.86,2.12-.91.24-.01.48-.02.72,0,8.93.21,17.83-.72,26.76-.54,3.5.07,4.66-.31,6.42-4.71,1.42-1.11,2.02-2.81,2.93-4.27,2.59-4.16,5.29-8.25,7.64-12.55.14-.17.29-.34.44-.5h0c.16-.22.33-.23.49,0Z"/>
        <path class="cls-33" d="m111.99,143.76c-.16,0-.33,0-.49,0,0-.31.01-.63.02-.94.95-.32.91-1.64,1.91-1.91-.07,1.16-.93,1.92-1.44,2.86Z"/>
        <path class="cls-85" d="m100.95,158.63c.16,0,.32,0,.48,0-.16.16-.31.32-.47.48,0-.16,0-.32,0-.47Z"/>
        <path class="cls-85" d="m101.43,158.15c.16,0,.32,0,.47-.02-.16.17-.32.33-.47.5,0-.16,0-.32,0-.48Z"/>
        <path class="cls-33" d="m111.5,143.76c-.15.17-.29.33-.44.5.15-.17.29-.33.44-.5Z"/>
        <path class="cls-85" d="m100.47,160.07c0-.16,0-.32,0-.48.16,0,.32,0,.47-.01-.16.16-.31.33-.47.49Z"/>
        <path class="cls-15" d="m113.43,279.47c-.64.01-1.28.02-1.91.03-.81.29-1.62.69-2.42-.02.99-.97,2.31-.13,3.72-.75-2.91-2.53-5.7-4.96-8.5-7.4,2.82.32,5.63.68,8.45.96,1.17.11,1.35.91,1.06,1.67-.6,1.57-.26,2.93.52,4.29.62,1.08-.89.6-.91,1.22Z"/>
        <path class="cls-1" d="m64.52,230.54c-.01-.13-.02-.27,0-.4.64,0,1.27.02,1.91.02.35.14.68.33.93.63.73,2.86,2.86,3.33,5.45,3.5,7.14.46,14.31.45,21.45.94,2.85.19,4.63,1.84,6.04,4.12,4.03,6.5,7.95,13.06,11.96,19.58.92,1.49,1.83,3.05,3.9,3.1.2-.02.4-.04.6-.09.17-.08.34-.16.5-.24.07-.05.15-.1.22-.15.13-.11.26-.22.39-.34.06-.06.12-.11.18-.17.11-.12.23-.24.34-.36.05-.07.1-.13.15-.19.13-.21.25-.43.36-.65.08-.15.17-.29.27-.43.2-.28.39-.56.56-.86.1-.17.2-.32.32-.48.18-.24.35-.47.51-.71.08-.16.18-.31.27-.46.12-.22.25-.45.36-.68.03-.08.07-.15.11-.23.04-.08.08-.15.11-.23.11-.24.23-.48.35-.71.08-.16.18-.31.28-.46.15-.22.3-.44.45-.66.08-.15.18-.29.27-.44.13-.21.25-.43.37-.65.07-.15.16-.29.26-.42.09-.13.2-.26.3-.38.05-.07.1-.13.14-.2.13-.22.24-.44.36-.67.08-.16.18-.31.29-.46.15-.23.3-.45.45-.68.08-.16.18-.31.27-.46.12-.23.25-.46.37-.7.08-.16.17-.3.27-.44.2-.27.4-.55.57-.85.08-.15.17-.3.25-.44.12-.23.24-.45.35-.68.08-.15.17-.3.27-.44.2-.27.39-.55.56-.84.08-.15.17-.3.25-.44.12-.23.24-.46.36-.69.08-.16.17-.31.27-.45.21-.29.41-.58.6-.89.1-.16.22-.3.35-.43.31-.23.62-.45,1.02-.21-.53,2.14-1.99,3.78-3.07,5.61-2.55,4.31-5.2,8.55-7.82,12.82-.29.47-.63.92-.98,1.34-2.15,2.59-4.61,2.31-6.73-.51-1.75-2.33-3.04-5-4.55-7.52-2.86-4.77-5.71-9.54-8.61-14.29-1.24-2.04-3.13-3.25-5.52-3.17-5.82.2-11.59-.84-17.41-.5-2.09.12-4.1-.42-6.15-.6-1.77-.16-3.19-1.14-3.41-3.11-.14-1.24-.83-1.62-1.93-1.6Z"/>
        <path class="cls-86" d="m130.69,242.08c-.32.16-.64.32-.97.48-.12-2.68,3.01-7.06,5.63-7.76.99-.26,2-.57,3.04-.54,4.61.13,9.2-.49,13.8-.5,4.44,0,8.92.41,12.25-3.43.29-.03.55.04.78.21,0,.17,0,.35,0,.52-1.27,3.52-2.4,4.19-6.31,4.33-4.99.19-9.98.45-14.98.56-2.03.04-4.1.47-6.15.35-2.48-.15-4.06,1.08-5.24,3.05-.57.95-1.07,1.94-1.87,2.73Z"/>
        <path class="cls-72" d="m165.24,230.54c-.17,0-.34,0-.51,0-.29-.14-.56-.29-.59-.67.14-.31.29-.57.67-.26.71-.02,1.45.07,2.13-.09,1.02-.24,1.54-.82.68-1.84-1.1-.91-1.79-2.12-2.44-3.35-.1-.17-.21-.35-.31-.53-.13-.27-.26-.54-.4-.81-.11-.17-.2-.35-.3-.52-.18-.26-.37-.51-.55-.77-3.45-6.09-6.78-12.26-10.25-18.34-.43-.76-.83-1.55-.94-2.44.23-.98-.95-2.35.78-2.92.47,2.69,1.52,5.11,3.33,7.19,1.16,3.34,3.2,6.22,4.85,9.3,2.29,4.29,4.69,8.51,6.98,12.79.97,1.81.51,2.54-1.59,2.81-.54.07-1.13-.06-1.55.45Z"/>
        <path class="cls-69" d="m64.46,167.25c.49,0,.99.02,1.48.03.06.82-.29,1.56-.5,2.32.56,2.26,1.94,4.14,2.87,6.23.26.29.3.61.15.96-.81.44-.94-.26-1.2-.72-.28-.69-.53-1.4-.83-2.1-.37-1.58-1.34-2.87-1.98-4.32-.35-.8-.84-1.6,0-2.39Z"/>
        <path class="cls-21" d="m66.44,173.96c.6.5.85,1.17.94,1.93.14.96,1.41,1.74.47,2.88-.76-.63-.98-1.46-.96-2.4-.05-.82-.63-1.54-.45-2.41Z"/>
        <path class="cls-27" d="m164.24,230.09c.16.15.33.3.49.45-.25.19-.63.33-.74.58-1.44,3.11-4.32,3.29-7.07,3.22-6.13-.15-12.22.75-18.36.57-2.86-.08-5.22,1-6.67,3.7-.71,1.32-1.65,2.5-2.15,3.94,0,0,0,0,0,0-.36.45-.61.98-.95,1.44h0c-.29.25-.2.7-.49.96h0c-.35.46-.61.98-.95,1.44h0c-.29.25-.2.7-.49.96h0c-.35.45-.61.98-.96,1.44h0c-.29.25-.2.7-.49.96h0c-.35.46-.6.98-.96,1.44h0c-.29.25-.2.7-.49.95h0c-.15.16-.32.32-.47.49h0c-.3.25-.21.7-.49.96h0c-.36.45-.61.98-.95,1.44h0c-.3.25-.2.7-.49.95h0c-.16.19-.27.43-.44.62-.27.25-.26.62-.41.92-.23.26-.36.59-.58.86h0c-.35.46-.61.98-.96,1.44h0c-.29.25-.2.7-.49.95h0c-.15.16-.32.32-.47.48h0c-.16.16-.32.32-.47.48h0c-.16.16-.32.32-.48.48h0c-2.65.98-3.82-.92-4.89-2.67-3.38-5.5-6.77-11-10.08-16.55-.57-.96-1.32-1.84-1.76-2.85-1.59-3.67-4.49-4.72-8.26-4.85-6.61-.22-13.22-.41-19.82-.81-2.87-.18-4.63-1.26-5.54-3.88-.16-.15-.32-.3-.48-.45.34-.03.68-.06,1.02-.09.65-.56,1.36-.41,2.01-.06,3.14,1.7,6.57,1.91,10,1.79,4.88-.16,9.7.65,14.57.57,2.64-.04,4.67,1.2,6.16,3.49,4.55,7.03,8.71,14.29,13.17,21.38.64,1.01,1.19,2.08,2.08,2.9,1.09,1.21,1.61.22,2.11-.59,1.59-2.56,3.21-5.1,4.76-7.69,3.26-5.44,6.57-10.85,9.98-16.21.15-.2.31-.38.48-.55.09-.09.18-.18.27-.27.18-.19.38-.36.58-.52.11-.08.22-.15.33-.23,2.37-1.15,4.94-1.37,7.47-1.29,5.44.16,10.83-.75,16.26-.53,1.72.07,3.05-.77,4.29-1.84.73-.4,1.44-.93,2.31-.31Z"/>
        <path class="cls-26" d="m115.33,260.82c-1.32-.76-1.85-2.15-2.6-3.35-4.3-6.96-8.64-13.9-12.84-20.92-1.58-2.64-3.78-3.64-6.73-3.6-5.56.07-11.1-.58-16.67-.57-2.52,0-5.27-.15-7.47-1.92-.45-.36-1.03-.39-1.6-.39-.04-.16-.08-.32-.13-.47,1.96-.95,4.1-.6,6.06-.35,3.49.45,6.98.09,10.44.42,4.03.39,8.06.42,12.1.44.75,0,1.37.37,2.06.53.21.05.39.15.55.3.23.23.43.48.63.73,4.16,6.77,8.33,13.53,12.4,20.35.2.34.34.7.53,1.04.1.15.2.3.3.45.11.14.2.29.3.45.09.15.17.32.25.48.08.16.17.32.27.47.11.16.19.32.26.5.32.5.6,1.03.89,1.55.47.98,1.08,1.89,1.37,2.96,0,.36-.1.67-.38.9Z"/>
        <path class="cls-30" d="m80.84,198.47c1.85.91,2.72,2.7,2.03,4.38-.33.8-.79,1.57-1.29,2.28-4.01,5.63-8.05,11.24-12.08,16.86-1.25,1.74-2.49,3.49-3.76,5.22-.18.24-.2.9-.81.48.95-2.29,2.27-4.37,3.47-6.53,1.81-3.28,3.65-6.55,5.46-9.82.15-.27.19-.6.28-.91,1.91-2.94,3.52-6.05,5.16-9.15-.03-1.24.31-2.28,1.56-2.81Z"/>
        <path class="cls-24" d="m107.2,298.65c-.16-.16-.32-.32-.49-.47.3-2.11-.7-4.13-.48-6.23,1.28,1.53,1.93,3.43,2.96,5.11.8,1.3,1.7,2.22,3.18,2.62.73.2,1.56.4,1.84,1.39-.48.89-1.76.06-2.23.95-.48-.48-.96-.96-1.44-1.44-.39-1.9-1.9-1.86-3.35-1.93Z"/>
        <path class="cls-51" d="m118.7,314.97c0,.48,0,.96,0,1.43-.23-.04-.5-.03-.69-.14-.52-.29-1.45-.47-1.05-1.27.39-.8,1.15-.65,1.74-.03Z"/>
        <path class="cls-51" d="m118.7,316.41c.16.16.32.31.48.47-.16-.16-.32-.31-.48-.47Z"/>
        <path class="cls-54" d="m67.85,178.77c-.16-.96-.31-1.92-.47-2.88.3.33.61.65.91.98,1.5,1.41,1.9,3.44,2.88,5.15,2.76,4.84,5.46,9.71,8,14.67.74,1.44,1.09,2.85-.32,4.12-.15,0-.3,0-.46,0,.31-2.68-1.42-4.65-2.49-6.81-1.44-2.91-3.12-5.69-4.7-8.53-.17-.15-.3-.34-.47-.48,0-.16,0-.32,0-.48-.17-.15-.3-.34-.47-.48,0-.16,0-.32-.01-.48-.16-.16-.31-.33-.47-.48h0c-.28-.26-.19-.7-.48-.96h0c-.28-.26-.19-.7-.48-.96-.16-.16-.31-.33-.47-.49,0-.16,0-.31,0-.47-.29-.26-.17-.71-.48-.96,0-.16,0-.31,0-.47Z"/>
        <path class="cls-85" d="m69.76,185.48c-.38-.21-.46-.56-.47-.95.39.2.47.55.47.95Z"/>
        <path class="cls-21" d="m69.29,182.13c.38.21.47.56.48.96-.39-.21-.47-.56-.48-.96Z"/>
        <path class="cls-21" d="m68.81,181.17c.38.21.47.56.48.96-.39-.21-.47-.56-.48-.96Z"/>
        <path class="cls-21" d="m67.85,179.25c.38.21.47.57.48.96-.39-.21-.47-.57-.48-.96Z"/>
        <path class="cls-54" d="m78.39,200.83c0,.39-.08.75-.46.95,0-.39.1-.74.46-.95Z"/>
        <path class="cls-85" d="m70.24,186.44c-.38-.21-.46-.56-.47-.95.39.2.47.55.47.95Z"/>
        <path class="cls-21" d="m69.77,183.09c.16.16.31.32.47.48-.16-.16-.31-.32-.47-.48Z"/>
        <path class="cls-21" d="m68.34,180.68l.47.49-.47-.49Z"/>
        <path class="cls-21" d="m70.25,184.04c.16.16.31.32.47.48-.16-.16-.31-.32-.47-.48Z"/>
        <path class="cls-21" d="m70.73,185c.16.16.31.32.47.48-.16-.16-.31-.32-.47-.48Z"/>
        <path class="cls-28" d="m78.85,200.82c.63-1.41.47-2.7-.3-4.07-2.77-4.92-5.44-9.88-8.14-14.84-.88-1.61-1.72-3.23-2.12-5.04,0-.35.02-.7.03-1.05,1.47,1.1,1.93,2.89,2.8,4.37,2.37,4.04,4.54,8.2,6.73,12.34,1.03,1.96,2.45,3.73,2.99,5.94-.52.94-1.04,1.87-1.56,2.81-.14-.15-.29-.31-.43-.46Z"/>
        <path class="cls-47" d="m117.73,37.3c-.16-.16-.31-.32-.47-.47.16.16.31.32.47.47Z"/>
        <path class="cls-23" d="m109.1,279.48c.81,0,1.61.01,2.42.02-.95,1.21-.95,1.26.16,1.41.61.08,1.29-.12,1.76.48-1.25,0-2.49,0-3.74.01-1.23,0-2.31-.3-2.99-1.44.16-.16.33-.32.49-.48.64,0,1.27,0,1.91-.01Z"/>
        <path class="cls-45" d="m114.86,287.63c-.76.48-.14.96,0,1.44-1.41-.29-2.62-.9-3.78-2.17,1.62-.43,2.73,0,3.78.73Z"/>
        <path class="cls-32" d="m122.54,329.36c1.75,0,3.51.03,5.26,0,.97-.02,1.76.3,2.21,1.14,1.67,3.14,3.73,6.04,5.87,9.42-2.42,0-4.52,0-6.62,0-2.24-3.52-4.48-7.04-6.72-10.55Z"/>
        <path class="cls-63" d="m133.58,166.27c3.45.7,6.96.51,10.44.5,7.54,0,15.07.77,22.61.53,1.03.6.97,1.44.49,2.35,0,0,0-.02,0-.02-4.46.09-8.9-.19-13.36-.37-6.53-.26-13.08-.08-19.62-.12-.84,0-1.77.31-2.49-.44.33-1.05,1.09-1.77,1.92-2.42Z"/>
        <path class="cls-81" d="m115.33,260.82c0-.34.01-.68.02-1.02.46-.25,1.09.08,1.46-.44h-.02c.26-.27.19-.72.49-.98v.02c.46-.71.89-1.44,1.23-2.23,1.15-1.87,2-3.91,3.29-5.7,3.82-6.54,7.75-13.03,11.79-19.44.16-.17.34-.31.55-.43.11-.03.23-.06.34-.09.67-.26,1.34-.44,2.08-.45,3.18-.05,6.36-.28,9.52-.35,5.41-.12,10.81-.67,16.22-.59.85.01,1.77-.27,2.5.46-.19.16-.38.32-.57.48-.63.16-1.26.32-1.89.47-.34.22-.72.44-1.11.39-4.64-.6-9.24.5-13.87.31-3.29-.14-6.52.54-9.8.54-2.1,0-2.89,1.76-3.99,3.08h0c-.16.15-.33.31-.48.48h0c-.18.14-.32.31-.46.49-3.05,5.03-6.08,10.06-9.14,15.09-1.82,2.99-3.66,5.96-5.5,8.93-.29.47-.59.96-.98,1.34-.72.73-1.27.36-1.69-.39Z"/>
        <path class="cls-6" d="m65.45,169.6c-.74-.97-.39-1.7.5-2.32,0,0-.01,0-.01,0,3.15-.56,6.32-.09,9.47-.26,1.33-.07,2.69.25,4-.23,5.05-.01,10.11-.05,15.16-.02,1.05,0,2.02-.27,3.03-.44.43,1.42.2,2.09-.84,2.34-.31.07-.64.03-.95.05-8.05.51-16.11.53-24.16.45-2.09-.02-4.1.68-6.18.43Z"/>
        <path class="cls-95" d="m165.15,223.38c.06.14.09.28.11.42.17.53-.09.65-.55.57h0c-.1-.23-.3-.35-.44-.53h0c-.29-.25-.19-.73-.56-.93-.76-1.11-1.59-2.18-2.28-3.33-3.29-5.44-7.08-10.52-10.94-15.56-1.46-1.9-.87-4.19,1.28-5.08.83.35,1.02,1.05,1.05,1.86,1.94,4.18,4.42,8.06,6.57,12.13,1.59,3.01,3.25,5.99,4.88,8.99.15.14.28.31.37.49.06.14.1.29.12.44.14.16.27.33.39.52Z"/>
        <path class="cls-63" d="m112.52,254.55c-.07-.11-.11-.22-.11-.35-.06-.26-.24-.44-.43-.61h0c-.27-.26-.18-.73-.54-.94-2.92-4.25-5.44-8.75-8.15-13.13-1.62-2.63-3.2-5.3-4.79-7.95-.11-.2-.26-.37-.39-.55-.04-.13-.09-.26-.15-.38,1.88-.81,2.45-.76,3.38.73,1.34,2.17,2.53,4.42,3.79,6.63,2.38,4.15,4.51,8.44,6.61,12.73.14.28.18.61.26.91.14.17.29.34.43.51.02.15.04.3.04.46.14.17.29.34.43.5.02.15.04.31.04.46.14.17.29.33.43.5.02.15.04.31.05.47.16.51-.08.62-.53.53h.01c-.13-.18-.26-.35-.4-.51Z"/>
        <path class="cls-67" d="m133.58,166.27c-.12,1.22-1.02,1.83-1.92,2.42,0,0,0,0,0,0-.15-.17-.31-.33-.52-.43h0c-.1-.21-.27-.37-.4-.55-2.34-4.58-4.79-9.1-6.77-13.86-.44-1.32-1.12-2.52-1.71-3.78-.32-.68-.88-1.34-.17-2.1.15.19.3.38.45.57.16.16.29.33.42.51,3.27,5.08,6.19,10.38,9.64,15.34.18.32.36.63.54.95.15.17.28.35.4.53,0,.13.02.26.04.39Z"/>
        <path class="cls-76" d="m134.16,231.07c-4.02,6.55-8.05,13.11-12.07,19.66-.49.1-.7-.09-.6-.59.52-1.7,1.6-3.12,2.45-4.65,2.47-4.39,4.62-8.94,6.92-13.41.9-1.74,1.5-1.97,3.61-1.55,0,0,.02,0,.02,0-.14.16-.26.34-.34.54Z"/>
        <path class="cls-13" d="m152.81,200.81c-.35-.62-.7-1.24-1.05-1.86-.44-.85.03-1.54.41-2.23,3.59-6.55,7.19-13.11,10.8-19.65.23-.41.48-.88.85-1.14.49-.35.36.23.45.44-.4,2.15-1.51,4.01-2.52,5.9-2.82,5.26-5.69,10.48-8.54,15.72-.62.43-.5,1.03-.32,1.61.13.43.39.83-.09,1.2Z"/>
        <path class="cls-48" d="m122.09,147.98c-.16,1.08.45,1.93.86,2.84.44.98,1.17,1.86,1.02,3.04-.97-1-1.41-2.3-1.94-3.53-1.21-2.77-2.55-5.46-4.04-8.09-.25-.44-.74-.87-.41-1.62.95.95,1.49,2.09,2.15,3.14.69,1.46,2.02,2.56,2.36,4.22Z"/>
        <path class="cls-99" d="m121.49,250.14c.2.2.4.39.6.59-.96,2.01-2.18,3.87-3.39,5.73-.19.19-.38.2-.58.02.92-2.22,1.83-4.45,3.38-6.34Z"/>
        <path class="cls-70" d="m164.72,224.38c.18-.19.36-.38.55-.57.79,1.29,1.58,2.59,2.36,3.88-.14.25-.4.34-.56.14-.87-1.09-1.88-2.09-2.35-3.45Z"/>
        <path class="cls-77" d="m116.81,259.37c-.17,1.21-.83.77-1.46.44-.47-.96-.95-1.92-1.42-2.88.13-.19.18-.47.49-.49.57.46.75,1.17,1.08,1.78.3.55.56,1.13,1.32,1.15Z"/>
        <path class="cls-10" d="m114.42,256.44c-.16.16-.32.32-.49.49-.37-.61-.97-1.08-1.02-1.86.18-.18.35-.35.53-.53.6.49.84,1.18.98,1.91Z"/>
        <path class="cls-64" d="m118.11,256.48c.19,0,.39-.01.58-.02-.36.73-.55,1.59-1.42,1.95,0-.76.3-1.4.84-1.93Z"/>
        <path class="cls-70" d="m163.71,222.92c.44.15.55.5.56.92-.38-.19-.51-.53-.56-.92Z"/>
        <path class="cls-64" d="m117.29,258.38c0,.41-.05.79-.49.99,0-.41.07-.79.49-.99Z"/>
        <path class="cls-63" d="m131.14,168.26c.17.14.35.29.52.43-.26-.04-.43-.19-.52-.43Z"/>
        <path class="cls-63" d="m130.73,167.71c.13.18.27.36.4.54-.24-.1-.38-.28-.4-.54Z"/>
        <path class="cls-10" d="m112.43,252.15c-.14-.17-.29-.34-.43-.51.14.17.29.34.43.51Z"/>
        <path class="cls-10" d="m112.91,253.11c-.14-.17-.29-.34-.43-.5.14.17.29.34.43.5Z"/>
        <path class="cls-10" d="m113.38,254.07c-.14-.17-.29-.33-.43-.5.14.17.29.33.43.5Z"/>
        <path class="cls-70" d="m164.28,223.85c.15.17.29.34.44.51-.25-.08-.4-.26-.44-.51Z"/>
        <path class="cls-36" d="m167.13,169.66c.08-.84.06-1.65-.49-2.36,1.5.71,1.54.89.49,2.36Z"/>
        <path class="cls-79" d="m133.53,165.89c-.13-.18-.27-.36-.4-.53.13.18.27.36.4.53Z"/>
        <path class="cls-48" d="m122.95,149.06c-.14-.17-.28-.34-.42-.51.14.17.28.34.42.51Z"/>
        <path class="cls-69" d="m79.41,166.8c-.66.66-1.49.43-2.26.43-3.74.03-7.47.04-11.21.05.62-.75,1.47-.48,2.23-.48,3.75-.02,7.49,0,11.24,0Z"/>
        <path class="cls-53" d="m66.89,230.61c.7.21.94.83,1.19,1.41.58,1.34,1.67,1.73,3.02,1.94,3.56.56,7.18.06,10.69.55,4.51.63,9.04-.03,13.53.77,1.9.34,3.27,1.01,4.25,2.62,1.8,2.99,3.62,5.98,5.44,8.96,2.65,4.34,5.28,8.68,7.95,13,.97,1.57,2.22,2.73,4.28,2.35-1.34.92-2.46.54-3.62-.46-1.38-1.19-2.12-2.79-3.03-4.27-3.76-6.1-7.4-12.26-11.16-18.36-1.33-2.15-3.26-3.21-5.94-3.35-5.17-.26-10.35-.33-15.52-.5-2.21-.07-4.42-.42-6.65-.44-.62,0-1.23-.29-1.84-.45-1.24-.34-2.2-.91-2.21-2.42,0-.46-.25-.91-.39-1.37Z"/>
        <path class="cls-86" d="m122.06,255.03c0-.69.33-1.17.95-1.44,0,.69-.32,1.17-.95,1.44Z"/>
        <path class="cls-86" d="m128.77,243.99c0-.69.33-1.17.95-1.44,0,.69-.32,1.17-.95,1.44Z"/>
        <path class="cls-53" d="m119.18,259.82c0-.69.33-1.17.96-1.44,0,.7-.31,1.18-.96,1.44Z"/>
        <path class="cls-86" d="m124.45,251.19c0-.69.33-1.17.96-1.45.01.7-.31,1.18-.96,1.45Z"/>
        <path class="cls-86" d="m127.33,246.39c0-.69.33-1.17.95-1.45,0,.7-.31,1.17-.95,1.45Z"/>
        <path class="cls-86" d="m125.89,248.79c0-.69.33-1.17.96-1.44,0,.7-.31,1.18-.96,1.44Z"/>
        <path class="cls-53" d="m120.13,258.38c.01-.39.1-.75.48-.96.16-.23.32-.23.49,0-.18.46-.5.78-.97.96Z"/>
        <path class="cls-86" d="m128.28,244.95c.01-.4.1-.75.49-.95,0,.4-.1.75-.49.95Z"/>
        <path class="cls-86" d="m126.85,247.35c.01-.39.1-.75.49-.95,0,.4-.09.75-.49.95Z"/>
        <path class="cls-86" d="m125.4,249.74c.01-.39.1-.75.49-.96,0,.4-.09.76-.49.96Z"/>
        <path class="cls-86" d="m123.96,252.14c.01-.39.11-.75.49-.96,0,.4-.09.76-.49.96Z"/>
        <path class="cls-86" d="m121.57,255.98c.01-.39.1-.75.49-.95-.01.4-.1.75-.49.95Z"/>
        <path class="cls-86" d="m121.1,257.42c-.16,0-.32,0-.49,0,.02-.39.11-.75.49-.95.07.08.13.16.2.24-.06.08-.13.16-.19.24,0,.16,0,.32,0,.47Z"/>
        <path class="cls-53" d="m118.69,260.77c.01-.39.11-.75.49-.95,0,.4-.09.76-.49.95Z"/>
        <path class="cls-86" d="m123.01,253.58c.01-.39.1-.75.49-.95-.01.4-.1.75-.49.95Z"/>
        <path class="cls-86" d="m121.1,256.47c.16-.16.31-.33.47-.49,0,.16,0,.32,0,.49-.15.15-.31.15-.47,0h0Z"/>
        <path class="cls-53" d="m121.11,256.47c.16,0,.31,0,.47,0l-.48.48c0-.16,0-.32,0-.47Z"/>
        <path class="cls-53" d="m118.22,261.26c.16-.16.32-.32.47-.49-.16.16-.32.32-.47.49Z"/>
        <path class="cls-53" d="m117.74,261.74l.47-.48c-.16.16-.32.32-.47.48Z"/>
        <path class="cls-53" d="m117.26,262.22c.16-.16.32-.32.48-.47-.16.16-.32.32-.48.47Z"/>
        <path class="cls-86" d="m123.5,252.63c.16-.16.31-.33.47-.49-.16.16-.31.33-.47.49Z"/>
        <path class="cls-70" d="m164.64,222.42c-.12-.16-.25-.33-.37-.49.12.16.25.33.37.49Z"/>
        <path class="cls-70" d="m165.15,223.38c-.13-.17-.26-.34-.39-.52.13.17.26.34.39.52Z"/>
        <path class="cls-35" d="m133.57,234.89c.17-.61.29-1.24.54-1.82.54-1.25,1.4-2.04,2.9-2.04,4.6.02,9.17-.79,13.78-.46,1.45.1,2.78-.57,4.24-.51,2.45.11,4.92-.12,7.33.5-1.03,1.74-2.52,2.49-4.56,2.41-5.95-.24-11.86.64-17.81.56-2.13-.03-4.44.1-6.41,1.35Z"/>
        <path class="cls-35" d="m133.1,235.37c.16-.16.32-.33.48-.49-.16.16-.32.33-.48.49Z"/>
        <path class="cls-35" d="m132.64,235.86c.15-.16.31-.32.46-.49-.15.16-.31.32-.46.49Z"/>
        <path class="cls-10" d="m111.44,252.64c.43.17.53.53.54.94-.36-.21-.49-.55-.54-.94Z"/>
        <path class="cls-36" d="m98.11,231.02c.13.18.26.37.4.55-.13-.18-.26-.37-.4-.55Z"/>
        <path class="cls-10" d="m111.98,253.59c.26.12.4.32.43.61-.14-.2-.29-.41-.43-.61Z"/>
        <path class="cls-10" d="m112.52,254.55c.13.17.27.34.4.51-.24-.09-.38-.25-.4-.51Z"/>
        <path class="cls-36" d="m134.16,231.07c0-.25.11-.43.34-.54-.11.18-.23.36-.34.54Z"/>
      </g>
    </g>
  </g>
</svg>