<?xml version="1.0" encoding="UTF-8"?>
<svg id="Layer_2" data-name="Layer 2" xmlns="http://www.w3.org/2000/svg" viewBox="0 0 684 539.51">
  <defs>
    <style>
      .cls-1 {
        stroke-width: 0px;
      }

      .cls-2 {
        fill: none;
        stroke: #717c82;
        stroke-miterlimit: 10;
        stroke-width: 2px;
      }
    </style>
  </defs>
  <g id="text">
    <g>
      <g>
        <path class="cls-2" d="m195.07,65.57c.26.14.51.28.75.43.25.15.5.31.75.46,3.96,2.43,7.07,5.35,8.98,8.68l17.93,31.17"/>
        <path class="cls-2" d="m42.8,58.61h122.83c11.45,0,21.86,2.66,29.44,6.96.25.14.5.28.75.43.49.29.97.59,1.43.9"/>
      </g>
      <g>
        <path class="cls-2" d="m408.45,267.27l15.93-18.5c1.7-1.98,4.46-3.71,7.98-5.16.22-.09.44-.18.66-.27.21-.09.43-.17.66-.26"/>
        <path class="cls-2" d="m431.75,243.88c.41-.18.84-.36,1.27-.53.22-.09.44-.17.66-.26,6.73-2.55,15.98-4.13,26.15-4.13h157.01s2.59,0,2.59,0c.44,0,.89,0,1.32,0"/>
      </g>
      <g>
        <path class="cls-2" d="m407.56,142.2l15.08-78.31c1.61-8.37,4.23-15.72,7.56-21.82.21-.38.42-.77.63-1.14.2-.38.41-.73.63-1.09"/>
        <path class="cls-2" d="m429.63,43.19c.39-.77.79-1.52,1.2-2.25.21-.38.42-.73.63-1.09,6.38-10.81,15.14-17.48,24.77-17.48h148.71s2.45,0,2.45,0c.42,0,.84.02,1.25.04"/>
      </g>
      <g>
        <path class="cls-2" d="m421.24,403.7c-.23-.14-.45-.28-.66-.43-.22-.15-.44-.31-.66-.46-3.49-2.43-6.23-5.35-7.91-8.68l-15.79-31.17"/>
        <path class="cls-2" d="m555.37,410.66h-108.2c-10.09,0-19.26-2.66-25.94-6.96-.22-.14-.44-.28-.66-.43-.43-.29-.85-.59-1.26-.9"/>
      </g>
      <g>
        <path class="cls-2" d="m300.29,237.36c.3.17.59.34.86.51.29.18.57.36.86.54,4.56,2.88,8.14,6.36,10.34,10.31l20.64,37"/>
        <path class="cls-2" d="m57.89,229.12c.56,0,1.13-.02,1.71-.02h3.35s203.45,0,203.45,0c13.18,0,25.16,3.16,33.89,8.26.29.17.57.34.86.51.56.35,1.12.7,1.65,1.06"/>
      </g>
      <circle class="cls-2" cx="393.92" cy="361.17" r="3.14"/>
      <circle class="cls-2" cx="406.93" cy="269.43" r="3.14"/>
      <circle class="cls-2" cx="334.51" cy="288.83" r="3.14"/>
      <circle class="cls-2" cx="225.18" cy="109.27" r="3.14"/>
      <circle class="cls-2" cx="407.14" cy="144.53" r="3.14"/>
      <g>
        <path class="cls-1" d="m494.55,253.43l-.26-2.34h1.52l.28,2.34v2.98l-.02,1.26-1.52.32v-4.56Z"/>
        <path class="cls-1" d="m507.36,260.89c-.79,1.01-1.93,1.52-3.41,1.52-.51,0-1.05-.06-1.64-.18l.16-1.22c.44.11.89.16,1.36.16,1.11,0,1.92-.38,2.45-1.15.53-.77.79-1.91.79-3.43,0-2.91-.95-4.36-2.86-4.36-.72,0-1.3.21-1.74.62-.44.41-.74.95-.9,1.62l-1.42,7.72h-1.54l1.48-7.78-1.54-3.32h1.6l1,2.4c.27-.84.69-1.47,1.28-1.89s1.25-.63,2-.63c1.27,0,2.27.44,3.01,1.31.74.87,1.11,2.29,1.11,4.25s-.4,3.35-1.19,4.36Z"/>
        <path class="cls-1" d="m511.13,253.43l-.26-2.34h1.52l.28,2.34v8.76h-1.54v-8.76Z"/>
        <path class="cls-1" d="m522.87,262.19l-4.54-6.82-2.14,6.82h-1.48l2.18-6.88.54-1.32-1.84-2.9h1.58l1.78,2.8,1.88,2.78.46-1.66,1.2-3.92h1.5l-2.26,6.94,2.82,4.16h-1.68Z"/>
        <path class="cls-1" d="m533.85,251.09v1.3l-3.86,9.8h-1.54l3.86-9.88h-6.2v-4.46h1.42v3.24h6.32Z"/>
        <path class="cls-1" d="m535.73,260.97h3.48v-6.66c0-.65-.13-1.14-.39-1.45-.26-.31-.65-.51-1.17-.59l-1.34-.2.22-1.2,1.74.26c.8.13,1.41.46,1.84.99.43.53.64,1.24.64,2.15v7.92h-5.02v-1.22Z"/>
        <path class="cls-1" d="m543.69,253.43l-.26-2.34h1.52l.28,2.34v2.98l-.02,1.26-1.52.32v-4.56Z"/>
        <path class="cls-1" d="m556.35,260.97v1.22h-8.72v-1.22h5.76v-6.22c0-.87-.19-1.49-.56-1.87-.37-.38-.91-.57-1.6-.57h-3.6v-1.22h3.94c2.24,0,3.36,1.24,3.36,3.72v6.16h1.42Z"/>
        <path class="cls-1" d="m558.33,256.79l.22-1.34h1.32v6.74h-1.54v-5.4Zm6.86-2.04c0-.87-.19-1.49-.56-1.87-.37-.38-.91-.57-1.6-.57h-4.68v-1.22h5.02c2.24,0,3.36,1.24,3.36,3.72v7.38h-1.54v-7.44Z"/>
        <path class="cls-1" d="m580.65,251.09v1.3l-3.86,9.8h-1.54l3.86-9.88h-6.2v-4.46h1.42v3.24h6.32Z"/>
        <path class="cls-1" d="m591.46,260.89c-.79,1.01-1.93,1.52-3.41,1.52-.51,0-1.05-.06-1.64-.18l.16-1.22c.44.11.89.16,1.36.16,1.11,0,1.92-.38,2.45-1.15s.79-1.91.79-3.43c0-2.91-.95-4.36-2.86-4.36-.72,0-1.3.21-1.74.62-.44.41-.74.95-.9,1.62l-1.42,7.72h-1.54l1.48-7.78-1.54-3.32h1.6l1,2.4c.27-.84.69-1.47,1.28-1.89.59-.42,1.25-.63,2-.63,1.27,0,2.27.44,3.01,1.31.74.87,1.11,2.29,1.11,4.25s-.4,3.35-1.19,4.36Z"/>
        <path class="cls-1" d="m596.01,262.39l-1.22-10.08-.14-1.22h5.46c1.17,0,2.09.36,2.75,1.09s1.01,1.72,1.05,2.97l.02.62c.13,4.17-2.51,6.38-7.92,6.62Zm5.12-2.8c.92-.77,1.34-2.06,1.26-3.86v-.48c0-.87-.21-1.57-.63-2.12s-1.01-.82-1.77-.82h-3.66l1.04,8.66c1.59-.15,2.84-.61,3.76-1.38Z"/>
        <path class="cls-1" d="m606.17,256.79l.22-1.34h1.32v6.74h-1.54v-5.4Zm6.86-2.04c0-.87-.19-1.49-.56-1.87-.37-.38-.91-.57-1.6-.57h-4.68v-1.22h5.02c2.24,0,3.36,1.24,3.36,3.72v7.38h-1.54v-7.44Z"/>
        <path class="cls-1" d="m572.61,283.79l2.12,6.4h-1.52l-4.98-15.1h1.5l2.24,6.78,2.72-6.78h1.46l-3.54,8.7Z"/>
        <path class="cls-1" d="m578.19,277.43l-.26-2.34h1.52l.28,2.34v8.76h-1.54v-8.76Z"/>
        <path class="cls-1" d="m589.71,275.09v1.3l-3.86,9.8h-1.54l3.86-9.88h-6.2v-4.46h1.42v3.24h6.32Z"/>
        <path class="cls-1" d="m592.19,277.43l-.26-2.34h1.52l.28,2.34v2.98l-.02,1.26-1.52.32v-4.56Z"/>
        <path class="cls-1" d="m604.13,276.1c.59.67.88,1.67.88,2.99v7.1h-1.54v-7.16c0-.89-.18-1.57-.55-2.03-.37-.46-.9-.69-1.61-.69h-3.4v9.88h-1.54v-11.1h5.28c1.07,0,1.89.34,2.48,1.01Z"/>
        <path class="cls-1" d="m614.97,275.09v1.3l-3.86,9.8h-1.54l3.86-9.88h-6.2v-4.46h1.42v3.24h6.32Z"/>
      </g>
      <g>
        <path class="cls-1" d="m505.6,217.45v2.38l-3.6,9.04h-2.88l3.58-9.26h-5.8v-5.08h2.6v2.92h6.1Z"/>
        <path class="cls-1" d="m507.46,219.79l-.24-2.34h2.88l.24,2.34v9.08h-2.88v-9.08Z"/>
        <path class="cls-1" d="m521.37,218.41c.62.64.93,1.61.93,2.9v7.56h-2.9v-7.7c0-1.04-.45-1.56-1.34-1.56h-2.68v9.26h-2.88v-11.42h6.34c1.07,0,1.91.32,2.53.96Z"/>
        <path class="cls-1" d="m523.9,226.71h3.2c.77,0,1.34-.25,1.71-.76.37-.51.55-1.19.55-2.04v-1.5c0-.85-.18-1.53-.55-2.04-.37-.51-.94-.76-1.71-.76h-3.2v-2.16h3.98c1.43,0,2.51.46,3.26,1.37.75.91,1.12,2.16,1.12,3.75v1.18c0,1.59-.37,2.84-1.12,3.75-.75.91-1.83,1.37-3.26,1.37h-3.98v-2.16Z"/>
        <path class="cls-1" d="m533.98,223.41l.4-1.34h2.5v6.8h-2.9v-5.46Zm6.68-2.34c0-.97-.45-1.46-1.34-1.46h-5.22v-2.16h6c1.07,0,1.91.3,2.53.91.62.61.93,1.56.93,2.85v7.66h-2.9v-7.8Z"/>
        <path class="cls-1" d="m558.9,226.98c-1.61,1.39-4.11,2.09-7.5,2.09h-.62l-1.5-11.62h2.74l.58,4.94c.53-.27.89-.67,1.08-1.2.19-.53.27-1.33.26-2.4v-1.32h2.74v1.26c-.03,1.47-.32,2.66-.88,3.57-.56.91-1.55,1.61-2.96,2.09l.28,2.3c1.91-.12,3.27-.67,4.08-1.65.81-.98,1.21-2.34,1.2-4.09l-.04-3.5h2.9l.02,3.34c.03,2.73-.77,4.8-2.38,6.19Z"/>
        <path class="cls-1" d="m571.36,217.45v2.38l-3.6,9.04h-2.88l3.58-9.26h-5.8v-5.08h2.6v2.92h6.1Z"/>
        <path class="cls-1" d="m573.22,219.79l-.24-2.34h2.88l.24,2.34v9.08h-2.88v-9.08Z"/>
        <path class="cls-1" d="m587.6,226.98c-1.61,1.39-4.11,2.09-7.5,2.09h-.62l-1.5-11.62h2.74l.58,4.94c.53-.27.89-.67,1.08-1.2s.27-1.33.26-2.4v-1.32h2.74v1.26c-.03,1.47-.32,2.66-.88,3.57-.56.91-1.55,1.61-2.96,2.09l.28,2.3c1.91-.12,3.27-.67,4.08-1.65.81-.98,1.21-2.34,1.2-4.09l-.04-3.5h2.9l.02,3.34c.03,2.73-.77,4.8-2.38,6.19Z"/>
        <path class="cls-1" d="m601.51,227.54c-.86,1.06-2.07,1.59-3.63,1.59-.56,0-1.17-.08-1.84-.24l.26-2.16c.49.11.91.16,1.24.16.91,0,1.55-.3,1.94-.91.39-.61.58-1.5.58-2.69,0-1.32-.18-2.28-.55-2.87-.37-.59-.93-.89-1.69-.89-.53,0-.98.16-1.35.48-.37.32-.6.75-.69,1.3l-1.24,7.56h-2.88l1.38-7.7-1.6-3.72h3l.8,2.28c.28-.83.7-1.44,1.26-1.85.56-.41,1.2-.61,1.92-.61,1.43,0,2.51.49,3.26,1.47.75.98,1.12,2.46,1.12,4.43,0,1.85-.43,3.31-1.29,4.37Z"/>
        <path class="cls-1" d="m604.54,223.41l.4-1.34h2.5v6.8h-2.9v-5.46Zm6.68-2.34c0-.97-.45-1.46-1.34-1.46h-5.22v-2.16h6c1.07,0,1.91.3,2.53.91.62.61.93,1.56.93,2.85v7.66h-2.9v-7.8Z"/>
      </g>
      <g>
        <path class="cls-1" d="m573.58,7.44c.71.91,1.06,2.15,1.06,3.74v10.32h-2.88v-10.46c0-.85-.17-1.53-.5-2.04-.33-.51-.86-.76-1.58-.76h-1.52l-.24,1.34c-.03.29-.04.51-.04.64,0,.4.07.72.21.95.14.23.39.37.75.41l-.52,1.74c-2.09-.05-3.14-.95-3.14-2.7,0-.29.05-.69.14-1.18l.74-3.36h4.4c1.37,0,2.41.45,3.12,1.36Z"/>
        <path class="cls-1" d="m576.5,15.34h2.92v-5.78c0-.48-.09-.82-.27-1.02-.18-.2-.46-.33-.83-.38l-1.4-.2.36-2.12,2.5.32c.81.11,1.44.45,1.87,1.04.43.59.65,1.35.65,2.28v8.02h-5.8v-2.16Z"/>
        <path class="cls-1" d="m583.92,15.34h3.2c.77,0,1.34-.25,1.71-.76.37-.51.55-1.19.55-2.04v-1.5c0-.85-.18-1.53-.55-2.04-.37-.51-.94-.76-1.71-.76h-3.2v-2.16h3.98c1.43,0,2.51.46,3.26,1.37.75.91,1.12,2.16,1.12,3.75v1.18c0,1.59-.37,2.84-1.12,3.75-.75.91-1.83,1.37-3.26,1.37h-3.98v-2.16Z"/>
        <path class="cls-1" d="m594,12.04l.4-1.34h2.5v6.8h-2.9v-5.46Zm6.68-2.34c0-.97-.45-1.46-1.34-1.46h-5.22v-2.16h6c1.07,0,1.91.3,2.53.91s.93,1.56.93,2.85v7.66h-2.9v-7.8Z"/>
      </g>
      <g>
        <path class="cls-1" d="m61.6,222c.51-.05.89-.15,1.14-.3.25-.15.43-.35.52-.61.09-.26.13-.63.12-1.11v-7.78h6.06c1.07,0,1.91.3,2.52.91.61.61.92,1.56.92,2.85v7.66h-2.88v-7.8c0-.97-.45-1.46-1.36-1.46h-2.36v5.24c0,1.01-.16,1.82-.47,2.42-.31.6-.79,1.05-1.42,1.35s-1.48.5-2.55.59l-.24-1.96Z"/>
        <path class="cls-1" d="m75.16,214.54l-.24-2.34h2.88l.24,2.34v3.12l-.02,1.26-2.86.5v-4.88Z"/>
        <path class="cls-1" d="m81.14,216.7c0-.51.05-.96.15-1.37.1-.41.24-.73.41-.97h-1.8v-2.16h5.94v2.16h-1.5c-.15.29-.24.63-.27,1-.03.37-.05.82-.05,1.34v6.92h-2.88v-6.92Z"/>
        <path class="cls-1" d="m91.58,218.16l.4-1.34h2.5v6.8h-2.9v-5.46Zm6.68-2.34c0-.97-.45-1.46-1.34-1.46h-5.22v-2.16h6c1.07,0,1.91.3,2.53.91.62.61.93,1.56.93,2.85v7.66h-2.9v-7.8Z"/>
        <path class="cls-1" d="m111.4,212.2v2.38l-3.6,9.04h-2.88l3.58-9.26h-5.8v-5.08h2.6v2.92h6.1Z"/>
        <path class="cls-1" d="m122.72,212.2c-.01,2.65-.12,4.66-.31,6.01-.19,1.35-.7,2.49-1.53,3.42s-2.16,1.57-4,1.93l-4.28.84-.4-2.26,3.18-.6-2.3-9.34h2.88l2.02,8.7c.6-.29,1.03-.74,1.3-1.34.27-.6.43-1.33.49-2.18.06-.85.09-2.15.09-3.88v-1.3h2.86Z"/>
        <path class="cls-1" d="m124.78,214.54l-.24-2.34h2.88l.24,2.34v9.08h-2.88v-9.08Z"/>
        <path class="cls-1" d="m143,221.46v2.16h-9.5v-2.16h5.28v-5.64c0-.97-.45-1.46-1.36-1.46h-3.92v-2.16h4.72c1.07,0,1.91.3,2.52.91s.92,1.56.92,2.85v5.5h1.34Z"/>
        <path class="cls-1" d="m148.8,215.82c0-.97-.45-1.46-1.34-1.46h-3.9v-2.16h4.68c1.07,0,1.91.3,2.53.91s.93,1.56.93,2.85v7.66h-2.9v-7.8Z"/>
        <path class="cls-1" d="m162.71,213.16c.62.64.93,1.61.93,2.9v7.56h-2.9v-7.7c0-1.04-.45-1.56-1.34-1.56h-2.68v9.26h-2.88v-11.42h6.34c1.07,0,1.91.32,2.53.96Z"/>
      </g>
      <g>
        <path class="cls-1" d="m60.21,49.56v2.16h-9.5v-2.16h5.28v-5.64c0-.97-.45-1.46-1.36-1.46h-3.92v-2.16h4.72c1.07,0,1.91.3,2.52.91s.92,1.56.92,2.85v5.5h1.34Z"/>
        <path class="cls-1" d="m62.03,42.64l-.24-2.34h2.88l.24,2.34v9.08h-2.88v-9.08Z"/>
        <path class="cls-1" d="m66.95,46.26l.4-1.34h2.5v6.8h-2.9v-5.46Zm6.68-2.34c0-.97-.45-1.46-1.34-1.46h-5.22v-2.16h6c1.07,0,1.91.3,2.53.91.62.61.93,1.56.93,2.85v7.66h-2.9v-7.8Z"/>
        <path class="cls-1" d="m84.97,47.04l2.64,4.68h-9.56v-2.16h5.44l-5.22-9.26h2.9l2.26,4.02,1.64-4.02h2.84l-2.94,6.74Z"/>
        <path class="cls-1" d="m89.59,46.26l.4-1.34h2.5v6.8h-2.9v-5.46Zm6.68-2.34c0-.97-.45-1.46-1.34-1.46h-5.22v-2.16h6c1.07,0,1.91.3,2.53.91.62.61.93,1.56.93,2.85v7.66h-2.9v-7.8Z"/>
        <path class="cls-1" d="m114.77,40.3c-.01,2.65-.12,4.66-.31,6.01-.19,1.35-.7,2.49-1.53,3.42s-2.16,1.57-4,1.93l-4.28.84-.4-2.26,3.18-.6-2.3-9.34h2.88l2.02,8.7c.6-.29,1.03-.74,1.3-1.34.27-.6.43-1.33.49-2.18.06-.85.09-2.15.09-3.88v-1.3h2.86Z"/>
        <path class="cls-1" d="m125.87,49.56v2.16h-9.5v-2.16h5.28v-5.64c0-.97-.45-1.46-1.36-1.46h-3.92v-2.16h4.72c1.07,0,1.91.3,2.52.91s.92,1.56.92,2.85v5.5h1.34Z"/>
        <path class="cls-1" d="m133.99,47.04l2.64,4.68h-9.56v-2.16h5.44l-5.22-9.26h2.9l2.26,4.02,1.64-4.02h2.84l-2.94,6.74Z"/>
        <path class="cls-1" d="m138.61,46.26l.4-1.34h2.5v6.8h-2.9v-5.46Zm6.68-2.34c0-.97-.45-1.46-1.34-1.46h-5.22v-2.16h6c1.07,0,1.91.3,2.53.91.62.61.93,1.56.93,2.85v7.66h-2.9v-7.8Z"/>
      </g>
      <g>
        <path class="cls-1" d="m463.23,391.5c.62.61.93,1.56.93,2.85v7.66h-9.78v-11.42h6.32c1.07,0,1.91.3,2.53.91Zm-1.97,8.35v-5.64c0-.97-.45-1.46-1.34-1.46h-2.66v7.1h4Z"/>
        <path class="cls-1" d="m466.38,392.93l-.24-2.34h2.88l.24,2.34v9.08h-2.88v-9.08Z"/>
        <path class="cls-1" d="m470.7,400.39c.51-.05.89-.15,1.14-.3.25-.15.43-.35.52-.61.09-.26.13-.63.12-1.11v-7.78h6.06c1.07,0,1.91.3,2.52.91.61.61.92,1.56.92,2.85v7.66h-2.88v-7.8c0-.97-.45-1.46-1.36-1.46h-2.36v5.24c0,1.01-.16,1.82-.47,2.42-.31.6-.79,1.05-1.42,1.35s-1.48.5-2.55.59l-.24-1.96Z"/>
        <path class="cls-1" d="m483.62,399.85h3.2c.77,0,1.34-.25,1.71-.76.37-.51.55-1.19.55-2.04v-1.5c0-.85-.18-1.53-.55-2.04-.37-.51-.94-.76-1.71-.76h-3.2v-2.16h3.98c1.43,0,2.51.46,3.26,1.37s1.12,2.16,1.12,3.75v1.18c0,1.59-.37,2.84-1.12,3.75s-1.83,1.37-3.26,1.37h-3.98v-2.16Z"/>
        <path class="cls-1" d="m493.7,396.55l.4-1.34h2.5v6.8h-2.9v-5.46Zm6.68-2.34c0-.97-.45-1.46-1.34-1.46h-5.22v-2.16h6c1.07,0,1.91.3,2.53.91.62.61.93,1.56.93,2.85v7.66h-2.9v-7.8Z"/>
        <path class="cls-1" d="m518.88,390.59c-.01,2.65-.12,4.66-.31,6.01-.19,1.35-.7,2.49-1.53,3.42s-2.16,1.57-4,1.93l-4.28.84-.4-2.26,3.18-.6-2.3-9.34h2.88l2.02,8.7c.6-.29,1.03-.74,1.3-1.34.27-.6.43-1.33.49-2.18.06-.85.09-2.15.09-3.88v-1.3h2.86Z"/>
        <path class="cls-1" d="m529.98,399.85v2.16h-9.5v-2.16h5.28v-5.64c0-.97-.45-1.46-1.36-1.46h-3.92v-2.16h4.72c1.07,0,1.91.3,2.52.91s.92,1.56.92,2.85v5.5h1.34Z"/>
        <path class="cls-1" d="m538.1,397.33l2.64,4.68h-9.56v-2.16h5.44l-5.22-9.26h2.9l2.26,4.02,1.64-4.02h2.84l-2.94,6.74Z"/>
        <path class="cls-1" d="m542.72,396.55l.4-1.34h2.5v6.8h-2.9v-5.46Zm6.68-2.34c0-.97-.45-1.46-1.34-1.46h-5.22v-2.16h6c1.07,0,1.91.3,2.53.91.62.61.93,1.56.93,2.85v7.66h-2.9v-7.8Z"/>
      </g>
      <g>
        <path class="cls-1" d="m455.72,34.48l-.26-2.34h1.52l.28,2.34v12.76h-1.54v-12.76Z"/>
        <path class="cls-1" d="m460.2,34.48l-.26-2.34h1.52l.28,2.34v8.76h-1.54v-8.76Z"/>
        <path class="cls-1" d="m472.14,33.15c.59.67.88,1.67.88,2.99v7.1h-1.54v-7.16c0-.89-.18-1.57-.55-2.03s-.9-.69-1.61-.69h-3.4v9.88h-1.54v-11.1h5.28c1.07,0,1.89.34,2.48,1.01Z"/>
        <path class="cls-1" d="m475.36,32.14h1.54l1.16,9.88c1.55-.16,2.78-.67,3.71-1.52.93-.85,1.36-2.15,1.29-3.9v-.5c0-.83-.21-1.49-.64-2s-1.07-.79-1.92-.84l-1-.06.1-1.24,1.12.08c1.17.07,2.1.42,2.77,1.06.67.64,1.03,1.57,1.07,2.8l.02.56c.08,2.29-.6,4-2.04,5.12s-3.39,1.74-5.84,1.86l-1.34-11.3Z"/>
        <path class="cls-1" d="m487,34.48l-.26-2.34h1.52l.28,2.34v2.98l-.02,1.26-1.52.32v-4.56Z"/>
        <path class="cls-1" d="m499.66,42.02v1.22h-8.72v-1.22h5.76v-6.22c0-.87-.19-1.49-.56-1.87-.37-.38-.91-.57-1.6-.57h-3.6v-1.22h3.94c2.24,0,3.36,1.24,3.36,3.72v6.16h1.42Z"/>
        <path class="cls-1" d="m502,34.48l-.26-2.34h1.52l.28,2.34v8.76h-1.54v-8.76Z"/>
        <path class="cls-1" d="m510.12,37.84l.22-1.34h1.32v6.74h-1.54v-5.4Zm6.86-2.04c0-.87-.19-1.49-.56-1.87-.37-.38-.91-.57-1.6-.57h-4.68v-1.22h5.02c2.24,0,3.36,1.24,3.36,3.72v7.38h-1.54v-7.44Z"/>
        <path class="cls-1" d="m520.8,42.02h3.48v-6.66c0-.65-.13-1.14-.39-1.45-.26-.31-.65-.51-1.17-.59l-1.34-.2.22-1.2,1.74.26c.8.13,1.41.46,1.84.99.43.53.64,1.24.64,2.15v7.92h-5.02v-1.22Z"/>
        <path class="cls-1" d="m532.24,43.24l-.5-2.72c-.39.73-.86,1.35-1.43,1.84s-1.24.88-2.03,1.16l-.56-1.24c.89-.32,1.65-.74,2.26-1.26.61-.52,1.11-1.19,1.5-2v-3.68c0-.67-.08-1.15-.25-1.45-.17-.3-.48-.49-.95-.57l-1.28-.2.22-1.2,1.68.26c.77.12,1.32.42,1.64.9.32.48.48,1.19.48,2.14v3.86l.7,4.16h-1.48Z"/>
        <path class="cls-1" d="m535.84,37.84l.22-1.34h1.32v6.74h-1.54v-5.4Zm6.86-2.04c0-.87-.19-1.49-.56-1.87-.37-.38-.91-.57-1.6-.57h-4.68v-1.22h5.02c2.24,0,3.36,1.24,3.36,3.72v7.38h-1.54v-7.44Z"/>
        <path class="cls-1" d="m550,42.42c.79-.07,1.33-.29,1.63-.67.3-.38.45-.96.45-1.73v-7.88h4.9c2.24,0,3.36,1.24,3.36,3.72v7.38h-1.54v-7.44c0-.87-.19-1.49-.56-1.87-.37-.38-.91-.57-1.6-.57h-3.02v6.5c0,1.17-.27,2.05-.82,2.63-.55.58-1.43.92-2.64,1.03l-.16-1.1Z"/>
        <path class="cls-1" d="m570.26,32.14v1.3l-3.86,9.8h-1.54l3.86-9.88h-6.2v-4.46h1.42v3.24h6.32Z"/>
        <path class="cls-1" d="m581.07,41.94c-.79,1.01-1.93,1.52-3.41,1.52-.51,0-1.05-.06-1.64-.18l.16-1.22c.44.11.89.16,1.36.16,1.11,0,1.92-.38,2.45-1.15.53-.77.79-1.91.79-3.43,0-2.91-.95-4.36-2.86-4.36-.72,0-1.3.21-1.74.62-.44.41-.74.95-.9,1.62l-1.42,7.72h-1.54l1.48-7.78-1.54-3.32h1.6l1,2.4c.27-.84.69-1.47,1.28-1.89s1.25-.63,2-.63c1.27,0,2.27.44,3.01,1.31.74.87,1.11,2.29,1.11,4.25s-.4,3.35-1.19,4.36Z"/>
        <path class="cls-1" d="m585.62,43.44l-1.22-10.08-.14-1.22h5.46c1.17,0,2.09.36,2.75,1.09s1.01,1.72,1.05,2.97l.02.62c.13,4.17-2.51,6.38-7.92,6.62Zm5.12-2.8c.92-.77,1.34-2.06,1.26-3.86v-.48c0-.87-.21-1.57-.63-2.12s-1.01-.82-1.77-.82h-3.66l1.04,8.66c1.59-.15,2.84-.61,3.76-1.38Z"/>
        <path class="cls-1" d="m604.47,41.94c-.79,1.01-1.93,1.52-3.41,1.52-.51,0-1.05-.06-1.64-.18l.16-1.22c.44.11.89.16,1.36.16,1.11,0,1.92-.38,2.45-1.15.53-.77.79-1.91.79-3.43,0-2.91-.95-4.36-2.86-4.36-.72,0-1.3.21-1.74.62-.44.41-.74.95-.9,1.62l-1.42,7.72h-1.54l1.48-7.78-1.54-3.32h1.6l1,2.4c.27-.84.69-1.47,1.28-1.89s1.25-.63,2-.63c1.27,0,2.27.44,3.01,1.31.74.87,1.11,2.29,1.11,4.25s-.4,3.35-1.19,4.36Z"/>
      </g>
      <g>
        <path class="cls-1" d="m58.33,249.78c.79-.07,1.33-.29,1.63-.67.3-.38.45-.96.45-1.73v-7.88h4.9c2.24,0,3.36,1.24,3.36,3.72v7.38h-1.54v-7.44c0-.87-.19-1.49-.56-1.87-.37-.38-.91-.57-1.6-.57h-3.02v6.5c0,1.17-.27,2.05-.82,2.63-.55.58-1.43.92-2.64,1.03l-.16-1.1Z"/>
        <path class="cls-1" d="m78.81,250.6l-4.54-6.82-2.14,6.82h-1.48l2.18-6.88.54-1.32-1.84-2.9h1.58l1.78,2.8,1.88,2.78.46-1.66,1.2-3.92h1.5l-2.26,6.94,2.82,4.16h-1.68Z"/>
        <path class="cls-1" d="m85.63,249.78c.79-.07,1.33-.29,1.63-.67.3-.38.45-.96.45-1.73v-7.88h4.9c2.24,0,3.36,1.24,3.36,3.72v7.38h-1.54v-7.44c0-.87-.19-1.49-.56-1.87-.37-.38-.91-.57-1.6-.57h-3.02v6.5c0,1.17-.27,2.05-.82,2.63-.55.58-1.43.92-2.64,1.03l-.16-1.1Z"/>
        <path class="cls-1" d="m102.33,250.6l-.5-2.72c-.39.73-.86,1.35-1.43,1.84-.57.49-1.24.88-2.03,1.16l-.56-1.24c.89-.32,1.65-.74,2.26-1.26.61-.52,1.11-1.19,1.5-2v-3.68c0-.67-.08-1.15-.25-1.45-.17-.3-.48-.49-.95-.57l-1.28-.2.22-1.2,1.68.26c.77.12,1.32.42,1.64.9.32.48.48,1.19.48,2.14v3.86l.7,4.16h-1.48Z"/>
        <path class="cls-1" d="m114.11,250.6h-8.6v-1.22h6.3l-5.9-9.88h1.6l2.84,4.78,2.04-4.78h1.56l-2.76,6.18,2.92,4.92Z"/>
        <path class="cls-1" d="m116.63,241.84l-.26-2.34h1.52l.28,2.34v2.98l-.02,1.26-1.52.32v-4.56Z"/>
        <path class="cls-1" d="m121.11,241.84l-.26-2.34h1.52l.28,2.34v2.98l-.02,1.26-1.52.32v-4.56Z"/>
        <path class="cls-1" d="m133.92,249.3c-.79,1.01-1.93,1.52-3.41,1.52-.51,0-1.05-.06-1.64-.18l.16-1.22c.44.11.89.16,1.36.16,1.11,0,1.92-.38,2.45-1.15.53-.77.79-1.91.79-3.43,0-2.91-.95-4.36-2.86-4.36-.72,0-1.3.21-1.74.62-.44.41-.74.95-.9,1.62l-1.42,7.72h-1.54l1.48-7.78-1.54-3.32h1.6l1,2.4c.27-.84.69-1.47,1.28-1.89.59-.42,1.25-.63,2-.63,1.27,0,2.27.44,3.01,1.31.74.88,1.11,2.29,1.11,4.25s-.4,3.35-1.19,4.36Z"/>
        <path class="cls-1" d="m149.87,249.38v1.22h-8.72v-1.22h5.76v-6.22c0-.87-.19-1.49-.56-1.87-.37-.38-.91-.57-1.6-.57h-3.6v-1.22h3.94c2.24,0,3.36,1.24,3.36,3.72v6.16h1.42Z"/>
        <path class="cls-1" d="m156.57,243.16c0-.87-.19-1.49-.56-1.87-.37-.38-.91-.57-1.6-.57h-3.54v-1.22h3.88c2.24,0,3.36,1.24,3.36,3.72v7.38h-1.54v-7.44Z"/>
        <path class="cls-1" d="m168.53,240.51c.59.67.88,1.67.88,2.99v7.1h-1.54v-7.16c0-.89-.18-1.57-.55-2.03-.37-.46-.9-.69-1.61-.69h-3.4v9.88h-1.54v-11.1h5.28c1.07,0,1.89.34,2.48,1.01Z"/>
        <path class="cls-1" d="m171.97,245.2l.22-1.34h1.32v6.74h-1.54v-5.4Zm6.86-2.04c0-.87-.19-1.49-.56-1.87-.37-.38-.91-.57-1.6-.57h-4.68v-1.22h5.02c2.24,0,3.36,1.24,3.36,3.72v7.38h-1.54v-7.44Z"/>
        <path class="cls-1" d="m64.01,267.06c0-1.03.18-1.81.54-2.34h-5.6v-1.22h8.56v1.22h-1.48c-.32.55-.48,1.33-.48,2.34v7.54h-1.54v-7.54Z"/>
        <path class="cls-1" d="m70.17,265.84l-.26-2.34h1.52l.28,2.34v8.76h-1.54v-8.76Z"/>
        <path class="cls-1" d="m82.65,263.5c0,2.75-.1,4.79-.31,6.14-.21,1.35-.69,2.41-1.46,3.2-.77.79-2,1.35-3.69,1.68l-3.36.66-.22-1.24,3.54-.68-2.58-9.76h1.54l2.44,9.36c.83-.33,1.42-.85,1.78-1.55.36-.7.58-1.59.66-2.68.08-1.09.13-2.8.14-5.13h1.52Z"/>
        <path class="cls-1" d="m93.45,273.38v1.22h-8.72v-1.22h5.76v-6.22c0-.87-.19-1.49-.56-1.87-.37-.38-.91-.57-1.6-.57h-3.6v-1.22h3.94c2.24,0,3.36,1.24,3.36,3.72v6.16h1.42Z"/>
        <path class="cls-1" d="m101.68,272.98c.23.32.35.76.35,1.32,0,.81-.22,1.54-.67,2.17-.45.63-1.05,1.12-1.81,1.45l-.38-.88c.55-.24.97-.57,1.27-.98.3-.41.46-.89.47-1.44-.04.01-.11.02-.2.02-.32,0-.59-.1-.8-.29-.21-.19-.32-.46-.32-.79s.11-.58.34-.77c.23-.19.49-.29.8-.29.4,0,.72.16.95.48Z"/>
        <path class="cls-1" d="m104.27,269.2l.22-1.34h1.32v6.74h-1.54v-5.4Zm6.86-2.04c0-.87-.19-1.49-.56-1.87-.37-.38-.91-.57-1.6-.57h-4.68v-1.22h5.02c2.24,0,3.36,1.24,3.36,3.72v7.38h-1.54v-7.44Z"/>
        <path class="cls-1" d="m123.88,273.3c-.79,1.01-1.93,1.52-3.41,1.52-.51,0-1.05-.06-1.64-.18l.16-1.22c.44.11.89.16,1.36.16,1.11,0,1.92-.38,2.45-1.15.53-.77.79-1.91.79-3.43,0-2.91-.95-4.36-2.86-4.36-.72,0-1.3.21-1.74.62-.44.41-.74.95-.9,1.62l-1.42,7.72h-1.54l1.48-7.78-1.54-3.32h1.6l1,2.4c.27-.84.69-1.47,1.28-1.89.59-.42,1.25-.63,2-.63,1.27,0,2.27.44,3.01,1.31.74.88,1.11,2.29,1.11,4.25s-.4,3.35-1.19,4.36Z"/>
        <path class="cls-1" d="m135.11,264.51c.59.67.88,1.67.88,2.99v7.1h-1.54v-7.16c0-.89-.18-1.57-.55-2.03-.37-.46-.9-.69-1.61-.69h-3.4v9.88h-1.54v-11.1h5.28c1.07,0,1.89.34,2.48,1.01Z"/>
        <path class="cls-1" d="m145.95,263.5v1.3l-3.86,9.8h-1.54l3.86-9.88h-6.2v-4.46h1.42v3.24h6.32Z"/>
        <path class="cls-1" d="m156.76,273.3c-.79,1.01-1.93,1.52-3.41,1.52-.51,0-1.05-.06-1.64-.18l.16-1.22c.44.11.89.16,1.36.16,1.11,0,1.92-.38,2.45-1.15.53-.77.79-1.91.79-3.43,0-2.91-.95-4.36-2.86-4.36-.72,0-1.3.21-1.74.62-.44.41-.74.95-.9,1.62l-1.42,7.72h-1.54l1.48-7.78-1.54-3.32h1.6l1,2.4c.27-.84.69-1.47,1.28-1.89.59-.42,1.25-.63,2-.63,1.27,0,2.27.44,3.01,1.31.74.88,1.11,2.29,1.11,4.25s-.4,3.35-1.19,4.36Z"/>
        <path class="cls-1" d="m160.17,269.2l.22-1.34h1.32v6.74h-1.54v-5.4Zm6.86-2.04c0-.87-.19-1.49-.56-1.87-.37-.38-.91-.57-1.6-.57h-4.68v-1.22h5.02c2.24,0,3.36,1.24,3.36,3.72v7.38h-1.54v-7.44Z"/>
        <path class="cls-1" d="m66.49,287.5v1.3l-3.86,9.8h-1.54l3.86-9.88h-6.2v-4.46h1.42v3.24h6.32Z"/>
        <path class="cls-1" d="m77.3,297.3c-.79,1.01-1.93,1.52-3.41,1.52-.51,0-1.05-.06-1.64-.18l.16-1.22c.44.11.89.16,1.36.16,1.11,0,1.92-.38,2.45-1.15.53-.77.79-1.91.79-3.43,0-2.91-.95-4.36-2.86-4.36-.72,0-1.3.21-1.74.62-.44.41-.74.95-.9,1.62l-1.42,7.72h-1.54l1.48-7.78-1.54-3.32h1.6l1,2.4c.27-.84.69-1.47,1.28-1.89.59-.42,1.25-.63,2-.63,1.27,0,2.27.44,3.01,1.31.74.88,1.11,2.29,1.11,4.25s-.4,3.35-1.19,4.36Z"/>
        <path class="cls-1" d="m81.85,298.8l-1.22-10.08-.14-1.22h5.46c1.17,0,2.09.36,2.75,1.09s1.01,1.72,1.05,2.97l.02.62c.13,4.17-2.51,6.38-7.92,6.62Zm5.12-2.8c.92-.77,1.34-2.06,1.26-3.86v-.48c0-.87-.21-1.57-.63-2.12s-1.01-.82-1.77-.82h-3.66l1.04,8.66c1.59-.15,2.84-.61,3.76-1.38Z"/>
        <path class="cls-1" d="m100.7,297.3c-.79,1.01-1.93,1.52-3.41,1.52-.51,0-1.05-.06-1.64-.18l.16-1.22c.44.11.89.16,1.36.16,1.11,0,1.92-.38,2.45-1.15.53-.77.79-1.91.79-3.43,0-2.91-.95-4.36-2.86-4.36-.72,0-1.3.21-1.74.62-.44.41-.74.95-.9,1.62l-1.42,7.72h-1.54l1.48-7.78-1.54-3.32h1.6l1,2.4c.27-.84.69-1.47,1.28-1.89.59-.42,1.25-.63,2-.63,1.27,0,2.27.44,3.01,1.31.74.88,1.11,2.29,1.11,4.25s-.4,3.35-1.19,4.36Z"/>
        <path class="cls-1" d="m107.35,297.78c.79-.07,1.33-.29,1.63-.67.3-.38.45-.96.45-1.73v-7.88h4.9c2.24,0,3.36,1.24,3.36,3.72v7.38h-1.54v-7.44c0-.87-.19-1.49-.56-1.87-.37-.38-.91-.57-1.6-.57h-3.02v6.5c0,1.17-.27,2.05-.82,2.63-.55.58-1.43.92-2.64,1.03l-.16-1.1Z"/>
        <path class="cls-1" d="m120.57,289.84l-.26-2.34h1.52l.28,2.34v2.98l-.02,1.26-1.52.32v-4.56Z"/>
        <path class="cls-1" d="m126.03,291.06c0-1,.19-1.78.56-2.34h-2v-1.22h5.02v1.22h-1.58c-.31.52-.46,1.3-.46,2.34v7.54h-1.54v-7.54Z"/>
        <path class="cls-1" d="m131.91,293.2l.22-1.34h1.32v6.74h-1.54v-5.4Zm6.86-2.04c0-.87-.19-1.49-.56-1.87-.37-.38-.91-.57-1.6-.57h-4.68v-1.22h5.02c2.24,0,3.36,1.24,3.36,3.72v7.38h-1.54v-7.44Z"/>
        <path class="cls-1" d="m154.14,288.77c.69.85,1.04,2.08,1.05,3.69v10.14h-1.54v-10.18c0-2.47-.93-3.7-2.78-3.7h-2.1l-.38,1.84c-.08.41-.12.79-.12,1.12,0,.45.09.82.27,1.09.18.27.46.46.85.55l-.38,1c-.76-.12-1.31-.39-1.66-.8-.35-.41-.52-.98-.52-1.7,0-.43.05-.87.14-1.32l.64-3h3.58c1.28,0,2.26.42,2.95,1.27Z"/>
        <path class="cls-1" d="m157.53,297.38h3.48v-6.66c0-.65-.13-1.14-.39-1.45-.26-.31-.65-.51-1.17-.59l-1.34-.2.22-1.2,1.74.26c.8.13,1.41.46,1.84.99.43.53.64,1.24.64,2.15v7.92h-5.02v-1.22Z"/>
        <path class="cls-1" d="m173.49,287.5c0,2.75-.1,4.79-.31,6.14-.21,1.35-.69,2.41-1.46,3.2-.77.79-2,1.35-3.69,1.68l-3.36.66-.22-1.24,3.54-.68-2.58-9.76h1.54l2.44,9.36c.83-.33,1.42-.85,1.78-1.55.36-.7.58-1.59.66-2.68.08-1.09.13-2.8.14-5.13h1.52Z"/>
        <path class="cls-1" d="m183.82,296.68c-1.51,1.39-3.81,2.09-6.89,2.12l-1.4-11.3h1.48l.68,5.66c.6-.32,1.07-.66,1.4-1.03.33-.37.58-.82.73-1.35.15-.53.24-1.22.27-2.06l.02-1.18h1.48l-.02,1.16c-.03,1.47-.32,2.63-.88,3.49-.56.86-1.51,1.58-2.86,2.17l.38,3.08c2.12-.13,3.71-.77,4.76-1.91,1.05-1.14,1.57-2.84,1.56-5.11l-.02-2.92h1.54l.02,2.86c.01,2.83-.74,4.93-2.25,6.32Z"/>
        <path class="cls-1" d="m68.13,315.22v7.38h-8.74v-11.1h5.38c2.24,0,3.36,1.24,3.36,3.72Zm-1.54,6.16v-6.22c0-.87-.19-1.49-.56-1.87-.37-.38-.91-.57-1.6-.57h-3.5v8.66h5.66Z"/>
        <path class="cls-1" d="m71.05,313.84l-.26-2.34h1.52l.28,2.34v8.76h-1.54v-8.76Z"/>
        <path class="cls-1" d="m82.57,311.5v1.3l-3.86,9.8h-1.54l3.86-9.88h-6.2v-4.46h1.42v3.24h6.32Z"/>
        <path class="cls-1" d="m92.76,320.68c-1.51,1.39-3.81,2.09-6.89,2.12l-1.4-11.3h1.48l.68,5.66c.6-.32,1.07-.66,1.4-1.03.33-.37.58-.82.73-1.35.15-.53.24-1.22.27-2.06l.02-1.18h1.48l-.02,1.16c-.03,1.47-.32,2.63-.88,3.49-.56.86-1.51,1.58-2.86,2.17l.38,3.08c2.12-.13,3.71-.77,4.76-1.91,1.05-1.14,1.57-2.84,1.56-5.11l-.02-2.92h1.54l.02,2.86c.01,2.83-.74,4.93-2.25,6.32Z"/>
        <path class="cls-1" d="m104.69,311.5v1.3l-3.86,9.8h-1.54l3.86-9.88h-6.2v-4.46h1.42v3.24h6.32Z"/>
        <path class="cls-1" d="m110.81,317.2l.22-1.34h1.32v6.74h-1.54v-5.4Zm6.86-2.04c0-.87-.19-1.49-.56-1.87-.37-.38-.91-.57-1.6-.57h-4.68v-1.22h5.02c2.24,0,3.36,1.24,3.36,3.72v7.38h-1.54v-7.44Z"/>
        <path class="cls-1" d="m121.73,317.2l.22-1.34h1.32v6.74h-1.54v-5.4Zm6.86-2.04c0-.87-.19-1.49-.56-1.87-.37-.38-.91-.57-1.6-.57h-4.68v-1.22h5.02c2.24,0,3.36,1.24,3.36,3.72v7.38h-1.54v-7.44Z"/>
        <path class="cls-1" d="m133.01,313.84l-.26-2.34h1.52l.28,2.34v2.98l-.02,1.26-1.52.32v-4.56Z"/>
        <path class="cls-1" d="m145.82,321.3c-.79,1.01-1.93,1.52-3.41,1.52-.51,0-1.05-.06-1.64-.18l.16-1.22c.44.11.89.16,1.36.16,1.11,0,1.92-.38,2.45-1.15.53-.77.79-1.91.79-3.43,0-2.91-.95-4.36-2.86-4.36-.72,0-1.3.21-1.74.62-.44.41-.74.95-.9,1.62l-1.42,7.72h-1.54l1.48-7.78-1.54-3.32h1.6l1,2.4c.27-.84.69-1.47,1.28-1.89.59-.42,1.25-.63,2-.63,1.27,0,2.27.44,3.01,1.31.74.88,1.11,2.29,1.11,4.25s-.4,3.35-1.19,4.36Z"/>
        <path class="cls-1" d="m148.93,321.38h2.64c1.08,0,1.89-.31,2.44-.94.55-.62.82-1.55.82-2.76v-1.26c0-1.21-.27-2.13-.82-2.76-.55-.63-1.36-.94-2.44-.94h-2.64v-1.22h2.94c1.44,0,2.55.43,3.33,1.28.78.85,1.17,2.09,1.17,3.7v1.14c0,1.62-.39,2.85-1.17,3.7-.78.85-1.89,1.28-3.33,1.28h-2.94v-1.22Z"/>
        <path class="cls-1" d="m158.65,317.2l.22-1.34h1.32v6.74h-1.54v-5.4Zm6.86-2.04c0-.87-.19-1.49-.56-1.87-.37-.38-.91-.57-1.6-.57h-4.68v-1.22h5.02c2.24,0,3.36,1.24,3.36,3.72v7.38h-1.54v-7.44Z"/>
        <path class="cls-1" d="m172.81,321.78c.79-.07,1.33-.29,1.63-.67.3-.38.45-.96.45-1.73v-7.88h4.9c2.24,0,3.36,1.24,3.36,3.72v7.38h-1.54v-7.44c0-.87-.19-1.49-.56-1.87-.37-.38-.91-.57-1.6-.57h-3.02v6.5c0,1.17-.27,2.05-.82,2.63-.55.58-1.43.92-2.64,1.03l-.16-1.1Z"/>
        <path class="cls-1" d="m193.29,322.6l-4.54-6.82-2.14,6.82h-1.48l2.18-6.88.54-1.32-1.84-2.9h1.58l1.78,2.8,1.88,2.78.46-1.66,1.2-3.92h1.5l-2.26,6.94,2.82,4.16h-1.68Z"/>
      </g>
      <g>
        <path class="cls-1" d="m47.91,77.95c.79-.07,1.33-.29,1.63-.67.3-.38.45-.96.45-1.73v-7.88h4.9c2.24,0,3.36,1.24,3.36,3.72v7.38h-1.54v-7.44c0-.87-.19-1.49-.56-1.87-.37-.38-.91-.57-1.6-.57h-3.02v6.5c0,1.17-.27,2.05-.82,2.63-.55.58-1.43.92-2.64,1.03l-.16-1.1Z"/>
        <path class="cls-1" d="m61.13,70.01l-.26-2.34h1.52l.28,2.34v8.76h-1.54v-8.76Z"/>
        <path class="cls-1" d="m70.57,71.33c0-.87-.19-1.49-.56-1.87-.37-.38-.91-.57-1.6-.57h-3.54v-1.22h3.88c2.24,0,3.36,1.24,3.36,3.72v7.38h-1.54v-7.44Z"/>
        <path class="cls-1" d="m75.07,70.01l-.26-2.34h1.52l.28,2.34v2.98l-.02,1.26-1.52.32v-4.56Z"/>
        <path class="cls-1" d="m87.26,76.85c-1.51,1.39-3.81,2.09-6.89,2.12l-1.4-11.3h1.48l.68,5.66c.6-.32,1.07-.66,1.4-1.03.33-.37.58-.82.73-1.35.15-.53.24-1.22.27-2.06l.02-1.18h1.48l-.02,1.16c-.03,1.47-.32,2.63-.88,3.49-.56.86-1.51,1.58-2.86,2.17l.38,3.08c2.12-.13,3.71-.77,4.76-1.91,1.05-1.14,1.57-2.84,1.56-5.11l-.02-2.92h1.54l.02,2.86c.01,2.83-.74,4.93-2.25,6.32Z"/>
        <path class="cls-1" d="m91.49,77.55h2.64c1.08,0,1.89-.31,2.44-.94.55-.63.82-1.55.82-2.76v-1.26c0-1.21-.27-2.13-.82-2.76-.55-.63-1.36-.94-2.44-.94h-2.64v-1.22h2.94c1.44,0,2.55.43,3.33,1.28.78.85,1.17,2.09,1.17,3.7v1.14c0,1.61-.39,2.85-1.17,3.7-.78.85-1.89,1.28-3.33,1.28h-2.94v-1.22Z"/>
        <path class="cls-1" d="m104.45,77.95c.79-.07,1.33-.29,1.63-.67.3-.38.45-.96.45-1.73v-7.88h4.9c2.24,0,3.36,1.24,3.36,3.72v7.38h-1.54v-7.44c0-.87-.19-1.49-.56-1.87-.37-.38-.91-.57-1.6-.57h-3.02v6.5c0,1.17-.27,2.05-.82,2.63-.55.58-1.43.92-2.64,1.03l-.16-1.1Z"/>
        <path class="cls-1" d="m124.93,78.77l-4.54-6.82-2.14,6.82h-1.48l2.18-6.88.54-1.32-1.84-2.9h1.58l1.78,2.8,1.88,2.78.46-1.66,1.2-3.92h1.5l-2.26,6.94,2.82,4.16h-1.68Z"/>
        <path class="cls-1" d="m139.91,67.67v1.3l-3.86,9.8h-1.54l3.86-9.88h-6.2v-4.46h1.42v3.24h6.32Z"/>
        <path class="cls-1" d="m150.72,77.47c-.79,1.01-1.93,1.52-3.41,1.52-.51,0-1.05-.06-1.64-.18l.16-1.22c.44.11.89.16,1.36.16,1.11,0,1.92-.38,2.45-1.15.53-.77.79-1.91.79-3.43,0-2.91-.95-4.36-2.86-4.36-.72,0-1.3.21-1.74.62s-.74.95-.9,1.62l-1.42,7.72h-1.54l1.48-7.78-1.54-3.32h1.6l1,2.4c.27-.84.69-1.47,1.28-1.89.59-.42,1.25-.63,2-.63,1.27,0,2.27.44,3.01,1.31.74.87,1.11,2.29,1.11,4.25s-.4,3.35-1.19,4.36Z"/>
        <path class="cls-1" d="m155.27,78.97l-1.22-10.08-.14-1.22h5.46c1.17,0,2.09.36,2.75,1.09s1.01,1.72,1.05,2.97l.02.62c.13,4.17-2.51,6.38-7.92,6.62Zm5.12-2.8c.92-.77,1.34-2.06,1.26-3.86v-.48c0-.87-.21-1.57-.63-2.12s-1.01-.82-1.77-.82h-3.66l1.04,8.66c1.59-.15,2.84-.61,3.76-1.38Z"/>
        <path class="cls-1" d="m174.12,77.47c-.79,1.01-1.93,1.52-3.41,1.52-.51,0-1.05-.06-1.64-.18l.16-1.22c.44.11.89.16,1.36.16,1.11,0,1.92-.38,2.45-1.15.53-.77.79-1.91.79-3.43,0-2.91-.95-4.36-2.86-4.36-.72,0-1.3.21-1.74.62s-.74.95-.9,1.62l-1.42,7.72h-1.54l1.48-7.78-1.54-3.32h1.6l1,2.4c.27-.84.69-1.47,1.28-1.89.59-.42,1.25-.63,2-.63,1.27,0,2.27.44,3.01,1.31.74.87,1.11,2.29,1.11,4.25s-.4,3.35-1.19,4.36Z"/>
        <path class="cls-1" d="m56.07,91.67v1.3l-3.86,9.8h-1.54l3.86-9.88h-6.2v-4.46h1.42v3.24h6.32Z"/>
        <path class="cls-1" d="m58.55,94.01l-.26-2.34h1.52l.28,2.34v8.76h-1.54v-8.76Z"/>
        <path class="cls-1" d="m62.99,101.55h3.28c1.04,0,1.87-.29,2.49-.87s.93-1.54.93-2.87v-1.22c0-1.21-.23-2.13-.7-2.76-.47-.63-1.17-.94-2.12-.94h-2.1l-.52,2.22c-.08.37-.12.71-.12,1,0,.45.12.81.37,1.06.25.25.66.43,1.23.54l-.32,1.06c-.93-.09-1.61-.36-2.03-.79-.42-.43-.63-1.04-.63-1.81,0-.37.04-.77.12-1.18l.76-3.32h3.5c1.29,0,2.3.43,3.01,1.28.71.85,1.08,2.08,1.09,3.68v1.12c0,1.73-.43,3-1.3,3.81s-2,1.21-3.4,1.21h-3.54v-1.22Z"/>
        <path class="cls-1" d="m73.85,94.01l-.26-2.34h1.52l.28,2.34v2.98l-.02,1.26-1.52.32v-4.56Z"/>
        <path class="cls-1" d="m77.75,91.67h1.54l1.16,9.88c1.55-.16,2.78-.67,3.71-1.52.93-.85,1.36-2.15,1.29-3.9v-.5c0-.83-.21-1.49-.64-2s-1.07-.79-1.92-.84l-1-.06.1-1.24,1.12.08c1.17.07,2.1.42,2.77,1.06.67.64,1.03,1.57,1.07,2.8l.02.56c.08,2.29-.6,4-2.04,5.12s-3.39,1.74-5.84,1.86l-1.34-11.3Z"/>
        <path class="cls-1" d="m96.43,91.67v1.3l-3.86,9.8h-1.54l3.86-9.88h-6.2v-4.46h1.42v3.24h6.32Z"/>
        <path class="cls-1" d="m102.55,97.37l.22-1.34h1.32v6.74h-1.54v-5.4Zm6.86-2.04c0-.87-.19-1.49-.56-1.87-.37-.38-.91-.57-1.6-.57h-4.68v-1.22h5.02c2.24,0,3.36,1.24,3.36,3.72v7.38h-1.54v-7.44Z"/>
        <path class="cls-1" d="m122.01,101.55v1.22h-8.72v-1.22h5.76v-6.22c0-.87-.19-1.49-.56-1.87-.37-.38-.91-.57-1.6-.57h-3.6v-1.22h3.94c2.24,0,3.36,1.24,3.36,3.72v6.16h1.42Z"/>
        <path class="cls-1" d="m124.35,94.01l-.26-2.34h1.52l.28,2.34v2.98l-.02,1.26-1.52.32v-4.56Z"/>
        <path class="cls-1" d="m128.25,91.67h1.54l1.16,9.88c1.55-.16,2.78-.67,3.71-1.52.93-.85,1.36-2.15,1.29-3.9v-.5c0-.83-.21-1.49-.64-2s-1.07-.79-1.92-.84l-1-.06.1-1.24,1.12.08c1.17.07,2.1.42,2.77,1.06.67.64,1.03,1.57,1.07,2.8l.02.56c.08,2.29-.6,4-2.04,5.12s-3.39,1.74-5.84,1.86l-1.34-11.3Z"/>
        <path class="cls-1" d="m147.35,92.68c.59.67.88,1.67.88,2.99v7.1h-1.54v-7.16c0-.89-.18-1.57-.55-2.03s-.9-.69-1.61-.69h-3.4v9.88h-1.54v-11.1h5.28c1.07,0,1.89.34,2.48,1.01Z"/>
        <path class="cls-1" d="m150.79,97.37l.22-1.34h1.32v6.74h-1.54v-5.4Zm6.86-2.04c0-.87-.19-1.49-.56-1.87-.37-.38-.91-.57-1.6-.57h-4.68v-1.22h5.02c2.24,0,3.36,1.24,3.36,3.72v7.38h-1.54v-7.44Z"/>
        <path class="cls-1" d="m51.87,125.55c.71-.08,1.3-.25,1.78-.5s.88-.69,1.2-1.32c.32-.63.52-1.51.6-2.64l.34-4.2h-7.2v-1.22h8.84l-.06,1.1-.32,4.02c-.09,1.93-.58,3.4-1.47,4.4s-2.07,1.53-3.55,1.58l-.16-1.22Zm-3.24-4.46l.22-1.36h1.32v11.04h-1.54v-9.68Z"/>
        <path class="cls-1" d="m67.72,124.85c-1.51,1.39-3.81,2.09-6.89,2.12l-1.4-11.3h1.48l.68,5.66c.6-.32,1.07-.66,1.4-1.03.33-.37.58-.82.73-1.35.15-.53.24-1.22.27-2.06l.02-1.18h1.48l-.02,1.16c-.03,1.47-.32,2.63-.88,3.49-.56.86-1.51,1.58-2.86,2.17l.38,3.08c2.12-.13,3.71-.77,4.76-1.91,1.05-1.14,1.57-2.84,1.56-5.11l-.02-2.92h1.54l.02,2.86c.01,2.83-.74,4.93-2.25,6.32Z"/>
        <path class="cls-1" d="m72.01,125.55h3.48v-6.66c0-.65-.13-1.14-.39-1.45-.26-.31-.65-.51-1.17-.59l-1.34-.2.22-1.2,1.74.26c.8.13,1.41.46,1.84.99.43.53.64,1.24.64,2.15v7.92h-5.02v-1.22Z"/>
        <path class="cls-1" d="m91.97,115.67c0,2.75-.1,4.79-.31,6.14-.21,1.35-.69,2.41-1.46,3.2-.77.79-2,1.35-3.69,1.68l-3.36.66-.22-1.24,3.54-.68-2.58-9.76h1.54l2.44,9.36c.83-.33,1.42-.85,1.78-1.55.36-.7.58-1.59.66-2.68s.13-2.8.14-5.13h1.52Z"/>
        <path class="cls-1" d="m94.59,118.01l-.26-2.34h1.52l.28,2.34v8.76h-1.54v-8.76Z"/>
        <path class="cls-1" d="m104.03,119.33c0-.87-.19-1.49-.56-1.87-.37-.38-.91-.57-1.6-.57h-3.54v-1.22h3.88c2.24,0,3.36,1.24,3.36,3.72v7.38h-1.54v-7.44Z"/>
        <path class="cls-1" d="m108.53,118.01l-.26-2.34h1.52l.28,2.34v2.98l-.02,1.26-1.52.32v-4.56Z"/>
        <path class="cls-1" d="m120.27,126.77l-4.54-6.82-2.14,6.82h-1.48l2.18-6.88.54-1.32-1.84-2.9h1.58l1.78,2.8,1.88,2.78.46-1.66,1.2-3.92h1.5l-2.26,6.94,2.82,4.16h-1.68Z"/>
        <path class="cls-1" d="m132.39,125.55v1.22h-8.72v-1.22h5.76v-6.22c0-.87-.19-1.49-.56-1.87-.37-.38-.91-.57-1.6-.57h-3.6v-1.22h3.94c2.24,0,3.36,1.24,3.36,3.72v6.16h1.42Z"/>
        <path class="cls-1" d="m47.91,149.95c.79-.07,1.33-.29,1.63-.67.3-.38.45-.96.45-1.73v-7.88h4.9c2.24,0,3.36,1.24,3.36,3.72v7.38h-1.54v-7.44c0-.87-.19-1.49-.56-1.87-.37-.38-.91-.57-1.6-.57h-3.02v6.5c0,1.17-.27,2.05-.82,2.63-.55.58-1.43.92-2.64,1.03l-.16-1.1Z"/>
        <path class="cls-1" d="m61.13,142.01l-.26-2.34h1.52l.28,2.34v2.98l-.02,1.26-1.52.32v-4.56Z"/>
        <path class="cls-1" d="m65.01,149.55h3.48v-6.66c0-.65-.13-1.14-.39-1.45-.26-.31-.65-.51-1.17-.59l-1.34-.2.22-1.2,1.74.26c.8.13,1.41.46,1.84.99.43.53.64,1.24.64,2.15v7.92h-5.02v-1.22Z"/>
        <path class="cls-1" d="m72.97,142.01l-.26-2.34h1.52l.28,2.34v8.76h-1.54v-8.76Z"/>
        <path class="cls-1" d="m85.78,149.47c-.79,1.01-1.93,1.52-3.41,1.52-.51,0-1.05-.06-1.64-.18l.16-1.22c.44.11.89.16,1.36.16,1.11,0,1.92-.38,2.45-1.15.53-.77.79-1.91.79-3.43,0-2.91-.95-4.36-2.86-4.36-.72,0-1.3.21-1.74.62s-.74.95-.9,1.62l-1.42,7.72h-1.54l1.48-7.78-1.54-3.32h1.6l1,2.4c.27-.84.69-1.47,1.28-1.89.59-.42,1.25-.63,2-.63,1.27,0,2.27.44,3.01,1.31.74.87,1.11,2.29,1.11,4.25s-.4,3.35-1.19,4.36Z"/>
        <path class="cls-1" d="m89.19,145.37l.22-1.34h1.32v6.74h-1.54v-5.4Zm6.86-2.04c0-.87-.19-1.49-.56-1.87-.37-.38-.91-.57-1.6-.57h-4.68v-1.22h5.02c2.24,0,3.36,1.24,3.36,3.72v7.38h-1.54v-7.44Z"/>
        <path class="cls-1" d="m104.11,145.37l.22-1.34h1.32v6.74h-1.54v-5.4Zm6.86-2.04c0-.87-.19-1.49-.56-1.87-.37-.38-.91-.57-1.6-.57h-4.68v-1.22h5.02c2.24,0,3.36,1.24,3.36,3.72v7.38h-1.54v-7.44Z"/>
        <path class="cls-1" d="m119.95,143.23c0-1.03.18-1.81.54-2.34h-5.6v-1.22h8.56v1.22h-1.48c-.32.55-.48,1.33-.48,2.34v7.54h-1.54v-7.54Z"/>
        <path class="cls-1" d="m134.44,149.47c-.79,1.01-1.93,1.52-3.41,1.52-.51,0-1.05-.06-1.64-.18l.16-1.22c.44.11.89.16,1.36.16,1.11,0,1.92-.38,2.45-1.15.53-.77.79-1.91.79-3.43,0-2.91-.95-4.36-2.86-4.36-.72,0-1.3.21-1.74.62s-.74.95-.9,1.62l-1.42,7.72h-1.54l1.48-7.78-1.54-3.32h1.6l1,2.4c.27-.84.69-1.47,1.28-1.89.59-.42,1.25-.63,2-.63,1.27,0,2.27.44,3.01,1.31.74.87,1.11,2.29,1.11,4.25s-.4,3.35-1.19,4.36Z"/>
        <path class="cls-1" d="m145.92,148.85c-1.51,1.39-3.81,2.09-6.89,2.12l-1.4-11.3h1.48l.68,5.66c.6-.32,1.07-.66,1.4-1.03.33-.37.58-.82.73-1.35.15-.53.24-1.22.27-2.06l.02-1.18h1.48l-.02,1.16c-.03,1.47-.32,2.63-.88,3.49-.56.86-1.51,1.58-2.86,2.17l.38,3.08c2.12-.13,3.71-.77,4.76-1.91,1.05-1.14,1.57-2.84,1.56-5.11l-.02-2.92h1.54l.02,2.86c.01,2.83-.74,4.93-2.25,6.32Z"/>
        <path class="cls-1" d="m150.45,145.37l.22-1.34h1.32v6.74h-1.54v-5.4Zm6.86-2.04c0-.87-.19-1.49-.56-1.87-.37-.38-.91-.57-1.6-.57h-4.68v-1.22h5.02c2.24,0,3.36,1.24,3.36,3.72v7.38h-1.54v-7.44Z"/>
        <path class="cls-1" d="m168.77,139.67v1.3l-3.86,9.8h-1.54l3.86-9.88h-6.2v-4.46h1.42v3.24h6.32Z"/>
        <path class="cls-1" d="m49.8,173.96c-.45-1.47-.67-3.06-.67-4.75s.22-3.28.67-4.75c.45-1.47,1.1-2.92,1.97-4.33l.9.44c-.76,1.25-1.34,2.62-1.73,4.1-.39,1.48-.59,2.99-.59,4.54s.2,3.06.59,4.54c.39,1.48.97,2.85,1.73,4.1l-.9.44c-.87-1.41-1.52-2.86-1.97-4.33Z"/>
        <path class="cls-1" d="m54.97,166.01l-.26-2.34h1.52l.28,2.34v2.98l-.02,1.26-1.52.32v-4.56Z"/>
        <path class="cls-1" d="m67.78,173.47c-.79,1.01-1.93,1.52-3.41,1.52-.51,0-1.05-.06-1.64-.18l.16-1.22c.44.11.89.16,1.36.16,1.11,0,1.92-.38,2.45-1.15.53-.77.79-1.91.79-3.43,0-2.91-.95-4.36-2.86-4.36-.72,0-1.3.21-1.74.62s-.74.95-.9,1.62l-1.42,7.72h-1.54l1.48-7.78-1.54-3.32h1.6l1,2.4c.27-.84.69-1.47,1.28-1.89.59-.42,1.25-.63,2-.63,1.27,0,2.27.44,3.01,1.31.74.87,1.11,2.29,1.11,4.25s-.4,3.35-1.19,4.36Z"/>
        <path class="cls-1" d="m71.55,166.01l-.26-2.34h1.52l.28,2.34v2.98l-.02,1.26-1.52.32v-4.56Z"/>
        <path class="cls-1" d="m75.37,173.55h2.64c1.08,0,1.89-.31,2.44-.94.55-.63.82-1.55.82-2.76v-1.26c0-1.21-.27-2.13-.82-2.76-.55-.63-1.36-.94-2.44-.94h-2.64v-1.22h2.94c1.44,0,2.55.43,3.33,1.28.78.85,1.17,2.09,1.17,3.7v1.14c0,1.61-.39,2.85-1.17,3.7-.78.85-1.89,1.28-3.33,1.28h-2.94v-1.22Z"/>
        <path class="cls-1" d="m91.34,173.15c.23.32.35.76.35,1.32,0,.81-.22,1.54-.67,2.17-.45.63-1.05,1.12-1.81,1.45l-.38-.88c.55-.24.97-.57,1.27-.98s.46-.89.47-1.44c-.04.01-.11.02-.2.02-.32,0-.59-.1-.8-.29-.21-.19-.32-.46-.32-.79s.11-.58.34-.77c.23-.19.49-.29.8-.29.4,0,.72.16.95.48Z"/>
        <path class="cls-1" d="m94.29,166.01l-.26-2.34h1.52l.28,2.34v2.98l-.02,1.26-1.52.32v-4.56Z"/>
        <path class="cls-1" d="m102.25,174.77l-.5-2.72c-.39.73-.86,1.35-1.43,1.84s-1.24.88-2.03,1.16l-.56-1.24c.89-.32,1.65-.74,2.26-1.26.61-.52,1.11-1.19,1.5-2v-3.68c0-.67-.08-1.15-.25-1.45-.17-.3-.48-.49-.95-.57l-1.28-.2.22-1.2,1.68.26c.77.12,1.32.42,1.64.9.32.48.48,1.19.48,2.14v3.86l.7,4.16h-1.48Z"/>
        <path class="cls-1" d="m106.21,166.01l-.26-2.34h1.52l.28,2.34v8.76h-1.54v-8.76Z"/>
        <path class="cls-1" d="m117.73,163.67v1.3l-3.86,9.8h-1.54l3.86-9.88h-6.2v-4.46h1.42v3.24h6.32Z"/>
        <path class="cls-1" d="m120.21,166.01l-.26-2.34h1.52l.28,2.34v8.76h-1.54v-8.76Z"/>
        <path class="cls-1" d="m124.69,166.01l-.26-2.34h1.52l.28,2.34v2.98l-.02,1.26-1.52.32v-4.56Z"/>
        <path class="cls-1" d="m137.35,173.55v1.22h-8.72v-1.22h5.76v-6.22c0-.87-.19-1.49-.56-1.87-.37-.38-.91-.57-1.6-.57h-3.6v-1.22h3.94c2.24,0,3.36,1.24,3.36,3.72v6.16h1.42Z"/>
        <path class="cls-1" d="m145.58,173.15c.23.32.35.76.35,1.32,0,.81-.22,1.54-.67,2.17-.45.63-1.05,1.12-1.81,1.45l-.38-.88c.55-.24.97-.57,1.27-.98s.46-.89.47-1.44c-.04.01-.11.02-.2.02-.32,0-.59-.1-.8-.29-.21-.19-.32-.46-.32-.79s.11-.58.34-.77c.23-.19.49-.29.8-.29.4,0,.72.16.95.48Z"/>
        <path class="cls-1" d="m148.53,166.01l-.26-2.34h1.52l.28,2.34v2.98l-.02,1.26-1.52.32v-4.56Z"/>
        <path class="cls-1" d="m161.34,173.47c-.79,1.01-1.93,1.52-3.41,1.52-.51,0-1.05-.06-1.64-.18l.16-1.22c.44.11.89.16,1.36.16,1.11,0,1.92-.38,2.45-1.15.53-.77.79-1.91.79-3.43,0-2.91-.95-4.36-2.86-4.36-.72,0-1.3.21-1.74.62s-.74.95-.9,1.62l-1.42,7.72h-1.54l1.48-7.78-1.54-3.32h1.6l1,2.4c.27-.84.69-1.47,1.28-1.89.59-.42,1.25-.63,2-.63,1.27,0,2.27.44,3.01,1.31.74.87,1.11,2.29,1.11,4.25s-.4,3.35-1.19,4.36Z"/>
        <path class="cls-1" d="m165.11,166.01l-.26-2.34h1.52l.28,2.34v8.76h-1.54v-8.76Z"/>
        <path class="cls-1" d="m169.01,163.67h1.54l1.16,9.88c1.55-.16,2.78-.67,3.71-1.52.93-.85,1.36-2.15,1.29-3.9v-.5c0-.83-.21-1.49-.64-2s-1.07-.79-1.92-.84l-1-.06.1-1.24,1.12.08c1.17.07,2.1.42,2.77,1.06.67.64,1.03,1.57,1.07,2.8l.02.56c.08,2.29-.6,4-2.04,5.12s-3.39,1.74-5.84,1.86l-1.34-11.3Z"/>
        <path class="cls-1" d="m187.91,174.77l-4.54-6.82-2.14,6.82h-1.48l2.18-6.88.54-1.32-1.84-2.9h1.58l1.78,2.8,1.88,2.78.46-1.66,1.2-3.92h1.5l-2.26,6.94,2.82,4.16h-1.68Z"/>
        <path class="cls-1" d="m191.03,177.85c.76-1.25,1.34-2.62,1.73-4.1.39-1.48.59-2.99.59-4.54s-.2-3.06-.59-4.54c-.39-1.48-.97-2.85-1.73-4.1l.9-.44c.87,1.41,1.52,2.86,1.97,4.33.45,1.47.67,3.06.67,4.75s-.22,3.28-.67,4.75c-.45,1.47-1.1,2.92-1.97,4.33l-.9-.44Z"/>
      </g>
      <g>
        <path class="cls-1" d="m410.97,426.8v7.38h-8.74v-11.1h5.38c2.24,0,3.36,1.24,3.36,3.72Zm-1.54,6.16v-6.22c0-.87-.19-1.49-.56-1.87-.37-.38-.91-.57-1.6-.57h-3.5v8.66h5.66Z"/>
        <path class="cls-1" d="m420.93,423.08v1.3l-3.86,9.8h-1.54l3.86-9.88h-6.2v-4.46h1.42v3.24h6.32Z"/>
        <path class="cls-1" d="m423.41,425.42l-.26-2.34h1.52l.28,2.34v8.76h-1.54v-8.76Z"/>
        <path class="cls-1" d="m435.89,423.08c0,2.75-.1,4.79-.31,6.14-.21,1.35-.69,2.41-1.46,3.2-.77.79-2,1.35-3.69,1.68l-3.36.66-.22-1.24,3.54-.68-2.58-9.76h1.54l2.44,9.36c.83-.33,1.42-.85,1.78-1.55.36-.7.58-1.59.66-2.68s.13-2.8.14-5.13h1.52Z"/>
        <path class="cls-1" d="m446.69,432.96v1.22h-8.72v-1.22h5.76v-6.22c0-.87-.19-1.49-.56-1.87-.37-.38-.91-.57-1.6-.57h-3.6v-1.22h3.94c2.24,0,3.36,1.24,3.36,3.72v6.16h1.42Z"/>
        <path class="cls-1" d="m452.67,428.78l.22-1.34h1.32v6.74h-1.54v-5.4Zm6.86-2.04c0-.87-.19-1.49-.56-1.87-.37-.38-.91-.57-1.6-.57h-4.68v-1.22h5.02c2.24,0,3.36,1.24,3.36,3.72v7.38h-1.54v-7.44Z"/>
        <path class="cls-1" d="m463.59,428.78l.22-1.34h1.32v6.74h-1.54v-5.4Zm6.86-2.04c0-.87-.19-1.49-.56-1.87-.37-.38-.91-.57-1.6-.57h-4.68v-1.22h5.02c2.24,0,3.36,1.24,3.36,3.72v7.38h-1.54v-7.44Z"/>
        <path class="cls-1" d="m474.87,425.42l-.26-2.34h1.52l.28,2.34v8.76h-1.54v-8.76Z"/>
        <path class="cls-1" d="m480.33,426.64c0-1,.19-1.78.56-2.34h-2v-1.22h5.02v1.22h-1.58c-.31.52-.46,1.3-.46,2.34v7.54h-1.54v-7.54Z"/>
        <path class="cls-1" d="m494.9,432.88c-.79,1.01-1.93,1.52-3.41,1.52-.51,0-1.05-.06-1.64-.18l.16-1.22c.44.11.89.16,1.36.16,1.11,0,1.92-.38,2.45-1.15.53-.77.79-1.91.79-3.43,0-2.91-.95-4.36-2.86-4.36-.72,0-1.3.21-1.74.62-.44.41-.74.95-.9,1.62l-1.42,7.72h-1.54l1.48-7.78-1.54-3.32h1.6l1,2.4c.27-.84.69-1.47,1.28-1.89s1.25-.63,2-.63c1.27,0,2.27.44,3.01,1.31.74.87,1.11,2.29,1.11,4.25s-.4,3.35-1.19,4.36Z"/>
        <path class="cls-1" d="m498.31,428.78l.22-1.34h1.32v6.74h-1.54v-5.4Zm6.86-2.04c0-.87-.19-1.49-.56-1.87-.37-.38-.91-.57-1.6-.57h-4.68v-1.22h5.02c2.24,0,3.36,1.24,3.36,3.72v7.38h-1.54v-7.44Z"/>
        <path class="cls-1" d="m521.59,423.08c0,2.75-.1,4.79-.31,6.14-.21,1.35-.69,2.41-1.46,3.2-.77.79-2,1.35-3.69,1.68l-3.36.66-.22-1.24,3.54-.68-2.58-9.76h1.54l2.44,9.36c.83-.33,1.42-.85,1.78-1.55.36-.7.58-1.59.66-2.68s.13-2.8.14-5.13h1.52Z"/>
        <path class="cls-1" d="m532.39,432.96v1.22h-8.72v-1.22h5.76v-6.22c0-.87-.19-1.49-.56-1.87-.37-.38-.91-.57-1.6-.57h-3.6v-1.22h3.94c2.24,0,3.36,1.24,3.36,3.72v6.16h1.42Z"/>
        <path class="cls-1" d="m542.55,434.18h-8.6v-1.22h6.3l-5.9-9.88h1.6l2.84,4.78,2.04-4.78h1.56l-2.76,6.18,2.92,4.92Z"/>
        <path class="cls-1" d="m544.71,428.78l.22-1.34h1.32v6.74h-1.54v-5.4Zm6.86-2.04c0-.87-.19-1.49-.56-1.87-.37-.38-.91-.57-1.6-.57h-4.68v-1.22h5.02c2.24,0,3.36,1.24,3.36,3.72v7.38h-1.54v-7.44Z"/>
        <path class="cls-1" d="m437.79,455.78l2.12,6.4h-1.52l-4.98-15.1h1.5l2.24,6.78,2.72-6.78h1.46l-3.54,8.7Z"/>
        <path class="cls-1" d="m443.37,449.42l-.26-2.34h1.52l.28,2.34v8.76h-1.54v-8.76Z"/>
        <path class="cls-1" d="m454.89,447.08v1.3l-3.86,9.8h-1.54l3.86-9.88h-6.2v-4.46h1.42v3.24h6.32Z"/>
        <path class="cls-1" d="m457.37,449.42l-.26-2.34h1.52l.28,2.34v2.98l-.02,1.26-1.52.32v-4.56Z"/>
        <path class="cls-1" d="m469.31,448.09c.59.67.88,1.67.88,2.99v7.1h-1.54v-7.16c0-.89-.18-1.57-.55-2.03-.37-.46-.9-.69-1.61-.69h-3.4v9.88h-1.54v-11.1h5.28c1.07,0,1.89.34,2.48,1.01Z"/>
        <path class="cls-1" d="m472.75,452.78l.22-1.34h1.32v6.74h-1.54v-5.4Zm6.86-2.04c0-.87-.19-1.49-.56-1.87-.37-.38-.91-.57-1.6-.57h-4.68v-1.22h5.02c2.24,0,3.36,1.24,3.36,3.72v7.38h-1.54v-7.44Z"/>
        <path class="cls-1" d="m486.91,457.36c.79-.07,1.33-.29,1.63-.67s.45-.96.45-1.73v-7.88h4.9c2.24,0,3.36,1.24,3.36,3.72v7.38h-1.54v-7.44c0-.87-.19-1.49-.56-1.87-.37-.38-.91-.57-1.6-.57h-3.02v6.5c0,1.17-.27,2.05-.82,2.63s-1.43.92-2.64,1.03l-.16-1.1Z"/>
        <path class="cls-1" d="m500.13,449.42l-.26-2.34h1.52l.28,2.34v8.76h-1.54v-8.76Z"/>
        <path class="cls-1" d="m512.07,448.09c.59.67.88,1.67.88,2.99v7.1h-1.54v-7.16c0-.89-.18-1.57-.55-2.03-.37-.46-.9-.69-1.61-.69h-3.4v9.88h-1.54v-11.1h5.28c1.07,0,1.89.34,2.48,1.01Z"/>
        <path class="cls-1" d="m515.87,449.42l-.26-2.34h1.52l.28,2.34v8.76h-1.54v-8.76Z"/>
        <path class="cls-1" d="m519.69,456.96h2.64c1.08,0,1.89-.31,2.44-.94.55-.63.82-1.55.82-2.76v-1.26c0-1.21-.27-2.13-.82-2.76-.55-.63-1.36-.94-2.44-.94h-2.64v-1.22h2.94c1.44,0,2.55.43,3.33,1.28.78.85,1.17,2.09,1.17,3.7v1.14c0,1.61-.39,2.85-1.17,3.7-.78.85-1.89,1.28-3.33,1.28h-2.94v-1.22Z"/>
        <path class="cls-1" d="m542.45,450.8v7.38h-8.74v-11.1h5.38c2.24,0,3.36,1.24,3.36,3.72Zm-1.54,6.16v-6.22c0-.87-.19-1.49-.56-1.87-.37-.38-.91-.57-1.6-.57h-3.5v8.66h5.66Z"/>
        <path class="cls-1" d="m553.37,447.08c0,2.75-.1,4.79-.31,6.14s-.69,2.41-1.46,3.2-2,1.35-3.69,1.68l-3.36.66-.22-1.24,3.54-.68-2.58-9.76h1.54l2.44,9.36c.83-.33,1.42-.85,1.78-1.55s.58-1.59.66-2.68.13-2.8.14-5.13h1.52Z"/>
        <path class="cls-1" d="m416.61,481.36c.79-.07,1.33-.29,1.63-.67s.45-.96.45-1.73v-7.88h4.9c2.24,0,3.36,1.24,3.36,3.72v7.38h-1.54v-7.44c0-.87-.19-1.49-.56-1.87-.37-.38-.91-.57-1.6-.57h-3.02v6.5c0,1.17-.27,2.05-.82,2.63s-1.43.92-2.64,1.03l-.16-1.1Z"/>
        <path class="cls-1" d="m437.09,482.18l-4.54-6.82-2.14,6.82h-1.48l2.18-6.88.54-1.32-1.84-2.9h1.58l1.78,2.8,1.88,2.78.46-1.66,1.2-3.92h1.5l-2.26,6.94,2.82,4.16h-1.68Z"/>
        <path class="cls-1" d="m452.07,471.08v1.3l-3.86,9.8h-1.54l3.86-9.88h-6.2v-4.46h1.42v3.24h6.32Z"/>
        <path class="cls-1" d="m462.88,480.88c-.79,1.01-1.93,1.52-3.41,1.52-.51,0-1.05-.06-1.64-.18l.16-1.22c.44.11.89.16,1.36.16,1.11,0,1.92-.38,2.45-1.15s.79-1.91.79-3.43c0-2.91-.95-4.36-2.86-4.36-.72,0-1.3.21-1.74.62-.44.41-.74.95-.9,1.62l-1.42,7.72h-1.54l1.48-7.78-1.54-3.32h1.6l1,2.4c.27-.84.69-1.47,1.28-1.89.59-.42,1.25-.63,2-.63,1.27,0,2.27.44,3.01,1.31.74.87,1.11,2.29,1.11,4.25s-.4,3.35-1.19,4.36Z"/>
        <path class="cls-1" d="m467.43,482.38l-1.22-10.08-.14-1.22h5.46c1.17,0,2.09.36,2.75,1.09s1.01,1.72,1.05,2.97l.02.62c.13,4.17-2.51,6.38-7.92,6.62Zm5.12-2.8c.92-.77,1.34-2.06,1.26-3.86v-.48c0-.87-.21-1.57-.63-2.12s-1.01-.82-1.77-.82h-3.66l1.04,8.66c1.59-.15,2.84-.61,3.76-1.38Z"/>
        <path class="cls-1" d="m486.28,480.88c-.79,1.01-1.93,1.52-3.41,1.52-.51,0-1.05-.06-1.64-.18l.16-1.22c.44.11.89.16,1.36.16,1.11,0,1.92-.38,2.45-1.15s.79-1.91.79-3.43c0-2.91-.95-4.36-2.86-4.36-.72,0-1.3.21-1.74.62-.44.41-.74.95-.9,1.62l-1.42,7.72h-1.54l1.48-7.78-1.54-3.32h1.6l1,2.4c.27-.84.69-1.47,1.28-1.89.59-.42,1.25-.63,2-.63,1.27,0,2.27.44,3.01,1.31.74.87,1.11,2.29,1.11,4.25s-.4,3.35-1.19,4.36Z"/>
        <path class="cls-1" d="m494.13,482.09c-.21-.22-.32-.5-.32-.83s.11-.63.32-.85c.21-.22.47-.33.78-.33s.57.11.78.33c.21.22.32.5.32.85s-.11.61-.32.83c-.21.22-.47.33-.78.33s-.57-.11-.78-.33Z"/>
        <path class="cls-1" d="m498.53,476.78l.22-1.34h1.32v6.74h-1.54v-5.4Zm6.86-2.04c0-.87-.19-1.49-.56-1.87-.37-.38-.91-.57-1.6-.57h-4.68v-1.22h5.02c2.24,0,3.36,1.24,3.36,3.72v7.38h-1.54v-7.44Z"/>
        <path class="cls-1" d="m516.85,471.08v1.3l-3.86,9.8h-1.54l3.86-9.88h-6.2v-4.46h1.42v3.24h6.32Z"/>
        <path class="cls-1" d="m527.15,482.18h-8.6v-1.22h6.3l-5.9-9.88h1.6l2.84,4.78,2.04-4.78h1.56l-2.76,6.18,2.92,4.92Z"/>
        <path class="cls-1" d="m529.31,476.78l.22-1.34h1.32v6.74h-1.54v-5.4Zm6.86-2.04c0-.87-.19-1.49-.56-1.87-.37-.38-.91-.57-1.6-.57h-4.68v-1.22h5.02c2.24,0,3.36,1.24,3.36,3.72v7.38h-1.54v-7.44Z"/>
        <path class="cls-1" d="m540.23,476.78l.22-1.34h1.32v6.74h-1.54v-5.4Zm6.86-2.04c0-.87-.19-1.49-.56-1.87-.37-.38-.91-.57-1.6-.57h-4.68v-1.22h5.02c2.24,0,3.36,1.24,3.36,3.72v7.38h-1.54v-7.44Z"/>
        <path class="cls-1" d="m551.51,473.42l-.26-2.34h1.52l.28,2.34v8.76h-1.54v-8.76Z"/>
        <path class="cls-1" d="m431.47,500.78l.22-1.34h1.32v6.74h-1.54v-5.4Zm6.86-2.04c0-.87-.19-1.49-.56-1.87-.37-.38-.91-.57-1.6-.57h-4.68v-1.22h5.02c2.24,0,3.36,1.24,3.36,3.72v7.38h-1.54v-7.44Z"/>
        <path class="cls-1" d="m450.93,504.96v1.22h-8.72v-1.22h5.76v-6.22c0-.87-.19-1.49-.56-1.87-.37-.38-.91-.57-1.6-.57h-3.6v-1.22h3.94c2.24,0,3.36,1.24,3.36,3.72v6.16h1.42Z"/>
        <path class="cls-1" d="m453.27,497.42l-.26-2.34h1.52l.28,2.34v2.98l-.02,1.26-1.52.32v-4.56Z"/>
        <path class="cls-1" d="m457.17,495.08h1.54l1.16,9.88c1.55-.16,2.78-.67,3.71-1.52.93-.85,1.36-2.15,1.29-3.9v-.5c0-.83-.21-1.49-.64-2s-1.07-.79-1.92-.84l-1-.06.1-1.24,1.12.08c1.17.07,2.1.42,2.77,1.06.67.64,1.03,1.57,1.07,2.8l.02.56c.08,2.29-.6,4-2.04,5.12-1.44,1.12-3.39,1.74-5.84,1.86l-1.34-11.3Z"/>
        <path class="cls-1" d="m476.27,496.09c.59.67.88,1.67.88,2.99v7.1h-1.54v-7.16c0-.89-.18-1.57-.55-2.03-.37-.46-.9-.69-1.61-.69h-3.4v9.88h-1.54v-11.1h5.28c1.07,0,1.89.34,2.48,1.01Z"/>
        <path class="cls-1" d="m479.71,500.78l.22-1.34h1.32v6.74h-1.54v-5.4Zm6.86-2.04c0-.87-.19-1.49-.56-1.87-.37-.38-.91-.57-1.6-.57h-4.68v-1.22h5.02c2.24,0,3.36,1.24,3.36,3.72v7.38h-1.54v-7.44Z"/>
        <path class="cls-1" d="m493.87,505.36c.79-.07,1.33-.29,1.63-.67s.45-.96.45-1.73v-7.88h4.9c2.24,0,3.36,1.24,3.36,3.72v7.38h-1.54v-7.44c0-.87-.19-1.49-.56-1.87-.37-.38-.91-.57-1.6-.57h-3.02v6.5c0,1.17-.27,2.05-.82,2.63s-1.43.92-2.64,1.03l-.16-1.1Z"/>
        <path class="cls-1" d="m507.09,497.42l-.26-2.34h1.52l.28,2.34v8.76h-1.54v-8.76Z"/>
        <path class="cls-1" d="m511.57,497.42l-.26-2.34h1.52l.28,2.34v2.98l-.02,1.26-1.52.32v-4.56Z"/>
        <path class="cls-1" d="m523.51,496.09c.59.67.88,1.67.88,2.99v7.1h-1.54v-7.16c0-.89-.18-1.57-.55-2.03-.37-.46-.9-.69-1.61-.69h-3.4v9.88h-1.54v-11.1h5.28c1.07,0,1.89.34,2.48,1.01Z"/>
        <path class="cls-1" d="m535.64,504.88c-.79,1.01-1.93,1.52-3.41,1.52-.51,0-1.05-.06-1.64-.18l.16-1.22c.44.11.89.16,1.36.16,1.11,0,1.92-.38,2.45-1.15s.79-1.91.79-3.43c0-2.91-.95-4.36-2.86-4.36-.72,0-1.3.21-1.74.62-.44.41-.74.95-.9,1.62l-1.42,7.72h-1.54l1.48-7.78-1.54-3.32h1.6l1,2.4c.27-.84.69-1.47,1.28-1.89.59-.42,1.25-.63,2-.63,1.27,0,2.27.44,3.01,1.31.74.87,1.11,2.29,1.11,4.25s-.4,3.35-1.19,4.36Z"/>
        <path class="cls-1" d="m539.41,497.42l-.26-2.34h1.52l.28,2.34v8.76h-1.54v-8.76Z"/>
        <path class="cls-1" d="m552.22,504.88c-.79,1.01-1.93,1.52-3.41,1.52-.51,0-1.05-.06-1.64-.18l.16-1.22c.44.11.89.16,1.36.16,1.11,0,1.92-.38,2.45-1.15s.79-1.91.79-3.43c0-2.91-.95-4.36-2.86-4.36-.72,0-1.3.21-1.74.62-.44.41-.74.95-.9,1.62l-1.42,7.72h-1.54l1.48-7.78-1.54-3.32h1.6l1,2.4c.27-.84.69-1.47,1.28-1.89.59-.42,1.25-.63,2-.63,1.27,0,2.27.44,3.01,1.31.74.87,1.11,2.29,1.11,4.25s-.4,3.35-1.19,4.36Z"/>
        <path class="cls-1" d="m510.15,527.78l2.12,6.4h-1.52l-4.98-15.1h1.5l2.24,6.78,2.72-6.78h1.46l-3.54,8.7Z"/>
        <path class="cls-1" d="m515.73,521.42l-.26-2.34h1.52l.28,2.34v8.76h-1.54v-8.76Z"/>
        <path class="cls-1" d="m527.25,519.08v1.3l-3.86,9.8h-1.54l3.86-9.88h-6.2v-4.46h1.42v3.24h6.32Z"/>
        <path class="cls-1" d="m529.73,521.42l-.26-2.34h1.52l.28,2.34v2.98l-.02,1.26-1.52.32v-4.56Z"/>
        <path class="cls-1" d="m541.67,520.09c.59.67.88,1.67.88,2.99v7.1h-1.54v-7.16c0-.89-.18-1.57-.55-2.03-.37-.46-.9-.69-1.61-.69h-3.4v9.88h-1.54v-11.1h5.28c1.07,0,1.89.34,2.48,1.01Z"/>
        <path class="cls-1" d="m553.65,528.96v1.22h-8.72v-1.22h5.76v-6.22c0-.87-.19-1.49-.56-1.87-.37-.38-.91-.57-1.6-.57h-3.6v-1.22h3.94c2.24,0,3.36,1.24,3.36,3.72v6.16h1.42Z"/>
      </g>
    </g>
  </g>
</svg>