<?xml version="1.0" encoding="UTF-8"?>
<svg id="Layer_2" data-name="Layer 2" xmlns="http://www.w3.org/2000/svg" viewBox="0 0 1264.76 1012.45">
  <defs>
    <style>
      .cls-1 {
        fill: #707070;
      }

      .cls-1, .cls-2, .cls-3, .cls-4, .cls-5, .cls-6, .cls-7, .cls-8, .cls-9, .cls-10, .cls-11, .cls-12, .cls-13, .cls-14, .cls-15, .cls-16, .cls-17, .cls-18, .cls-19, .cls-20, .cls-21, .cls-22, .cls-23, .cls-24, .cls-25, .cls-26, .cls-27, .cls-28, .cls-29, .cls-30, .cls-31, .cls-32, .cls-33, .cls-34, .cls-35, .cls-36, .cls-37 {
        stroke-width: 0px;
      }

      .cls-2 {
        fill: #fefefe;
      }

      .cls-3 {
        fill: #cdcdcd;
      }

      .cls-4 {
        fill: #3f3f3f;
      }

      .cls-5 {
        fill: #dcdcdc;
      }

      .cls-6 {
        fill: #1b1b1b;
      }

      .cls-7 {
        fill: #414141;
      }

      .cls-8 {
        fill: #0e0e0e;
      }

      .cls-9 {
        fill: #747474;
      }

      .cls-10 {
        fill: #222;
      }

      .cls-11 {
        fill: #474747;
      }

      .cls-12 {
        fill: #060606;
      }

      .cls-13 {
        fill: #121212;
      }

      .cls-14 {
        fill: #e1e1e1;
      }

      .cls-15 {
        fill: #f7f7f7;
      }

      .cls-16 {
        fill: #0f0f0f;
      }

      .cls-17 {
        fill: #bbb;
      }

      .cls-18 {
        fill: #686868;
      }

      .cls-19 {
        fill: #646464;
      }

      .cls-20 {
        fill: #161616;
      }

      .cls-21 {
        fill: #bfbfbf;
      }

      .cls-22 {
        fill: #f6f6f6;
      }

      .cls-23 {
        fill: #ededed;
      }

      .cls-24 {
        fill: #5f5f5f;
      }

      .cls-25 {
        fill: #bcbcbc;
      }

      .cls-26 {
        fill: #1f1f1f;
      }

      .cls-27 {
        fill: #464646;
      }

      .cls-28 {
        fill: #a5a5a5;
      }

      .cls-29 {
        fill: #101010;
      }

      .cls-30 {
        fill: #616161;
      }

      .cls-31 {
        fill: #838383;
      }

      .cls-32 {
        fill: #ebebeb;
      }

      .cls-38 {
        font-family: Assistant-Bold, Assistant;
        font-size: 140px;
        font-weight: 700;
      }

      .cls-33 {
        fill: #1c1c1c;
      }

      .cls-34 {
        fill: #1e1e1e;
      }

      .cls-35 {
        fill: #212121;
      }

      .cls-36 {
        fill: #eaeaea;
      }

      .cls-37 {
        fill: #5b5b5b;
      }
    </style>
  </defs>
  <g id="Layer_1-2" data-name="Layer 1">
    <g>
      <g>
        <path class="cls-33" d="m616.36,398.5c-24.92-8.57-49.99-16.74-74.71-25.86-13.01-4.8-17.2-2.18-19.25,12.33-3.83,27.06,4.09,43.68,32.24,49.04,10.94,2.08,19.97,5.91,20.87,20.84,2.41,39.74,6.83,79.36,10.24,119.05.6,6.94-1.09,13.29-9.51,16.7-8.04-12.73-5.53-27.8-9.44-41.31-9.72-33.6-23.68-64.53-56.11-81.76-13.26-7.05-12.64-17.08-11.46-27.75,1.76-15.92-5.94-23.51-18.64-32.15-42.87-29.15-93.45-28.99-141.01-40.31-17.97-6.72-36.37-4.9-55.12-4.51-39.45.82-41.31,3.71-48.59-27.89-.56-8.8-1.21-17.57-4.13-26-3.31-14.44.25-29.62-4.99-43.84-1.83-8.05-1.86-16.24-1.97-24.41-.26-11.75,1.1-23.6-2.1-35.18-.4-6.7-2.19-15.08,6.45-17.02,8.42-1.9,14.13,5.15,18.86,11.1,28.06,35.34,63.83,61.16,102.65,83.15,25.97,14.71,55.77,21.35,80.95,37.76,1.21,10.09,9.4,13.2,16.99,16.68,7.05-4.42-4.26-12.67,3.5-16.84,15.57,8.32,23.9,26.27,43.85,32.66,2.76-31.01-1.68-61.72,8.69-90.91,4.06-11.43-6.79-10.92-13.59-13.42-26.21-9.63-51.9-20.22-76.18-43.16,26.08-2.09,45.48,6.19,65.12,11.78,13.28,3.78,24.72,3.92,35.94-5.38,34.15-28.29,33.55-104.39-1.55-130.57-24.55-18.31-50.84-24.2-78.72-7.7-26.81,15.86-32.11,42.22-32.9,70.46-.26,9.22,5.64,18.08,1.16,28.6-14.86-2.63-16.26-15.4-19.26-26.14-17.07-61.11,15.2-127.96,71.37-142.6,59.74-15.56,124.87,15.75,149.54,82.26,10.2,27.5,10.9,53.66,4.48,111.37,23.56-6.45,13.88-25.41,15.87-39.49,2.07-14.66-4.88-30.73,8.19-46.19,20.54,26-6.35,62.83,22.28,85.14-1.54-21.54-3.1-42.81-2.91-64.18.72-78.21,62.74-137.38,140.88-131.93,39.45,2.75,65.23,27.98,82.68,60.93,18.14,34.25,10.94,90.59-15.5,117.81,1.2-15.21,2.76-27.01,2.94-38.82.71-48.02-30.02-80.24-72.43-76.46-42.48,3.79-71.86,43.58-64.65,88.15,1.9,11.74,4.29,23.57,8.12,34.79,9.44,27.66,27.34,36.04,55.34,28.6,18.53-4.92,36.84-12.01,61.96-10.89-20.47,21.34-42.38,32.85-65.46,39.21-21.43,5.9-29.17,15.04-21.49,35.92,4,26.33.73,52.95,3.23,79.35-3.46,13.7-4.64,27.98-10.13,41.22-1.42,2.13-3.38,3.44-5.88,3.96-11.35-6.48-1.04-18.88-7.35-26.73-3.51-3.27-7.02-6.54-10.53-9.81-1.51-.87-1.96-2.08-1.35-3.62-2.18.42-1.85.68.16,2.02,2.82,1.89-1.07-.77,1.46,1.53-27.85,12.74-56.66,22.8-86.2,30.83-11.09,10.85-22,6.28-32.88-.38Z"/>
        <path class="cls-33" d="m241.84,336.32c1.6,17.01,10.18,26.5,27.82,22.07,18.18-4.57,36.79,1.19,55.04-4.32,7.66-2.31,17.21.69,14.87,13.26-33.86.29-68.01-6.57-101.46,3.59-7.83,2.38-10.45-2.65-13.99-7.55-43.98-60.75-98.98-102.51-178.01-103.36-17.84-.19-11.24-14.8-10.57-22.8,4.96-59.06-1.13-117.04-15.68-174.19C14.9,43.55,7.61,24.67,0,1.23c18.26,16.69,36.16,27.53,42,48.93.82.66,1.64,1.33,2.47,1.99,1.48,1.51,2.89,3.08,4.3,4.66,4.04,5.32,10.36,7.2,15.84,10.35,5.92,3.46,11.61,7.25,17.45,10.83,33.57,25.14,72.3,42.39,105.19,68.55,5.66,22.98-13.84,27.04-25.53,35.72,9.74-3.48,18.39-14.07,31.66-12.46,6.06,1.15,9,9.3,16.54,7.33,5.79,3.88,6.02,9.47,4.97,15.47-.66,2.35-1.7,4.56-3.13,6.54-1.42,1.95-2.24,4.18-3.36,6.27,2.59-.45,4.18-4.43,7.68-2.07,15.69,20.08,6.19,45.6,14.88,67.11.3,2.46.35,4.95.16,7.43-.79,5.69-3.23,10.8-5.74,15.92-1,2.05-1.39,4.41-3.54,5.73,3.4-.19,3.69-5.19,7.48-4.8,8.72,4.06,2.8,12.85,6.09,18.66,2.46,7.56.27,16.42,6.44,22.94Z"/>
        <path class="cls-33" d="m1053.59,348.34c-6.45,19-18.15,22.23-38.49,20.16-70.08-7.14-138.69,2.48-204.97,27.01-7.73,2.86-15.55,5.48-23.33,8.21-6.06,3.62-12.49,1.97-18.87,1.37-2.05-1.05-3.54-2.64-4.58-4.68-1.45-14.61,10.97-21.67,17.39-32.01,3.32-4.87,5.98-10.28,11.16-13.63,26.31-30.61,62.13-44.81,98.3-59.94,45.62-19.09,86.14-46.92,119.9-83.78,6.63-7.23,12.78-16.55,25.15-14.42,5.62,2.74,7.49,7.86,8.69,13.44.82,12.95,2.72,26-3.71,38.21-1.86,2.34-4.3,3.27-7.24,2.8-5.03-6.78-2.58-15.05-3.23-22.71-.46,16.55,3.79,32.21,7.9,47.9,6.32,17.99-3.69,33.44-7.73,49.79.02,5.01-.12,10.07.11,15.12.21-3.79-.11-7.58.02-11.43.73-5.45-2.33-12.37,5.96-14.7,6.43,2.38,7.76,8.97,11.41,13.65,3.28,6.15,10.04,11.25,6.16,19.63Z"/>
        <path class="cls-33" d="m1053.59,348.34c-3.6-5.54-7.2-11.09-10.8-16.63-4.1-9.2-1.56-20.13-7.54-28.85,1.34-6.27-3.89-14.45,5.36-18.41,4.49,1.83,5.9,4.72,3.08,9.04,3.64-2.56,1.49-5.79.57-8.46-1.32-3.86-4.52-6.88-5.73-10.94-.73-2.43-1.12-4.89-1.29-7.42,6.03-13.84,1.47-30.59,11.83-43.22,5.95-.48,6.72,2.68,5.2,7.45,4.25-7.85-4.62-11.9-5.39-18.33-1.9-6.68-1.13-13.28.22-19.93,5.84-28.75,16.3-33.73,41.69-19.49,7.33,4.11,14.36,8.75,22.5,11.15,3.4.99,6.52,2.55,9.3,4.71,4.86,4.67,10.7,7.19,17.47,7.7,23.64,11.07,45.64,24.71,66.58,40.28,10.87,8.08,15.43,5.32,10.43-8.19-.75-11.41-2.91-22.81-1.53-30.33.88,8.19-3.25,20.45,2.97,32.25-14.08,6.19-18.84,4.97-18.05-7.92,1.13-18.37-6.7-39.74,14.33-53.55,4.34-2.85-.66-10.71,2.47-16.34-4.79,4.9-4.05,11.49-7.15,16.44-2.86,4.56-7.76,5.57-10.11,1.18-7.71-14.4-7.75-29,1.83-43,8.61-12.58,10.64-36.03,35.6-21.16-3.67,45.5-9.44,90.91-4.58,136.72.87,8.25,2.13,17.37-11.63,17.19-71.75-.93-122.8,37.75-167.63,88.06Z"/>
        <path class="cls-33" d="m1217.34,229.31c12.56,2.08,6.61,12.87,6.3,24.61-28.54-18.45-57.08-36.89-85.62-55.34-6.67-1.38-12.94-3.7-18.51-7.71-.95-1.03-2.04-1.87-3.27-2.53-3.22-1.16-5.97-3.19-8.79-5-36.07-23.06-36-36.04.23-57.92,28.05-13.04,53.67-30.06,78.51-48.31,6.98-3.59,12.94-8.55,18.53-13.98,4.48-4.72,10.3-7.71,15.25-11.82,4.72-5.11,12.54-8.01,11.86-16.9,9.67-8.45,19.35-16.89,32.95-28.76-10,36.85-18.66,68.78-27.33,100.72-25.28,3.88-39.4,30.17-32.76,63.36,3.84-9.53,7.14-17.71,10.43-25.89,3.54,10.77,17.12,21.1-.57,31.38-8.22,4.78-12.12,49.82-5.59,56.73,2.54,2.69,6.27.56,8.39-2.64Z"/>
        <path class="cls-22" d="m1110.61,127.29q-29.01,26.25,2.59,54.2c1.7,1.51,2.06,4.53,3.04,6.84-12.83,8.43-18.69-5.41-26.88-9.45-28.44-14.02-28.42-14.65-34.15,17.49-1.04,5.8-1.12,11.77-1.65,17.66,2.17,3.27,2.82,6.35-1.11,8.87-3.39,15.72-6.79,31.43-10.18,47.15-13.75-4.2-8.75-13.02-5.32-21.46.49-13.05.98-26.09,1.47-39.14,1.11-5.54,6.23-13.29-6.28-11.28-52.01,59.16-117.36,97.4-190.87,124.02-19.21,6.96-30.37,28.2-49.94,36.59-3.34-.36-5.54-2.14-6.58-5.33,1.46-.46,2.91-.93,4.37-1.39,11.48-13,26.36-23.23,32.83-40.29,6.97-8.63,19.58-7.95,26.81-16.15,10.42-1.83,20.84-3.67,31.26-5.5,4.29-6.41,11.87-8.73,17.24-13.8,16.78-8.23,37.29-11.71,43.08-33.94.37-1.41,2.16-3.13,3.58-3.48,47.77-11.8,69.67-54.19,101.26-85.1.58-.57,1.5-.8,2.26-1.18,5.72-5.45,12.75-8.76,19.79-12.05,6.22-2.23,11.25-6.88,17.7-8.63,6.35-3.39,12.7-6.78,19.05-10.17,2.41,1.6,5.7,2.16,6.63,5.52Z"/>
        <path class="cls-22" d="m195.61,172.43c-19,4.54-33.7,20.87-56.84,21,13.64-19.38,44.53-18.33,46.69-45.84-2.93-5.83.58-8.45,5.25-10.5,17.59,4.67,31.03,13.51,43.54,28.17,33.61,39.38,70.35,76.05,117.12,100.58,8.97,7.45,20.3,11.45,28.76,19.63,24.87,9.78,55.08,8.6,71.94,34.85-1.61,6.97,4.87,9.91,7.34,14.85,2.58,5.16,13.4,9.83,5.33,15.7-6.51,4.74-10.02-5.88-14.95-9.54-8.28-2.13-14.53-6.39-16.23-15.42-42.05-19.17-86.51-33.46-124.45-60.99-26.58-19.29-50.64-41.36-71.09-67.01-9.96-12.49-10.28-5.24-10.81,4.12,4.79,12.14-.93,25.31,3.72,37.46.6,8.16,1.2,16.32,1.8,24.47,1.05,5.23,4.18,11.51-5.68,11.25-4.93-24.47-9.86-48.94-14.79-73.41-4.7-2.11-3.49-5.13-1.28-8.3.53-6.11,1.34-12.29-3.87-17.11-3.95-.97-7.33-3.6-11.5-3.96Z"/>
        <path class="cls-34" d="m641.95,500.8c.1,26.38.26,52.77.3,79.15q.07,46.78,46.29,64.5c-1.79,12.41-9.62,6.51-15.93,5.24-30.88-5.8-28.63-6.1-24.61,24.04,2.75,20.58,23.69,42.87-1.03,63.32,15.31,18.54.29,34.24-4.5,51.04-1.58,5.55-3.16,9.72-9.63,9.18-5.39-.45-6.17-4.64-6.87-9.07-2.59-16.33-27.39-30.25-5.31-49.35.81-.7.84-3.9.04-4.61-25.73-23.06.76-45.25,1.67-67.76.21-5.14,5.72-10.86,1.36-16.22-4.91-6.04-11.42-3.05-18.28-2.73-17.23.81-31.88,13.86-54.91,9.86,27.6-20.15,69.97-13.44,76.59-54.14,5.71-29.29.75-58.9,2.65-88.29.47-7.21-3.8-19.7,12.16-14.17Z"/>
        <path class="cls-26" d="m693.45,586.78c-14.23,4.96-11.34-7.23-10.96-12.75,2.73-39.74,6.41-79.42,9.78-119.11.76-8.96,3.26-15.97,13.57-18.77,12.75-3.46,25.08-8.47,37.6-12.81,4.49-1.79,7.47-6.19,12.42-7.18,8.59-1.05,14.18,3.48,11.71,11.25-3.35,10.52,1.34,20.95-2.01,31.07-35.64,23.91-57.8,57-67.33,98.66-5.44,9.27,1.96,20.6-4.79,29.66Z"/>
        <path class="cls-36" d="m190.71,137.1c-1.75,3.5-3.5,7-5.25,10.5-38.15-18.9-74.55-40.67-108.49-66.42.48-4.15,1.7-7.95,5.1-10.71,34.5,25,76,38.62,108.64,66.63Z"/>
        <path class="cls-33" d="m641.95,500.8c-12.34,2.18-9.96,11.98-9.64,19.89.96,24.25-3.2,48.71,2.66,72.75,1.68,6.89-2.15,8.98-7.82,9.82-.26-31.66-.51-63.32-.77-94.98-6.31-10.01,4.97-23.39-6.24-32.47-5.38-4.41-14.83-7.77-4.17-16.28,9.58-21.97,22.49-18.95,36.87-4.9l-.03-.06c2.1,7.72-1.07,14.02-5.45,19.98-1.8,8.75-3.61,17.5-5.41,26.26Z"/>
        <path class="cls-34" d="m652.84,454.63c-13.03-3.93-26.12-8.25-36.87,4.9,3.76-20.32,11.26-40.61.4-61.03,10.96.13,21.92.26,32.88.38-2.68,18.83-6.07,37.7,3.6,55.74Z"/>
        <path class="cls-32" d="m1110.61,127.29c-2.21-1.84-4.41-3.68-6.62-5.52,27.4-17.18,54.8-34.35,82.2-51.53,4.74,1.65,7.33,4.48,5.37,9.79-19.27,13.13-38.39,26.48-57.89,39.27-6.84,4.48-13.3,11.35-23.06,7.99Z"/>
        <path class="cls-10" d="m789.1,352.06c-3.47,3.62.45,4.82,2.22,6.72-1.73,4.63-3.46,9.26-5.19,13.89-10.58,4.14-19.91,5.75-20.52-10.16.07-27.46.15-54.91.22-82.37,9.82,17.63,5.08,36.83,4.8,55.19-.23,14.93,4.87,19.31,18.48,16.73Z"/>
        <path class="cls-10" d="m765.57,458.47c-1.94-8.46-14.08-14.91-2.72-26.1,5.88-5.79,1.58-12.51-7.49-13.52-.4-1.12-.81-2.23-1.22-3.35.52-5.27,3.92-8.47,8.04-11.16,1.15-.28,2.31-.56,3.47-.83,1.69,0,3.38,0,5.07.01,3.55,4.03,2.16,8.35.74,12.68-6.39,13.48,2.75,29.12-5.9,42.28Z"/>
        <path class="cls-18" d="m380.13,285.48c-11.98-3.05-24.82-4.85-28.77-19.63,14.7-.91,23.42,6.9,28.77,19.63Z"/>
        <path class="cls-17" d="m61.79,71.26c-7.81-3.86-16.59-6.6-19.29-16.43.98-1.16,1.68-2.47,2.09-3.94,0,0,2.03-.98,2.03-.98,8.56,1.4,16.75,3.55,22.45,10.85.6,5.58-2.12,8.88-7.27,10.5Z"/>
        <path class="cls-4" d="m672.61,649.7c5.32-1.73,12.17,1.18,15.93-5.24,3.96.86,8.08,1.3,11.84,2.69,4.15,1.54,11.04,1.89,8.24,9.09-1.85,4.77-6.76,3.64-10.66,2.34-8.49-2.82-16.9-5.9-25.34-8.88Z"/>
        <path class="cls-10" d="m755.36,418.85c-2.8,4.58-7.21,4.94-11.91,4.49.75-15.13,1.5-30.27,2.26-45.4,8.97,6.36.09,19.42,9.63,25.57,4.4,5.1-4.92,10.24.03,15.34h0Z"/>
        <path class="cls-14" d="m1191.56,80.03c-1.79-3.26-3.58-6.52-5.37-9.79,5.72-3.44,11.45-6.87,17.17-10.3,3.66.22,6.07,1.48,4.85,5.77-4.46,6.04-8.45,12.62-16.65,14.32Z"/>
        <path class="cls-2" d="m61.79,71.26c2.42-3.5,4.84-7.01,7.26-10.51,4.35,3.24,8.69,6.48,13.02,9.72.81,4.76-.63,8.45-5.11,10.71-5.06-3.31-10.12-6.61-15.18-9.92Z"/>
        <path class="cls-37" d="m1208.21,65.71c-1.62-1.92-3.23-3.85-4.85-5.77-.16-9.77,7.08-12.38,14.45-14.86,9.49-.66,6.81,5.77,6.37,10.89-5.32,3.25-10.65,6.5-15.97,9.74Z"/>
        <path class="cls-24" d="m897.25,276.32c.34,12.18-9.98,11.09-17.24,13.8-1.54-13.67,9.08-12.2,17.24-13.8Z"/>
        <path class="cls-30" d="m848.75,295.62c-2.3,16.35-18.11,10.37-26.81,16.15,1.81-17.16,16.83-12.5,26.81-16.15Z"/>
        <path class="cls-7" d="m1224.18,55.96c-.91-4.34-1.7-8.75-6.37-10.89,3.27-5.39,7.59-9.4,14.01-10.67,11.04,11.98-4.95,14.42-7.64,21.56Z"/>
        <path class="cls-19" d="m1068.42,142.1c-5.04,7.38-12.61,9.74-20.98,10.51.57-14,12.3-12.51,21.07-15.1,1.32,1.05,1.74,2.08,1.27,3.09-.46,1-.92,1.5-1.37,1.5Z"/>
        <path class="cls-34" d="m620.14,475.81c19.04,7.58,1.77,22.1,6.24,32.47-7.36-9.81-.12-22.42-6.24-32.47Z"/>
        <path class="cls-31" d="m1068.42,142.1c-.15-1.54-.11-3.07.1-4.59,4.14-5.75,8.68-10.34,16.41-5.58-2.48,8.28-9.94,8.5-16.51,10.17Z"/>
        <path class="cls-34" d="m647.36,474.55c-.54-7.3,2.02-13.76,5.45-19.98,8.12,9.36,4.08,15.41-5.45,19.98Z"/>
        <path class="cls-27" d="m693.45,586.78c0-10.14-3.1-20.78,4.79-29.66.88,10.28.74,20.4-4.79,29.66Z"/>
        <path class="cls-6" d="m771.47,416.19c-.25-4.23-.5-8.45-.74-12.68,5.43-5.81,10.7,1.7,16.08.21-1.73,8.3-12.64,5.35-15.33,12.47Z"/>
        <path class="cls-11" d="m42,50.16c-.01-2.64.64-4.87,3.88-4.18.5.11.5,2.56.73,3.93,0,0,.34-.17.34-.17-1.77,1.82-3.58,1.95-5.43.14l.48.29Z"/>
        <path class="cls-6" d="m765.6,362.51c3.95,9.2,11.67,10.82,20.52,10.16-8.12,9.42-18.85,17.11-20.48,30.83,0,0-.02-.02-.02-.02-5.8,3.04-7.43-2.25-10.27-5.12,3.81-11.84.13-25.81,10.24-35.85Z"/>
        <path class="cls-21" d="m227.05,275.21c1.89-3.75,3.79-7.5,5.68-11.25,6.09,15.14,3.77,31.18,5.03,46.84,1.44,5.16-.67,6.57-5.46,5.14-1.66-7.09-3.33-14.19-4.99-21.28-4.86-4.08-3.13-8.99-1.73-13.85.49-1.87.98-3.73,1.47-5.6Z"/>
        <path class="cls-9" d="m232.3,315.94c1.82-1.71,3.64-3.43,5.46-5.14,5.59,7.83,3.35,16.91,4.08,25.52-10.87-3.21-10.59-11.61-9.54-20.38Z"/>
        <path class="cls-23" d="m230.94,239.49c-8.24-11.79-3.53-24.87-3.72-37.46,4.49,12.16,4.19,24.8,3.72,37.46Z"/>
        <path class="cls-29" d="m433.56,325.91c5.41,5.14,10.82,10.28,16.23,15.42-9.97-.36-19.73-.94-16.23-15.42Z"/>
        <path class="cls-20" d="m755.36,398.36c3.42,1.71,6.85,3.41,10.27,5.12-3.43,5.12-6.85,10.24-10.28,15.36-7.96-5.1-1.37-10.22-.03-15.34.01-1.71.02-3.43.03-5.14Z"/>
        <path class="cls-35" d="m735.44,368.06c-7.19-3.07-10.98-7.58-5.57-15.05.86-1.19,4.87-1.9,5.56-1.14,4.86,5.29-2.04,10.74-.26,16.26,0,0,.27-.07.27-.07Z"/>
        <path class="cls-28" d="m111.55,217.98c-1.64-2.16-4.34-5.27-4.12-5.5,2.76-2.79,5.61-5.97,9.12-7.44,3.95-1.65,7.14,1.77,5.36,5.06-1.75,3.22-6.28,4.94-10.35,7.87Z"/>
        <path class="cls-12" d="m195.61,172.43c6.6-6.66,9.5-2.67,11.5,3.96-7.26,8.58-8.57-.02-11.5-3.96Z"/>
        <path class="cls-8" d="m225.58,280.81c.58,4.62,1.15,9.24,1.73,13.85-.93,2.08-1.86,4.15-2.78,6.23-.91-.73-2.58-1.42-2.63-2.21-.36-6.25-1.8-12.81,3.68-17.88Z"/>
        <path class="cls-16" d="m210.98,193.5c.43,2.77.85,5.53,1.28,8.3-.76,3.93-1.51,7.87-3.02,15.73-3.53-10.99-5.46-17.83,1.74-24.03Z"/>
        <path class="cls-15" d="m41.51,49.87c1.81-.04,3.62-.09,5.43-.13-1.48,1.7-2.97,3.39-4.45,5.09-.42-1.63-.74-3.29-.98-4.96Z"/>
        <polygon class="cls-25" points="132.17 195.43 132.59 197.23 131.13 196.96 132.17 195.43"/>
        <path class="cls-3" d="m1036.94,248.59c3.29,6.78-1.68,15.6,5.32,21.46.46,1.85.92,3.7,1.38,5.55,1.86,3.4,2.26,6.62-1.14,9.39-4.48,6.5-4.69,13.82-4.13,21.29,2.02,3.36,2.54,6.55-1.11,9.23-4.53,4.22-5.63,9.59-5.17,15.48-.83,1.07-1.66,2.15-2.49,3.22-.43-1.29-.85-2.57-1.28-3.86,1.11-18.38,2.22-36.75,3.33-55.13-1.62-8.06-4.43-16.22,1.83-23.67,1.2-.93,2.35-1.92,3.46-2.95Z"/>
        <path class="cls-29" d="m1033.48,251.54c-.61,7.89-1.22,15.78-1.83,23.67-8.2-16.63-3.5-33.67-.44-50.74.76,9.02,1.52,18.04,2.28,27.07Z"/>
        <path class="cls-7" d="m1028.32,330.34c1.24.31,2.5.52,3.77.64-.45,7.37,5.56,15.11-2.47,25.51-3.53-10.56-3.31-18.26-1.3-26.15Z"/>
        <path class="cls-35" d="m815.21,365.81c-.58,8.4-4.54,11.95-11.93,13.87.55-8.41,4.54-11.94,11.93-13.87Z"/>
        <path class="cls-13" d="m1037.26,315.5c.37-3.08.74-6.15,1.11-9.23,13.6,6.38,1.57,17.2,4.42,25.44-6.08-3.96-4.44-10.55-5.53-16.21Z"/>
        <path class="cls-1" d="m1032.13,198.17c1.68-3.36,2.92-10.66,6.73-7.9,7.12,5.14,1.85,12.71-.45,19.18-1.96-3.84-.99-9.29-6.28-11.28Z"/>
        <path class="cls-33" d="m1218.28,228.6c-8.78-28.76-8-34.76,7.84-54.24-6.07,21.9-7.64,38.4-7.84,54.24Z"/>
        <path class="cls-29" d="m1042.5,284.98c.38-3.13.76-6.26,1.14-9.39,5.94,6.38,5.27,13.43,1.1,24.38-1.08-7.28-1.66-11.13-2.23-14.99Z"/>
        <path class="cls-16" d="m1052.44,222.9c.37-2.96.74-5.91,1.11-8.87,6.3,5.72,5.21,12.64,2.4,23.93-1.73-7.45-2.62-11.26-3.5-15.06Z"/>
        <path class="cls-5" d="m1119.51,190.86c7.57-.78,14.66-.41,18.51,7.71-11.2,9.44-14.47-.06-18.51-7.71Z"/>
      </g>
      <text class="cls-38" transform="translate(516.7 933.4)"><tspan x="0" y="0">רמון</tspan></text>
    </g>
  </g>
</svg>