<?xml version="1.0" encoding="UTF-8"?>
<svg id="Layer_2" data-name="Layer 2" xmlns="http://www.w3.org/2000/svg" viewBox="0 0 60 60">
  <defs>
    <style>
      .cls-1 {
        stroke-dasharray: 0 0 2 2;
      }

      .cls-1, .cls-2 {
        stroke-miterlimit: 10;
      }

      .cls-1, .cls-2, .cls-3 {
        fill: none;
        stroke: #000;
        stroke-width: 2px;
      }

      .cls-3 {
        stroke-linecap: round;
        stroke-linejoin: round;
      }
    </style>
  </defs>
  <g id="Layer_2-2" data-name="Layer 2">
    <g id="Layer_2-2" data-name="Layer 2-2">
      <rect class="cls-2" x="1" y="1" width="58" height="58" rx="4.65" ry="4.65"/>
      <rect class="cls-1" x="8.44" y="7.68" width="44" height="44"/>
      <circle class="cls-2" cx="29" cy="44" r="3"/>
      <path class="cls-3" d="m26,38h6v-4c1.03-.64,5.33-3.49,6.35-8.68.16-.81.54-2.89-.22-5.38-.31-1.01-1.27-3.99-4.32-5.77-3.94-2.3-8.01-.66-8.34-.52-3.13,1.33-4.49,3.95-4.83,4.65l3.1,3.22c.1-.28.93-2.58,3.35-3.37.36-.12,2.28-.7,4.1.39,1.49.9,1.98,2.36,2.16,2.89.93,2.77-.62,5.33-1.06,5.99-2.08,3.15-5.76,3.53-6.3,3.58v7h.01Z"/>
    </g>
  </g>
</svg>