<?xml version="1.0" encoding="UTF-8"?>
<svg id="Layer_2" data-name="Layer 2" xmlns="http://www.w3.org/2000/svg" viewBox="0 0 69.44 65.95">
  <defs>
    <style>
      .cls-1 {
        fill: none;
        stroke: #000;
        stroke-linecap: round;
        stroke-linejoin: round;
        stroke-width: 2px;
      }
    </style>
  </defs>
  <g id="Layer_2-2" data-name="Layer 2">
    <path class="cls-1" d="m18.67,43.44c1.09,1.52,6.22,8.3,14.96,9.37,9.88,1.2,21.95-5.22,23.59-16.8,1.63-11.47-7.89-21.18-17.99-22.7-9.28-1.4-16.38,4.53-18.57,6.63"/>
    <path class="cls-1" d="m7.5,46.67c3.72-1.08,7.45-2.15,11.17-3.23"/>
    <path class="cls-1" d="m11.43,13.03C18.27,4.49,29.32-.33,40.94,1.32c17.49,2.48,29.67,18.68,27.19,36.18-2.6,18.35-20.43,29.3-36.18,27.19-15.69-2.1-23.58-16.4-24.44-18.02"/>
    <polyline class="cls-1" points="20.27 20.29 26.49 25.21 13.74 30.25 1 35.28 3.04 21.76 5.07 8.25 10.65 12.66 10.95 12.9"/>
  </g>
</svg>