<?xml version="1.0" encoding="UTF-8"?>
<svg id="Layer_2" data-name="Layer 2" xmlns="http://www.w3.org/2000/svg" viewBox="0 0 513.51 189.9">
  <defs>
    <style>
      .cls-1 {
        stroke-width: 0px;
      }

      .cls-2 {
        fill: none;
        stroke: #717c82;
        stroke-miterlimit: 10;
        stroke-width: 2px;
      }
    </style>
  </defs>
  <g id="text">
    <g>
      <circle class="cls-2" cx="236.5" cy="155.54" r="3.14"/>
      <circle class="cls-2" cx="297.09" cy="146.28" r="3.14"/>
      <path class="cls-2" d="m223.14,69.99c0,1.74-1.41,3.14-3.14,3.14s-3.14-1.41-3.14-3.14,1.41-3.14,3.14-3.14,3.14,1.41,3.14,3.14Z"/>
      <circle class="cls-2" cx="160.32" cy="185.76" r="3.14"/>
      <g>
        <path class="cls-2" d="m134.13,142.47c.23.14.45.28.66.43.22.15.44.31.66.46,3.49,2.43,6.23,5.35,7.91,8.68l15.79,31.17"/>
        <path class="cls-2" d="m0,135.52h108.2c10.09,0,19.26,2.66,25.94,6.96.22.14.44.28.66.43.43.29.85.59,1.26.9"/>
      </g>
      <g>
        <path class="cls-2" d="m201.01,30.52c.16.13.31.26.46.4.15.14.3.28.46.42,2.42,2.24,4.32,4.94,5.48,8.01l10.94,28.76"/>
        <path class="cls-2" d="m72.46,24.11c.3,0,.6-.01.9-.01h1.78s107.9,0,107.9,0c6.99,0,13.35,2.45,17.97,6.42.15.13.3.26.46.4.3.27.59.54.87.83"/>
      </g>
      <g>
        <path class="cls-2" d="m236.5,152.61l15.08-78.31c1.61-8.37,4.23-15.72,7.56-21.82.21-.38.42-.77.63-1.14.2-.38.41-.73.63-1.09"/>
        <path class="cls-2" d="m258.56,53.59c.39-.77.79-1.52,1.2-2.25.21-.38.42-.73.63-1.09,6.38-10.81,15.14-17.48,24.77-17.48h148.71s2.45,0,2.45,0c.42,0,.84.02,1.25.04"/>
      </g>
      <g>
        <path class="cls-2" d="m299.65,143.8l15.93-18.5c1.7-1.98,4.46-3.71,7.98-5.16.22-.09.44-.18.66-.27.21-.09.43-.17.66-.26"/>
        <path class="cls-2" d="m322.95,120.41c.41-.18.84-.36,1.27-.53.22-.09.44-.17.66-.26,6.73-2.55,15.98-4.13,26.15-4.13h157.01s2.59,0,2.59,0c.44,0,.89,0,1.32,0"/>
      </g>
      <g>
        <path class="cls-1" d="m425.42,22.2l.42-1.41h2.62v7.14h-3.04v-5.73Zm7.01-2.46c0-1.02-.47-1.53-1.41-1.53h-5.48v-2.27h6.3c1.12,0,2.01.32,2.66.96.65.64.98,1.63.98,2.99v8.04h-3.04v-8.19Z"/>
        <path class="cls-1" d="m367.24,22.2l.42-1.41h2.62v7.14h-3.04v-5.73Zm7.01-2.46c0-1.02-.47-1.53-1.41-1.53h-5.48v-2.27h6.3c1.12,0,2.01.32,2.66.96.65.64.98,1.63.98,2.99v8.04h-3.04v-8.19Z"/>
        <path class="cls-1" d="m327.21,22.18l.42-1.41h2.62v7.14h-3.04v-5.73Zm7.01-2.46c0-1.02-.47-1.53-1.41-1.53h-5.48v-2.27h6.3c1.12,0,2.01.32,2.66.96.65.64.98,1.63.98,2.99v8.04h-3.04v-8.19Z"/>
        <path class="cls-1" d="m421.09,25.93c-1.69,1.46-4.32,2.19-7.88,2.19h-.65l-1.58-12.2h2.88l.61,5.19c.56-.28.94-.7,1.13-1.26.2-.56.29-1.4.27-2.52v-1.39h2.88v1.32c-.03,1.54-.34,2.79-.92,3.75-.59.96-1.62,1.69-3.11,2.19l.29,2.42c2-.13,3.43-.7,4.28-1.73.85-1.03,1.27-2.46,1.26-4.29l-.04-3.68h3.04l.02,3.51c.03,2.87-.81,5.04-2.5,6.5Z"/>
        <path class="cls-1" d="m393.37,25.95c-1.69,1.46-4.32,2.19-7.88,2.19h-.65l-1.58-12.2h2.88l.61,5.19c.56-.28.94-.7,1.13-1.26s.29-1.4.27-2.52v-1.39h2.88v1.32c-.03,1.54-.34,2.79-.92,3.75-.59.96-1.62,1.69-3.11,2.19l.29,2.42c2-.13,3.43-.7,4.28-1.73.85-1.03,1.27-2.46,1.26-4.29l-.04-3.68h3.04l.02,3.51c.03,2.87-.81,5.04-2.5,6.5Z"/>
        <path class="cls-1" d="m408,26.56c-.9,1.11-2.17,1.67-3.81,1.67-.59,0-1.23-.08-1.93-.25l.27-2.27c.52.11.95.17,1.3.17.95,0,1.63-.32,2.04-.96.41-.64.61-1.58.61-2.82,0-1.39-.19-2.39-.58-3.01-.39-.62-.98-.93-1.78-.93-.56,0-1.03.17-1.42.5-.39.34-.63.79-.72,1.37l-1.3,7.94h-3.02l1.45-8.08-1.68-3.91h3.15l.84,2.39c.29-.87.74-1.52,1.32-1.94.59-.43,1.26-.64,2.02-.64,1.5,0,2.64.51,3.42,1.54.78,1.03,1.18,2.58,1.18,4.65,0,1.95-.45,3.48-1.35,4.59Z"/>
        <path class="cls-1" d="m365.34,15.95c-.01,2.79-.12,4.89-.33,6.31-.2,1.42-.74,2.62-1.61,3.59-.87.97-2.27,1.65-4.2,2.03l-4.49.88-.42-2.37,3.34-.63-2.42-9.81h3.02l2.12,9.14c.63-.31,1.08-.78,1.36-1.41.28-.63.45-1.39.51-2.29.06-.9.09-2.25.09-4.07v-1.37h3Z"/>
        <path class="cls-1" d="m348.05,15.95v2.5l-3.78,9.49h-3.02l3.76-9.72h-6.09v-5.33h2.73v3.07h6.41Z"/>
        <path class="cls-1" d="m349.97,18.43l-.25-2.46h3.02l.25,2.46v9.53h-3.02v-9.53Z"/>
      </g>
      <g>
        <path class="cls-1" d="m498.92,100.89l.42-1.41h2.62v7.14h-3.04v-5.73Zm7.01-2.46c0-1.02-.47-1.53-1.41-1.53h-5.48v-2.27h6.3c1.12,0,2.01.32,2.66.96.65.64.98,1.63.98,2.99v8.04h-3.04v-8.19Z"/>
        <path class="cls-1" d="m488.3,104.38h3.36c.81,0,1.41-.27,1.8-.8.38-.53.58-1.25.58-2.14v-1.58c0-.9-.19-1.61-.58-2.14-.39-.53-.98-.8-1.8-.8h-3.36v-2.27h4.18c1.5,0,2.64.48,3.42,1.44.79.96,1.18,2.27,1.18,3.94v1.24c0,1.67-.39,2.98-1.18,3.94-.78.96-1.92,1.44-3.42,1.44h-4.18v-2.27Z"/>
        <path class="cls-1" d="m480.54,104.36h3.07v-6.07c0-.5-.09-.86-.28-1.07-.19-.21-.48-.34-.87-.4l-1.47-.21.38-2.23,2.62.34c.85.11,1.51.48,1.96,1.09s.68,1.41.68,2.39v8.42h-6.09v-2.27Z"/>
        <path class="cls-1" d="m477.48,96.06c.74.95,1.11,2.26,1.11,3.93v10.84h-3.02v-10.98c0-.9-.17-1.61-.52-2.14-.35-.53-.9-.8-1.66-.8h-1.6l-.25,1.41c-.03.31-.04.53-.04.67,0,.42.07.75.22,1,.15.25.41.39.79.43l-.55,1.83c-2.2-.06-3.3-1-3.3-2.83,0-.31.05-.72.15-1.24l.78-3.53h4.62c1.44,0,2.53.48,3.28,1.43Z"/>
      </g>
      <g>
        <path class="cls-1" d="m167.95,12.66l.42-1.41h2.62v7.14h-3.04v-5.73Zm7.01-2.46c0-1.02-.47-1.53-1.41-1.53h-5.48v-2.27h6.3c1.12,0,2.01.32,2.66.96.65.64.98,1.63.98,2.99v8.04h-3.04v-8.19Z"/>
        <path class="cls-1" d="m164.89,7.41c.65.67.98,1.69.98,3.04v7.94h-3.04v-8.08c0-1.09-.47-1.64-1.41-1.64h-2.81v9.72h-3.02V6.4h6.66c1.12,0,2.01.34,2.66,1.01Z"/>
        <path class="cls-1" d="m144.21,16.12v2.27h-9.98v-2.27h5.54v-5.92c0-1.02-.48-1.53-1.43-1.53h-4.12v-2.27h4.96c1.12,0,2,.32,2.65.96.64.64.97,1.63.97,2.99v5.77h1.41Z"/>
        <path class="cls-1" d="m150.3,10.19c0-1.02-.47-1.53-1.41-1.53h-4.09v-2.27h4.91c1.12,0,2.01.32,2.66.96.65.64.98,1.63.98,2.99v8.04h-3.04v-8.19Z"/>
      </g>
      <g>
        <path class="cls-1" d="m98.47,124.17l.42-1.41h2.62v7.14h-3.04v-5.73Zm7.01-2.46c0-1.02-.47-1.53-1.41-1.53h-5.48v-2.27h6.3c1.12,0,2.01.32,2.66.96.65.64.98,1.63.98,2.99v8.04h-3.04v-8.19Z"/>
        <path class="cls-1" d="m95.27,128.5c-.9,1.11-2.17,1.67-3.81,1.67-.59,0-1.23-.08-1.93-.25l.27-2.27c.52.11.95.17,1.3.17.95,0,1.63-.32,2.04-.96s.61-1.58.61-2.82c0-1.39-.19-2.39-.58-3.01-.39-.62-.98-.93-1.78-.93-.56,0-1.03.17-1.42.5-.39.34-.63.79-.72,1.37l-1.3,7.94h-3.02l1.45-8.08-1.68-3.91h3.15l.84,2.39c.29-.87.74-1.52,1.32-1.94s1.26-.64,2.02-.64c1.5,0,2.64.51,3.42,1.54.78,1.03,1.18,2.58,1.18,4.65,0,1.95-.45,3.48-1.35,4.59Z"/>
        <path class="cls-1" d="m80.7,127.91c-1.69,1.46-4.32,2.19-7.88,2.19h-.65l-1.58-12.2h2.88l.61,5.19c.56-.28.94-.7,1.13-1.26.2-.56.29-1.4.27-2.52v-1.39h2.88v1.32c-.03,1.54-.34,2.79-.92,3.75-.59.96-1.62,1.69-3.11,2.19l.29,2.42c2-.13,3.43-.7,4.28-1.73.85-1.03,1.27-2.46,1.26-4.29l-.04-3.67h3.04l.02,3.51c.03,2.87-.81,5.04-2.5,6.5Z"/>
        <path class="cls-1" d="m50.53,127.91c-1.69,1.46-4.32,2.19-7.88,2.19h-.65l-1.58-12.2h2.88l.61,5.19c.56-.28.94-.7,1.13-1.26.2-.56.29-1.4.27-2.52v-1.39h2.88v1.32c-.03,1.54-.34,2.79-.93,3.75-.59.96-1.62,1.69-3.11,2.19l.29,2.42c2-.13,3.43-.7,4.28-1.73.85-1.03,1.27-2.46,1.26-4.29l-.04-3.68h3.04l.02,3.51c.03,2.87-.81,5.04-2.5,6.5Z"/>
        <path class="cls-1" d="m65.61,120.39l-.25-2.46h3.02l.25,2.46v9.53h-3.02v-9.53Z"/>
        <path class="cls-1" d="m63.65,117.91v2.5l-3.78,9.49h-3.02l3.76-9.72h-6.09v-5.33h2.73v3.07h6.41Z"/>
      </g>
      <g>
        <path class="cls-1" d="m101.11,156.81l-1.28-10.58-.15-1.28h5.73c1.23,0,2.19.38,2.89,1.14.69.76,1.06,1.8,1.1,3.12l.02.65c.14,4.38-2.63,6.7-8.32,6.95Zm5.38-2.94c.97-.81,1.41-2.16,1.32-4.05v-.5c0-.91-.22-1.65-.66-2.23-.44-.57-1.06-.86-1.86-.86h-3.84l1.09,9.09c1.67-.15,2.98-.64,3.95-1.45Z"/>
        <path class="cls-1" d="m96.34,155.21c-.83,1.06-2.03,1.6-3.58,1.6-.53,0-1.11-.06-1.72-.19l.17-1.28c.46.11.94.17,1.43.17,1.16,0,2.02-.4,2.57-1.21.55-.8.83-2.01.83-3.6,0-3.05-1-4.58-3-4.58-.76,0-1.37.22-1.83.65s-.78,1-.95,1.7l-1.49,8.11h-1.62l1.55-8.17-1.62-3.49h1.68l1.05,2.52c.28-.88.73-1.54,1.34-1.98.62-.44,1.32-.66,2.1-.66,1.33,0,2.38.46,3.16,1.38.78.92,1.17,2.4,1.17,4.46s-.42,3.51-1.25,4.58Z"/>
        <path class="cls-1" d="m19.5,155.22c-.83,1.06-2.03,1.6-3.58,1.6-.53,0-1.11-.06-1.72-.19l.17-1.28c.46.11.94.17,1.43.17,1.16,0,2.02-.4,2.57-1.21.55-.81.83-2.01.83-3.6,0-3.05-1-4.58-3-4.58-.76,0-1.37.22-1.83.65-.46.43-.78,1-.95,1.7l-1.49,8.11h-1.62l1.55-8.17-1.62-3.49h1.68l1.05,2.52c.28-.88.73-1.54,1.34-1.99.62-.44,1.32-.66,2.1-.66,1.33,0,2.38.46,3.16,1.38.78.92,1.17,2.4,1.17,4.46s-.42,3.51-1.25,4.58Z"/>
        <path class="cls-1" d="m84.98,144.93v1.36l-4.05,10.29h-1.62l4.05-10.37h-6.51v-4.68h1.49v3.4h6.64Z"/>
        <path class="cls-1" d="m47.29,144.94v1.37l-4.05,10.29h-1.62l4.05-10.37h-6.51v-4.68h1.49v3.4h6.64Z"/>
        <path class="cls-1" d="m109.53,170.13v1.37l-4.05,10.29h-1.62l4.05-10.37h-6.51v-4.68h1.49v3.4h6.64Z"/>
        <path class="cls-1" d="m83.02,170.14v1.36l-4.05,10.29h-1.62l4.05-10.37h-6.51v-4.68h1.49v3.4h6.64Z"/>
        <path class="cls-1" d="m27.32,170.14v1.37l-4.05,10.29h-1.62l4.05-10.37h-6.51v-4.68h1.49v3.4h6.64Z"/>
        <path class="cls-1" d="m70.93,155.29v1.28h-9.16v-1.28h6.05v-6.53c0-.91-.2-1.56-.59-1.96-.39-.4-.95-.6-1.68-.6h-3.78v-1.28h4.14c2.35,0,3.53,1.3,3.53,3.91v6.47h1.49Z"/>
        <path class="cls-1" d="m57.64,147.38l-.27-2.46h1.6l.29,2.46v3.13l-.02,1.32-1.6.34v-4.79Z"/>
        <path class="cls-1" d="m6.04,147.39l-.27-2.46h1.6l.29,2.46v3.13l-.02,1.32-1.6.34v-4.79Z"/>
        <path class="cls-1" d="m85.62,172.58l-.27-2.46h1.6l.29,2.46v3.13l-.02,1.32-1.6.34v-4.79Z"/>
        <path class="cls-1" d="m49.27,155.3h3.65v-6.99c0-.69-.14-1.19-.41-1.52-.27-.33-.68-.54-1.23-.62l-1.41-.21.23-1.26,1.83.27c.84.14,1.48.49,1.93,1.04.45.55.67,1.31.67,2.26v8.32h-5.27v-1.28Z"/>
        <path class="cls-1" d="m35.77,156.59l-4.77-7.16-2.25,7.16h-1.55l2.29-7.22.57-1.39-1.93-3.04h1.66l1.87,2.94,1.97,2.92.48-1.74,1.26-4.12h1.57l-2.37,7.29,2.96,4.37h-1.76Z"/>
        <path class="cls-1" d="m23.45,147.4l-.27-2.46h1.6l.29,2.46v9.2h-1.62v-9.2Z"/>
        <path class="cls-1" d="m70.92,172.61l-.27-2.46h1.6l.29,2.46v9.2h-1.62v-9.2Z"/>
        <path class="cls-1" d="m52.23,172.58l-.27-2.46h1.6l.29,2.46v9.2h-1.62v-9.2Z"/>
        <path class="cls-1" d="m98.18,171.2c.62.71.92,1.75.92,3.14v7.46h-1.62v-7.52c0-.94-.19-1.65-.58-2.13-.38-.48-.95-.72-1.69-.72h-3.57v10.37h-1.62v-11.66h5.54c1.12,0,1.99.35,2.6,1.06Z"/>
        <path class="cls-1" d="m65.06,179.28l2.23,6.72h-1.6l-5.23-15.86h1.58l2.35,7.12,2.86-7.12h1.53l-3.72,9.13Z"/>
        <path class="cls-1" d="m40.39,176.12l.23-1.41h1.39v7.08h-1.62v-5.67Zm7.2-2.14c0-.91-.2-1.56-.59-1.96-.39-.4-.95-.6-1.68-.6h-4.91v-1.28h5.27c2.35,0,3.53,1.3,3.53,3.91v7.75h-1.62v-7.81Z"/>
        <path class="cls-1" d="m8.06,176.11l.23-1.41h1.39v7.08h-1.62v-5.67Zm7.2-2.14c0-.91-.2-1.56-.59-1.96-.39-.4-.95-.6-1.68-.6h-4.91v-1.28h5.27c2.35,0,3.53,1.3,3.53,3.91v7.75h-1.62v-7.81Z"/>
        <path class="cls-1" d="m38.13,181.78h-9.03v-1.28h6.61l-6.19-10.37h1.68l2.98,5.02,2.14-5.02h1.64l-2.9,6.49,3.07,5.17Z"/>
      </g>
      <g>
        <path class="cls-1" d="m170.66,44.08l-1.28-10.58-.15-1.28h5.73c1.23,0,2.19.38,2.89,1.14.69.76,1.06,1.8,1.1,3.12l.02.65c.14,4.38-2.63,6.7-8.32,6.95Zm5.38-2.94c.97-.81,1.41-2.16,1.32-4.05v-.5c0-.91-.22-1.65-.66-2.23-.44-.57-1.06-.86-1.86-.86h-3.84l1.09,9.09c1.67-.15,2.98-.64,3.95-1.45Z"/>
        <path class="cls-1" d="m165.9,42.51c-.83,1.06-2.03,1.6-3.58,1.6-.53,0-1.11-.06-1.72-.19l.17-1.28c.46.11.94.17,1.43.17,1.16,0,2.02-.4,2.57-1.21.55-.81.83-2.01.83-3.6,0-3.05-1-4.58-3-4.58-.76,0-1.37.22-1.83.65-.46.43-.78,1-.95,1.7l-1.49,8.11h-1.62l1.55-8.17-1.62-3.49h1.68l1.05,2.52c.28-.88.73-1.54,1.34-1.98s1.32-.66,2.1-.66c1.33,0,2.38.46,3.16,1.38.78.92,1.17,2.4,1.17,4.46s-.42,3.51-1.25,4.58Z"/>
        <path class="cls-1" d="m102.45,42.5c-.83,1.06-2.03,1.6-3.58,1.6-.53,0-1.11-.06-1.72-.19l.17-1.28c.46.11.94.17,1.43.17,1.16,0,2.02-.4,2.57-1.21.55-.81.83-2.01.83-3.6,0-3.05-1-4.58-3-4.58-.76,0-1.37.22-1.83.65-.46.43-.78,1-.95,1.7l-1.49,8.11h-1.62l1.55-8.17-1.62-3.49h1.68l1.05,2.52c.28-.88.73-1.54,1.34-1.98s1.32-.66,2.1-.66c1.33,0,2.38.46,3.16,1.38.78.92,1.17,2.4,1.17,4.46s-.42,3.51-1.25,4.58Z"/>
        <path class="cls-1" d="m154.55,32.2v1.36l-4.05,10.29h-1.62l4.05-10.37h-6.51v-4.68h1.49v3.4h6.64Z"/>
        <path class="cls-1" d="m140.34,32.2v1.36l-4.05,10.29h-1.62l4.05-10.37h-6.51v-4.68h1.49v3.4h6.64Z"/>
        <path class="cls-1" d="m130.33,32.2v1.36l-4.05,10.29h-1.62l4.05-10.37h-6.51v-4.68h1.49v3.4h6.64Z"/>
        <path class="cls-1" d="m118.24,34.67l-.27-2.46h1.6l.29,2.46v9.2h-1.62v-9.2Z"/>
        <path class="cls-1" d="m114.24,33.26c.62.71.92,1.75.92,3.14v7.46h-1.62v-7.52c0-.94-.19-1.65-.58-2.13s-.95-.72-1.69-.72h-3.57v10.37h-1.62v-11.65h5.54c1.12,0,1.99.35,2.6,1.06Z"/>
        <path class="cls-1" d="m81.88,38.2l.23-1.41h1.39v7.08h-1.62v-5.67Zm7.2-2.14c0-.91-.2-1.56-.59-1.96-.39-.4-.95-.6-1.68-.6h-4.91v-1.28h5.27c2.35,0,3.53,1.3,3.53,3.91v7.75h-1.62v-7.81Z"/>
        <path class="cls-1" d="m169.84,63.38l.23-1.41h1.39v7.08h-1.62v-5.67Zm7.2-2.14c0-.91-.2-1.56-.59-1.96-.39-.4-.95-.6-1.68-.6h-4.91v-1.28h5.27c2.35,0,3.53,1.3,3.53,3.91v7.75h-1.62v-7.81Z"/>
        <path class="cls-1" d="m156.34,68.22c.83-.07,1.4-.3,1.71-.7.31-.4.47-1,.47-1.82v-8.27h5.14c2.35,0,3.53,1.3,3.53,3.91v7.75h-1.62v-7.81c0-.91-.2-1.56-.59-1.96-.39-.4-.95-.6-1.68-.6h-3.17v6.83c0,1.23-.29,2.15-.86,2.76-.57.61-1.5.97-2.77,1.08l-.17-1.15Z"/>
        <path class="cls-1" d="m116.07,68.17c.83-.07,1.4-.3,1.71-.7.31-.4.47-1,.47-1.82v-8.27h5.14c2.35,0,3.53,1.3,3.53,3.91v7.75h-1.62v-7.81c0-.91-.2-1.56-.59-1.96-.39-.4-.95-.6-1.68-.6h-3.17v6.83c0,1.23-.29,2.15-.86,2.76-.57.61-1.5.97-2.77,1.08l-.17-1.15Z"/>
        <path class="cls-1" d="m148.99,67.75c.74-.08,1.37-.26,1.87-.53.5-.27.92-.73,1.26-1.39s.55-1.58.63-2.77l.36-4.41h-7.56v-1.28h9.28l-.06,1.15-.34,4.22c-.1,2.03-.61,3.57-1.54,4.62-.93,1.05-2.17,1.6-3.73,1.66l-.17-1.28Zm-3.4-4.68l.23-1.43h1.39v11.59h-1.62v-10.16Z"/>
        <path class="cls-1" d="m134.59,67.78h3.44c1.09,0,1.96-.3,2.61-.91.65-.61.98-1.61.98-3.01v-1.28c0-1.27-.25-2.24-.73-2.9-.49-.66-1.23-.99-2.23-.99h-2.21l-.55,2.33c-.08.39-.13.74-.13,1.05,0,.48.13.85.39,1.11.26.27.69.46,1.29.57l-.34,1.11c-.98-.1-1.69-.37-2.13-.83-.44-.46-.66-1.09-.66-1.9,0-.39.04-.8.13-1.24l.8-3.49h3.68c1.36,0,2.41.45,3.16,1.34.75.9,1.13,2.18,1.14,3.86v1.18c0,1.82-.46,3.15-1.37,4-.91.85-2.1,1.27-3.57,1.27h-3.72v-1.28Z"/>
        <path class="cls-1" d="m129.92,59.86l-.27-2.46h1.6l.29,2.46v3.13l-.02,1.32-1.6.34v-4.79Z"/>
      </g>
      <g>
        <path class="cls-1" d="m428.71,50.82h2.77c1.13,0,1.99-.33,2.56-.99.57-.66.86-1.62.86-2.9v-1.32c0-1.27-.29-2.24-.86-2.9-.57-.66-1.43-.99-2.56-.99h-2.77v-1.28h3.09c1.51,0,2.68.45,3.5,1.34.82.9,1.23,2.19,1.23,3.89v1.2c0,1.69-.41,2.99-1.23,3.88-.82.9-1.98,1.34-3.5,1.34h-3.09v-1.28Z"/>
        <path class="cls-1" d="m424.27,50.09c-1.59,1.46-4,2.2-7.23,2.23l-1.47-11.86h1.55l.71,5.94c.63-.34,1.12-.7,1.47-1.08.35-.38.61-.86.77-1.42s.26-1.28.28-2.16l.02-1.24h1.55l-.02,1.22c-.03,1.54-.34,2.76-.92,3.66s-1.59,1.66-3,2.28l.4,3.23c2.23-.14,3.89-.81,5-2.01,1.11-1.2,1.65-2.99,1.64-5.37l-.02-3.07h1.62l.02,3c.01,2.97-.77,5.18-2.36,6.64Z"/>
        <path class="cls-1" d="m331.63,50.07c-1.59,1.46-4,2.2-7.23,2.23l-1.47-11.86h1.55l.71,5.94c.63-.34,1.12-.7,1.47-1.08.35-.38.61-.86.77-1.42s.26-1.28.28-2.16l.02-1.24h1.55l-.02,1.22c-.03,1.54-.34,2.76-.92,3.66s-1.59,1.66-3,2.28l.4,3.23c2.23-.14,3.89-.81,5-2.01,1.11-1.2,1.65-2.99,1.64-5.37l-.02-3.07h1.62l.02,3c.01,2.97-.77,5.18-2.36,6.64Z"/>
        <path class="cls-1" d="m413.12,44.35v7.75h-9.18v-11.65h5.65c2.35,0,3.53,1.3,3.53,3.91Zm-1.62,6.47v-6.53c0-.91-.2-1.56-.59-1.96s-.95-.6-1.68-.6h-3.67v9.09h5.94Z"/>
        <path class="cls-1" d="m387.95,46.43l.23-1.41h1.39v7.08h-1.62v-5.67Zm7.2-2.14c0-.91-.2-1.56-.59-1.96-.39-.4-.95-.6-1.68-.6h-4.91v-1.28h5.27c2.35,0,3.53,1.3,3.53,3.91v7.75h-1.62v-7.81Z"/>
        <path class="cls-1" d="m384.14,52.1l-.53-2.86c-.41.77-.91,1.41-1.5,1.93-.6.52-1.31.92-2.13,1.22l-.59-1.3c.94-.34,1.73-.78,2.37-1.32.64-.55,1.17-1.25,1.58-2.1v-3.86c0-.7-.09-1.21-.26-1.52s-.51-.51-1-.6l-1.34-.21.23-1.26,1.76.27c.81.13,1.39.44,1.72.94s.5,1.25.5,2.25v4.05l.73,4.37h-1.55Z"/>
        <path class="cls-1" d="m374.24,44.18c0-1.08.19-1.9.57-2.46h-5.88v-1.28h8.99v1.28h-1.55c-.34.57-.5,1.39-.5,2.46v7.92h-1.62v-7.92Z"/>
        <path class="cls-1" d="m358.28,44.19c0-1.08.19-1.9.57-2.46h-5.88v-1.28h8.99v1.28h-1.55c-.34.57-.5,1.39-.5,2.46v7.92h-1.62v-7.92Z"/>
        <path class="cls-1" d="m364.74,42.92l-.27-2.46h1.6l.29,2.46v9.2h-1.62v-9.2Z"/>
        <path class="cls-1" d="m350.33,50.4c.25.34.37.8.37,1.39,0,.85-.23,1.61-.7,2.28-.47.67-1.1,1.17-1.9,1.52l-.4-.92c.57-.25,1.02-.6,1.33-1.03.32-.43.48-.94.49-1.51-.04.01-.11.02-.21.02-.34,0-.62-.1-.84-.3-.22-.2-.34-.48-.34-.83s.12-.61.36-.81c.24-.2.52-.3.84-.3.42,0,.75.17,1,.5Z"/>
        <path class="cls-1" d="m337.1,37.9l1.97-.19c-.31,1.36-1.05,3.59-1.74,4.96l-1.47.15c.46-1.36.97-3.23,1.24-4.91Zm3.95,0l1.97-.19c-.31,1.36-1.05,3.59-1.74,4.96l-1.45.15c.44-1.36.97-3.23,1.22-4.91Z"/>
        <path class="cls-1" d="m294.15,37.95l1.97-.19c-.31,1.36-1.05,3.59-1.74,4.96l-1.47.15c.46-1.36.97-3.23,1.24-4.91Zm3.95,0l1.97-.19c-.31,1.36-1.05,3.59-1.74,4.96l-1.45.15c.44-1.36.97-3.23,1.22-4.91Z"/>
        <path class="cls-1" d="m319.56,41.52c.62.71.92,1.75.92,3.14v7.46h-1.62v-7.52c0-.94-.19-1.65-.58-2.13s-.95-.72-1.69-.72h-3.57v10.37h-1.62v-11.65h5.54c1.12,0,1.99.35,2.6,1.06Z"/>
        <path class="cls-1" d="m307,44.29c0-.91-.2-1.56-.59-1.96s-.95-.6-1.68-.6h-3.72v-1.28h4.07c2.35,0,3.53,1.3,3.53,3.91v7.75h-1.62v-7.81Z"/>
      </g>
      <g>
        <path class="cls-1" d="m502.58,137.73l-1.28-10.58-.15-1.28h5.73c1.23,0,2.19.38,2.89,1.14.69.76,1.06,1.8,1.1,3.12l.02.65c.14,4.38-2.63,6.7-8.32,6.95Zm5.38-2.94c.97-.81,1.41-2.16,1.32-4.05v-.5c0-.91-.22-1.65-.66-2.23-.44-.57-1.06-.86-1.86-.86h-3.84l1.09,9.09c1.67-.15,2.98-.64,3.95-1.45Z"/>
        <path class="cls-1" d="m461.35,162.95l-1.28-10.58-.15-1.28h5.73c1.23,0,2.19.38,2.89,1.14.69.76,1.06,1.8,1.1,3.12l.02.65c.14,4.38-2.63,6.7-8.32,6.95Zm5.38-2.94c.97-.81,1.41-2.16,1.32-4.05v-.5c0-.91-.22-1.65-.66-2.23-.44-.57-1.06-.86-1.86-.86h-3.84l1.09,9.09c1.67-.15,2.98-.64,3.95-1.45Z"/>
        <path class="cls-1" d="m497.8,136.16c-.83,1.06-2.03,1.6-3.58,1.6-.53,0-1.11-.06-1.72-.19l.17-1.28c.46.11.94.17,1.43.17,1.16,0,2.02-.4,2.57-1.21.55-.81.83-2.01.83-3.6,0-3.05-1-4.58-3-4.58-.76,0-1.37.22-1.83.65-.46.43-.78,1-.95,1.7l-1.49,8.11h-1.62l1.55-8.17-1.62-3.49h1.68l1.05,2.52c.28-.88.73-1.54,1.34-1.99.62-.44,1.32-.66,2.1-.66,1.33,0,2.38.46,3.16,1.38.78.92,1.17,2.4,1.17,4.46s-.42,3.51-1.25,4.58Z"/>
        <path class="cls-1" d="m486.45,125.87v1.37l-4.05,10.29h-1.62l4.05-10.37h-6.51v-4.68h1.49v3.4h6.64Z"/>
        <path class="cls-1" d="m472.25,125.88v1.37l-4.05,10.29h-1.62l4.05-10.37h-6.51v-4.68h1.49v3.4h6.64Z"/>
        <path class="cls-1" d="m453.03,131.85l.23-1.41h1.39v7.08h-1.62v-5.67Zm7.2-2.14c0-.91-.2-1.56-.59-1.96-.39-.4-.95-.6-1.68-.6h-4.91v-1.28h5.27c2.35,0,3.53,1.3,3.53,3.91v7.75h-1.62v-7.81Z"/>
        <path class="cls-1" d="m426,131.87l.23-1.41h1.39v7.08h-1.62v-5.67Zm7.2-2.14c0-.91-.2-1.56-.59-1.96-.39-.4-.95-.6-1.68-.6h-4.91v-1.28h5.27c2.35,0,3.53,1.3,3.53,3.91v7.75h-1.62v-7.81Z"/>
        <path class="cls-1" d="m494.35,157.05l.23-1.41h1.39v7.08h-1.62v-5.67Zm7.2-2.14c0-.91-.2-1.56-.59-1.96-.39-.4-.95-.6-1.68-.6h-4.91v-1.28h5.27c2.35,0,3.53,1.3,3.53,3.91v7.75h-1.62v-7.81Z"/>
        <path class="cls-1" d="m449.25,137.53l-.53-2.86c-.41.77-.91,1.41-1.5,1.93-.6.52-1.31.92-2.13,1.22l-.59-1.3c.94-.34,1.73-.78,2.37-1.32s1.17-1.25,1.58-2.1v-3.86c0-.7-.09-1.21-.26-1.52-.17-.32-.51-.51-1-.6l-1.35-.21.23-1.26,1.76.27c.81.13,1.39.44,1.72.95s.5,1.25.5,2.25v4.05l.73,4.37h-1.55Z"/>
        <path class="cls-1" d="m437.22,136.24h3.65v-6.99c0-.69-.14-1.19-.41-1.52-.27-.33-.68-.54-1.23-.62l-1.41-.21.23-1.26,1.83.27c.84.14,1.48.49,1.93,1.04.45.55.67,1.31.67,2.26v8.32h-5.27v-1.28Z"/>
        <path class="cls-1" d="m476.49,161.45h3.65v-6.99c0-.69-.14-1.19-.41-1.52-.27-.33-.68-.54-1.23-.62l-1.41-.21.23-1.26,1.83.27c.84.14,1.48.49,1.93,1.04.45.55.67,1.31.67,2.26v8.32h-5.27v-1.28Z"/>
        <path class="cls-1" d="m379.54,161.45h3.65v-6.99c0-.69-.14-1.19-.41-1.52-.27-.33-.68-.54-1.23-.62l-1.41-.21.23-1.26,1.83.27c.84.14,1.48.49,1.93,1.04.45.55.67,1.31.67,2.26v8.32h-5.27v-1.28Z"/>
        <path class="cls-1" d="m417.49,128.34l-.27-2.46h1.6l.29,2.46v9.2h-1.62v-9.2Z"/>
        <path class="cls-1" d="m373.59,128.34l-.27-2.46h1.6l.29,2.46v9.2h-1.62v-9.2Z"/>
        <path class="cls-1" d="m415.06,136.24v1.28h-9.16v-1.28h6.05v-6.53c0-.91-.2-1.56-.59-1.96-.39-.4-.95-.6-1.68-.6h-3.78v-1.28h4.14c2.35,0,3.53,1.3,3.53,3.91v6.47h1.49Z"/>
        <path class="cls-1" d="m401.75,128.34l-.27-2.46h1.6l.29,2.46v3.13l-.02,1.32-1.6.34v-4.79Z"/>
        <path class="cls-1" d="m472.41,153.53l-.27-2.46h1.6l.29,2.46v3.13l-.02,1.32-1.6.34v-4.79Z"/>
        <path class="cls-1" d="m455.84,153.53l-.27-2.46h1.6l.29,2.46v3.13l-.02,1.32-1.6.34v-4.79Z"/>
        <path class="cls-1" d="m443.41,153.53l-.27-2.46h1.6l.29,2.46v3.13l-.02,1.32-1.6.34v-4.79Z"/>
        <path class="cls-1" d="m389.52,125.88h1.62l1.22,10.37c1.62-.17,2.92-.7,3.9-1.6.97-.9,1.42-2.26,1.35-4.09v-.53c0-.87-.22-1.57-.67-2.1-.45-.53-1.12-.83-2.02-.88l-1.05-.06.11-1.3,1.18.08c1.23.07,2.2.44,2.91,1.11s1.08,1.65,1.12,2.94l.02.59c.08,2.41-.63,4.2-2.14,5.38-1.51,1.18-3.56,1.83-6.13,1.95l-1.41-11.86Z"/>
        <path class="cls-1" d="m386.14,126.95c.62.71.92,1.75.92,3.14v7.46h-1.62v-7.52c0-.94-.19-1.65-.58-2.13-.38-.48-.95-.72-1.69-.72h-3.57v10.38h-1.62v-11.66h5.54c1.12,0,1.99.35,2.6,1.06Z"/>
        <path class="cls-1" d="m422.51,152.13c.62.71.92,1.75.92,3.14v7.46h-1.62v-7.52c0-.94-.19-1.65-.58-2.13s-.95-.72-1.69-.72h-3.57v10.37h-1.62v-11.66h5.54c1.12,0,1.99.35,2.6,1.06Z"/>
        <path class="cls-1" d="m368.9,128.34l-.27-2.46h1.6l.29,2.46v13.4h-1.62v-13.4Z"/>
        <path class="cls-1" d="m363.92,137.43c-.22-.23-.34-.52-.34-.87s.11-.66.34-.89c.22-.23.5-.35.82-.35s.59.12.82.35c.22.23.34.53.34.89s-.11.64-.34.87c-.22.23-.5.35-.82.35s-.6-.12-.82-.35Z"/>
        <path class="cls-1" d="m506.52,148.52l1.97-.19c-.31,1.37-1.05,3.59-1.74,4.96l-1.47.15c.46-1.37.97-3.23,1.24-4.91Zm3.95,0l1.97-.19c-.31,1.37-1.05,3.59-1.74,4.96l-1.45.15c.44-1.37.97-3.23,1.22-4.91Z"/>
        <path class="cls-1" d="m350.71,148.54l1.97-.19c-.31,1.36-1.05,3.59-1.74,4.96l-1.47.15c.46-1.36.97-3.23,1.24-4.91Zm3.95,0l1.97-.19c-.31,1.36-1.05,3.59-1.74,4.96l-1.45.15c.44-1.36.97-3.23,1.22-4.91Z"/>
        <path class="cls-1" d="m447.48,161.45h3.65v-6.99c0-.69-.14-1.19-.41-1.52-.27-.33-.68-.54-1.23-.62l-1.41-.21.23-1.26,1.83.27c.84.14,1.48.49,1.93,1.04.45.55.67,1.31.67,2.26v8.32h-5.27v-1.28Z"/>
        <path class="cls-1" d="m425.33,161.86c.83-.07,1.4-.3,1.71-.7.31-.4.47-1,.47-1.82v-8.27h5.14c2.35,0,3.53,1.3,3.53,3.91v7.75h-1.62v-7.81c0-.91-.2-1.56-.59-1.96-.39-.4-.95-.6-1.68-.6h-3.17v6.83c0,1.23-.29,2.15-.86,2.76-.57.61-1.5.97-2.77,1.08l-.17-1.15Z"/>
        <path class="cls-1" d="m400.8,161.87c.83-.07,1.4-.3,1.71-.7.31-.4.47-1,.47-1.82v-8.27h5.14c2.35,0,3.53,1.3,3.53,3.91v7.75h-1.62v-7.81c0-.91-.2-1.56-.59-1.96-.39-.4-.95-.6-1.68-.6h-3.17v6.83c0,1.23-.29,2.15-.86,2.76-.57.61-1.5.97-2.77,1.08l-.17-1.16Z"/>
        <path class="cls-1" d="m387.19,161.45h2.77c1.13,0,1.99-.33,2.56-.99.57-.66.86-1.62.86-2.9v-1.32c0-1.27-.29-2.24-.86-2.9-.57-.66-1.43-.99-2.56-.99h-2.77v-1.28h3.09c1.51,0,2.68.45,3.5,1.34.82.9,1.23,2.19,1.23,3.88v1.2c0,1.69-.41,2.99-1.23,3.88-.82.9-1.98,1.34-3.5,1.34h-3.09v-1.28Z"/>
        <path class="cls-1" d="m368.75,161.46h3.44c1.09,0,1.96-.3,2.61-.91.65-.61.98-1.61.98-3.01v-1.28c0-1.27-.25-2.24-.73-2.9-.49-.66-1.23-.99-2.23-.99h-2.21l-.55,2.33c-.08.39-.13.74-.13,1.05,0,.48.13.85.39,1.11.26.27.69.46,1.29.57l-.34,1.11c-.98-.1-1.69-.37-2.13-.83-.44-.46-.66-1.09-.66-1.9,0-.39.04-.8.13-1.24l.8-3.49h3.68c1.36,0,2.41.45,3.16,1.34s1.13,2.18,1.14,3.86v1.18c0,1.82-.46,3.15-1.37,4-.91.85-2.1,1.27-3.57,1.27h-3.72v-1.28Z"/>
        <path class="cls-1" d="m364.09,154.92c0-.91-.2-1.56-.59-1.96-.39-.4-.95-.6-1.68-.6h-4.07v-1.28h4.43c2.35,0,3.53,1.3,3.53,3.91v11.95h-1.62v-12.01Z"/>
        <path class="cls-1" d="m484.15,161.45h2.77c1.13,0,1.99-.33,2.56-.99.57-.66.86-1.62.86-2.9v-1.32c0-1.27-.29-2.24-.86-2.9-.57-.66-1.43-.99-2.56-.99h-2.77v-1.28h3.09c1.51,0,2.68.45,3.5,1.34.82.9,1.23,2.19,1.23,3.88v1.2c0,1.69-.41,2.99-1.23,3.88-.82.9-1.98,1.34-3.5,1.34h-3.09v-1.28Z"/>
      </g>
    </g>
  </g>
</svg>