<?xml version="1.0" encoding="UTF-8"?>
<svg id="Layer_2" data-name="Layer 2" xmlns="http://www.w3.org/2000/svg" viewBox="0 0 571.76 571.8">
  <defs>
    <style>
      .cls-1, .cls-2 {
        stroke-width: 0px;
      }

      .cls-2 {
        fill: #fcfcfc;
      }
    </style>
  </defs>
  <g id="Layer_5" data-name="Layer 5">
    <g>
      <path class="cls-2" d="m569.99,116.34c-3.83-10.26-13.34-17.39-24.23-18.2l-5.48-.43c4.45-14.16,1.08-30.26-10.1-41.47l-11.66-11.72-.02-.02-.02-.02c-7.79-7.79-18.11-12.07-29.08-12.07-5.14,0-10.2.98-14.93,2.82l-.71-9.22c-.55-7.48-3.96-14.27-9.59-19.14-5.13-4.43-11.7-6.87-18.51-6.87-7.5,0-14.56,2.92-19.86,8.23l-75.88,75.88c-11.25,11.25-17.03,26.82-15.86,42.72l.19,2.9v.11s.01.11.01.11l.83,10.79c-32.43-17.11-68.75-26.19-106.46-26.19-61.07,0-118.48,23.78-161.66,66.96C23.78,224.69,0,282.1,0,343.17s23.78,118.48,66.96,161.66c43.18,43.18,100.59,66.96,161.66,66.96s118.48-23.78,161.66-66.96c43.18-43.18,66.96-100.59,66.96-161.66,0-37.7-9.08-74.01-26.17-106.43l11.87.91h.08s.08.01.08.01l1.86.13c1.64.12,3.03.12,4.05.12,14.53,0,28.24-5.65,38.61-15.9l.04-.04.04-.04,75.82-75.82c7.77-7.77,10.3-19.45,6.45-29.76Zm-194.93,373.26c-39.12,39.11-91.12,60.65-146.44,60.65s-107.32-21.54-146.44-60.65c-39.12-39.12-60.66-91.12-60.66-146.44s21.54-107.32,60.66-146.44c39.12-39.11,91.12-60.66,146.44-60.66,38.9,0,76.15,10.67,108.45,30.59l.07.92-20.44,20.44-18.95,18.95c-20.77-10.58-44.26-16.56-69.13-16.56-84.23,0-152.75,68.52-152.75,152.75s68.52,152.75,152.75,152.75,152.75-68.52,152.75-152.75c0-23.35-5.27-45.49-14.68-65.3l19.96-19.96,20.25-20.25c18.78,31.61,28.81,67.79,28.81,105.51,0,55.32-21.54,107.32-60.66,146.44Zm0-292.87c7.15,7.15,13.7,14.73,19.65,22.67l-23.28,23.28-15.77,15.77c-10.43-15.59-23.65-29.16-38.94-40l15.2-15.2,23.7-23.7c6.77,5.28,13.26,11.01,19.43,17.18Zm173.25-65.85l-75.81,75.82c-6.3,6.23-14.71,9.68-23.46,9.68-.8,0-1.66,0-2.52-.07l-1.92-.13-27.21-2.08c-7.93-11.55-16.98-22.46-27.1-32.59-10.12-10.12-21.02-19.15-32.56-27.08l-2-26.13-.2-2.98c-.73-9.68,2.78-19.15,9.61-25.98l75.88-75.88c1.33-1.33,2.98-1.92,4.64-1.92,3.24,0,6.36,2.32,6.63,6.1l3.98,51.36,19.29-19.29c3.78-3.84,8.88-5.77,13.85-5.77s10.01,1.92,13.85,5.77l11.67,11.73c7.69,7.69,7.69,20.08,0,27.77l-16.83,16.83,46.06,3.58c5.63.4,8.15,7.29,4.17,11.27Z"/>
      <g>
        <g>
          <path class="cls-1" d="m228.63,550.26c-55.32,0-107.32-21.54-146.44-60.65-39.12-39.12-60.66-91.12-60.66-146.44s21.54-107.32,60.66-146.44c39.12-39.11,91.12-60.66,146.44-60.66s107.32,21.54,146.44,60.66c39.12,39.12,60.66,91.12,60.66,146.44s-21.54,107.32-60.66,146.44c-39.12,39.11-91.12,60.65-146.44,60.65Zm0-359.84c-84.23,0-152.75,68.52-152.75,152.75s68.52,152.75,152.75,152.75,152.75-68.52,152.75-152.75-68.52-152.75-152.75-152.75Z"/>
          <path class="cls-1" d="m228.63,463.82c-66.52,0-120.64-54.12-120.64-120.64s54.12-120.65,120.64-120.65,120.65,54.12,120.65,120.65-54.12,120.64-120.65,120.64Zm0-188.27c-37.29,0-67.63,30.34-67.63,67.63s30.34,67.63,67.63,67.63,67.63-30.34,67.63-67.63-30.34-67.63-67.63-67.63Z"/>
        </g>
        <path class="cls-1" d="m498.08,116.04l16.83-16.83c7.69-7.69,7.69-20.08,0-27.77l-11.67-11.73c-3.84-3.84-8.88-5.77-13.85-5.77s-10.07,1.92-13.85,5.77l-19.29,19.29-3.98-51.36c-.26-3.78-3.38-6.1-6.63-6.1-1.66,0-3.31.6-4.64,1.92l-75.88,75.88c-6.83,6.83-10.34,16.3-9.61,25.98l.2,2.98,3.65,47.52-27.44,27.44-49.37,49.37-1.12,1.13-47.78,47.78-21.21,21.21c-2.78,2.78-4.51,6.49-4.77,10.4l-1.33,16.63c-.79,9.68,6.89,17.89,16.5,17.89h.86l17.56-.86c4.11-.2,8.02-1.92,10.87-4.84l21.01-21.01,47.78-47.78,1.13-1.13,49.37-49.37,29.82-29.82,43.34,3.31,1.92.13c.86.07,1.72.07,2.52.07,8.75,0,17.17-3.45,23.46-9.68l75.81-75.82c3.98-3.98,1.46-10.87-4.17-11.27l-46.06-3.58Z"/>
      </g>
    </g>
  </g>
</svg>